<?xml version="1.0" standalone="no"?>
<!DOCTYPE svg PUBLIC "-//W3C//DTD SVG 1.1//EN" "http://www.w3.org/Graphics/SVG/1.1/DTD/svg11.dtd" >
<svg xmlns="http://www.w3.org/2000/svg" xmlns:xlink="http://www.w3.org/1999/xlink" version="1.1">
<metadata>
Created by FontForge 20201107 at Wed Jan 23 17:11:45 2013
 By Jimmy Wärting
Copyright (c) 2012 by TypeTogether. All rights reserved.
</metadata>
<defs>
<font id="TabletGothic-ExtraBold" horiz-adv-x="580" >
  <font-face 
    font-family="Tablet Gothic Eb"
    font-weight="800"
    font-stretch="normal"
    units-per-em="1000"
    panose-1="2 0 5 3 0 0 0 2 0 4"
    ascent="755"
    descent="-245"
    x-height="516"
    cap-height="734"
    bbox="-171 -277 1102 1101"
    underline-thickness="50"
    underline-position="-100"
    stemh="137"
    stemv="195"
    unicode-range="U+0020-FB04"
  />
<missing-glyph horiz-adv-x="178" 
 />
    <glyph glyph-name="ij" unicode="ij" horiz-adv-x="553" 
d="M43 595v139h195v-139h-195zM43 0v516h195v-516h-195zM323 595v139h196v-139h-196zM174 -182l18 132c21 -5 41 -7 60 -7c51 0 71 17 71 81v492h196v-479c0 -202 -112 -232 -228 -232c-43 0 -98 8 -117 13z" />
    <glyph glyph-name="ff" unicode="ff" horiz-adv-x="715" 
d="M264 386v-386h-196v386h-59v130h59c2 174 91 226 219 226c44 0 91 -8 110 -13l-22 -138c-21 6 -39 7 -51 7c-39 0 -60 -19 -60 -82h140c0 178 90 231 219 231c53 0 99 -9 118 -14l-22 -138c-21 6 -47 8 -59 8c-39 0 -60 -19 -60 -83v-4h107v-130h-107v-386h-196v386h-140
z" />
    <glyph glyph-name="fi" unicode="fi" horiz-adv-x="642" 
d="M362 737v-141c-11 2 -22 5 -40 5c-38 0 -58 -17 -58 -68v-17h336v-516h-196v386h-140v-386h-196v386h-59v130h59c0 178 87 231 216 231c31 0 59 -5 78 -10zM404 595v139h196v-139h-196z" />
    <glyph glyph-name="fl" unicode="fl" horiz-adv-x="642" 
d="M362 737v-141c-11 2 -22 5 -40 5c-38 0 -58 -17 -58 -68v-17h97v-130h-97v-386h-196v386h-59v130h59c0 178 87 231 216 231c31 0 59 -5 78 -10zM600 734v-734h-196v734h196z" />
    <glyph glyph-name="ffi" unicode="ffi" horiz-adv-x="978" 
d="M698 737v-141c-11 2 -22 5 -40 5c-38 0 -58 -17 -58 -68v-17h336v-516h-196v386h-140v-386h-196v386h-140v-386h-196v386h-59v130h59c2 174 91 226 219 226c44 0 91 -8 110 -13l-22 -138c-21 6 -39 7 -51 7c-39 0 -60 -19 -60 -82h140c0 178 87 231 216 231
c31 0 59 -5 78 -10zM740 595v139h196v-139h-196z" />
    <glyph glyph-name="ffl" unicode="ffl" horiz-adv-x="978" 
d="M698 737v-141c-11 2 -22 5 -40 5c-38 0 -58 -17 -58 -68v-17h97v-130h-97v-386h-196v386h-140v-386h-196v386h-59v130h59c2 174 91 226 219 226c44 0 91 -8 110 -13l-22 -138c-21 6 -39 7 -51 7c-39 0 -60 -19 -60 -82h140c0 178 87 231 216 231c31 0 59 -5 78 -10z
M936 734v-734h-196v734h196z" />
    <glyph glyph-name="t_t" unicode="tt" horiz-adv-x="749" 
d="M264 389v-178c0 -64 12 -84 58 -84c13 0 24 2 45 8l17 -127c-27 -12 -74 -20 -119 -20c-107 0 -197 40 -197 195v206h-59v127h59v102l196 52v-154h148v102l196 52v-154h107v-127h-107v-178c0 -64 17 -84 63 -84c13 0 30 3 51 9l17 -127c-27 -12 -71 -21 -123 -21
c-114 0 -204 40 -204 195v206h-148z" />
    <glyph glyph-name=".notdef" horiz-adv-x="178" 
 />
    <glyph glyph-name="space" unicode=" " horiz-adv-x="178" 
 />
    <glyph glyph-name="quotesingle" unicode="'" horiz-adv-x="229" 
d="M48 734h133l-19 -216h-106z" />
    <glyph glyph-name="quotedbl" unicode="&#x22;" horiz-adv-x="395" 
d="M214 734h133l-19 -216h-106zM48 734h133l-19 -216h-106z" />
    <glyph glyph-name="numbersign" unicode="#" horiz-adv-x="656" 
d="M486 0h-153l14 95h-94l-15 -95h-151l14 95h-62l20 128h61l17 121h-66l20 129h65l13 82h151l-12 -82h94l13 82h153l-13 -82h62l-20 -129h-61l-17 -121h68l-20 -128h-67zM366 223l18 121h-95l-18 -121h95z" />
    <glyph glyph-name="ampersand" unicode="&#x26;" horiz-adv-x="751" 
d="M408 178l-124 126c-36 -22 -53 -58 -53 -91c0 -44 28 -70 75 -70c39 0 72 12 102 35zM555 520l-169 17c5 14 6 32 6 39c0 24 -13 42 -44 42c-28 0 -45 -15 -45 -45s18 -53 45 -81l169 -176c13 31 17 61 26 106l174 -16c-16 -90 -34 -154 -68 -224l82 -85l-129 -120
l-82 84c-59 -39 -143 -73 -256 -73c-168 0 -236 89 -236 196c0 86 34 164 157 225c-53 54 -71 99 -71 148c0 112 88 189 235 189c134 0 213 -67 213 -160c0 -17 -2 -44 -7 -66z" />
    <glyph glyph-name="asterisk" unicode="*" horiz-adv-x="385" 
d="M144 734h99l-31 -129l112 69l31 -96l-132 -8l100 -87l-83 -58l-48 116l-52 -115l-81 59l102 87l-131 9l30 96l114 -72z" />
    <glyph glyph-name="comma" unicode="," horiz-adv-x="307" 
d="M55 0v153h195v-123l-93 -183l-70 21l25 132h-57z" />
    <glyph glyph-name="hyphen" unicode="-" horiz-adv-x="308" 
d="M289 179h-271v151h271v-151z" />
    <glyph glyph-name="period" unicode="." horiz-adv-x="304" 
d="M54 0v153h196v-153h-196z" />
    <glyph glyph-name="colon" unicode=":" horiz-adv-x="304" 
d="M54 0v153h196v-153h-196zM54 363v153h196v-153h-196z" />
    <glyph glyph-name="semicolon" unicode=";" horiz-adv-x="307" 
d="M54 363v153h196v-153h-196zM55 0v153h195v-123l-93 -183l-70 21l25 132h-57z" />
    <glyph glyph-name="question" unicode="?" horiz-adv-x="500" 
d="M312 521c0 54 -21 80 -56 80c-36 0 -54 -30 -58 -93l-178 11c3 141 79 228 246 228c149 0 241 -86 241 -230c0 -148 -77 -210 -174 -234l-7 -80h-179l-10 191c128 4 175 43 175 127zM136 0v153h196v-153h-196z" />
    <glyph glyph-name="exclam" unicode="!" horiz-adv-x="354" 
d="M267 212h-178l-16 522h208zM78 0v153h196v-153h-196z" />
    <glyph glyph-name="exclamdown" unicode="&#xa1;" horiz-adv-x="354" 
d="M89 317h178l14 -522h-208zM78 376v153h196v-153h-196z" />
    <glyph glyph-name="questiondown" unicode="&#xbf;" horiz-adv-x="500" 
d="M188 8c0 84 47 123 175 127l-10 191h-179l-7 -80c-97 -24 -174 -86 -174 -234c0 -144 92 -230 241 -230c167 0 243 87 246 228l-178 11c-4 -63 -22 -93 -58 -93c-35 0 -56 26 -56 80zM364 529v-153h-196v153h196z" />
    <glyph glyph-name="at" unicode="@" horiz-adv-x="815" 
d="M620 -16l50 -75c-59 -59 -155 -85 -255 -85c-243 0 -376 128 -376 367c0 228 156 377 386 377c198 0 351 -104 351 -318c0 -175 -58 -252 -167 -252c-69 0 -113 26 -127 60c-19 -37 -63 -66 -127 -66c-96 0 -146 73 -146 165c0 136 59 240 179 240c51 0 84 -25 101 -54
l13 48h109l-24 -225c-7 -53 -16 -93 32 -93c47 0 59 60 59 162c0 177 -93 249 -263 249c-178 0 -270 -124 -270 -297c0 -197 115 -274 271 -274c95 0 159 28 204 71zM467 165l5 62c5 50 -8 85 -57 85c-68 0 -83 -81 -83 -148c0 -51 13 -85 60 -85c50 0 70 39 75 86z" />
    <glyph glyph-name="at.case" horiz-adv-x="815" 
d="M620 153l50 -75c-59 -59 -155 -85 -255 -85c-243 0 -376 128 -376 367c0 228 156 377 386 377c198 0 351 -104 351 -318c0 -175 -58 -252 -167 -252c-69 0 -113 26 -127 60c-19 -37 -63 -66 -127 -66c-96 0 -146 73 -146 165c0 136 59 240 179 240c51 0 84 -25 101 -54
l13 48h109l-24 -225c-7 -53 -16 -93 32 -93c47 0 59 60 59 162c0 177 -93 249 -263 249c-178 0 -270 -124 -270 -297c0 -197 115 -274 271 -274c95 0 159 28 204 71zM467 334l5 62c5 50 -8 85 -57 85c-68 0 -83 -81 -83 -148c0 -51 13 -85 60 -85c50 0 70 39 75 86z" />
    <glyph glyph-name="A" unicode="A" horiz-adv-x="725" 
d="M236 734h246l243 -734h-204l-48 150h-229l-46 -150h-198zM431 302l-73 247h-3l-72 -247h148z" />
    <glyph glyph-name="B" unicode="B" horiz-adv-x="655" 
d="M350 0h-277v734h283c171 0 244 -62 244 -188c0 -92 -74 -146 -139 -161v-4c108 -7 166 -72 166 -171c0 -148 -97 -210 -277 -210zM273 158h57c72 0 100 19 100 72c0 38 -21 66 -78 66h-79v-138zM273 446h20c69 0 106 11 106 68c0 37 -11 64 -68 64h-58v-132z" />
    <glyph glyph-name="C" unicode="C" horiz-adv-x="666" 
d="M350 145c54 0 79 33 85 109l193 -14c-19 -175 -115 -252 -287 -252c-190 0 -308 122 -308 367c0 270 135 392 327 392c180 0 273 -104 277 -268l-199 -15c1 101 -36 127 -88 127c-57 0 -106 -46 -106 -232c0 -165 47 -214 106 -214z" />
    <glyph glyph-name="D" unicode="D" horiz-adv-x="703" 
d="M281 0h-208v734h211c273 0 386 -129 386 -345c0 -253 -109 -389 -389 -389zM274 163h35c92 0 156 50 156 210s-62 199 -159 199h-32v-409z" />
    <glyph glyph-name="E" unicode="E" horiz-adv-x="581" 
d="M499 452v-157h-225v-132h268v-163h-469v734h456v-162h-255v-120h225z" />
    <glyph glyph-name="F" unicode="F" horiz-adv-x="553" 
d="M497 427v-155h-223v-272h-201v734h456v-162h-255v-145h223z" />
    <glyph glyph-name="G" unicode="G" horiz-adv-x="704" 
d="M380 240v140h278v-392h-120l-22 79c-43 -48 -108 -79 -180 -79c-188 0 -303 125 -303 363c0 285 143 396 335 396c166 0 263 -92 267 -268l-199 -15c-2 107 -37 127 -82 127c-60 0 -110 -48 -110 -233c0 -171 56 -215 126 -215c50 0 102 23 112 97h-102z" />
    <glyph glyph-name="H" unicode="H" horiz-adv-x="757" 
d="M683 734v-734h-200v281h-209v-281h-201v734h201v-288h209v288h200z" />
    <glyph glyph-name="I" unicode="I" horiz-adv-x="432" 
d="M316 611v-488h73v-123h-345v123h72v488h-71v123h344v-123h-73z" />
    <glyph glyph-name="J" unicode="J" horiz-adv-x="589" 
d="M9 254l190 11c4 -66 10 -120 68 -120c42 0 60 25 60 104v485h199v-488c0 -183 -102 -258 -264 -258c-163 0 -255 83 -253 266z" />
    <glyph glyph-name="K" unicode="K" horiz-adv-x="743" 
d="M274 734v-273l221 273h224l-250 -298l275 -436h-236l-174 276l-60 -72v-204h-201v734h201z" />
    <glyph glyph-name="L" unicode="L" horiz-adv-x="554" 
d="M274 734v-571h239v-163h-440v734h201z" />
    <glyph glyph-name="M" unicode="M" horiz-adv-x="947" 
d="M575 0h-194l-115 495h-5v-495h-188v734h295l112 -538h3l103 538h288v-734h-188v496h-5z" />
    <glyph glyph-name="N" unicode="N" horiz-adv-x="768" 
d="M695 0h-219l-217 422v-422h-186v734h229l207 -435v435h186v-734z" />
    <glyph glyph-name="O" unicode="O" horiz-adv-x="724" 
d="M359 -12c-219 0 -326 138 -326 375c0 245 133 384 338 384c214 0 319 -136 319 -372c0 -246 -114 -387 -331 -387zM363 143c74 0 117 55 117 230c0 162 -41 215 -115 215c-66 0 -121 -51 -121 -219c0 -165 40 -226 119 -226z" />
    <glyph glyph-name="P" unicode="P" horiz-adv-x="645" 
d="M273 249v-249h-200v734h298c177 0 250 -87 250 -228c0 -103 -32 -257 -282 -257h-66zM273 397h39c64 0 108 17 108 92c0 48 -15 89 -86 89h-61v-181z" />
    <glyph glyph-name="Q" unicode="Q" horiz-adv-x="724" 
d="M462 -168l-115 157c-211 5 -314 141 -314 374c0 245 133 384 338 384c214 0 319 -136 319 -372c0 -169 -54 -289 -158 -347l78 -127zM363 143c74 0 117 55 117 230c0 162 -41 215 -115 215c-66 0 -121 -51 -121 -219c0 -165 40 -226 119 -226z" />
    <glyph glyph-name="R" unicode="R" horiz-adv-x="667" 
d="M273 278v-278h-200v734h298c178 0 250 -88 250 -218c0 -75 -17 -167 -121 -211l138 -305h-213l-117 278h-35zM273 426h44c57 0 103 10 103 75c0 44 -21 77 -86 77h-61v-152z" />
    <glyph glyph-name="S" unicode="S" horiz-adv-x="651" 
d="M610 549l-196 -39c-14 58 -48 83 -91 83s-67 -16 -67 -52c0 -50 58 -65 127 -82c104 -26 235 -53 235 -216c0 -177 -133 -255 -286 -255c-179 0 -285 74 -310 227l207 28c11 -53 35 -96 108 -96c47 0 77 17 77 55c0 56 -65 70 -141 89c-104 26 -230 60 -230 229
c0 140 119 228 288 228c151 0 252 -55 279 -199z" />
    <glyph glyph-name="T" unicode="T" horiz-adv-x="576" 
d="M188 0v572h-186v162h572v-162h-186v-572h-200z" />
    <glyph glyph-name="U" unicode="U" horiz-adv-x="728" 
d="M469 331v403h196v-467c0 -178 -94 -279 -306 -279c-223 0 -296 109 -296 286v460h196v-403c0 -119 9 -185 106 -185s104 61 104 185z" />
    <glyph glyph-name="V" unicode="V" horiz-adv-x="712" 
d="M513 734h199l-230 -734h-246l-236 734h205l156 -549h3z" />
    <glyph glyph-name="W" unicode="W" horiz-adv-x="1032" 
d="M850 0h-247l-87 412h-5l-87 -412h-246l-163 734h205l83 -549h3l125 549h173l124 -549h3l87 549h199z" />
    <glyph glyph-name="X" unicode="X" horiz-adv-x="700" 
d="M223 0h-224l211 379l-204 355h231l111 -229h4l113 229h222l-201 -353l215 -381h-235l-121 235h-4z" />
    <glyph glyph-name="Y" unicode="Y" horiz-adv-x="669" 
d="M438 272v-272h-197v268l-257 466h222l134 -279l138 279h207z" />
    <glyph glyph-name="Z" unicode="Z" horiz-adv-x="608" 
d="M25 572v162h537v-149l-293 -422h297v-163h-544v150l294 422h-291z" />
    <glyph glyph-name="a" unicode="a" horiz-adv-x="553" 
d="M538 116l5 -112c-116 -28 -189 -15 -215 59c-29 -46 -76 -75 -157 -75c-114 0 -154 72 -154 151c0 140 124 152 286 169v13c0 54 -4 84 -46 84c-31 0 -47 -19 -38 -67l-177 -17c-17 119 40 207 222 207c177 0 231 -83 231 -210v-170c0 -26 7 -38 43 -32zM303 184v22
c-73 -9 -93 -25 -93 -59c0 -29 25 -40 38 -40c39 0 55 39 55 77z" />
    <glyph glyph-name="b" unicode="b" horiz-adv-x="584" 
d="M219 0h-176v734h195v-277h1c21 33 68 71 147 71c88 0 178 -61 178 -256c0 -200 -93 -284 -203 -284c-66 0 -115 27 -132 63h-3zM233 261c0 -89 16 -150 62 -150c37 0 69 34 69 161c0 113 -33 132 -60 132c-53 0 -71 -50 -71 -143z" />
    <glyph glyph-name="c" unicode="c" horiz-adv-x="536" 
d="M523 318l-174 -15c-3 71 -34 87 -61 87c-33 0 -70 -20 -70 -127c0 -111 28 -138 69 -138c27 0 52 11 63 72l172 -11c-19 -152 -131 -198 -241 -198c-184 0 -263 111 -263 268c0 173 105 272 274 272c151 0 225 -89 231 -210z" />
    <glyph glyph-name="d" unicode="d" 
d="M347 734h196v-734h-176l-12 60h-2c-17 -35 -65 -72 -132 -72c-119 0 -201 69 -201 259c0 181 83 281 210 281c64 0 96 -24 116 -53h1v259zM352 258c0 107 -17 148 -66 148c-39 0 -63 -33 -63 -157c0 -102 19 -141 63 -141c54 0 66 67 66 150z" />
    <glyph glyph-name="e" unicode="e" horiz-adv-x="555" 
d="M362 183l167 -17c-33 -148 -144 -178 -246 -178c-179 0 -265 107 -265 264c0 177 109 276 275 276c180 0 260 -118 240 -307h-316c1 -67 25 -96 75 -96c36 0 59 17 70 58zM218 329h125c6 64 -27 77 -57 77c-41 0 -63 -25 -68 -77z" />
    <glyph glyph-name="f" unicode="f" horiz-adv-x="379" 
d="M9 386v130h59c0 178 90 231 219 231c53 0 99 -9 118 -14l-22 -138c-21 6 -47 8 -59 8c-39 0 -60 -19 -60 -83v-4h107v-130h-107v-386h-196v386h-59z" />
    <glyph glyph-name="g" unicode="g" 
d="M369 516h174v-447c0 -183 -106 -264 -274 -264c-139 0 -214 60 -236 160l180 31c3 -24 7 -55 60 -55c48 0 74 32 74 108v35h-1c-16 -30 -59 -63 -133 -63c-102 0 -193 53 -193 240c0 182 93 267 209 267c66 0 106 -21 126 -61h4zM352 267c0 88 -13 140 -64 140
c-47 0 -65 -46 -65 -140c0 -105 22 -126 60 -126c56 0 69 42 69 126z" />
    <glyph glyph-name="h" unicode="h" horiz-adv-x="588" 
d="M553 315v-315h-195v309c0 62 -21 76 -51 76c-53 0 -69 -40 -69 -107v-278h-195v734h194v-276h3c24 34 69 70 147 70c101 0 166 -62 166 -213z" />
    <glyph glyph-name="i" unicode="i" horiz-adv-x="281" 
d="M43 595v139h195v-139h-195zM43 0v516h195v-516h-195z" />
    <glyph glyph-name="j" unicode="j" horiz-adv-x="273" 
d="M42 595v139h196v-139h-196zM-107 -182l18 132c21 -5 41 -7 60 -7c51 0 71 17 71 81v492h196v-479c0 -202 -112 -232 -228 -232c-43 0 -98 8 -117 13z" />
    <glyph glyph-name="k" unicode="k" horiz-adv-x="596" 
d="M238 734v-371l127 153h223l-168 -184l183 -332h-226l-92 193l-47 -52v-141h-195v734h195z" />
    <glyph glyph-name="l" unicode="l" horiz-adv-x="281" 
d="M238 734v-734h-195v734h195z" />
    <glyph glyph-name="m" unicode="m" horiz-adv-x="882" 
d="M372 528c70 0 123 -31 150 -95c33 57 76 95 152 95c123 0 173 -94 173 -215v-313h-197v308c0 31 1 77 -47 77c-59 0 -61 -66 -61 -110v-275h-196v308c0 56 -11 77 -47 77c-40 0 -61 -28 -61 -110v-275h-195v516h177l6 -75h3c25 45 63 87 143 87z" />
    <glyph glyph-name="n" unicode="n" horiz-adv-x="588" 
d="M553 319v-319h-195v309c0 58 -19 76 -51 76c-53 0 -69 -42 -69 -109v-276h-195v516h177l6 -72h3c20 36 63 84 155 84c101 0 169 -58 169 -209z" />
    <glyph glyph-name="o" unicode="o" horiz-adv-x="582" 
d="M284 -12c-172 0 -266 102 -266 269c0 177 129 271 280 271c161 0 266 -92 266 -261c0 -185 -111 -279 -280 -279zM291 121c48 0 72 46 72 140c0 90 -22 130 -69 130c-48 0 -76 -41 -76 -133c0 -95 21 -137 73 -137z" />
    <glyph glyph-name="p" unicode="p" horiz-adv-x="582" 
d="M234 -183h-191v699h178l4 -61h2c25 42 75 73 149 73c101 0 187 -61 187 -256c0 -205 -92 -284 -208 -284c-51 0 -100 19 -120 52h-1v-223zM233 263c0 -98 17 -151 63 -151c45 0 69 48 69 160c0 89 -15 133 -64 133c-56 0 -68 -70 -68 -142z" />
    <glyph glyph-name="q" unicode="q" horiz-adv-x="577" 
d="M367 516h172v-699h-191v238h-1c-14 -28 -58 -67 -130 -67c-111 0 -200 60 -200 259c0 202 98 281 216 281c55 0 93 -21 119 -62h3zM349 258c0 97 -13 148 -64 148c-45 0 -65 -47 -65 -157c0 -90 11 -140 64 -140c55 0 65 64 65 149z" />
    <glyph glyph-name="r" unicode="r" horiz-adv-x="522" 
d="M506 295l-191 -10c7 64 2 97 -29 97c-42 0 -48 -59 -48 -146v-236h-195v516h177l6 -72h3c17 34 52 84 142 84c107 0 158 -72 135 -233z" />
    <glyph glyph-name="s" unicode="s" horiz-adv-x="509" 
d="M484 396l-169 -38c-8 28 -24 46 -57 46c-21 0 -43 -5 -43 -24c0 -66 276 -6 276 -207c0 -129 -129 -185 -238 -185c-138 0 -219 45 -242 154l174 24c10 -33 25 -55 69 -55c26 0 45 11 45 30c0 71 -272 9 -272 209c0 115 111 178 236 178c123 0 187 -40 221 -132z" />
    <glyph glyph-name="t" unicode="t" horiz-adv-x="404" 
d="M9 389v127h59v102l196 52v-154h107v-127h-107v-178c0 -64 17 -84 63 -84c13 0 30 3 51 9l17 -127c-27 -12 -71 -21 -123 -21c-114 0 -204 40 -204 195v206h-59z" />
    <glyph glyph-name="u" unicode="u" horiz-adv-x="590" 
d="M37 201v315h196v-308c0 -48 11 -76 51 -76c57 0 70 47 70 120v264h195v-516h-177l-6 74h-2c-25 -42 -67 -86 -159 -86c-103 0 -168 63 -168 213z" />
    <glyph glyph-name="v" unicode="v" horiz-adv-x="568" 
d="M402 0h-235l-158 516h207l69 -352h3l72 352h199z" />
    <glyph glyph-name="w" unicode="w" horiz-adv-x="879" 
d="M374 0h-226l-138 516h196l61 -350h3l68 350h221l68 -350h4l56 350h183l-127 -516h-233l-66 336h-3z" />
    <glyph glyph-name="x" unicode="x" horiz-adv-x="602" 
d="M211 0h-204l177 266l-171 250h210l76 -125h4l78 125h202l-169 -249l181 -267h-213l-87 129h-2z" />
    <glyph glyph-name="y" unicode="y" horiz-adv-x="567" 
d="M559 516l-171 -504c-54 -156 -107 -207 -234 -207c-46 0 -100 9 -118 16l17 125c19 -5 41 -9 60 -9c33 0 62 12 79 64l2 5l-184 510h209l66 -316h6l68 316h200z" />
    <glyph glyph-name="z" unicode="z" horiz-adv-x="506" 
d="M39 370v146h433v-134l-198 -234h205v-148h-443v135l200 235h-197z" />
    <glyph glyph-name="bracketleft" unicode="[" horiz-adv-x="383" 
d="M362 -15v-117h-303v915h301v-117l-106 -3v-676z" />
    <glyph glyph-name="bracketright" unicode="]" horiz-adv-x="383" 
d="M21 -132v117l108 2v676l-106 3v117h301v-915h-303z" />
    <glyph glyph-name="parenleft" unicode="(" horiz-adv-x="326" 
d="M207 802l116 -37c-61 -139 -92 -277 -92 -428c0 -157 33 -298 91 -447l-110 -46c-148 168 -195 298 -195 484c0 188 82 339 190 474z" />
    <glyph glyph-name="parenright" unicode=")" horiz-adv-x="326" 
d="M119 -152l-116 36c61 140 92 278 92 429c0 157 -33 297 -91 447l110 45c148 -167 195 -297 195 -483c0 -188 -82 -339 -190 -474z" />
    <glyph glyph-name="braceleft" unicode="{" horiz-adv-x="373" 
d="M103 468v140c0 136 101 167 237 174l14 -72c-54 -21 -59 -36 -59 -82v-167c0 -68 -36 -124 -126 -137v-2c86 -9 126 -57 126 -127v-170c0 -45 3 -61 60 -82l-14 -72c-115 5 -238 31 -238 156v146c0 44 -14 89 -82 90v106c68 9 82 48 82 99z" />
    <glyph glyph-name="braceright" unicode="}" horiz-adv-x="373" 
d="M270 608v-140c0 -51 14 -90 82 -99v-106c-68 -1 -82 -46 -82 -90v-146c0 -125 -123 -151 -238 -156l-14 72c57 21 60 37 60 82v170c0 70 40 118 126 127v2c-90 13 -126 69 -126 137v167c0 46 -5 61 -59 82l14 72c136 -7 237 -38 237 -174z" />
    <glyph glyph-name="backslash" unicode="\" horiz-adv-x="374" 
d="M155 796l236 -886l-164 -47l-236 883z" />
    <glyph glyph-name="slash" unicode="/" horiz-adv-x="480" 
d="M-24 -45l354 842l159 -63l-355 -843z" />
    <glyph glyph-name="brokenbar" unicode="&#xa6;" horiz-adv-x="270" 
d="M41 -240v445h188v-445h-188zM41 760h188v-445h-188v445z" />
    <glyph glyph-name="bar" unicode="|" horiz-adv-x="270" 
d="M41 760h188v-1000h-188v1000z" />
    <glyph glyph-name="asciicircum" unicode="^" horiz-adv-x="532" 
d="M196 755h149l178 -349l-161 -59l-94 208h-2l-100 -209l-157 58z" />
    <glyph glyph-name="underscore" unicode="_" horiz-adv-x="440" 
d="M0 -42h440v-140h-440v140z" />
    <glyph glyph-name="asciitilde" unicode="~" horiz-adv-x="500" 
d="M138 207l-91 23c10 106 64 146 126 146c28 0 62 -10 90 -21c28 -10 45 -16 64 -16c21 0 30 10 35 41l91 -23c-12 -81 -51 -143 -115 -143c-35 0 -63 9 -95 19s-56 18 -66 18c-13 0 -33 -2 -39 -44z" />
    <glyph glyph-name="uni00A0" unicode="&#xa0;" horiz-adv-x="178" 
 />
    <glyph glyph-name="zero" unicode="0" horiz-adv-x="664" 
d="M329 -12c-202 0 -296 138 -296 375c0 245 121 384 309 384c195 0 288 -136 288 -372c0 -246 -102 -387 -301 -387zM333 131c64 0 96 56 96 242c0 173 -30 223 -94 223c-55 0 -99 -48 -99 -227c0 -176 28 -238 97 -238z" />
    <glyph glyph-name="one" unicode="1" horiz-adv-x="442" 
d="M50 463l-41 154c66 18 177 75 225 117h125v-734h-195v510c-22 -13 -72 -35 -114 -47z" />
    <glyph glyph-name="two" unicode="2" horiz-adv-x="572" 
d="M270 163h243v-163h-462c-1 18 -2 39 -2 61c0 37 2 76 8 104c36 158 280 267 280 386c0 28 -14 53 -49 53c-48 0 -59 -50 -45 -119l-185 -13c-32 152 41 275 234 275c151 0 241 -71 241 -197c0 -210 -236 -272 -263 -387z" />
    <glyph glyph-name="three" unicode="3" horiz-adv-x="576" 
d="M194 292l-17 147c108 6 147 32 147 101c0 47 -19 64 -48 64c-28 0 -50 -8 -50 -64c0 -15 2 -33 5 -55l-185 -13c-5 23 -7 46 -7 67c0 123 75 208 241 208c152 0 241 -65 241 -182c0 -107 -62 -156 -134 -180c96 -26 150 -83 150 -179c0 -144 -96 -218 -252 -218
c-173 0 -242 72 -249 228l191 11c5 -70 22 -96 63 -96c40 0 52 35 52 75c0 63 -37 87 -113 87c-11 0 -22 0 -35 -1z" />
    <glyph glyph-name="four" unicode="4" horiz-adv-x="569" 
d="M171 248h122v266h-4zM486 734v-486h64v-152h-64v-96h-193v96h-286v128l238 510h241z" />
    <glyph glyph-name="five" unicode="5" horiz-adv-x="577" 
d="M287 337c-28 0 -50 -19 -64 -49l-166 16l30 430h415v-163h-256l-24 -142c26 36 75 55 127 55c105 0 191 -67 191 -232c0 -167 -78 -264 -264 -264c-181 0 -230 103 -237 228l191 11c4 -85 35 -96 59 -96c52 0 56 56 56 103c0 89 -28 103 -58 103z" />
    <glyph glyph-name="six" unicode="6" horiz-adv-x="595" 
d="M322 604c-40 0 -73 -43 -80 -183c25 37 80 57 127 57c95 0 193 -61 193 -224c0 -194 -108 -266 -263 -266c-185 0 -256 106 -256 340c0 263 93 419 288 419c171 0 224 -86 216 -221l-181 -11c5 51 -4 89 -44 89zM303 342c-49 0 -70 -37 -70 -102s18 -109 67 -109
c63 0 70 64 70 112c0 66 -21 99 -67 99z" />
    <glyph glyph-name="seven" unicode="7" horiz-adv-x="477" 
d="M301 0h-202c-3 255 76 436 174 571h-251v163h449v-108c-146 -203 -162 -379 -170 -626z" />
    <glyph glyph-name="eight" unicode="8" horiz-adv-x="602" 
d="M294 -12c-195 0 -266 90 -266 211c0 98 43 172 148 201c-86 24 -118 84 -118 157c0 113 89 190 253 190c163 0 232 -77 232 -178c0 -80 -43 -140 -123 -166c108 -27 154 -97 154 -193c0 -127 -78 -222 -280 -222zM300 131c57 0 80 39 80 102s-26 101 -77 101
c-48 0 -80 -33 -80 -106c0 -58 20 -97 77 -97zM299 465c41 0 48 46 48 78c0 39 -9 77 -46 77c-39 0 -47 -41 -47 -78c0 -43 9 -77 45 -77z" />
    <glyph glyph-name="nine" unicode="9" horiz-adv-x="595" 
d="M285 133c44 0 77 62 78 181c-25 -37 -80 -57 -127 -57c-95 0 -197 62 -197 225c0 184 113 265 267 265c179 0 253 -106 253 -341c0 -263 -84 -418 -278 -418c-172 0 -236 86 -241 221l186 12c5 -56 13 -88 59 -88zM299 393c48 0 69 37 69 102s-18 109 -67 109
c-62 0 -70 -64 -70 -112c0 -66 21 -99 68 -99z" />
    <glyph glyph-name="dollar" unicode="$" horiz-adv-x="602" 
d="M561 540l-175 -37c-13 55 -41 77 -80 77s-62 -15 -62 -49c0 -119 329 -23 329 -281c0 -123 -71 -195 -164 -225v-91h-188v82c-110 21 -173 89 -192 207l186 25c10 -49 33 -89 99 -89c41 0 68 16 68 52c0 126 -338 22 -338 295c0 108 71 184 177 210v81h188v-82
c80 -22 133 -76 152 -175z" />
    <glyph glyph-name="Euro" unicode="&#x20ac;" horiz-adv-x="645" 
d="M361 145c62 0 79 38 85 100l171 -14c-20 -167 -109 -243 -267 -243c-140 0 -229 82 -265 225h-79l18 117h45v24v21h-44l17 117h40c34 174 147 255 288 255c166 0 251 -107 255 -259l-177 -15c-4 89 -29 118 -81 118c-42 0 -83 -29 -97 -99h133l-17 -117h-128v-12v-33h127
l-18 -117h-92c12 -43 44 -68 86 -68z" />
    <glyph glyph-name="cent" unicode="&#xa2;" horiz-adv-x="547" 
d="M534 411l-174 -14c-3 70 -34 86 -61 86c-33 0 -70 -20 -70 -127c0 -111 28 -138 69 -138c26 0 51 11 62 72l173 -11c-14 -110 -76 -164 -150 -186v-93h-188v93c-116 33 -167 130 -167 256c0 132 62 221 167 256v92h188v-86c97 -26 146 -103 151 -200z" />
    <glyph glyph-name="sterling" unicode="&#xa3;" horiz-adv-x="598" 
d="M39 307v128h84c-17 26 -31 61 -31 99c0 113 70 213 250 213c127 0 242 -55 242 -214c0 -14 -1 -29 -3 -45l-187 11c2 15 3 28 3 39c0 57 -25 66 -53 66c-34 0 -56 -27 -56 -67s22 -77 42 -102h153v-128h-126c-2 -54 -39 -108 -90 -144h296v-163h-479v163
c68 36 84 90 84 129c0 3 0 11 -1 15h-128z" />
    <glyph glyph-name="yen" unicode="&#xa5;" horiz-adv-x="640" 
d="M538 317h-115v-62h115v-125h-115v-130h-196v130h-128v125h128v62h-128v125h71l-170 292h219l107 -244l109 244h205l-165 -292h63v-125z" />
    <glyph glyph-name="florin" unicode="&#x192;" horiz-adv-x="514" 
d="M49 329l23 130h87l14 80c26 154 107 208 226 208c66 0 114 -16 138 -27l-41 -125c-20 6 -45 8 -58 8c-38 0 -63 -19 -74 -83l-11 -61h111l-23 -130h-110l-46 -266c-25 -150 -109 -203 -238 -203c-62 0 -105 15 -123 21l37 132c21 -6 46 -9 59 -9c38 0 63 19 74 84l42 241
h-87z" />
    <glyph glyph-name="section" unicode="&#xa7;" horiz-adv-x="677" 
d="M49 238c0 67 33 108 98 148c-33 31 -57 75 -57 139c0 128 123 209 275 209c123 0 240 -49 258 -198l-187 -18c-2 53 -24 81 -77 81c-36 0 -67 -14 -67 -47c0 -113 335 -60 335 -266c0 -66 -37 -115 -98 -156c33 -31 55 -74 55 -137c0 -129 -119 -209 -273 -209
c-123 0 -239 47 -256 197l186 20c3 -53 24 -82 77 -82c35 0 63 12 63 48c0 114 -332 47 -332 271zM242 287c0 -52 80 -66 165 -92c16 8 27 20 27 38c0 49 -87 59 -173 90c-13 -7 -19 -19 -19 -36z" />
    <glyph glyph-name="copyright" unicode="&#xa9;" horiz-adv-x="810" 
d="M772 346c0 -219 -151 -367 -367 -367c-242 0 -366 154 -366 350c0 230 164 366 368 366c226 0 365 -137 365 -349zM407 77c160 0 261 99 261 263c0 169 -109 258 -261 258c-151 0 -262 -97 -262 -267c0 -159 100 -254 262 -254zM489 299l83 -16
c-21 -108 -87 -146 -165 -146c-121 0 -175 85 -175 197c0 120 71 203 178 203c76 0 149 -33 160 -149l-88 -13c-7 57 -28 80 -72 80c-45 0 -80 -35 -80 -121c0 -63 17 -116 79 -116c45 0 68 26 80 81z" />
    <glyph glyph-name="registered" unicode="&#xae;" horiz-adv-x="443" 
d="M424 538c0 -121 -82 -203 -203 -203c-134 0 -203 85 -203 196c0 125 91 203 204 203c125 0 202 -78 202 -196zM364 535c0 94 -59 144 -142 144c-81 0 -141 -54 -141 -147c0 -88 52 -141 141 -141s142 55 142 144zM268 522l41 -80h-50l-36 73h-25v-73h-47v191h88
c52 0 64 -26 64 -54c0 -26 -13 -50 -35 -57zM198 550h13c25 0 42 1 42 24c0 22 -12 23 -35 23h-20v-47z" />
    <glyph glyph-name="trademark" unicode="&#x2122;" horiz-adv-x="866" 
d="M100 350v281h-96v103h326v-103h-97v-281h-133zM654 350h-107l-69 250v-250h-115v384h171l69 -250l69 250h167v-384h-122v250z" />
    <glyph glyph-name="ordfeminine" unicode="&#xaa;" horiz-adv-x="412" 
d="M390 506l5 -85c-82 -19 -143 -18 -165 35c-20 -28 -50 -45 -105 -45c-78 0 -104 45 -104 95c0 79 88 90 196 106v9c0 20 -3 33 -24 33c-8 0 -27 -1 -20 -22l-135 -12c-10 73 30 127 160 127c123 0 166 -47 166 -122v-102c0 -12 4 -20 26 -17zM217 532v18
c-34 -3 -50 -16 -50 -34c0 -19 12 -23 22 -23c20 0 28 14 28 39z" />
    <glyph glyph-name="ordmasculine" unicode="&#xba;" horiz-adv-x="435" 
d="M212 411c-121 0 -183 61 -183 167c0 113 87 169 193 169c115 0 184 -55 184 -163c0 -118 -73 -173 -194 -173zM218 509c21 0 33 15 33 71c0 53 -11 67 -31 67c-21 0 -37 -14 -37 -69c0 -57 12 -69 35 -69z" />
    <glyph glyph-name="guillemotleft" unicode="&#xab;" horiz-adv-x="482" 
d="M464 82l-105 -46l-136 215l135 208l105 -44l-89 -161zM265 82l-104 -46l-137 215l136 208l104 -44l-89 -161z" />
    <glyph glyph-name="guillemotright" unicode="&#xbb;" horiz-adv-x="482" 
d="M123 36l-105 46l90 172l-89 161l105 44l135 -208zM321 36l-104 46l90 172l-89 161l104 44l136 -208z" />
    <glyph glyph-name="guilsinglleft" unicode="&#x2039;" horiz-adv-x="283" 
d="M265 82l-104 -46l-137 215l136 208l104 -44l-89 -161z" />
    <glyph glyph-name="guilsinglright" unicode="&#x203a;" horiz-adv-x="283" 
d="M123 36l-104 46l90 172l-89 161l104 44l136 -208z" />
    <glyph glyph-name="quoteleft" unicode="&#x2018;" horiz-adv-x="228" 
d="M200 616v-164h-172v132l82 186l63 -18l-43 -136h70z" />
    <glyph glyph-name="quoteright" unicode="&#x2019;" horiz-adv-x="228" 
d="M28 570v164h172v-132l-82 -186l-63 19l43 135h-70z" />
    <glyph glyph-name="quotesinglbase" unicode="&#x201a;" horiz-adv-x="228" 
d="M28 0v164h171v-132l-81 -186l-64 19l43 135h-69z" />
    <glyph glyph-name="quotedblleft" unicode="&#x201c;" horiz-adv-x="452" 
d="M424 616v-164h-172v132l82 186l63 -18l-43 -136h70zM200 616v-164h-172v132l82 186l63 -18l-43 -136h70z" />
    <glyph glyph-name="quotedblright" unicode="&#x201d;" horiz-adv-x="452" 
d="M252 570v164h172v-132l-82 -186l-63 19l43 135h-70zM28 570v164h172v-132l-82 -186l-63 19l43 135h-70z" />
    <glyph glyph-name="quotedblbase" unicode="&#x201e;" horiz-adv-x="452" 
d="M252 0v164h172v-132l-82 -186l-63 19l43 135h-70zM28 0v164h172v-132l-82 -186l-63 19l43 135h-70z" />
    <glyph glyph-name="dagger" unicode="&#x2020;" horiz-adv-x="433" 
d="M427 489l-134 -18l-22 -214h-109l-24 214l-127 18v100l132 16l16 129h115l16 -129l137 -16v-100z" />
    <glyph glyph-name="daggerdbl" unicode="&#x2021;" horiz-adv-x="433" 
d="M425 314l-135 -18l-21 -81h-105l-20 81l-136 18v100l135 16l21 44l-21 54l-135 18v100l135 15l16 73h115l16 -73l135 -15v-100l-135 -18l-21 -55l21 -43l135 -16v-100z" />
    <glyph glyph-name="bullet" unicode="&#x2022;" horiz-adv-x="509" 
d="M107 341c0 83 51 129 145 129c95 0 150 -46 150 -129c0 -81 -55 -129 -150 -129c-94 0 -145 48 -145 129z" />
    <glyph glyph-name="ellipsis" unicode="&#x2026;" horiz-adv-x="913" 
d="M54 0v153h196v-153h-196zM358 0v153h196v-153h-196zM663 0v153h196v-153h-196z" />
    <glyph glyph-name="paragraph" unicode="&#xb6;" horiz-adv-x="688" 
d="M297 -141v347h-3c-186 0 -256 118 -256 262c0 149 66 266 280 266h119v-875h-140zM481 -140v874h139v-874h-139z" />
    <glyph glyph-name="periodcentered" unicode="&#xb7;" horiz-adv-x="304" 
d="M54 254v154h196v-154h-196z" />
    <glyph glyph-name="uni00AD" unicode="&#xad;" horiz-adv-x="308" 
d="M289 179h-271v151h271v-151z" />
    <glyph glyph-name="endash" unicode="&#x2013;" horiz-adv-x="440" 
d="M0 373h440v-141h-440v141z" />
    <glyph glyph-name="emdash" unicode="&#x2014;" horiz-adv-x="880" 
d="M0 371h880v-140h-880v140z" />
    <glyph glyph-name="hyphen.case" horiz-adv-x="308" 
d="M289 239h-271v151h271v-151z" />
    <glyph glyph-name="Agrave" unicode="&#xc0;" horiz-adv-x="725" 
d="M236 734h246l243 -734h-204l-48 150h-229l-46 -150h-198zM431 302l-73 247h-3l-72 -247h148zM230 833l67 120l169 -113l-53 -83z" />
    <glyph glyph-name="Aacute" unicode="&#xc1;" horiz-adv-x="725" 
d="M236 734h246l243 -734h-204l-48 150h-229l-46 -150h-198zM431 302l-73 247h-3l-72 -247h148zM416 953l65 -120l-183 -76l-50 83z" />
    <glyph glyph-name="Acircumflex" unicode="&#xc2;" horiz-adv-x="725" 
d="M236 734h246l243 -734h-204l-48 150h-229l-46 -150h-198zM431 302l-73 247h-3l-72 -247h148zM307 929h98l117 -113l-50 -62l-118 67l-114 -67l-50 62z" />
    <glyph glyph-name="Atilde" unicode="&#xc3;" horiz-adv-x="725" 
d="M236 734h246l243 -734h-204l-48 150h-229l-46 -150h-198zM431 302l-73 247h-3l-72 -247h148zM253 774l-66 12c15 76 44 133 106 133c59 0 94 -26 132 -26c15 0 29 5 36 36l65 -10c-15 -88 -52 -137 -105 -137c-61 0 -100 28 -134 28c-17 0 -28 -10 -34 -36z" />
    <glyph glyph-name="Adieresis" unicode="&#xc4;" horiz-adv-x="725" 
d="M236 734h246l243 -734h-204l-48 150h-229l-46 -150h-198zM431 302l-73 247h-3l-72 -247h148zM382 775v129h136v-129h-136zM194 775v129h136v-129h-136z" />
    <glyph glyph-name="Aring" unicode="&#xc5;" horiz-adv-x="725" 
d="M236 734h246l243 -734h-204l-48 150h-229l-46 -150h-198zM431 302l-73 247h-3l-72 -247h148zM349 760c-92 0 -114 46 -114 103s42 104 118 104c89 0 122 -46 122 -101c0 -60 -36 -106 -126 -106zM351 823c12 0 21 7 21 41c0 33 -9 40 -20 40c-13 0 -24 -8 -24 -41
c0 -34 9 -40 23 -40z" />
    <glyph glyph-name="Aringacute" unicode="&#x1fa;" horiz-adv-x="725" 
d="M198 0h-198l235 730c-6 16 -8 34 -8 53c0 63 46 115 130 115c99 0 136 -51 136 -112c0 -19 -4 -38 -11 -53l243 -733h-204l-48 150h-229zM404 1101l65 -120l-183 -76l-50 83zM431 302l-73 247h-3l-72 -247h148zM355 738c13 0 23 8 23 46c0 36 -10 44 -22 44
c-14 0 -26 -9 -26 -45c0 -38 10 -45 25 -45z" />
    <glyph glyph-name="AE" unicode="&#xc6;" horiz-adv-x="964" 
d="M882 442v-157h-225v-122h268v-163h-469v285h-171l-87 -285h-198l246 734h666v-162h-255v-130h225zM363 572l-38 -130h131v130h-93z" />
    <glyph glyph-name="AEacute" unicode="&#x1fc;" horiz-adv-x="964" 
d="M652 953l65 -120l-183 -76l-50 83zM882 442v-157h-225v-122h268v-163h-469v285h-171l-87 -285h-198l246 734h666v-162h-255v-130h225zM363 572l-38 -130h131v130h-93z" />
    <glyph glyph-name="Ccedilla" unicode="&#xc7;" horiz-adv-x="666" 
d="M254 -90l36 81c-160 20 -257 141 -257 364c0 270 135 392 327 392c180 0 273 -104 277 -268l-199 -15c1 101 -36 127 -88 127c-57 0 -106 -46 -106 -232c0 -165 47 -214 106 -214c54 0 79 33 85 109l193 -14c-19 -169 -108 -246 -269 -252l-16 -29c10 4 14 5 29 5
c57 0 89 -41 89 -94c0 -54 -38 -108 -120 -108c-48 0 -84 9 -132 44l46 62c23 -14 48 -23 63 -23c19 0 27 12 27 30c0 19 -7 27 -23 27c-11 0 -19 -4 -27 -9z" />
    <glyph glyph-name="Egrave" unicode="&#xc8;" horiz-adv-x="581" 
d="M173 833l67 120l169 -113l-53 -83zM499 452v-157h-225v-132h268v-163h-469v734h456v-162h-255v-120h225z" />
    <glyph glyph-name="Eacute" unicode="&#xc9;" horiz-adv-x="581" 
d="M361 953l65 -120l-183 -76l-50 83zM499 452v-157h-225v-132h268v-163h-469v734h456v-162h-255v-120h225z" />
    <glyph glyph-name="Ecircumflex" unicode="&#xca;" horiz-adv-x="581" 
d="M499 452v-157h-225v-132h268v-163h-469v734h456v-162h-255v-120h225zM241 929h98l117 -113l-50 -62l-118 67l-114 -67l-50 62z" />
    <glyph glyph-name="Edieresis" unicode="&#xcb;" horiz-adv-x="581" 
d="M328 775v129h136v-129h-136zM140 775v129h136v-129h-136zM499 452v-157h-225v-132h268v-163h-469v734h456v-162h-255v-120h225z" />
    <glyph glyph-name="Igrave" unicode="&#xcc;" horiz-adv-x="432" 
d="M316 611v-488h73v-123h-345v123h72v488h-71v123h344v-123h-73zM88 833l67 120l169 -113l-53 -83z" />
    <glyph glyph-name="Iacute" unicode="&#xcd;" horiz-adv-x="432" 
d="M316 611v-488h73v-123h-345v123h72v488h-71v123h344v-123h-73zM277 953l65 -120l-183 -76l-50 83z" />
    <glyph glyph-name="Icircumflex" unicode="&#xce;" horiz-adv-x="432" 
d="M316 611v-488h73v-123h-345v123h72v488h-71v123h344v-123h-73zM165 929h98l117 -113l-50 -62l-118 67l-114 -67l-50 62z" />
    <glyph glyph-name="Idieresis" unicode="&#xcf;" horiz-adv-x="432" 
d="M316 611v-488h73v-123h-345v123h72v488h-71v123h344v-123h-73zM243 775v129h136v-129h-136zM55 775v129h136v-129h-136z" />
    <glyph glyph-name="Eth" unicode="&#xd0;" horiz-adv-x="718" 
d="M295 0h-208v300h-67v136h67v298h211c273 0 386 -129 386 -345c0 -253 -109 -389 -389 -389zM288 163h35c92 0 156 50 156 210s-62 199 -159 199h-32v-136h127v-136h-127v-137z" />
    <glyph glyph-name="Ntilde" unicode="&#xd1;" horiz-adv-x="768" 
d="M278 774l-66 12c15 76 44 133 106 133c59 0 94 -26 132 -26c15 0 29 5 36 36l65 -10c-15 -88 -52 -137 -105 -137c-61 0 -100 28 -134 28c-17 0 -28 -10 -34 -36zM695 0h-219l-217 422v-422h-186v734h229l207 -435v435h186v-734z" />
    <glyph glyph-name="Ograve" unicode="&#xd2;" horiz-adv-x="724" 
d="M238 833l67 120l169 -113l-53 -83zM359 -12c-219 0 -326 138 -326 375c0 245 133 384 338 384c214 0 319 -136 319 -372c0 -246 -114 -387 -331 -387zM363 143c74 0 117 55 117 230c0 162 -41 215 -115 215c-66 0 -121 -51 -121 -219c0 -165 40 -226 119 -226z" />
    <glyph glyph-name="Oacute" unicode="&#xd3;" horiz-adv-x="724" 
d="M426 953l65 -120l-183 -76l-50 83zM359 -12c-219 0 -326 138 -326 375c0 245 133 384 338 384c214 0 319 -136 319 -372c0 -246 -114 -387 -331 -387zM363 143c74 0 117 55 117 230c0 162 -41 215 -115 215c-66 0 -121 -51 -121 -219c0 -165 40 -226 119 -226z" />
    <glyph glyph-name="Ocircumflex" unicode="&#xd4;" horiz-adv-x="724" 
d="M359 -12c-219 0 -326 138 -326 375c0 245 133 384 338 384c214 0 319 -136 319 -372c0 -246 -114 -387 -331 -387zM363 143c74 0 117 55 117 230c0 162 -41 215 -115 215c-66 0 -121 -51 -121 -219c0 -165 40 -226 119 -226zM319 929h98l117 -113l-50 -62l-118 67
l-114 -67l-50 62z" />
    <glyph glyph-name="Otilde" unicode="&#xd5;" horiz-adv-x="724" 
d="M263 774l-66 12c15 76 44 133 106 133c59 0 94 -26 132 -26c15 0 29 5 36 36l65 -10c-15 -88 -52 -137 -105 -137c-61 0 -100 28 -134 28c-17 0 -28 -10 -34 -36zM359 -12c-219 0 -326 138 -326 375c0 245 133 384 338 384c214 0 319 -136 319 -372
c0 -246 -114 -387 -331 -387zM363 143c74 0 117 55 117 230c0 162 -41 215 -115 215c-66 0 -121 -51 -121 -219c0 -165 40 -226 119 -226z" />
    <glyph glyph-name="Odieresis" unicode="&#xd6;" horiz-adv-x="724" 
d="M393 775v129h136v-129h-136zM205 775v129h136v-129h-136zM359 -12c-219 0 -326 138 -326 375c0 245 133 384 338 384c214 0 319 -136 319 -372c0 -246 -114 -387 -331 -387zM363 143c74 0 117 55 117 230c0 162 -41 215 -115 215c-66 0 -121 -51 -121 -219
c0 -165 40 -226 119 -226z" />
    <glyph glyph-name="Oslash" unicode="&#xd8;" horiz-adv-x="724" 
d="M143 56l2 -1c-75 63 -112 168 -112 308c0 245 133 384 338 384c19 0 37 -2 55 -4l31 76l159 -62l-33 -79c71 -63 107 -166 107 -303c0 -246 -114 -387 -331 -387c-21 0 -40 1 -58 4l-32 -78l-158 63zM363 143c74 0 117 55 117 230c0 162 -41 215 -115 215
c-66 0 -121 -51 -121 -219c0 -165 40 -226 119 -226z" />
    <glyph glyph-name="Oslashacute" unicode="&#x1fe;" horiz-adv-x="724" 
d="M427 974l65 -120l-183 -76l-50 83zM143 56l2 -1c-75 63 -112 168 -112 308c0 245 133 384 338 384c19 0 37 -2 55 -4l31 76l159 -62l-33 -79c71 -63 107 -166 107 -303c0 -246 -114 -387 -331 -387c-21 0 -40 1 -58 4l-32 -78l-158 63zM363 143c74 0 117 55 117 230
c0 162 -41 215 -115 215c-66 0 -121 -51 -121 -219c0 -165 40 -226 119 -226z" />
    <glyph glyph-name="Ugrave" unicode="&#xd9;" horiz-adv-x="728" 
d="M236 833l67 120l169 -113l-53 -83zM469 331v403h196v-467c0 -178 -94 -279 -306 -279c-223 0 -296 109 -296 286v460h196v-403c0 -119 9 -185 106 -185s104 61 104 185z" />
    <glyph glyph-name="Uacute" unicode="&#xda;" horiz-adv-x="728" 
d="M424 953l65 -120l-183 -76l-50 83zM469 331v403h196v-467c0 -178 -94 -279 -306 -279c-223 0 -296 109 -296 286v460h196v-403c0 -119 9 -185 106 -185s104 61 104 185z" />
    <glyph glyph-name="Ucircumflex" unicode="&#xdb;" horiz-adv-x="728" 
d="M469 331v403h196v-467c0 -178 -94 -279 -306 -279c-223 0 -296 109 -296 286v460h196v-403c0 -119 9 -185 106 -185s104 61 104 185zM317 929h98l117 -113l-50 -62l-118 67l-114 -67l-50 62z" />
    <glyph glyph-name="Udieresis" unicode="&#xdc;" horiz-adv-x="728" 
d="M391 775v129h136v-129h-136zM203 775v129h136v-129h-136zM469 331v403h196v-467c0 -178 -94 -279 -306 -279c-223 0 -296 109 -296 286v460h196v-403c0 -119 9 -185 106 -185s104 61 104 185z" />
    <glyph glyph-name="Yacute" unicode="&#xdd;" horiz-adv-x="669" 
d="M438 272v-272h-197v268l-257 466h222l134 -279l138 279h207zM399 953l65 -120l-183 -76l-50 83z" />
    <glyph glyph-name="Thorn" unicode="&#xde;" horiz-adv-x="645" 
d="M273 136v-136h-200v734h200v-113h98c177 0 250 -88 250 -228c0 -103 -32 -257 -282 -257h-66zM273 284h39c64 0 108 17 108 92c0 48 -15 88 -86 88h-61v-180z" />
    <glyph glyph-name="germandbls" unicode="&#xdf;" horiz-adv-x="730" 
d="M243 473v-473h-195v474c0 197 124 273 307 273c181 0 261 -82 261 -187c0 -67 -23 -124 -32 -147c-15 4 -28 7 -40 7c-31 0 -50 -12 -50 -35c0 -26 28 -37 64 -47c68 -19 154 -43 154 -160c0 -133 -102 -190 -217 -190c-128 0 -213 41 -233 157l174 25
c5 -38 27 -58 55 -58c17 0 36 7 36 32c0 37 -44 45 -93 61c-61 20 -129 50 -129 152c0 93 72 130 125 147c4 13 6 25 6 36c0 36 -27 64 -81 64c-99 0 -112 -61 -112 -131z" />
    <glyph glyph-name="agrave" unicode="&#xe0;" horiz-adv-x="553" 
d="M538 116l5 -112c-116 -28 -189 -15 -215 59c-29 -46 -76 -75 -157 -75c-114 0 -154 72 -154 151c0 140 124 152 286 169v13c0 54 -4 84 -46 84c-31 0 -47 -19 -38 -67l-177 -17c-17 119 40 207 222 207c177 0 231 -83 231 -210v-170c0 -26 7 -38 43 -32zM303 184v22
c-73 -9 -93 -25 -93 -59c0 -29 25 -40 38 -40c39 0 55 39 55 77zM133 681l103 98l131 -158l-73 -64z" />
    <glyph glyph-name="aacute" unicode="&#xe1;" horiz-adv-x="553" 
d="M538 116l5 -112c-116 -28 -189 -15 -215 59c-29 -46 -76 -75 -157 -75c-114 0 -154 72 -154 151c0 140 124 152 286 169v13c0 54 -4 84 -46 84c-31 0 -47 -19 -38 -67l-177 -17c-17 119 40 207 222 207c177 0 231 -83 231 -210v-170c0 -26 7 -38 43 -32zM303 184v22
c-73 -9 -93 -25 -93 -59c0 -29 25 -40 38 -40c39 0 55 39 55 77zM300 781l101 -99l-159 -125l-71 64z" />
    <glyph glyph-name="acircumflex" unicode="&#xe2;" horiz-adv-x="553" 
d="M538 116l5 -112c-116 -28 -189 -15 -215 59c-29 -46 -76 -75 -157 -75c-114 0 -154 72 -154 151c0 140 124 152 286 169v13c0 54 -4 84 -46 84c-31 0 -47 -19 -38 -67l-177 -17c-17 119 40 207 222 207c177 0 231 -83 231 -210v-170c0 -26 7 -38 43 -32zM303 184v22
c-73 -9 -93 -25 -93 -59c0 -29 25 -40 38 -40c39 0 55 39 55 77zM217 756h98l120 -142l-64 -57l-107 81l-102 -81l-65 57z" />
    <glyph glyph-name="atilde" unicode="&#xe3;" horiz-adv-x="553" 
d="M538 116l5 -112c-116 -28 -189 -15 -215 59c-29 -46 -76 -75 -157 -75c-114 0 -154 72 -154 151c0 140 124 152 286 169v13c0 54 -4 84 -46 84c-31 0 -47 -19 -38 -67l-177 -17c-17 119 40 207 222 207c177 0 231 -83 231 -210v-170c0 -26 7 -38 43 -32zM303 184v22
c-73 -9 -93 -25 -93 -59c0 -29 25 -40 38 -40c39 0 55 39 55 77zM161 599l-66 12c15 76 44 133 106 133c59 0 94 -26 132 -26c15 0 29 5 36 36l65 -10c-15 -88 -52 -137 -105 -137c-61 0 -100 28 -134 28c-17 0 -28 -10 -34 -36z" />
    <glyph glyph-name="adieresis" unicode="&#xe4;" horiz-adv-x="553" 
d="M538 116l5 -112c-116 -28 -189 -15 -215 59c-29 -46 -76 -75 -157 -75c-114 0 -154 72 -154 151c0 140 124 152 286 169v13c0 54 -4 84 -46 84c-31 0 -47 -19 -38 -67l-177 -17c-17 119 40 207 222 207c177 0 231 -83 231 -210v-170c0 -26 7 -38 43 -32zM303 184v22
c-73 -9 -93 -25 -93 -59c0 -29 25 -40 38 -40c39 0 55 39 55 77zM291 599v129h136v-129h-136zM103 599v129h136v-129h-136z" />
    <glyph glyph-name="aring" unicode="&#xe5;" horiz-adv-x="553" 
d="M538 116l5 -112c-116 -28 -189 -15 -215 59c-29 -46 -76 -75 -157 -75c-114 0 -154 72 -154 151c0 140 124 152 286 169v13c0 54 -4 84 -46 84c-31 0 -47 -19 -38 -67l-177 -17c-17 119 40 207 222 207c177 0 231 -83 231 -210v-170c0 -26 7 -38 43 -32zM303 184v22
c-73 -9 -93 -25 -93 -59c0 -29 25 -40 38 -40c39 0 55 39 55 77zM263 566c-92 0 -114 46 -114 103c0 58 42 104 118 104c89 0 122 -45 122 -101c0 -60 -36 -106 -126 -106zM265 629c12 0 21 7 21 41c0 33 -9 40 -20 40c-13 0 -24 -8 -24 -41c0 -34 9 -40 23 -40z" />
    <glyph glyph-name="aringacute" unicode="&#x1fb;" horiz-adv-x="553" 
d="M538 116l5 -112c-116 -28 -189 -15 -215 59c-29 -46 -76 -75 -157 -75c-114 0 -154 72 -154 151c0 140 124 152 286 169v13c0 54 -4 84 -46 84c-31 0 -47 -19 -38 -67l-177 -17c-17 119 40 207 222 207c177 0 231 -83 231 -210v-170c0 -26 7 -38 43 -32zM303 184v22
c-73 -9 -93 -25 -93 -59c0 -29 25 -40 38 -40c39 0 55 39 55 77zM263 548c-92 0 -114 46 -114 103c0 58 42 104 118 104c89 0 122 -45 122 -101c0 -60 -36 -106 -126 -106zM265 611c12 0 21 7 21 41c0 33 -9 40 -20 40c-13 0 -24 -8 -24 -41c0 -34 9 -40 23 -40zM316 953
l65 -120l-183 -76l-50 83z" />
    <glyph glyph-name="ae" unicode="&#xe6;" horiz-adv-x="832" 
d="M639 183l168 -17c-34 -148 -144 -178 -247 -178c-100 0 -159 30 -195 96c-38 -77 -118 -96 -194 -96c-114 0 -154 72 -154 151c0 140 124 152 286 169v13c0 54 -4 84 -46 84c-31 0 -47 -19 -38 -67l-177 -17c-17 119 40 207 222 207c69 0 110 -17 150 -56
c43 39 100 56 157 56c180 0 260 -118 240 -307h-316c1 -67 24 -96 74 -96c36 0 59 17 70 58zM496 329h125c5 64 -28 77 -57 77c-41 0 -64 -25 -68 -77zM303 184v22c-73 -8 -93 -25 -93 -59c0 -29 18 -39 35 -39c46 0 58 40 58 76z" />
    <glyph glyph-name="aeacute" unicode="&#x1fd;" horiz-adv-x="832" 
d="M448 781l101 -99l-159 -125l-71 64zM639 183l168 -17c-34 -148 -144 -178 -247 -178c-100 0 -159 30 -195 96c-38 -77 -118 -96 -194 -96c-114 0 -154 72 -154 151c0 140 124 152 286 169v13c0 54 -4 84 -46 84c-31 0 -47 -19 -38 -67l-177 -17c-17 119 40 207 222 207
c69 0 110 -17 150 -56c43 39 100 56 157 56c180 0 260 -118 240 -307h-316c1 -67 24 -96 74 -96c36 0 59 17 70 58zM496 329h125c5 64 -28 77 -57 77c-41 0 -64 -25 -68 -77zM303 184v22c-73 -8 -93 -25 -93 -59c0 -29 18 -39 35 -39c46 0 58 40 58 76z" />
    <glyph glyph-name="ccedilla" unicode="&#xe7;" horiz-adv-x="536" 
d="M204 -90l35 80c-154 16 -221 121 -221 266c0 173 105 272 274 272c151 0 225 -89 231 -210l-174 -15c-3 71 -34 87 -61 87c-33 0 -70 -20 -70 -127c0 -111 28 -138 69 -138c27 0 52 11 63 72l172 -11c-18 -139 -112 -188 -212 -196l-17 -31c10 4 14 5 29 5
c57 0 89 -41 89 -94c0 -54 -38 -108 -120 -108c-48 0 -84 9 -132 44l46 62c23 -14 48 -23 63 -23c19 0 27 12 27 30c0 19 -7 27 -23 27c-11 0 -19 -4 -27 -9z" />
    <glyph glyph-name="egrave" unicode="&#xe8;" horiz-adv-x="555" 
d="M362 183l167 -17c-33 -148 -144 -178 -246 -178c-179 0 -265 107 -265 264c0 177 109 276 275 276c180 0 260 -118 240 -307h-316c1 -67 25 -96 75 -96c36 0 59 17 70 58zM218 329h125c6 64 -27 77 -57 77c-41 0 -63 -25 -68 -77zM155 681l103 98l131 -158l-73 -64z" />
    <glyph glyph-name="eacute" unicode="&#xe9;" horiz-adv-x="555" 
d="M322 781l101 -99l-159 -125l-71 64zM362 183l167 -17c-33 -148 -144 -178 -246 -178c-179 0 -265 107 -265 264c0 177 109 276 275 276c180 0 260 -118 240 -307h-316c1 -67 25 -96 75 -96c36 0 59 17 70 58zM218 329h125c6 64 -27 77 -57 77c-41 0 -63 -25 -68 -77z" />
    <glyph glyph-name="ecircumflex" unicode="&#xea;" horiz-adv-x="555" 
d="M239 756h98l120 -142l-64 -57l-107 81l-102 -81l-65 57zM362 183l167 -17c-33 -148 -144 -178 -246 -178c-179 0 -265 107 -265 264c0 177 109 276 275 276c180 0 260 -118 240 -307h-316c1 -67 25 -96 75 -96c36 0 59 17 70 58zM218 329h125c6 64 -27 77 -57 77
c-41 0 -63 -25 -68 -77z" />
    <glyph glyph-name="edieresis" unicode="&#xeb;" horiz-adv-x="555" 
d="M313 599v129h136v-129h-136zM125 599v129h136v-129h-136zM362 183l167 -17c-33 -148 -144 -178 -246 -178c-179 0 -265 107 -265 264c0 177 109 276 275 276c180 0 260 -118 240 -307h-316c1 -67 25 -96 75 -96c36 0 59 17 70 58zM218 329h125c6 64 -27 77 -57 77
c-41 0 -63 -25 -68 -77z" />
    <glyph glyph-name="igrave" unicode="&#xec;" horiz-adv-x="281" 
d="M43 0v516h195v-516h-195zM7 681l103 98l131 -158l-73 -64z" />
    <glyph glyph-name="iacute" unicode="&#xed;" horiz-adv-x="281" 
d="M174 781l101 -99l-159 -125l-71 64zM43 0v516h195v-516h-195z" />
    <glyph glyph-name="icircumflex" unicode="&#xee;" horiz-adv-x="281" 
d="M91 756h98l120 -142l-64 -57l-107 81l-102 -81l-65 57zM43 0v516h195v-516h-195z" />
    <glyph glyph-name="idieresis" unicode="&#xef;" horiz-adv-x="281" 
d="M165 599v129h136v-129h-136zM-23 599v129h136v-129h-136zM43 0v516h195v-516h-195z" />
    <glyph glyph-name="eth" unicode="&#xf0;" horiz-adv-x="582" 
d="M482 665l-59 -19c101 -108 141 -225 141 -359c0 -205 -111 -299 -280 -299c-172 0 -266 102 -266 269c0 145 89 268 229 268c47 0 75 -8 106 -38l2 4c-15 31 -52 74 -81 105l-110 -35l-30 86l76 23c-16 14 -47 37 -60 48l144 37c13 -9 41 -28 53 -38l107 35zM291 121
c48 0 72 46 72 140c0 90 -22 130 -69 130c-48 0 -76 -41 -76 -133c0 -95 21 -137 73 -137z" />
    <glyph glyph-name="ntilde" unicode="&#xf1;" horiz-adv-x="588" 
d="M553 319v-319h-195v309c0 58 -19 76 -51 76c-53 0 -69 -42 -69 -109v-276h-195v516h177l6 -72h3c20 36 63 84 155 84c101 0 169 -58 169 -209zM201 599l-66 12c15 76 44 133 106 133c59 0 94 -26 132 -26c15 0 29 5 36 36l65 -10c-15 -88 -52 -137 -105 -137
c-61 0 -100 28 -134 28c-17 0 -28 -10 -34 -36z" />
    <glyph glyph-name="ograve" unicode="&#xf2;" horiz-adv-x="582" 
d="M284 -12c-172 0 -266 102 -266 269c0 177 129 271 280 271c161 0 266 -92 266 -261c0 -185 -111 -279 -280 -279zM291 121c48 0 72 46 72 140c0 90 -22 130 -69 130c-48 0 -76 -41 -76 -133c0 -95 21 -137 73 -137zM160 681l103 98l131 -158l-73 -64z" />
    <glyph glyph-name="oacute" unicode="&#xf3;" horiz-adv-x="582" 
d="M327 781l101 -99l-159 -125l-71 64zM284 -12c-172 0 -266 102 -266 269c0 177 129 271 280 271c161 0 266 -92 266 -261c0 -185 -111 -279 -280 -279zM291 121c48 0 72 46 72 140c0 90 -22 130 -69 130c-48 0 -76 -41 -76 -133c0 -95 21 -137 73 -137z" />
    <glyph glyph-name="ocircumflex" unicode="&#xf4;" horiz-adv-x="582" 
d="M244 756h98l120 -142l-64 -57l-107 81l-102 -81l-65 57zM284 -12c-172 0 -266 102 -266 269c0 177 129 271 280 271c161 0 266 -92 266 -261c0 -185 -111 -279 -280 -279zM291 121c48 0 72 46 72 140c0 90 -22 130 -69 130c-48 0 -76 -41 -76 -133c0 -95 21 -137 73 -137
z" />
    <glyph glyph-name="otilde" unicode="&#xf5;" horiz-adv-x="582" 
d="M284 -12c-172 0 -266 102 -266 269c0 177 129 271 280 271c161 0 266 -92 266 -261c0 -185 -111 -279 -280 -279zM291 121c48 0 72 46 72 140c0 90 -22 130 -69 130c-48 0 -76 -41 -76 -133c0 -95 21 -137 73 -137zM188 599l-66 12c15 76 44 133 106 133
c59 0 94 -26 132 -26c15 0 29 5 36 36l65 -10c-15 -88 -52 -137 -105 -137c-61 0 -100 28 -134 28c-17 0 -28 -10 -34 -36z" />
    <glyph glyph-name="odieresis" unicode="&#xf6;" horiz-adv-x="582" 
d="M318 599v129h136v-129h-136zM130 599v129h136v-129h-136zM284 -12c-172 0 -266 102 -266 269c0 177 129 271 280 271c161 0 266 -92 266 -261c0 -185 -111 -279 -280 -279zM291 121c48 0 72 46 72 140c0 90 -22 130 -69 130c-48 0 -76 -41 -76 -133
c0 -95 21 -137 73 -137z" />
    <glyph glyph-name="oslash" unicode="&#xf8;" horiz-adv-x="582" 
d="M91 55c-48 46 -73 115 -73 202c0 177 129 271 280 271c22 0 44 -2 64 -6l46 80l128 -71l-42 -73c44 -44 70 -108 70 -191c0 -185 -111 -279 -280 -279c-22 0 -42 2 -61 5l-51 -91l-127 73zM291 121c48 0 72 46 72 140c0 90 -22 130 -69 130c-48 0 -76 -41 -76 -133
c0 -95 21 -137 73 -137z" />
    <glyph glyph-name="oslashacute" unicode="&#x1ff;" horiz-adv-x="582" 
d="M327 781l101 -99l-159 -125l-71 64zM91 55c-48 46 -73 115 -73 202c0 177 129 271 280 271c22 0 44 -2 64 -6l46 80l128 -71l-42 -73c44 -44 70 -108 70 -191c0 -185 -111 -279 -280 -279c-22 0 -42 2 -61 5l-51 -91l-127 73zM291 121c48 0 72 46 72 140
c0 90 -22 130 -69 130c-48 0 -76 -41 -76 -133c0 -95 21 -137 73 -137z" />
    <glyph glyph-name="ugrave" unicode="&#xf9;" horiz-adv-x="590" 
d="M37 201v315h196v-308c0 -48 11 -76 51 -76c57 0 70 47 70 120v264h195v-516h-177l-6 74h-2c-25 -42 -67 -86 -159 -86c-103 0 -168 63 -168 213zM160 681l103 98l131 -158l-73 -64z" />
    <glyph glyph-name="uacute" unicode="&#xfa;" horiz-adv-x="590" 
d="M327 781l101 -99l-159 -125l-71 64zM37 201v315h196v-308c0 -48 11 -76 51 -76c57 0 70 47 70 120v264h195v-516h-177l-6 74h-2c-25 -42 -67 -86 -159 -86c-103 0 -168 63 -168 213z" />
    <glyph glyph-name="ucircumflex" unicode="&#xfb;" horiz-adv-x="590" 
d="M244 756h98l120 -142l-64 -57l-107 81l-102 -81l-65 57zM37 201v315h196v-308c0 -48 11 -76 51 -76c57 0 70 47 70 120v264h195v-516h-177l-6 74h-2c-25 -42 -67 -86 -159 -86c-103 0 -168 63 -168 213z" />
    <glyph glyph-name="udieresis" unicode="&#xfc;" horiz-adv-x="590" 
d="M318 599v129h136v-129h-136zM130 599v129h136v-129h-136zM37 201v315h196v-308c0 -48 11 -76 51 -76c57 0 70 47 70 120v264h195v-516h-177l-6 74h-2c-25 -42 -67 -86 -159 -86c-103 0 -168 63 -168 213z" />
    <glyph glyph-name="yacute" unicode="&#xfd;" horiz-adv-x="567" 
d="M559 516l-171 -504c-54 -156 -107 -207 -234 -207c-46 0 -100 9 -118 16l17 125c19 -5 41 -9 60 -9c33 0 62 12 79 64l2 5l-184 510h209l66 -316h6l68 316h200zM322 781l101 -99l-159 -125l-71 64z" />
    <glyph glyph-name="thorn" unicode="&#xfe;" horiz-adv-x="582" 
d="M381 528c93 0 182 -61 182 -256c0 -205 -92 -284 -214 -284c-45 0 -91 18 -114 47h-1v-218h-191v917h195v-279h1c21 33 71 73 142 73zM301 406c-49 0 -68 -53 -68 -146c0 -95 17 -148 63 -148s69 48 69 160c0 89 -15 134 -64 134z" />
    <glyph glyph-name="ydieresis" unicode="&#xff;" horiz-adv-x="567" 
d="M559 516l-171 -504c-54 -156 -107 -207 -234 -207c-46 0 -100 9 -118 16l17 125c19 -5 41 -9 60 -9c33 0 62 12 79 64l2 5l-184 510h209l66 -316h6l68 316h200zM313 599v129h136v-129h-136zM125 599v129h136v-129h-136z" />
    <glyph glyph-name="Amacron" unicode="&#x100;" horiz-adv-x="725" 
d="M236 734h246l243 -734h-204l-48 150h-229l-46 -150h-198zM431 302l-73 247h-3l-72 -247h148zM213 785v114h288v-114h-288z" />
    <glyph glyph-name="amacron" unicode="&#x101;" horiz-adv-x="553" 
d="M538 116l5 -112c-116 -28 -189 -15 -215 59c-29 -46 -76 -75 -157 -75c-114 0 -154 72 -154 151c0 140 124 152 286 169v13c0 54 -4 84 -46 84c-31 0 -47 -19 -38 -67l-177 -17c-17 119 40 207 222 207c177 0 231 -83 231 -210v-170c0 -26 7 -38 43 -32zM303 184v22
c-73 -9 -93 -25 -93 -59c0 -29 25 -40 38 -40c39 0 55 39 55 77zM121 599v114h288v-114h-288z" />
    <glyph glyph-name="Abreve" unicode="&#x102;" horiz-adv-x="725" 
d="M236 734h246l243 -734h-204l-48 150h-229l-46 -150h-198zM431 302l-73 247h-3l-72 -247h148zM193 919l85 17c17 -47 42 -67 81 -67c43 0 68 13 91 67l82 -17c-23 -111 -73 -159 -174 -159c-89 0 -147 40 -165 159z" />
    <glyph glyph-name="abreve" unicode="&#x103;" horiz-adv-x="553" 
d="M538 116l5 -112c-116 -28 -189 -15 -215 59c-29 -46 -76 -75 -157 -75c-114 0 -154 72 -154 151c0 140 124 152 286 169v13c0 54 -4 84 -46 84c-31 0 -47 -19 -38 -67l-177 -17c-17 119 40 207 222 207c177 0 231 -83 231 -210v-170c0 -26 7 -38 43 -32zM303 184v22
c-73 -9 -93 -25 -93 -59c0 -29 25 -40 38 -40c39 0 55 39 55 77zM105 740l85 10c8 -48 34 -73 77 -73c45 0 73 19 87 73l82 -10c-16 -110 -64 -172 -170 -172c-95 0 -150 54 -161 172z" />
    <glyph glyph-name="Aogonek" unicode="&#x104;" horiz-adv-x="725" 
d="M236 734h246l243 -734h-65c-27 -26 -50 -50 -50 -77c0 -13 9 -19 19 -19c13 0 23 10 36 26l53 -43c-33 -43 -81 -82 -152 -82c-54 0 -90 22 -90 72c0 43 28 82 82 123h-37l-48 150h-229l-46 -150h-198zM431 302l-73 247h-3l-72 -247h148z" />
    <glyph glyph-name="aogonek" unicode="&#x105;" horiz-adv-x="553" 
d="M538 116l5 -112c-53 -7 -108 -38 -108 -81c0 -13 9 -19 19 -19c13 0 23 10 36 26l53 -43c-33 -43 -81 -82 -152 -82c-54 0 -90 22 -90 72c0 43 28 83 83 124c-26 11 -45 31 -56 62c-29 -46 -76 -75 -157 -75c-114 0 -154 72 -154 151c0 140 124 152 286 169v13
c0 54 -4 84 -46 84c-31 0 -47 -19 -38 -67l-177 -17c-17 119 40 207 222 207c177 0 231 -83 231 -210v-170c0 -26 7 -38 43 -32zM303 184v22c-73 -9 -93 -25 -93 -59c0 -29 25 -40 38 -40c39 0 55 39 55 77z" />
    <glyph glyph-name="Cacute" unicode="&#x106;" horiz-adv-x="666" 
d="M350 145c54 0 79 33 85 109l193 -14c-19 -175 -115 -252 -287 -252c-190 0 -308 122 -308 367c0 270 135 392 327 392c180 0 273 -104 277 -268l-199 -15c1 101 -36 127 -88 127c-57 0 -106 -46 -106 -232c0 -165 47 -214 106 -214zM413 953l65 -120l-183 -76l-50 83z
" />
    <glyph glyph-name="cacute" unicode="&#x107;" horiz-adv-x="536" 
d="M317 781l101 -99l-159 -125l-71 64zM523 318l-174 -15c-3 71 -34 87 -61 87c-33 0 -70 -20 -70 -127c0 -111 28 -138 69 -138c27 0 52 11 63 72l172 -11c-19 -152 -131 -198 -241 -198c-184 0 -263 111 -263 268c0 173 105 272 274 272c151 0 225 -89 231 -210z" />
    <glyph glyph-name="Ccircumflex" unicode="&#x108;" horiz-adv-x="666" 
d="M350 145c54 0 79 33 85 109l193 -14c-19 -175 -115 -252 -287 -252c-190 0 -308 122 -308 367c0 270 135 392 327 392c180 0 273 -104 277 -268l-199 -15c1 101 -36 127 -88 127c-57 0 -106 -46 -106 -232c0 -165 47 -214 106 -214zM306 929h98l117 -113l-50 -62l-118 67
l-114 -67l-50 62z" />
    <glyph glyph-name="ccircumflex" unicode="&#x109;" horiz-adv-x="536" 
d="M235 756h98l120 -142l-64 -57l-107 81l-102 -81l-65 57zM523 318l-174 -15c-3 71 -34 87 -61 87c-33 0 -70 -20 -70 -127c0 -111 28 -138 69 -138c27 0 52 11 63 72l172 -11c-19 -152 -131 -198 -241 -198c-184 0 -263 111 -263 268c0 173 105 272 274 272
c151 0 225 -89 231 -210z" />
    <glyph glyph-name="Cdotaccent" unicode="&#x10a;" horiz-adv-x="666" 
d="M256 778v139h196v-139h-196zM350 145c54 0 79 33 85 109l193 -14c-19 -175 -115 -252 -287 -252c-190 0 -308 122 -308 367c0 270 135 392 327 392c180 0 273 -104 277 -268l-199 -15c1 101 -36 127 -88 127c-57 0 -106 -46 -106 -232c0 -165 47 -214 106 -214z" />
    <glyph glyph-name="cdotaccent" unicode="&#x10b;" horiz-adv-x="536" 
d="M523 318l-174 -15c-3 71 -34 87 -61 87c-33 0 -70 -20 -70 -127c0 -111 28 -138 69 -138c27 0 52 11 63 72l172 -11c-19 -152 -131 -198 -241 -198c-184 0 -263 111 -263 268c0 173 105 272 274 272c151 0 225 -89 231 -210zM186 595v139h196v-139h-196z" />
    <glyph glyph-name="Ccaron" unicode="&#x10c;" horiz-adv-x="666" 
d="M350 145c54 0 79 33 85 109l193 -14c-19 -175 -115 -252 -287 -252c-190 0 -308 122 -308 367c0 270 135 392 327 392c180 0 273 -104 277 -268l-199 -15c1 101 -36 127 -88 127c-57 0 -106 -46 -106 -232c0 -165 47 -214 106 -214zM402 774h-99l-116 114l51 63l116 -64
l115 64l49 -63z" />
    <glyph glyph-name="ccaron" unicode="&#x10d;" horiz-adv-x="536" 
d="M332 568h-98l-120 142l64 57l106 -83l103 83l65 -57zM523 318l-174 -15c-3 71 -34 87 -61 87c-33 0 -70 -20 -70 -127c0 -111 28 -138 69 -138c27 0 52 11 63 72l172 -11c-19 -152 -131 -198 -241 -198c-184 0 -263 111 -263 268c0 173 105 272 274 272
c151 0 225 -89 231 -210z" />
    <glyph glyph-name="Dcaron" unicode="&#x10e;" horiz-adv-x="703" 
d="M383 769h-99l-116 114l51 63l116 -64l115 64l49 -63zM281 0h-208v734h211c273 0 386 -129 386 -345c0 -253 -109 -389 -389 -389zM274 163h35c92 0 156 50 156 210s-62 199 -159 199h-32v-409z" />
    <glyph glyph-name="dcaron" unicode="&#x10f;" horiz-adv-x="687" 
d="M568 734h133l-40 -198l-87 2zM347 734h196v-734h-176l-12 60h-2c-17 -35 -65 -72 -132 -72c-119 0 -201 69 -201 259c0 181 83 281 210 281c64 0 96 -24 116 -53h1v259zM352 258c0 107 -17 148 -66 148c-39 0 -63 -33 -63 -157c0 -102 19 -141 63 -141c54 0 66 67 66 150
z" />
    <glyph glyph-name="Dcroat" unicode="&#x110;" horiz-adv-x="718" 
d="M295 0h-208v300h-67v136h67v298h211c273 0 386 -129 386 -345c0 -253 -109 -389 -389 -389zM288 163h35c92 0 156 50 156 210s-62 199 -159 199h-32v-136h127v-136h-127v-137z" />
    <glyph glyph-name="dcroat" unicode="&#x111;" 
d="M347 734h196v-46h43v-118h-43v-570h-176l-12 60h-2c-17 -35 -65 -72 -132 -72c-119 0 -201 69 -201 259c0 181 83 281 210 281c64 0 96 -24 116 -53h1v95h-159v118h159v46zM352 258c0 107 -17 148 -66 148c-39 0 -63 -33 -63 -157c0 -102 19 -141 63 -141
c54 0 66 67 66 150z" />
    <glyph glyph-name="Emacron" unicode="&#x112;" horiz-adv-x="581" 
d="M156 785v114h288v-114h-288zM499 452v-157h-225v-132h268v-163h-469v734h456v-162h-255v-120h225z" />
    <glyph glyph-name="emacron" unicode="&#x113;" horiz-adv-x="555" 
d="M362 183l167 -17c-33 -148 -144 -178 -246 -178c-179 0 -265 107 -265 264c0 177 109 276 275 276c180 0 260 -118 240 -307h-316c1 -67 25 -96 75 -96c36 0 59 17 70 58zM218 329h125c6 64 -27 77 -57 77c-41 0 -63 -25 -68 -77zM140 599v114h288v-114h-288z" />
    <glyph glyph-name="Ebreve" unicode="&#x114;" horiz-adv-x="581" 
d="M132 919l85 17c17 -47 42 -67 81 -67c43 0 68 13 91 67l82 -17c-23 -111 -73 -159 -174 -159c-89 0 -147 40 -165 159zM499 452v-157h-225v-132h268v-163h-469v734h456v-162h-255v-120h225z" />
    <glyph glyph-name="ebreve" unicode="&#x115;" horiz-adv-x="555" 
d="M362 183l167 -17c-33 -148 -144 -178 -246 -178c-179 0 -265 107 -265 264c0 177 109 276 275 276c180 0 260 -118 240 -307h-316c1 -67 25 -96 75 -96c36 0 59 17 70 58zM218 329h125c6 64 -27 77 -57 77c-41 0 -63 -25 -68 -77zM128 740l85 10c8 -48 34 -73 77 -73
c45 0 73 19 87 73l82 -10c-16 -110 -64 -172 -170 -172c-95 0 -150 54 -161 172z" />
    <glyph glyph-name="Edotaccent" unicode="&#x116;" horiz-adv-x="581" 
d="M206 778v139h196v-139h-196zM499 452v-157h-225v-132h268v-163h-469v734h456v-162h-255v-120h225z" />
    <glyph glyph-name="edotaccent" unicode="&#x117;" horiz-adv-x="555" 
d="M362 183l167 -17c-33 -148 -144 -178 -246 -178c-179 0 -265 107 -265 264c0 177 109 276 275 276c180 0 260 -118 240 -307h-316c1 -67 25 -96 75 -96c36 0 59 17 70 58zM218 329h125c6 64 -27 77 -57 77c-41 0 -63 -25 -68 -77zM189 595v139h196v-139h-196z" />
    <glyph glyph-name="Eogonek" unicode="&#x118;" horiz-adv-x="581" 
d="M499 452v-157h-225v-132h268v-163h-55c-29 -22 -53 -49 -53 -75c0 -17 10 -21 21 -21c13 0 21 11 34 27l53 -44c-33 -43 -81 -82 -152 -82c-54 0 -90 22 -90 72c0 43 36 86 88 123h-315v734h456v-162h-255v-120h225z" />
    <glyph glyph-name="eogonek" unicode="&#x119;" horiz-adv-x="555" 
d="M362 183l167 -17c-15 -68 -45 -108 -81 -138c-47 -39 -77 -77 -77 -105c0 -13 9 -19 19 -19c13 0 23 10 36 26l53 -43c-33 -43 -81 -82 -152 -82c-54 0 -90 22 -90 72c0 40 25 71 80 112c-11 -1 -23 -1 -34 -1c-179 0 -265 107 -265 264c0 177 109 276 275 276
c180 0 260 -118 240 -307h-316c1 -67 25 -96 75 -96c36 0 59 17 70 58zM218 329h125c6 64 -27 77 -57 77c-41 0 -63 -25 -68 -77z" />
    <glyph glyph-name="Ecaron" unicode="&#x11a;" horiz-adv-x="581" 
d="M344 769h-99l-116 114l51 63l116 -64l115 64l49 -63zM499 452v-157h-225v-132h268v-163h-469v734h456v-162h-255v-120h225z" />
    <glyph glyph-name="ecaron" unicode="&#x11b;" horiz-adv-x="555" 
d="M334 568h-98l-120 142l64 57l106 -83l103 83l65 -57zM362 183l167 -17c-33 -148 -144 -178 -246 -178c-179 0 -265 107 -265 264c0 177 109 276 275 276c180 0 260 -118 240 -307h-316c1 -67 25 -96 75 -96c36 0 59 17 70 58zM218 329h125c6 64 -27 77 -57 77
c-41 0 -63 -25 -68 -77z" />
    <glyph glyph-name="Gcircumflex" unicode="&#x11c;" horiz-adv-x="704" 
d="M380 240v140h278v-392h-120l-22 79c-43 -48 -108 -79 -180 -79c-188 0 -303 125 -303 363c0 285 143 396 335 396c166 0 263 -92 267 -268l-199 -15c-2 107 -37 127 -82 127c-60 0 -110 -48 -110 -233c0 -171 56 -215 126 -215c50 0 102 23 112 97h-102zM312 929h98
l117 -113l-50 -62l-118 67l-114 -67l-50 62z" />
    <glyph glyph-name="gcircumflex" unicode="&#x11d;" 
d="M241 756h98l120 -142l-64 -57l-107 81l-102 -81l-65 57zM369 516h174v-447c0 -183 -106 -264 -274 -264c-139 0 -214 60 -236 160l180 31c3 -24 7 -55 60 -55c48 0 74 32 74 108v35h-1c-16 -30 -59 -63 -133 -63c-102 0 -193 53 -193 240c0 182 93 267 209 267
c66 0 106 -21 126 -61h4zM352 267c0 88 -13 140 -64 140c-47 0 -65 -46 -65 -140c0 -105 22 -126 60 -126c56 0 69 42 69 126z" />
    <glyph glyph-name="Gbreve" unicode="&#x11e;" horiz-adv-x="704" 
d="M196 933l85 17c17 -47 42 -67 81 -67c43 0 68 13 91 67l82 -17c-23 -111 -73 -159 -174 -159c-89 0 -147 40 -165 159zM380 240v140h278v-392h-120l-22 79c-43 -48 -108 -79 -180 -79c-188 0 -303 125 -303 363c0 285 143 396 335 396c166 0 263 -92 267 -268l-199 -15
c-2 107 -37 127 -82 127c-60 0 -110 -48 -110 -233c0 -171 56 -215 126 -215c50 0 102 23 112 97h-102z" />
    <glyph glyph-name="gbreve" unicode="&#x11f;" 
d="M369 516h174v-447c0 -183 -106 -264 -274 -264c-139 0 -214 60 -236 160l180 31c3 -24 7 -55 60 -55c48 0 74 32 74 108v35h-1c-16 -30 -59 -63 -133 -63c-102 0 -193 53 -193 240c0 182 93 267 209 267c66 0 106 -21 126 -61h4zM352 267c0 88 -13 140 -64 140
c-47 0 -65 -46 -65 -140c0 -105 22 -126 60 -126c56 0 69 42 69 126zM125 740l85 10c8 -48 34 -73 77 -73c45 0 73 19 87 73l82 -10c-16 -110 -64 -172 -170 -172c-95 0 -150 54 -161 172z" />
    <glyph glyph-name="Gdotaccent" unicode="&#x120;" horiz-adv-x="704" 
d="M262 778v139h196v-139h-196zM380 240v140h278v-392h-120l-22 79c-43 -48 -108 -79 -180 -79c-188 0 -303 125 -303 363c0 285 143 396 335 396c166 0 263 -92 267 -268l-199 -15c-2 107 -37 127 -82 127c-60 0 -110 -48 -110 -233c0 -171 56 -215 126 -215
c50 0 102 23 112 97h-102z" />
    <glyph glyph-name="gdotaccent" unicode="&#x121;" 
d="M369 516h174v-447c0 -183 -106 -264 -274 -264c-139 0 -214 60 -236 160l180 31c3 -24 7 -55 60 -55c48 0 74 32 74 108v35h-1c-16 -30 -59 -63 -133 -63c-102 0 -193 53 -193 240c0 182 93 267 209 267c66 0 106 -21 126 -61h4zM352 267c0 88 -13 140 -64 140
c-47 0 -65 -46 -65 -140c0 -105 22 -126 60 -126c56 0 69 42 69 126zM191 595v139h196v-139h-196z" />
    <glyph glyph-name="Gcommaaccent" unicode="&#x122;" horiz-adv-x="704" 
d="M380 240v140h278v-392h-120l-22 79c-43 -48 -108 -79 -180 -79c-188 0 -303 125 -303 363c0 285 143 396 335 396c166 0 263 -92 267 -268l-199 -15c-2 107 -37 127 -82 127c-60 0 -110 -48 -110 -233c0 -171 56 -215 126 -215c50 0 102 23 112 97h-102zM270 -169v130
h146v-103l-54 -135l-70 16l21 92h-43z" />
    <glyph glyph-name="gcommaaccent" unicode="&#x123;" 
d="M363 700v-130h-145v103l54 135l70 -17l-21 -91h42zM369 516h174v-447c0 -183 -106 -264 -274 -264c-139 0 -214 60 -236 160l180 31c3 -24 7 -55 60 -55c48 0 74 32 74 108v35h-1c-16 -30 -59 -63 -133 -63c-102 0 -193 53 -193 240c0 182 93 267 209 267
c66 0 106 -21 126 -61h4zM352 267c0 88 -13 140 -64 140c-47 0 -65 -46 -65 -140c0 -105 22 -126 60 -126c56 0 69 42 69 126z" />
    <glyph glyph-name="Hcircumflex" unicode="&#x124;" horiz-adv-x="757" 
d="M683 734v-734h-200v281h-209v-281h-201v734h201v-288h209v288h200zM330 929h98l117 -113l-50 -62l-118 67l-114 -67l-50 62z" />
    <glyph glyph-name="hcircumflex" unicode="&#x125;" horiz-adv-x="588" 
d="M553 315v-315h-195v309c0 62 -21 76 -51 76c-53 0 -69 -40 -69 -107v-278h-195v734h194v-276h3c24 34 69 70 147 70c101 0 166 -62 166 -213zM95 928h98l117 -113l-50 -62l-118 67l-114 -67l-50 62z" />
    <glyph glyph-name="Hbar" unicode="&#x126;" horiz-adv-x="777" 
d="M693 734v-75h57v-128h-57v-531h-200v281h-209v-281h-201v531h-57v128h57v75h201v-75h209v75h200zM284 446h209v85h-209v-85z" />
    <glyph glyph-name="hbar" unicode="&#x127;" horiz-adv-x="588" 
d="M553 315v-315h-195v309c0 62 -21 76 -51 76c-53 0 -69 -40 -69 -107v-278h-195v570h-49v118h49v46h194v-46h166v-118h-166v-112h3c24 34 69 70 147 70c101 0 166 -62 166 -213z" />
    <glyph glyph-name="Itilde" unicode="&#x128;" horiz-adv-x="432" 
d="M316 611v-488h73v-123h-345v123h72v488h-71v123h344v-123h-73zM113 774l-66 12c15 76 44 133 106 133c59 0 94 -26 132 -26c15 0 29 5 36 36l65 -10c-15 -88 -52 -137 -105 -137c-61 0 -100 28 -134 28c-17 0 -28 -10 -34 -36z" />
    <glyph glyph-name="itilde" unicode="&#x129;" horiz-adv-x="281" 
d="M43 0v516h195v-516h-195zM35 599l-66 12c15 76 44 133 106 133c59 0 94 -26 132 -26c15 0 29 5 36 36l65 -10c-15 -88 -52 -137 -105 -137c-61 0 -100 28 -134 28c-17 0 -28 -10 -34 -36z" />
    <glyph glyph-name="Imacron" unicode="&#x12a;" horiz-adv-x="432" 
d="M316 611v-488h73v-123h-345v123h72v488h-71v123h344v-123h-73zM73 785v114h288v-114h-288z" />
    <glyph glyph-name="imacron" unicode="&#x12b;" horiz-adv-x="281" 
d="M43 0v516h195v-516h-195zM-5 599v114h288v-114h-288z" />
    <glyph glyph-name="Ibreve" unicode="&#x12c;" horiz-adv-x="432" 
d="M316 611v-488h73v-123h-345v123h72v488h-71v123h344v-123h-73zM53 919l85 17c17 -47 42 -67 81 -67c43 0 68 13 91 67l82 -17c-23 -111 -73 -159 -174 -159c-89 0 -147 40 -165 159z" />
    <glyph glyph-name="ibreve" unicode="&#x12d;" horiz-adv-x="281" 
d="M43 0v516h195v-516h-195zM-21 740l85 10c8 -48 34 -73 77 -73c45 0 73 19 87 73l82 -10c-16 -110 -64 -172 -170 -172c-95 0 -150 54 -161 172z" />
    <glyph glyph-name="Iogonek" unicode="&#x12e;" horiz-adv-x="432" 
d="M316 611v-488h73v-123h-112c-27 -26 -50 -50 -50 -77c0 -13 9 -19 19 -19c13 0 23 10 36 26l53 -43c-33 -43 -81 -82 -152 -82c-54 0 -90 22 -90 72c0 43 28 82 82 123h-131v123h72v488h-71v123h344v-123h-73z" />
    <glyph glyph-name="iogonek" unicode="&#x12f;" horiz-adv-x="281" 
d="M43 0v516h195v-516h-40c-27 -26 -50 -50 -50 -77c0 -13 9 -19 19 -19c13 0 23 10 36 26l53 -43c-33 -43 -81 -82 -152 -82c-54 0 -90 22 -90 72c0 43 28 82 82 123h-53zM43 595v139h195v-139h-195z" />
    <glyph glyph-name="Idotaccent" unicode="&#x130;" horiz-adv-x="432" 
d="M316 611v-488h73v-123h-345v123h72v488h-71v123h344v-123h-73zM119 778v139h196v-139h-196z" />
    <glyph glyph-name="idotaccent" horiz-adv-x="281" 
d="M43 595v139h195v-139h-195zM43 0v516h195v-516h-195z" />
    <glyph glyph-name="dotlessi" unicode="&#x131;" horiz-adv-x="281" 
d="M43 0v516h195v-516h-195z" />
    <glyph glyph-name="IJ" unicode="&#x132;" horiz-adv-x="1022" 
d="M316 611v-488h73v-123h-345v123h72v488h-71v123h344v-123h-73zM441 254l190 11c4 -66 10 -120 68 -120c42 0 60 25 60 104v485h199v-488c0 -183 -102 -258 -264 -258c-163 0 -255 83 -253 266z" />
    <glyph glyph-name="Jcircumflex" unicode="&#x134;" horiz-adv-x="589" 
d="M9 254l190 11c4 -66 10 -120 68 -120c42 0 60 25 60 104v485h199v-488c0 -183 -102 -258 -264 -258c-163 0 -255 83 -253 266zM379 929h98l117 -113l-50 -62l-118 67l-114 -67l-50 62z" />
    <glyph glyph-name="jcircumflex" unicode="&#x135;" horiz-adv-x="273" 
d="M-107 -182l18 132c21 -5 41 -7 60 -7c51 0 71 17 71 81v492h196v-479c0 -202 -112 -232 -228 -232c-43 0 -98 8 -117 13zM92 756h98l120 -142l-64 -57l-107 81l-102 -81l-65 57z" />
    <glyph glyph-name="Kcommaaccent" unicode="&#x136;" horiz-adv-x="743" 
d="M299 -169v130h146v-103l-54 -135l-70 16l21 92h-43zM274 734v-273l221 273h224l-250 -298l275 -436h-236l-174 276l-60 -72v-204h-201v734h201z" />
    <glyph glyph-name="kcommaaccent" unicode="&#x137;" horiz-adv-x="596" 
d="M231 -169v130h146v-103l-54 -135l-70 16l21 92h-43zM238 734v-371l127 153h223l-168 -184l183 -332h-226l-92 193l-47 -52v-141h-195v734h195z" />
    <glyph glyph-name="kgreenlandic" unicode="&#x138;" horiz-adv-x="596" 
d="M238 516v-143l127 143h223l-168 -184l183 -332h-226l-92 184l-47 -52v-132h-195v516h195z" />
    <glyph glyph-name="Lacute" unicode="&#x139;" horiz-adv-x="554" 
d="M233 953l65 -120l-183 -76l-50 83zM274 734v-571h239v-163h-440v734h201z" />
    <glyph glyph-name="lacute" unicode="&#x13a;" horiz-adv-x="281" 
d="M200 953l65 -120l-183 -76l-50 83zM238 734v-734h-195v734h195z" />
    <glyph glyph-name="Lcommaaccent" unicode="&#x13b;" horiz-adv-x="554" 
d="M220 -169v130h146v-103l-54 -135l-70 16l21 92h-43zM274 734v-571h239v-163h-440v734h201z" />
    <glyph glyph-name="lcommaaccent" unicode="&#x13c;" horiz-adv-x="281" 
d="M66 -169v130h146v-103l-54 -135l-70 16l21 92h-43zM238 734v-734h-195v734h195z" />
    <glyph glyph-name="Lcaron" unicode="&#x13d;" horiz-adv-x="554" 
d="M332 734h133l-40 -198l-87 2zM274 734v-571h239v-163h-440v734h201z" />
    <glyph glyph-name="lcaron" unicode="&#x13e;" horiz-adv-x="385" 
d="M266 734h133l-40 -198l-87 2zM238 734v-734h-195v734h195z" />
    <glyph glyph-name="Ldot" unicode="&#x13f;" horiz-adv-x="554" 
d="M322 369v139h196v-139h-196zM274 734v-571h239v-163h-440v734h201z" />
    <glyph glyph-name="ldot" unicode="&#x140;" horiz-adv-x="452" 
d="M238 734v-734h-195v734h195zM269 317v139h196v-139h-196z" />
    <glyph glyph-name="Lslash" unicode="&#x141;" horiz-adv-x="554" 
d="M274 734v-239l108 46l35 -135l-143 -62v-181h239v-163h-440v268l-68 -27l-31 136l99 42v315h201z" />
    <glyph glyph-name="lslash" unicode="&#x142;" horiz-adv-x="388" 
d="M295 734v-238l56 26l37 -139l-93 -40v-343h-195v270l-56 -25l-33 137l89 40v312h195z" />
    <glyph glyph-name="Nacute" unicode="&#x143;" horiz-adv-x="768" 
d="M462 953l65 -120l-183 -76l-50 83zM695 0h-219l-217 422v-422h-186v734h229l207 -435v435h186v-734z" />
    <glyph glyph-name="nacute" unicode="&#x144;" horiz-adv-x="588" 
d="M343 781l101 -99l-159 -125l-71 64zM553 319v-319h-195v309c0 58 -19 76 -51 76c-53 0 -69 -42 -69 -109v-276h-195v516h177l6 -72h3c20 36 63 84 155 84c101 0 169 -58 169 -209z" />
    <glyph glyph-name="Ncommaaccent" unicode="&#x145;" horiz-adv-x="768" 
d="M327 -169v130h146v-103l-54 -135l-70 16l21 92h-43zM695 0h-219l-217 422v-422h-186v734h229l207 -435v435h186v-734z" />
    <glyph glyph-name="ncommaaccent" unicode="&#x146;" horiz-adv-x="588" 
d="M222 -169v130h146v-103l-54 -135l-70 16l21 92h-43zM553 319v-319h-195v309c0 58 -19 76 -51 76c-53 0 -69 -42 -69 -109v-276h-195v516h177l6 -72h3c20 36 63 84 155 84c101 0 169 -58 169 -209z" />
    <glyph glyph-name="Ncaron" unicode="&#x147;" horiz-adv-x="768" 
d="M453 769h-99l-116 114l51 63l116 -64l115 64l49 -63zM695 0h-219l-217 422v-422h-186v734h229l207 -435v435h186v-734z" />
    <glyph glyph-name="ncaron" unicode="&#x148;" horiz-adv-x="588" 
d="M355 568h-98l-120 142l64 57l106 -83l103 83l65 -57zM553 319v-319h-195v309c0 58 -19 76 -51 76c-53 0 -69 -42 -69 -109v-276h-195v516h177l6 -72h3c20 36 63 84 155 84c101 0 169 -58 169 -209z" />
    <glyph glyph-name="napostrophe" unicode="&#x149;" horiz-adv-x="675" 
d="M130 750v-130h-42l21 -91l-71 -17l-54 135v103h146zM640 319v-319h-195v309c0 58 -19 76 -51 76c-53 0 -69 -42 -69 -109v-276h-195v516h177l6 -72h3c20 36 63 84 155 84c101 0 169 -58 169 -209z" />
    <glyph glyph-name="Eng" unicode="&#x14a;" horiz-adv-x="768" 
d="M277 -169l27 143c17 -5 58 -16 101 -16c66 0 90 34 90 99l-236 365v-422h-186v734h211l225 -363v363h186v-671c0 -184 -98 -258 -265 -258c-58 0 -119 13 -153 26z" />
    <glyph glyph-name="eng" unicode="&#x14b;" horiz-adv-x="588" 
d="M208 -182l18 132c21 -5 42 -7 60 -7c48 0 70 15 72 71v295c0 58 -19 76 -51 76c-53 0 -69 -42 -69 -109v-276h-195v516h177l6 -72h3c20 36 63 84 155 84c101 0 169 -58 169 -209v-282v-15v-22h-2c-13 -168 -117 -195 -226 -195c-43 0 -98 8 -117 13z" />
    <glyph glyph-name="Omacron" unicode="&#x14c;" horiz-adv-x="724" 
d="M223 785v114h288v-114h-288zM359 -12c-219 0 -326 138 -326 375c0 245 133 384 338 384c214 0 319 -136 319 -372c0 -246 -114 -387 -331 -387zM363 143c74 0 117 55 117 230c0 162 -41 215 -115 215c-66 0 -121 -51 -121 -219c0 -165 40 -226 119 -226z" />
    <glyph glyph-name="omacron" unicode="&#x14d;" horiz-adv-x="582" 
d="M148 599v114h288v-114h-288zM284 -12c-172 0 -266 102 -266 269c0 177 129 271 280 271c161 0 266 -92 266 -261c0 -185 -111 -279 -280 -279zM291 121c48 0 72 46 72 140c0 90 -22 130 -69 130c-48 0 -76 -41 -76 -133c0 -95 21 -137 73 -137z" />
    <glyph glyph-name="Obreve" unicode="&#x14e;" horiz-adv-x="724" 
d="M203 933l85 17c17 -47 42 -67 81 -67c43 0 68 13 91 67l82 -17c-23 -111 -73 -159 -174 -159c-89 0 -147 40 -165 159zM359 -12c-219 0 -326 138 -326 375c0 245 133 384 338 384c214 0 319 -136 319 -372c0 -246 -114 -387 -331 -387zM363 143c74 0 117 55 117 230
c0 162 -41 215 -115 215c-66 0 -121 -51 -121 -219c0 -165 40 -226 119 -226z" />
    <glyph glyph-name="obreve" unicode="&#x14f;" horiz-adv-x="582" 
d="M284 -12c-172 0 -266 102 -266 269c0 177 129 271 280 271c161 0 266 -92 266 -261c0 -185 -111 -279 -280 -279zM291 121c48 0 72 46 72 140c0 90 -22 130 -69 130c-48 0 -76 -41 -76 -133c0 -95 21 -137 73 -137zM132 740l85 10c8 -48 34 -73 77 -73c45 0 73 19 87 73
l82 -10c-16 -110 -64 -172 -170 -172c-95 0 -150 54 -161 172z" />
    <glyph glyph-name="Ohungarumlaut" unicode="&#x150;" horiz-adv-x="724" 
d="M359 -12c-219 0 -326 138 -326 375c0 245 133 384 338 384c214 0 319 -136 319 -372c0 -246 -114 -387 -331 -387zM363 143c74 0 117 55 117 230c0 162 -41 215 -115 215c-66 0 -121 -51 -121 -219c0 -165 40 -226 119 -226zM553 940l67 -91l-176 -92l-48 63zM335 956
l78 -91l-160 -104l-51 61z" />
    <glyph glyph-name="ohungarumlaut" unicode="&#x151;" horiz-adv-x="582" 
d="M438 762l86 -74l-150 -128l-61 51zM261 774l96 -73l-132 -136l-64 47zM284 -12c-172 0 -266 102 -266 269c0 177 129 271 280 271c161 0 266 -92 266 -261c0 -185 -111 -279 -280 -279zM291 121c48 0 72 46 72 140c0 90 -22 130 -69 130c-48 0 -76 -41 -76 -133
c0 -95 21 -137 73 -137z" />
    <glyph glyph-name="OE" unicode="&#x152;" horiz-adv-x="953" 
d="M871 452v-157h-225v-132h268v-163h-473c-29 -8 -60 -12 -96 -12c-196 0 -312 138 -312 369c0 249 135 390 327 390c36 0 71 -5 102 -13h439v-162h-255v-120h225zM368 143c20 0 56 2 77 11v420c-22 9 -52 14 -76 14c-74 0 -125 -51 -125 -228c0 -156 40 -217 124 -217z
" />
    <glyph glyph-name="oe" unicode="&#x153;" horiz-adv-x="891" 
d="M697 183l168 -17c-33 -146 -144 -178 -240 -178c-71 0 -124 16 -170 58c-50 -38 -108 -58 -177 -58c-162 0 -260 104 -260 263c0 183 129 277 274 277c75 0 129 -24 171 -58c47 37 101 58 172 58c169 0 255 -118 234 -307h-316c1 -67 24 -96 74 -96c37 0 59 17 70 58z
M289 121c50 0 74 45 74 139c0 92 -22 131 -70 131s-75 -41 -75 -138c0 -88 22 -132 71 -132zM554 329h125c6 64 -27 77 -57 77c-41 0 -63 -25 -68 -77z" />
    <glyph glyph-name="Racute" unicode="&#x154;" horiz-adv-x="667" 
d="M273 278v-278h-200v734h298c178 0 250 -88 250 -218c0 -75 -17 -167 -121 -211l138 -305h-213l-117 278h-35zM273 426h44c57 0 103 10 103 75c0 44 -21 77 -86 77h-61v-152zM380 953l65 -120l-183 -76l-50 83z" />
    <glyph glyph-name="racute" unicode="&#x155;" horiz-adv-x="522" 
d="M320 781l101 -99l-159 -125l-71 64zM506 295l-191 -10c7 64 2 97 -29 97c-42 0 -48 -59 -48 -146v-236h-195v516h177l6 -72h3c17 34 52 84 142 84c107 0 158 -72 135 -233z" />
    <glyph glyph-name="Rcommaaccent" unicode="&#x156;" horiz-adv-x="667" 
d="M273 278v-278h-200v734h298c178 0 250 -88 250 -218c0 -75 -17 -167 -121 -211l138 -305h-213l-117 278h-35zM273 426h44c57 0 103 10 103 75c0 44 -21 77 -86 77h-61v-152zM263 -169v130h146v-103l-54 -135l-70 16l21 92h-43z" />
    <glyph glyph-name="rcommaaccent" unicode="&#x157;" horiz-adv-x="522" 
d="M64 -169v130h146v-103l-54 -135l-70 16l21 92h-43zM506 295l-191 -10c7 64 2 97 -29 97c-42 0 -48 -59 -48 -146v-236h-195v516h177l6 -72h3c17 34 52 84 142 84c107 0 158 -72 135 -233z" />
    <glyph glyph-name="Rcaron" unicode="&#x158;" horiz-adv-x="667" 
d="M369 769h-99l-116 114l51 63l116 -64l115 64l49 -63zM273 278v-278h-200v734h298c178 0 250 -88 250 -218c0 -75 -17 -167 -121 -211l138 -305h-213l-117 278h-35zM273 426h44c57 0 103 10 103 75c0 44 -21 77 -86 77h-61v-152z" />
    <glyph glyph-name="rcaron" unicode="&#x159;" horiz-adv-x="522" 
d="M332 568h-98l-120 142l64 57l106 -83l103 83l65 -57zM506 295l-191 -10c7 64 2 97 -29 97c-42 0 -48 -59 -48 -146v-236h-195v516h177l6 -72h3c17 34 52 84 142 84c107 0 158 -72 135 -233z" />
    <glyph glyph-name="Sacute" unicode="&#x15a;" horiz-adv-x="651" 
d="M610 549l-196 -39c-14 58 -48 83 -91 83s-67 -16 -67 -52c0 -50 58 -65 127 -82c104 -26 235 -53 235 -216c0 -177 -133 -255 -286 -255c-179 0 -285 74 -310 227l207 28c11 -53 35 -96 108 -96c47 0 77 17 77 55c0 56 -65 70 -141 89c-104 26 -230 60 -230 229
c0 140 119 228 288 228c151 0 252 -55 279 -199zM399 953l65 -120l-183 -76l-50 83z" />
    <glyph glyph-name="sacute" unicode="&#x15b;" horiz-adv-x="509" 
d="M298 781l101 -99l-159 -125l-71 64zM484 396l-169 -38c-8 28 -24 46 -57 46c-21 0 -43 -5 -43 -24c0 -66 276 -6 276 -207c0 -129 -129 -185 -238 -185c-138 0 -219 45 -242 154l174 24c10 -33 25 -55 69 -55c26 0 45 11 45 30c0 71 -272 9 -272 209
c0 115 111 178 236 178c123 0 187 -40 221 -132z" />
    <glyph glyph-name="Scircumflex" unicode="&#x15c;" horiz-adv-x="651" 
d="M610 549l-196 -39c-14 58 -48 83 -91 83s-67 -16 -67 -52c0 -50 58 -65 127 -82c104 -26 235 -53 235 -216c0 -177 -133 -255 -286 -255c-179 0 -285 74 -310 227l207 28c11 -53 35 -96 108 -96c47 0 77 17 77 55c0 56 -65 70 -141 89c-104 26 -230 60 -230 229
c0 140 119 228 288 228c151 0 252 -55 279 -199zM292 929h98l117 -113l-50 -62l-118 67l-114 -67l-50 62z" />
    <glyph glyph-name="scircumflex" unicode="&#x15d;" horiz-adv-x="509" 
d="M210 756h98l120 -142l-64 -57l-107 81l-102 -81l-65 57zM484 396l-169 -38c-8 28 -24 46 -57 46c-21 0 -43 -5 -43 -24c0 -66 276 -6 276 -207c0 -129 -129 -185 -238 -185c-138 0 -219 45 -242 154l174 24c10 -33 25 -55 69 -55c26 0 45 11 45 30c0 71 -272 9 -272 209
c0 115 111 178 236 178c123 0 187 -40 221 -132z" />
    <glyph glyph-name="Scedilla" unicode="&#x15e;" horiz-adv-x="651" 
d="M254 -90l35 80c-153 10 -244 84 -267 225l207 28c11 -53 35 -96 108 -96c47 0 77 17 77 55c0 56 -65 70 -141 89c-104 26 -230 60 -230 229c0 140 119 228 288 228c151 0 252 -55 279 -199l-196 -39c-14 58 -48 83 -91 83s-67 -16 -67 -52c0 -50 58 -65 127 -82
c104 -26 235 -53 235 -216c0 -166 -117 -245 -258 -254l-17 -30c10 4 14 5 29 5c57 0 89 -41 89 -94c0 -54 -38 -108 -120 -108c-48 0 -84 9 -132 44l46 62c23 -14 48 -23 63 -23c19 0 27 12 27 30c0 19 -7 27 -23 27c-11 0 -19 -4 -27 -9z" />
    <glyph glyph-name="scedilla" unicode="&#x15f;" horiz-adv-x="509" 
d="M175 -90l35 80c-112 9 -179 55 -199 152l174 24c10 -33 25 -55 69 -55c26 0 45 11 45 30c0 71 -272 9 -272 209c0 115 111 178 236 178c123 0 187 -40 221 -132l-169 -38c-8 28 -24 46 -57 46c-21 0 -43 -5 -43 -24c0 -66 276 -6 276 -207c0 -118 -108 -175 -210 -184
l-17 -30c10 4 14 5 29 5c57 0 89 -41 89 -94c0 -54 -38 -108 -120 -108c-48 0 -84 9 -132 44l46 62c23 -14 48 -23 63 -23c19 0 27 12 27 30c0 19 -7 27 -23 27c-11 0 -19 -4 -27 -9z" />
    <glyph glyph-name="Scaron" unicode="&#x160;" horiz-adv-x="651" 
d="M610 549l-196 -39c-14 58 -48 83 -91 83s-67 -16 -67 -52c0 -50 58 -65 127 -82c104 -26 235 -53 235 -216c0 -177 -133 -255 -286 -255c-179 0 -285 74 -310 227l207 28c11 -53 35 -96 108 -96c47 0 77 17 77 55c0 56 -65 70 -141 89c-104 26 -230 60 -230 229
c0 140 119 228 288 228c151 0 252 -55 279 -199zM384 774h-99l-116 114l51 63l116 -64l115 64l49 -63z" />
    <glyph glyph-name="scaron" unicode="&#x161;" horiz-adv-x="509" 
d="M306 568h-98l-120 142l64 57l106 -83l103 83l65 -57zM484 396l-169 -38c-8 28 -24 46 -57 46c-21 0 -43 -5 -43 -24c0 -66 276 -6 276 -207c0 -129 -129 -185 -238 -185c-138 0 -219 45 -242 154l174 24c10 -33 25 -55 69 -55c26 0 45 11 45 30c0 71 -272 9 -272 209
c0 115 111 178 236 178c123 0 187 -40 221 -132z" />
    <glyph glyph-name="Scommaaccent" unicode="&#x218;" horiz-adv-x="651" 
d="M610 549l-196 -39c-14 58 -48 83 -91 83s-67 -16 -67 -52c0 -50 58 -65 127 -82c104 -26 235 -53 235 -216c0 -177 -133 -255 -286 -255c-179 0 -285 74 -310 227l207 28c11 -53 35 -96 108 -96c47 0 77 17 77 55c0 56 -65 70 -141 89c-104 26 -230 60 -230 229
c0 140 119 228 288 228c151 0 252 -55 279 -199zM265 -169v130h146v-103l-54 -135l-70 16l21 92h-43z" />
    <glyph glyph-name="scommaaccent" unicode="&#x219;" horiz-adv-x="509" 
d="M178 -169v130h146v-103l-54 -135l-70 16l21 92h-43zM484 396l-169 -38c-8 28 -24 46 -57 46c-21 0 -43 -5 -43 -24c0 -66 276 -6 276 -207c0 -129 -129 -185 -238 -185c-138 0 -219 45 -242 154l174 24c10 -33 25 -55 69 -55c26 0 45 11 45 30c0 71 -272 9 -272 209
c0 115 111 178 236 178c123 0 187 -40 221 -132z" />
    <glyph glyph-name="uni0162" unicode="&#x162;" horiz-adv-x="576" 
d="M188 0v572h-186v162h572v-162h-186v-572h-70l-23 -41c10 4 14 5 29 5c57 0 89 -41 89 -94c0 -54 -38 -108 -120 -108c-48 0 -84 9 -132 44l46 62c23 -14 48 -23 63 -23c19 0 27 12 27 30c0 19 -7 27 -23 27c-11 0 -19 -4 -27 -9l-41 17l40 90h-58z" />
    <glyph glyph-name="uni0163" unicode="&#x163;" horiz-adv-x="404" 
d="M152 -90l38 87c-72 19 -122 70 -122 186v206h-59v127h59v102l196 52v-154h107v-127h-107v-178c0 -64 17 -84 63 -84c13 0 30 3 51 9l17 -127c-27 -12 -71 -21 -123 -21h-15l-16 -29c10 4 14 5 29 5c57 0 89 -41 89 -94c0 -54 -38 -108 -120 -108c-48 0 -84 9 -132 44
l46 62c23 -14 48 -23 63 -23c19 0 27 12 27 30c0 19 -7 27 -23 27c-11 0 -19 -4 -27 -9z" />
    <glyph glyph-name="Tcaron" unicode="&#x164;" horiz-adv-x="576" 
d="M334 769h-99l-116 114l51 63l116 -64l115 64l49 -63zM188 0v572h-186v162h572v-162h-186v-572h-200z" />
    <glyph glyph-name="tcaron" unicode="&#x165;" horiz-adv-x="404" 
d="M292 758h133l-40 -198l-87 2zM9 389v127h59v102l196 52v-154h107v-127h-107v-178c0 -64 17 -84 63 -84c13 0 30 3 51 9l17 -127c-27 -12 -71 -21 -123 -21c-114 0 -204 40 -204 195v206h-59z" />
    <glyph glyph-name="Tbar" unicode="&#x166;" horiz-adv-x="576" 
d="M188 0v287h-145v142h145v143h-186v162h572v-162h-186v-143h145v-142h-145v-287h-200z" />
    <glyph glyph-name="tbar" unicode="&#x167;" horiz-adv-x="404" 
d="M9 389v127h59v102l196 52v-154h107v-127h-107v-35h107v-117h-107v-26c0 -64 17 -84 63 -84c13 0 30 3 51 9l17 -127c-27 -12 -71 -21 -123 -21c-114 0 -204 40 -204 195v54h-59v117h59v35h-59z" />
    <glyph glyph-name="uni021A" unicode="&#x21a;" horiz-adv-x="576" 
d="M188 0v572h-186v162h572v-162h-186v-572h-200zM211 -169v130h146v-103l-54 -135l-70 16l21 92h-43z" />
    <glyph glyph-name="uni021B" unicode="&#x21b;" horiz-adv-x="404" 
d="M164 -169v130h146v-103l-54 -135l-70 16l21 92h-43zM9 389v127h59v102l196 52v-154h107v-127h-107v-178c0 -64 17 -84 63 -84c13 0 30 3 51 9l17 -127c-27 -12 -71 -21 -123 -21c-114 0 -204 40 -204 195v206h-59z" />
    <glyph glyph-name="Utilde" unicode="&#x168;" horiz-adv-x="728" 
d="M261 774l-66 12c15 76 44 133 106 133c59 0 94 -26 132 -26c15 0 29 5 36 36l65 -10c-15 -88 -52 -137 -105 -137c-61 0 -100 28 -134 28c-17 0 -28 -10 -34 -36zM469 331v403h196v-467c0 -178 -94 -279 -306 -279c-223 0 -296 109 -296 286v460h196v-403
c0 -119 9 -185 106 -185s104 61 104 185z" />
    <glyph glyph-name="utilde" unicode="&#x169;" horiz-adv-x="590" 
d="M37 201v315h196v-308c0 -48 11 -76 51 -76c57 0 70 47 70 120v264h195v-516h-177l-6 74h-2c-25 -42 -67 -86 -159 -86c-103 0 -168 63 -168 213zM188 599l-66 12c15 76 44 133 106 133c59 0 94 -26 132 -26c15 0 29 5 36 36l65 -10c-15 -88 -52 -137 -105 -137
c-61 0 -100 28 -134 28c-17 0 -28 -10 -34 -36z" />
    <glyph glyph-name="Umacron" unicode="&#x16a;" horiz-adv-x="728" 
d="M221 785v114h288v-114h-288zM469 331v403h196v-467c0 -178 -94 -279 -306 -279c-223 0 -296 109 -296 286v460h196v-403c0 -119 9 -185 106 -185s104 61 104 185z" />
    <glyph glyph-name="umacron" unicode="&#x16b;" horiz-adv-x="590" 
d="M37 201v315h196v-308c0 -48 11 -76 51 -76c57 0 70 47 70 120v264h195v-516h-177l-6 74h-2c-25 -42 -67 -86 -159 -86c-103 0 -168 63 -168 213zM148 599v114h288v-114h-288z" />
    <glyph glyph-name="Ubreve" unicode="&#x16c;" horiz-adv-x="728" 
d="M201 919l85 17c17 -47 42 -67 81 -67c43 0 68 13 91 67l82 -17c-23 -111 -73 -159 -174 -159c-89 0 -147 40 -165 159zM469 331v403h196v-467c0 -178 -94 -279 -306 -279c-223 0 -296 109 -296 286v460h196v-403c0 -119 9 -185 106 -185s104 61 104 185z" />
    <glyph glyph-name="ubreve" unicode="&#x16d;" horiz-adv-x="590" 
d="M37 201v315h196v-308c0 -48 11 -76 51 -76c57 0 70 47 70 120v264h195v-516h-177l-6 74h-2c-25 -42 -67 -86 -159 -86c-103 0 -168 63 -168 213zM132 740l85 10c8 -48 34 -73 77 -73c45 0 73 19 87 73l82 -10c-16 -110 -64 -172 -170 -172c-95 0 -150 54 -161 172z" />
    <glyph glyph-name="Uring" unicode="&#x16e;" horiz-adv-x="728" 
d="M469 331v403h196v-467c0 -178 -94 -279 -306 -279c-223 0 -296 109 -296 286v460h196v-403c0 -119 9 -185 106 -185s104 61 104 185zM363 760c-92 0 -114 46 -114 103s42 104 118 104c89 0 122 -46 122 -101c0 -60 -36 -106 -126 -106zM365 823c12 0 21 7 21 41
c0 33 -9 40 -20 40c-13 0 -24 -8 -24 -41c0 -34 9 -40 23 -40z" />
    <glyph glyph-name="uring" unicode="&#x16f;" horiz-adv-x="590" 
d="M290 566c-92 0 -114 46 -114 103c0 58 42 104 118 104c89 0 122 -45 122 -101c0 -60 -36 -106 -126 -106zM292 629c12 0 21 7 21 41c0 33 -9 40 -20 40c-13 0 -24 -8 -24 -41c0 -34 9 -40 23 -40zM37 201v315h196v-308c0 -48 11 -76 51 -76c57 0 70 47 70 120v264h195
v-516h-177l-6 74h-2c-25 -42 -67 -86 -159 -86c-103 0 -168 63 -168 213z" />
    <glyph glyph-name="Uhungarumlaut" unicode="&#x170;" horiz-adv-x="728" 
d="M469 331v403h196v-467c0 -178 -94 -279 -306 -279c-223 0 -296 109 -296 286v460h196v-403c0 -119 9 -185 106 -185s104 61 104 185zM565 940l67 -91l-176 -92l-48 63zM347 956l78 -91l-160 -104l-51 61z" />
    <glyph glyph-name="uhungarumlaut" unicode="&#x171;" horiz-adv-x="590" 
d="M37 201v315h196v-308c0 -48 11 -76 51 -76c57 0 70 47 70 120v264h195v-516h-177l-6 74h-2c-25 -42 -67 -86 -159 -86c-103 0 -168 63 -168 213zM437 762l86 -74l-150 -128l-61 51zM260 774l96 -73l-132 -136l-64 47z" />
    <glyph glyph-name="Uogonek" unicode="&#x172;" horiz-adv-x="728" 
d="M469 331v403h196v-467c0 -130 -52 -197 -151 -259c-41 -26 -62 -60 -62 -84c0 -15 9 -20 19 -20c13 0 24 9 37 27l52 -44c-33 -43 -82 -82 -153 -82c-54 0 -90 22 -90 72c0 36 30 74 81 112c-13 -1 -26 -1 -39 -1c-223 0 -296 109 -296 286v460h196v-403
c0 -119 9 -185 106 -185s104 61 104 185z" />
    <glyph glyph-name="uogonek" unicode="&#x173;" horiz-adv-x="590" 
d="M37 201v315h196v-308c0 -48 11 -76 51 -76c57 0 70 47 70 120v264h195v-516h-42c-27 -26 -50 -50 -50 -77c0 -13 9 -19 19 -19c13 0 23 10 36 26l53 -43c-33 -43 -81 -82 -152 -82c-54 0 -90 22 -90 72c0 43 28 82 82 123h-33l-6 74h-2c-25 -42 -67 -86 -159 -86
c-103 0 -168 63 -168 213z" />
    <glyph glyph-name="Wcircumflex" unicode="&#x174;" horiz-adv-x="1032" 
d="M850 0h-247l-87 412h-5l-87 -412h-246l-163 734h205l83 -549h3l125 549h173l124 -549h3l87 549h199zM469 929h98l117 -113l-50 -62l-118 67l-114 -67l-50 62z" />
    <glyph glyph-name="wcircumflex" unicode="&#x175;" horiz-adv-x="879" 
d="M399 756h98l120 -142l-64 -57l-107 81l-102 -81l-65 57zM374 0h-226l-138 516h196l61 -350h3l68 350h221l68 -350h4l56 350h183l-127 -516h-233l-66 336h-3z" />
    <glyph glyph-name="Wgrave" unicode="&#x1e80;" horiz-adv-x="1032" 
d="M388 833l67 120l169 -113l-53 -83zM850 0h-247l-87 412h-5l-87 -412h-246l-163 734h205l83 -549h3l125 549h173l124 -549h3l87 549h199z" />
    <glyph glyph-name="wgrave" unicode="&#x1e81;" horiz-adv-x="879" 
d="M374 0h-226l-138 516h196l61 -350h3l68 350h221l68 -350h4l56 350h183l-127 -516h-233l-66 336h-3zM322 681l103 98l131 -158l-73 -64z" />
    <glyph glyph-name="Wacute" unicode="&#x1e82;" horiz-adv-x="1032" 
d="M576 953l65 -120l-183 -76l-50 83zM850 0h-247l-87 412h-5l-87 -412h-246l-163 734h205l83 -549h3l125 549h173l124 -549h3l87 549h199z" />
    <glyph glyph-name="wacute" unicode="&#x1e83;" horiz-adv-x="879" 
d="M472 781l101 -99l-159 -125l-71 64zM374 0h-226l-138 516h196l61 -350h3l68 350h221l68 -350h4l56 350h183l-127 -516h-233l-66 336h-3z" />
    <glyph glyph-name="Wdieresis" unicode="&#x1e84;" horiz-adv-x="1032" 
d="M543 775v129h136v-129h-136zM355 775v129h136v-129h-136zM850 0h-247l-87 412h-5l-87 -412h-246l-163 734h205l83 -549h3l125 549h173l124 -549h3l87 549h199z" />
    <glyph glyph-name="wdieresis" unicode="&#x1e85;" horiz-adv-x="879" 
d="M473 599v129h136v-129h-136zM285 599v129h136v-129h-136zM374 0h-226l-138 516h196l61 -350h3l68 350h221l68 -350h4l56 350h183l-127 -516h-233l-66 336h-3z" />
    <glyph glyph-name="Ygrave" unicode="&#x1ef2;" horiz-adv-x="669" 
d="M438 272v-272h-197v268l-257 466h222l134 -279l138 279h207zM211 833l67 120l169 -113l-53 -83z" />
    <glyph glyph-name="ygrave" unicode="&#x1ef3;" horiz-adv-x="567" 
d="M559 516l-171 -504c-54 -156 -107 -207 -234 -207c-46 0 -100 9 -118 16l17 125c19 -5 41 -9 60 -9c33 0 62 12 79 64l2 5l-184 510h209l66 -316h6l68 316h200zM155 681l103 98l131 -158l-73 -64z" />
    <glyph glyph-name="Ycircumflex" unicode="&#x176;" horiz-adv-x="669" 
d="M438 272v-272h-197v268l-257 466h222l134 -279l138 279h207zM292 929h98l117 -113l-50 -62l-118 67l-114 -67l-50 62z" />
    <glyph glyph-name="ycircumflex" unicode="&#x177;" horiz-adv-x="567" 
d="M559 516l-171 -504c-54 -156 -107 -207 -234 -207c-46 0 -100 9 -118 16l17 125c19 -5 41 -9 60 -9c33 0 62 12 79 64l2 5l-184 510h209l66 -316h6l68 316h200zM239 756h98l120 -142l-64 -57l-107 81l-102 -81l-65 57z" />
    <glyph glyph-name="Ydieresis" unicode="&#x178;" horiz-adv-x="669" 
d="M438 272v-272h-197v268l-257 466h222l134 -279l138 279h207zM366 775v129h136v-129h-136zM178 775v129h136v-129h-136z" />
    <glyph glyph-name="Zacute" unicode="&#x179;" horiz-adv-x="608" 
d="M25 572v162h537v-149l-293 -422h297v-163h-544v150l294 422h-291zM350 953l65 -120l-183 -76l-50 83z" />
    <glyph glyph-name="zacute" unicode="&#x17a;" horiz-adv-x="506" 
d="M292 781l101 -99l-159 -125l-71 64zM39 370v146h433v-134l-198 -234h205v-148h-443v135l200 235h-197z" />
    <glyph glyph-name="Zdotaccent" unicode="&#x17b;" horiz-adv-x="608" 
d="M193 778v139h196v-139h-196zM25 572v162h537v-149l-293 -422h297v-163h-544v150l294 422h-291z" />
    <glyph glyph-name="zdotaccent" unicode="&#x17c;" horiz-adv-x="506" 
d="M39 370v146h433v-134l-198 -234h205v-148h-443v135l200 235h-197zM161 595v139h196v-139h-196z" />
    <glyph glyph-name="Zcaron" unicode="&#x17d;" horiz-adv-x="608" 
d="M339 769h-99l-116 114l51 63l116 -64l115 64l49 -63zM25 572v162h537v-149l-293 -422h297v-163h-544v150l294 422h-291z" />
    <glyph glyph-name="zcaron" unicode="&#x17e;" horiz-adv-x="506" 
d="M304 568h-98l-120 142l64 57l106 -83l103 83l65 -57zM39 370v146h433v-134l-198 -234h205v-148h-443v135l200 235h-197z" />
    <glyph glyph-name="longs" unicode="&#x17f;" horiz-adv-x="336" 
d="M387 733l-22 -138c-21 6 -47 8 -59 8c-39 0 -60 -19 -60 -83v-520h-196v515c0 179 90 232 219 232c53 0 99 -9 118 -14z" />
    <glyph glyph-name="dotlessj" unicode="&#x237;" horiz-adv-x="273" 
d="M-107 -182l18 132c21 -5 41 -7 60 -7c51 0 71 17 71 81v492h196v-479c0 -202 -112 -232 -228 -232c-43 0 -98 8 -117 13z" />
    <glyph glyph-name="circumflex" unicode="&#x2c6;" horiz-adv-x="500" 
d="M202 756h98l120 -142l-64 -57l-107 81l-102 -81l-65 57z" />
    <glyph glyph-name="caron" unicode="&#x2c7;" horiz-adv-x="500" 
d="M297 568h-98l-120 142l64 57l106 -83l103 83l65 -57z" />
    <glyph glyph-name="uni02C9" unicode="&#x2c9;" horiz-adv-x="500" 
d="M106 599v114h288v-114h-288z" />
    <glyph glyph-name="breve" unicode="&#x2d8;" horiz-adv-x="500" 
d="M90 740l85 10c8 -48 34 -73 77 -73c45 0 73 19 87 73l82 -10c-16 -110 -64 -172 -170 -172c-95 0 -150 54 -161 172z" />
    <glyph glyph-name="dieresis" unicode="&#xa8;" horiz-adv-x="500" 
d="M276 599v129h136v-129h-136zM88 599v129h136v-129h-136z" />
    <glyph glyph-name="macron" unicode="&#xaf;" horiz-adv-x="500" 
d="M106 599v114h288v-114h-288z" />
    <glyph glyph-name="degree" unicode="&#xb0;" horiz-adv-x="317" 
d="M157 527c-72 0 -117 43 -117 114c0 70 57 113 122 113c66 0 115 -42 115 -109c0 -75 -49 -118 -120 -118zM157 590c23 0 40 13 40 52c0 38 -21 48 -39 48c-15 0 -40 -7 -40 -49c0 -38 18 -51 39 -51z" />
    <glyph glyph-name="acute" unicode="&#xb4;" horiz-adv-x="500" 
d="M285 781l101 -99l-159 -125l-71 64z" />
    <glyph glyph-name="grave" unicode="`" horiz-adv-x="500" 
d="M118 681l103 98l131 -158l-73 -64z" />
    <glyph glyph-name="cedilla" unicode="&#xb8;" horiz-adv-x="500" 
d="M188 -90l40 90h72l-23 -41c10 4 14 5 29 5c57 0 89 -41 89 -94c0 -54 -38 -108 -120 -108c-48 0 -84 9 -132 44l46 62c23 -14 48 -23 63 -23c19 0 27 12 27 30c0 19 -7 27 -23 27c-11 0 -19 -4 -27 -9z" />
    <glyph glyph-name="dotaccent" unicode="&#x2d9;" horiz-adv-x="500" 
d="M152 595v139h196v-139h-196z" />
    <glyph glyph-name="ring" unicode="&#x2da;" horiz-adv-x="500" 
d="M248 566c-92 0 -114 46 -114 103c0 58 42 104 118 104c89 0 122 -45 122 -101c0 -60 -36 -106 -126 -106zM250 629c12 0 21 7 21 41c0 33 -9 40 -20 40c-13 0 -24 -8 -24 -41c0 -34 9 -40 23 -40z" />
    <glyph glyph-name="ogonek" unicode="&#x2db;" horiz-adv-x="500" 
d="M230 16l85 -11c-30 -28 -56 -54 -56 -82c0 -13 9 -19 19 -19c13 0 23 10 36 26l53 -43c-33 -43 -81 -82 -152 -82c-54 0 -90 22 -90 72c0 48 36 92 105 139z" />
    <glyph glyph-name="tilde" unicode="&#x2dc;" horiz-adv-x="500" 
d="M146 599l-66 12c15 76 44 133 106 133c59 0 94 -26 132 -26c15 0 29 5 36 36l65 -10c-15 -88 -52 -137 -105 -137c-61 0 -100 28 -134 28c-17 0 -28 -10 -34 -36z" />
    <glyph glyph-name="hungarumlaut" unicode="&#x2dd;" horiz-adv-x="500" 
d="M396 762l86 -74l-150 -128l-61 51zM219 774l96 -73l-132 -136l-64 47z" />
    <glyph glyph-name="perthousand" unicode="&#x2030;" horiz-adv-x="1111" 
d="M9 556c0 108 68 178 178 178c111 0 165 -63 165 -173c0 -115 -59 -180 -173 -180c-117 0 -170 63 -170 175zM929 -7c-117 0 -170 63 -170 175c0 108 68 178 178 178c111 0 165 -62 165 -173c0 -115 -59 -180 -173 -180zM930 83c31 0 48 21 48 90c0 61 -15 82 -46 82
c-25 0 -48 -14 -48 -84c0 -60 14 -88 46 -88zM180 471c31 0 48 21 48 90c0 61 -15 82 -46 82c-25 0 -48 -14 -48 -84c0 -60 13 -88 46 -88zM567 -7c-116 0 -170 63 -170 175c0 108 69 178 178 178c112 0 165 -62 165 -173c0 -115 -58 -180 -173 -180zM568 83
c31 0 48 21 48 90c0 61 -15 82 -46 82c-25 0 -48 -14 -48 -84c0 -60 14 -88 46 -88zM164 75l-94 103l544 497l95 -100z" />
    <glyph glyph-name="percent" unicode="%" horiz-adv-x="945" 
d="M210 57l416 701l120 -68l-416 -703zM729 -7c-132 0 -193 73 -193 201c0 126 78 207 201 207c127 0 188 -73 188 -201c0 -132 -67 -207 -196 -207zM731 88c36 0 55 22 55 112c0 81 -17 103 -54 103c-29 0 -56 -20 -56 -105c0 -82 16 -110 55 -110zM213 327
c-132 0 -193 72 -193 200c0 126 78 207 201 207c127 0 188 -73 188 -201c0 -132 -67 -206 -196 -206zM215 421c36 0 55 23 55 112c0 82 -17 103 -54 103c-30 0 -56 -20 -56 -105c0 -82 16 -110 55 -110z" />
    <glyph glyph-name="fraction" unicode="&#x2044;" horiz-adv-x="189" 
d="M-171 57l415 701l121 -68l-417 -703z" />
    <glyph glyph-name="zerosuperior" unicode="&#x2070;" horiz-adv-x="490" 
d="M243 383c-139 0 -204 85 -204 232c0 152 83 238 213 238c134 0 199 -84 199 -231c0 -152 -71 -239 -208 -239zM246 490c38 0 58 21 58 131c0 97 -18 119 -55 119c-33 0 -62 -19 -62 -121c0 -95 17 -129 59 -129z" />
    <glyph glyph-name="onesuperior" unicode="&#xb9;" horiz-adv-x="322" 
d="M47 667l-30 103c32 10 116 49 150 75h90v-455h-142v307c-15 -9 -41 -20 -68 -30z" />
    <glyph glyph-name="twosuperior" unicode="&#xb2;" horiz-adv-x="427" 
d="M210 499h159v-109h-319c-2 34 -3 80 5 110c25 92 186 164 186 232c0 11 -6 26 -27 26c-27 0 -33 -29 -24 -69l-135 -8c-22 95 29 172 162 172c104 0 167 -43 167 -122c0 -129 -152 -166 -174 -232z" />
    <glyph glyph-name="threesuperior" unicode="&#xb3;" horiz-adv-x="410" 
d="M137 566l-13 99c74 3 99 19 99 58c0 26 -11 35 -26 35c-18 0 -35 -4 -24 -69l-135 -8c-21 100 28 172 161 172c105 0 166 -41 166 -112c0 -68 -42 -97 -90 -112c64 -16 102 -50 102 -111c0 -90 -67 -135 -175 -135c-117 0 -165 42 -170 141l138 7c4 -39 13 -52 36 -52
c26 0 29 22 29 39c0 41 -32 53 -98 48z" />
    <glyph glyph-name="foursuperior" unicode="&#x2074;" horiz-adv-x="406" 
d="M131 549h74v164h-3zM346 845v-296h44v-102h-44v-57h-141v57h-192v82l156 316h177z" />
    <glyph glyph-name="fivesuperior" unicode="&#x2075;" horiz-adv-x="410" 
d="M204 591c-15 0 -28 -9 -36 -26l-123 10l22 270h286v-109h-173l-11 -76c17 19 47 30 81 30c70 0 129 -40 129 -142c0 -106 -53 -165 -182 -165c-126 0 -159 63 -164 141l140 7c2 -47 19 -52 35 -52c21 0 29 18 29 56c0 50 -16 56 -33 56z" />
    <glyph glyph-name="sixsuperior" unicode="&#x2076;" horiz-adv-x="421" 
d="M227 758c-21 0 -42 -23 -46 -103c15 21 50 33 82 33c63 0 130 -36 130 -138c0 -125 -76 -167 -182 -167c-127 0 -176 66 -176 210c0 163 64 260 199 260c118 0 154 -51 149 -137l-132 -9c3 28 0 51 -24 51zM214 597c-30 0 -41 -22 -41 -59c0 -36 10 -59 39 -59
c39 0 42 38 42 64c0 37 -13 54 -40 54z" />
    <glyph glyph-name="sevensuperior" unicode="&#x2077;" horiz-adv-x="341" 
d="M213 390h-146c-3 156 50 266 114 346h-164v109h308v-72c-98 -125 -107 -230 -112 -383z" />
    <glyph glyph-name="eightsuperior" unicode="&#x2078;" horiz-adv-x="433" 
d="M211 383c-134 0 -183 55 -183 130c0 61 29 107 102 125c-61 15 -81 52 -81 97c0 70 60 118 175 118c112 0 159 -48 159 -110c0 -50 -29 -87 -85 -103c75 -16 107 -60 107 -120c0 -78 -53 -137 -194 -137zM217 479c33 0 46 21 46 57c0 38 -16 58 -46 58
c-26 0 -48 -17 -48 -61c0 -34 14 -54 48 -54zM214 682c25 0 26 27 26 43c0 22 -4 44 -24 44c-22 0 -24 -24 -24 -45c0 -23 3 -42 22 -42z" />
    <glyph glyph-name="ninesuperior" unicode="&#x2079;" horiz-adv-x="421" 
d="M205 480c23 0 46 34 45 100c-15 -20 -51 -32 -83 -32c-62 0 -132 37 -132 139c0 118 80 166 185 166c123 0 173 -68 173 -213c0 -161 -57 -257 -191 -257c-118 0 -163 51 -168 138l136 8c3 -31 7 -49 35 -49zM214 638c30 0 41 23 41 58c0 37 -10 62 -39 62
c-39 0 -41 -39 -41 -65c0 -37 13 -55 39 -55z" />
    <glyph glyph-name="zeroinferior" unicode="&#x2080;" horiz-adv-x="490" 
d="M243 -137c-139 0 -204 85 -204 232c0 152 83 238 213 238c134 0 199 -84 199 -231c0 -152 -71 -239 -208 -239zM246 -30c38 0 58 21 58 131c0 97 -18 119 -55 119c-33 0 -62 -19 -62 -121c0 -95 17 -129 59 -129z" />
    <glyph glyph-name="oneinferior" unicode="&#x2081;" horiz-adv-x="322" 
d="M47 147l-30 103c32 10 116 49 150 75h90v-455h-142v307c-15 -9 -41 -20 -68 -30z" />
    <glyph glyph-name="twoinferior" unicode="&#x2082;" horiz-adv-x="427" 
d="M210 -21h159v-109h-319c-2 34 -3 80 5 110c25 92 186 164 186 232c0 11 -6 26 -27 26c-27 0 -33 -29 -24 -69l-135 -8c-22 95 29 172 162 172c104 0 167 -43 167 -122c0 -129 -152 -166 -174 -232z" />
    <glyph glyph-name="threeinferior" unicode="&#x2083;" horiz-adv-x="410" 
d="M137 46l-13 99c74 3 99 19 99 58c0 26 -11 35 -26 35c-18 0 -35 -4 -24 -69l-135 -8c-21 100 28 172 161 172c105 0 166 -41 166 -112c0 -68 -42 -97 -90 -112c64 -16 102 -50 102 -111c0 -90 -67 -135 -175 -135c-117 0 -165 42 -170 141l138 7c4 -39 13 -52 36 -52
c26 0 29 22 29 39c0 41 -32 53 -98 48z" />
    <glyph glyph-name="fourinferior" unicode="&#x2084;" horiz-adv-x="406" 
d="M131 29h74v164h-3zM346 325v-296h44v-102h-44v-57h-141v57h-192v82l156 316h177z" />
    <glyph glyph-name="fiveinferior" unicode="&#x2085;" horiz-adv-x="410" 
d="M204 71c-15 0 -28 -9 -36 -26l-123 10l22 270h286v-109h-173l-11 -76c17 19 47 30 81 30c70 0 129 -40 129 -142c0 -106 -53 -165 -182 -165c-126 0 -159 63 -164 141l140 7c2 -47 19 -52 35 -52c21 0 29 18 29 56c0 50 -16 56 -33 56z" />
    <glyph glyph-name="sixinferior" unicode="&#x2086;" horiz-adv-x="421" 
d="M227 238c-21 0 -42 -23 -46 -103c15 21 50 33 82 33c63 0 130 -36 130 -138c0 -125 -76 -167 -182 -167c-127 0 -176 66 -176 210c0 163 64 260 199 260c118 0 154 -51 149 -137l-132 -9c3 28 0 51 -24 51zM214 77c-30 0 -41 -22 -41 -59c0 -36 10 -59 39 -59
c39 0 42 38 42 64c0 37 -13 54 -40 54z" />
    <glyph glyph-name="seveninferior" unicode="&#x2087;" horiz-adv-x="341" 
d="M213 -130h-146c-3 156 50 266 114 346h-164v109h308v-72c-98 -125 -107 -230 -112 -383z" />
    <glyph glyph-name="eightinferior" unicode="&#x2088;" horiz-adv-x="433" 
d="M211 -137c-134 0 -183 55 -183 130c0 61 29 107 102 125c-61 15 -81 52 -81 97c0 70 60 118 175 118c112 0 159 -48 159 -110c0 -50 -29 -87 -85 -103c75 -16 107 -60 107 -120c0 -78 -53 -137 -194 -137zM217 -41c33 0 46 21 46 57c0 38 -16 58 -46 58
c-26 0 -48 -17 -48 -61c0 -34 14 -54 48 -54zM214 162c25 0 26 27 26 43c0 22 -4 44 -24 44c-22 0 -24 -24 -24 -45c0 -23 3 -42 22 -42z" />
    <glyph glyph-name="nineinferior" unicode="&#x2089;" horiz-adv-x="421" 
d="M205 -40c23 0 46 34 45 100c-15 -20 -51 -32 -83 -32c-62 0 -132 37 -132 139c0 118 80 166 185 166c123 0 173 -68 173 -213c0 -161 -57 -257 -191 -257c-118 0 -163 51 -168 138l136 8c3 -31 7 -49 35 -49zM214 118c30 0 41 23 41 58c0 37 -10 62 -39 62
c-39 0 -41 -39 -41 -65c0 -37 13 -55 39 -55z" />
    <glyph glyph-name="zero.num" horiz-adv-x="490" 
d="M243 271c-139 0 -204 85 -204 232c0 152 83 238 213 238c134 0 199 -84 199 -231c0 -152 -71 -239 -208 -239zM246 378c38 0 58 21 58 131c0 97 -18 119 -55 119c-33 0 -62 -19 -62 -121c0 -95 17 -129 59 -129z" />
    <glyph glyph-name="one.num" horiz-adv-x="322" 
d="M47 555l-30 103c32 10 116 49 150 75h90v-455h-142v307c-15 -9 -41 -20 -68 -30z" />
    <glyph glyph-name="two.num" horiz-adv-x="427" 
d="M210 387h159v-109h-319c-2 34 -3 80 5 110c25 92 186 164 186 232c0 11 -6 26 -27 26c-27 0 -33 -29 -24 -69l-135 -8c-22 95 29 172 162 172c104 0 167 -43 167 -122c0 -129 -152 -166 -174 -232z" />
    <glyph glyph-name="three.num" horiz-adv-x="410" 
d="M137 454l-13 99c74 3 99 19 99 58c0 26 -11 35 -26 35c-18 0 -35 -4 -24 -69l-135 -8c-21 100 28 172 161 172c105 0 166 -41 166 -112c0 -68 -42 -97 -90 -112c64 -16 102 -50 102 -111c0 -90 -67 -135 -175 -135c-117 0 -165 42 -170 141l138 7c4 -39 13 -52 36 -52
c26 0 29 22 29 39c0 41 -32 53 -98 48z" />
    <glyph glyph-name="four.num" horiz-adv-x="406" 
d="M131 437h74v164h-3zM346 733v-296h44v-102h-44v-57h-141v57h-192v82l156 316h177z" />
    <glyph glyph-name="five.num" horiz-adv-x="410" 
d="M204 479c-15 0 -28 -9 -36 -26l-123 10l22 270h286v-109h-173l-11 -76c17 19 47 30 81 30c70 0 129 -40 129 -142c0 -106 -53 -165 -182 -165c-126 0 -159 63 -164 141l140 7c2 -47 19 -52 35 -52c21 0 29 18 29 56c0 50 -16 56 -33 56z" />
    <glyph glyph-name="six.num" horiz-adv-x="421" 
d="M227 646c-21 0 -42 -23 -46 -103c15 21 50 33 82 33c63 0 130 -36 130 -138c0 -125 -76 -167 -182 -167c-127 0 -176 66 -176 210c0 163 64 260 199 260c118 0 154 -51 149 -137l-132 -9c3 28 0 51 -24 51zM214 485c-30 0 -41 -22 -41 -59c0 -36 10 -59 39 -59
c39 0 42 38 42 64c0 37 -13 54 -40 54z" />
    <glyph glyph-name="seven.num" horiz-adv-x="341" 
d="M213 278h-146c-3 156 50 266 114 346h-164v109h308v-72c-98 -125 -107 -230 -112 -383z" />
    <glyph glyph-name="eight.num" horiz-adv-x="433" 
d="M211 271c-134 0 -183 55 -183 130c0 61 29 107 102 125c-61 15 -81 52 -81 97c0 70 60 118 175 118c112 0 159 -48 159 -110c0 -50 -29 -87 -85 -103c75 -16 107 -60 107 -120c0 -78 -53 -137 -194 -137zM217 367c33 0 46 21 46 57c0 38 -16 58 -46 58
c-26 0 -48 -17 -48 -61c0 -34 14 -54 48 -54zM214 570c25 0 26 27 26 43c0 22 -4 44 -24 44c-22 0 -24 -24 -24 -45c0 -23 3 -42 22 -42z" />
    <glyph glyph-name="nine.num" horiz-adv-x="421" 
d="M205 368c23 0 46 34 45 100c-15 -20 -51 -32 -83 -32c-62 0 -132 37 -132 139c0 118 80 166 185 166c123 0 173 -68 173 -213c0 -161 -57 -257 -191 -257c-118 0 -163 51 -168 138l136 8c3 -31 7 -49 35 -49zM214 526c30 0 41 23 41 58c0 37 -10 62 -39 62
c-39 0 -41 -39 -41 -65c0 -37 13 -55 39 -55z" />
    <glyph glyph-name="zero.denom" horiz-adv-x="490" 
d="M243 -7c-139 0 -204 85 -204 232c0 152 83 238 213 238c134 0 199 -84 199 -231c0 -152 -71 -239 -208 -239zM246 100c38 0 58 21 58 131c0 97 -18 119 -55 119c-33 0 -62 -19 -62 -121c0 -95 17 -129 59 -129z" />
    <glyph glyph-name="one.denom" horiz-adv-x="322" 
d="M47 277l-30 103c32 10 116 49 150 75h90v-455h-142v307c-15 -9 -41 -20 -68 -30z" />
    <glyph glyph-name="two.denom" horiz-adv-x="427" 
d="M210 109h159v-109h-319c-2 34 -3 80 5 110c25 92 186 164 186 232c0 11 -6 26 -27 26c-27 0 -33 -29 -24 -69l-135 -8c-22 95 29 172 162 172c104 0 167 -43 167 -122c0 -129 -152 -166 -174 -232z" />
    <glyph glyph-name="three.denom" horiz-adv-x="410" 
d="M137 176l-13 99c74 3 99 19 99 58c0 26 -11 35 -26 35c-18 0 -35 -4 -24 -69l-135 -8c-21 100 28 172 161 172c105 0 166 -41 166 -112c0 -68 -42 -97 -90 -112c64 -16 102 -50 102 -111c0 -90 -67 -135 -175 -135c-117 0 -165 42 -170 141l138 7c4 -39 13 -52 36 -52
c26 0 29 22 29 39c0 41 -32 53 -98 48z" />
    <glyph glyph-name="four.denom" horiz-adv-x="406" 
d="M131 159h74v164h-3zM346 455v-296h44v-102h-44v-57h-141v57h-192v82l156 316h177z" />
    <glyph glyph-name="five.denom" horiz-adv-x="410" 
d="M204 201c-15 0 -28 -9 -36 -26l-123 10l22 270h286v-109h-173l-11 -76c17 19 47 30 81 30c70 0 129 -40 129 -142c0 -106 -53 -165 -182 -165c-126 0 -159 63 -164 141l140 7c2 -47 19 -52 35 -52c21 0 29 18 29 56c0 50 -16 56 -33 56z" />
    <glyph glyph-name="six.denom" horiz-adv-x="421" 
d="M227 368c-21 0 -42 -23 -46 -103c15 21 50 33 82 33c63 0 130 -36 130 -138c0 -125 -76 -167 -182 -167c-127 0 -176 66 -176 210c0 163 64 260 199 260c118 0 154 -51 149 -137l-132 -9c3 28 0 51 -24 51zM214 207c-30 0 -41 -22 -41 -59c0 -36 10 -59 39 -59
c39 0 42 38 42 64c0 37 -13 54 -40 54z" />
    <glyph glyph-name="seven.denom" horiz-adv-x="341" 
d="M213 0h-146c-3 156 50 266 114 346h-164v109h308v-72c-98 -125 -107 -230 -112 -383z" />
    <glyph glyph-name="eight.denom" horiz-adv-x="433" 
d="M211 -7c-134 0 -183 55 -183 130c0 61 29 107 102 125c-61 15 -81 52 -81 97c0 70 60 118 175 118c112 0 159 -48 159 -110c0 -50 -29 -87 -85 -103c75 -16 107 -60 107 -120c0 -78 -53 -137 -194 -137zM217 89c33 0 46 21 46 57c0 38 -16 58 -46 58
c-26 0 -48 -17 -48 -61c0 -34 14 -54 48 -54zM214 292c25 0 26 27 26 43c0 22 -4 44 -24 44c-22 0 -24 -24 -24 -45c0 -23 3 -42 22 -42z" />
    <glyph glyph-name="nine.denom" horiz-adv-x="421" 
d="M205 90c23 0 46 34 45 100c-15 -20 -51 -32 -83 -32c-62 0 -132 37 -132 139c0 118 80 166 185 166c123 0 173 -68 173 -213c0 -161 -57 -257 -191 -257c-118 0 -163 51 -168 138l136 8c3 -31 7 -49 35 -49zM214 248c30 0 41 23 41 58c0 37 -10 62 -39 62
c-39 0 -41 -39 -41 -65c0 -37 13 -55 39 -55z" />
    <glyph glyph-name="onehalf" unicode="&#xbd;" horiz-adv-x="960" 
d="M886 109h-159c22 66 174 103 174 232c0 79 -63 122 -167 122c-133 0 -184 -77 -162 -172l135 8c-9 40 -3 69 24 69c21 0 27 -15 27 -26c0 -68 -161 -140 -186 -232c-8 -30 -7 -76 -5 -110h319v109zM58 556l-30 103c32 10 116 49 150 75h90v-455h-142v307
c-15 -9 -41 -20 -68 -30zM175 57l415 701l121 -68l-417 -703z" />
    <glyph glyph-name="onequarter" unicode="&#xbc;" horiz-adv-x="960" 
d="M635 159h74v164h-3zM850 455v-296h44v-102h-44v-57h-141v57h-192v82l156 316h177zM43 556l-30 103c32 10 116 49 150 75h90v-455h-142v307c-15 -9 -41 -20 -68 -30zM174 57l415 701l121 -68l-417 -703z" />
    <glyph glyph-name="threequarters" unicode="&#xbe;" horiz-adv-x="960" 
d="M675 159h74v164h-3zM890 455v-296h44v-102h-44v-57h-141v57h-192v82l156 316h177zM122 553l13 -99c66 5 98 -7 98 -48c0 -17 -3 -39 -29 -39c-23 0 -32 13 -36 52l-138 -7c5 -99 53 -141 170 -141c108 0 175 45 175 135c0 61 -38 95 -102 111c48 15 90 44 90 112
c0 71 -61 112 -166 112c-133 0 -182 -72 -161 -172l135 8c-11 65 6 69 24 69c15 0 26 -9 26 -35c0 -39 -25 -55 -99 -58zM227 57l415 701l121 -68l-417 -703z" />
    <glyph glyph-name="onethird" unicode="&#x2153;" horiz-adv-x="960" 
d="M665 275l13 -99c66 5 98 -7 98 -48c0 -17 -3 -39 -29 -39c-23 0 -32 13 -36 52l-138 -7c5 -99 53 -141 170 -141c108 0 175 45 175 135c0 61 -38 95 -102 111c48 15 90 44 90 112c0 71 -61 112 -166 112c-133 0 -182 -72 -161 -172l135 8c-11 65 6 69 24 69
c15 0 26 -9 26 -35c0 -39 -25 -55 -99 -58zM41 556l-30 103c32 10 116 49 150 75h90v-455h-142v307c-15 -9 -41 -20 -68 -30zM179 57l415 701l121 -68l-417 -703z" />
    <glyph glyph-name="twothirds" unicode="&#x2154;" horiz-adv-x="960" 
d="M702 275l13 -99c66 5 98 -7 98 -48c0 -17 -3 -39 -29 -39c-23 0 -32 13 -36 52l-138 -7c5 -99 53 -141 170 -141c108 0 175 45 175 135c0 61 -38 95 -102 111c48 15 90 44 90 112c0 71 -61 112 -166 112c-133 0 -182 -72 -161 -172l135 8c-11 65 6 69 24 69
c15 0 26 -9 26 -35c0 -39 -25 -55 -99 -58zM340 387h-159c22 66 174 103 174 232c0 79 -63 122 -167 122c-133 0 -184 -77 -162 -172l135 8c-9 40 -3 69 24 69c21 0 27 -15 27 -26c0 -68 -161 -140 -186 -232c-8 -30 -7 -76 -5 -110h319v109zM226 57l415 701l121 -68
l-417 -703z" />
    <glyph glyph-name="zero.slash" 
d="M287 -12c-183 0 -271 138 -271 375c0 245 115 384 284 384c177 0 264 -136 264 -372c0 -246 -96 -387 -277 -387zM294 596c-35 0 -65 -35 -73 -156h139c-5 119 -25 156 -66 156zM291 131c40 0 62 38 69 155h-139c6 -113 26 -155 70 -155z" />
    <glyph glyph-name="zero.tf" 
d="M287 -12c-183 0 -271 138 -271 375c0 245 115 384 284 384c177 0 264 -136 264 -372c0 -246 -96 -387 -277 -387zM291 131c49 0 71 56 71 242c0 173 -20 223 -68 223c-41 0 -75 -48 -75 -227c0 -176 19 -238 72 -238z" />
    <glyph glyph-name="one.tf" 
d="M107 0v154h109v357c-22 -13 -63 -32 -103 -49l-41 155c45 15 163 75 213 117h125v-580h102v-154h-405z" />
    <glyph glyph-name="two.tf" 
d="M269 163h243v-163h-462c-1 18 -2 39 -2 61c0 37 2 76 8 104c36 158 280 267 280 386c0 28 -14 53 -49 53c-48 0 -59 -50 -45 -119l-185 -13c-32 152 41 275 234 275c151 0 241 -71 241 -197c0 -210 -236 -272 -263 -387z" />
    <glyph glyph-name="three.tf" 
d="M193 292l-17 147c108 6 147 32 147 101c0 47 -19 64 -48 64c-28 0 -50 -8 -50 -64c0 -15 2 -33 5 -55l-185 -13c-5 23 -7 46 -7 67c0 123 75 208 241 208c152 0 241 -65 241 -182c0 -107 -62 -156 -134 -180c96 -26 150 -83 150 -179c0 -144 -96 -218 -252 -218
c-173 0 -242 72 -249 228l191 11c5 -70 22 -96 63 -96c40 0 52 35 52 75c0 63 -37 87 -113 87c-11 0 -22 0 -35 -1z" />
    <glyph glyph-name="four.tf" 
d="M180 248h122v266h-4zM495 734v-486h64v-152h-64v-96h-193v96h-286v128l238 510h241z" />
    <glyph glyph-name="five.tf" 
d="M283 337c-28 0 -50 -19 -64 -49l-166 16l30 430h415v-163h-256l-24 -142c26 36 75 55 127 55c105 0 191 -67 191 -232c0 -167 -78 -264 -264 -264c-181 0 -230 103 -237 228l191 11c4 -85 35 -96 59 -96c52 0 56 56 56 103c0 89 -28 103 -58 103z" />
    <glyph glyph-name="six.tf" 
d="M312 604c-40 0 -73 -43 -80 -183c25 37 80 57 127 57c95 0 193 -61 193 -224c0 -194 -108 -266 -263 -266c-185 0 -256 106 -256 340c0 263 93 419 288 419c171 0 224 -86 216 -221l-181 -11c5 51 -4 89 -44 89zM293 342c-49 0 -70 -37 -70 -102s18 -109 67 -109
c63 0 70 64 70 112c0 66 -21 99 -67 99z" />
    <glyph glyph-name="seven.tf" 
d="M362 0h-202c-3 255 75 436 174 571h-273v163h471v-108c-146 -203 -163 -379 -170 -626z" />
    <glyph glyph-name="eight.tf" 
d="M283 -12c-195 0 -266 90 -266 211c0 98 43 172 148 201c-86 24 -118 84 -118 157c0 113 89 190 253 190c163 0 232 -77 232 -178c0 -80 -43 -140 -123 -166c108 -27 154 -97 154 -193c0 -127 -78 -222 -280 -222zM289 131c57 0 80 39 80 102s-26 101 -77 101
c-48 0 -80 -33 -80 -106c0 -58 20 -97 77 -97zM288 465c41 0 48 46 48 78c0 39 -9 77 -46 77c-39 0 -47 -41 -47 -78c0 -43 9 -77 45 -77z" />
    <glyph glyph-name="nine.tf" 
d="M271 133c44 0 77 62 78 181c-25 -37 -80 -57 -127 -57c-95 0 -197 62 -197 225c0 184 113 265 267 265c179 0 253 -106 253 -341c0 -263 -84 -418 -278 -418c-172 0 -236 86 -241 221l186 12c5 -56 13 -88 59 -88zM285 393c48 0 69 37 69 102s-18 109 -67 109
c-62 0 -70 -64 -70 -112c0 -66 21 -99 68 -99z" />
    <glyph glyph-name="dollar.tf" 
d="M537 540l-175 -37c-13 55 -41 77 -80 77s-62 -15 -62 -49c0 -119 329 -23 329 -281c0 -123 -71 -195 -164 -225v-91h-188v82c-110 21 -173 89 -192 207l186 25c10 -49 33 -89 99 -89c41 0 68 16 68 52c0 126 -338 22 -338 295c0 108 71 184 177 210v81h188v-82
c80 -22 133 -76 152 -175z" />
    <glyph glyph-name="Euro.tf" 
d="M335 145c37 0 51 27 57 89l171 -14c-20 -166 -110 -232 -238 -232s-224 85 -250 225h-81l21 117h45l1 24l1 21h-45l17 117h39c34 177 139 255 267 255c151 0 227 -96 231 -248l-177 -15c-4 89 -19 107 -58 107c-31 0 -64 -25 -77 -99h111l-17 -117h-103l-1 -17l-1 -28
h103l-21 -117h-67c7 -43 33 -68 72 -68z" />
    <glyph glyph-name="cent.tf" 
d="M544 411l-174 -14c-3 70 -34 86 -61 86c-33 0 -70 -20 -70 -127c0 -111 28 -138 69 -138c26 0 51 11 62 72l173 -11c-14 -110 -76 -164 -150 -186v-93h-188v93c-116 33 -167 130 -167 256c0 132 62 221 167 256v92h188v-86c97 -26 146 -103 151 -200z" />
    <glyph glyph-name="sterling.tf" 
d="M24 307v128h84c-17 26 -31 61 -31 99c0 113 70 213 250 213c127 0 242 -55 242 -214c0 -14 -1 -29 -3 -45l-187 11c2 15 3 28 3 39c0 57 -25 66 -53 66c-34 0 -56 -27 -56 -67s22 -77 42 -102h153v-128h-126c-2 -54 -39 -108 -90 -144h296v-163h-479v163
c68 36 84 90 84 129c0 3 0 11 -1 15h-128z" />
    <glyph glyph-name="yen.tf" 
d="M508 317h-115v-62h115v-125h-115v-130h-196v130h-128v125h128v62h-128v125h71l-170 292h219l107 -244l110 244h204l-165 -292h63v-125z" />
    <glyph glyph-name="florin.tf" 
d="M76 329l23 130h87l14 80c26 154 107 208 226 208c66 0 114 -16 138 -27l-41 -125c-20 6 -45 8 -58 8c-38 0 -63 -19 -74 -83l-11 -61h111l-23 -130h-110l-46 -266c-25 -150 -109 -203 -238 -203c-62 0 -105 15 -123 21l37 132c21 -6 46 -9 59 -9c38 0 63 19 74 84l42 241
h-87z" />
    <glyph glyph-name="comma.tf" horiz-adv-x="291" 
d="M48 0v153h195v-123l-93 -183l-70 21l25 132h-57z" />
    <glyph glyph-name="period.tf" horiz-adv-x="290" 
d="M48 0v153h196v-153h-196z" />
    <glyph glyph-name="perthousand.tf" 
d="M9 411h559v-94h-559v94zM142 -10c-94 0 -133 54 -133 152c0 94 51 155 140 155c91 0 130 -55 130 -151c0 -99 -43 -156 -137 -156zM431 -10c-95 0 -133 54 -133 152c0 94 51 155 140 155c90 0 130 -55 130 -151c0 -99 -43 -156 -137 -156zM432 67c24 0 33 22 33 79
c0 51 -9 72 -31 72c-19 0 -32 -16 -32 -74c0 -52 7 -77 30 -77zM142 432c-94 0 -133 55 -133 152c0 94 52 155 140 155c91 0 130 -54 130 -151c0 -100 -44 -156 -137 -156zM143 67c22 0 32 21 32 79c0 50 -7 72 -30 72c-19 0 -32 -16 -32 -74c0 -50 7 -77 30 -77zM143 510
c24 0 32 22 32 78c0 53 -10 73 -30 73c-16 0 -33 -12 -33 -75c0 -50 7 -76 31 -76z" />
    <glyph glyph-name="percent.tf" 
d="M49 411h479v-94h-479v94zM282 -10c-95 0 -134 54 -134 152c0 94 52 155 141 155c90 0 129 -55 129 -151c0 -99 -42 -156 -136 -156zM283 67c24 0 33 22 33 79c0 51 -9 72 -32 72c-18 0 -31 -16 -31 -74c0 -52 7 -77 30 -77zM283 432c-94 0 -134 55 -134 152
c0 94 52 155 141 155c91 0 129 -54 129 -151c0 -100 -44 -156 -136 -156zM284 510c23 0 32 22 32 78c0 53 -11 73 -30 73c-17 0 -33 -12 -33 -75c0 -50 6 -76 31 -76z" />
    <glyph glyph-name="minus" unicode="&#x2212;" 
d="M482 295h-385v120h385v-120z" />
    <glyph glyph-name="approxequal" unicode="&#x2248;" 
d="M177 131l-91 23c10 106 64 146 126 146c28 0 62 -10 90 -21c28 -10 45 -16 64 -16c21 0 30 10 35 41l91 -23c-12 -81 -51 -143 -115 -143c-35 0 -63 9 -95 19s-56 18 -66 18c-13 0 -33 -2 -39 -44zM178 309l-91 23c10 106 64 146 126 146c28 0 62 -10 90 -21
c28 -10 45 -16 64 -16c21 0 30 10 35 41l91 -23c-12 -81 -51 -143 -115 -143c-35 0 -63 9 -95 19s-56 18 -66 18c-13 0 -33 -2 -39 -44z" />
    <glyph glyph-name="notequal" unicode="&#x2260;" 
d="M482 159h-217l-30 -59h-107l31 59h-62v120h123l28 54h-151v120h213l26 51h104l-26 -51h68v-120h-129l-28 -54h157v-120z" />
    <glyph glyph-name="lessequal" unicode="&#x2264;" 
d="M482 0h-385v120h385v-120zM482 135l-385 141v142l385 154v-147l-245 -75l245 -69v-146z" />
    <glyph glyph-name="greaterequal" unicode="&#x2265;" 
d="M482 0h-385v120h385v-120zM97 572l385 -141v-142l-385 -154v147l245 75l-245 69v146z" />
    <glyph glyph-name="less" unicode="&#x3c;" 
d="M482 72l-385 141v142l385 154v-147l-245 -75l245 -69v-146z" />
    <glyph glyph-name="equal" unicode="=" 
d="M482 159h-385v120h385v-120zM482 333h-385v120h385v-120z" />
    <glyph glyph-name="greater" unicode="&#x3e;" 
d="M97 509l385 -141v-142l-385 -154v147l245 75l-245 69v146z" />
    <glyph glyph-name="logicalnot" unicode="&#xac;" 
d="M482 168h-128v127h-257v120h385v-247z" />
    <glyph glyph-name="plus" unicode="+" 
d="M482 295h-132v-132h-120v132h-133v120h133v133h120v-133h132v-120z" />
    <glyph glyph-name="plusminus" unicode="&#xb1;" 
d="M482 295h-132v-132h-120v132h-133v120h133v133h120v-133h132v-120zM482 0h-385v120h385v-120z" />
    <glyph glyph-name="divide" unicode="&#xf7;" 
d="M482 295h-385v120h385v-120zM209 451v125h162v-125h-162zM209 130v125h162v-125h-162z" />
    <glyph glyph-name="multiply" unicode="&#xd7;" horiz-adv-x="500" 
d="M428 449l-94 -94l94 -94l-85 -84l-94 93l-93 -93l-85 84l94 94l-94 94l85 84l93 -94l94 94z" />
    <glyph glyph-name="partialdiff" unicode="&#x2202;" horiz-adv-x="619" 
d="M400 412c2 72 -4 190 -110 190c-54 0 -109 -17 -146 -36l-43 110c56 32 151 58 210 58c197 0 255 -152 255 -309c0 -218 -52 -437 -289 -437c-177 0 -230 121 -230 237c0 130 62 253 222 253c70 0 109 -33 131 -66zM383 257c0 64 -26 103 -79 103c-50 0 -89 -39 -89 -134
c0 -65 23 -108 75 -108c58 0 93 44 93 139z" />
    <glyph glyph-name="Omega" unicode="&#x2126;" horiz-adv-x="819" 
d="M584 155v-5h143v-150h-289v139c68 30 85 77 85 249c0 168 -53 200 -112 200c-46 0 -115 -25 -115 -202c0 -147 16 -212 73 -247v-139h-280v150h141v3c-102 32 -162 114 -162 260c0 186 122 334 345 334c241 0 338 -149 338 -326c0 -140 -66 -221 -167 -266z" />
    <glyph glyph-name="Delta" unicode="&#x2206;" horiz-adv-x="742" 
d="M733 0h-725l246 734h227zM363 553l-116 -396h237l-119 396h-2z" />
    <glyph glyph-name="product" unicode="&#x220f;" horiz-adv-x="749" 
d="M662 734v-895h-199v746h-176v-746h-200v895h575z" />
    <glyph glyph-name="summation" unicode="&#x2211;" horiz-adv-x="627" 
d="M464 279l-218 -292h344v-163h-558v161l218 296l-196 294v159h534v-162h-317z" />
    <glyph glyph-name="uni0394" unicode="&#x394;" horiz-adv-x="742" 
d="M733 0h-725l246 734h227zM363 553l-116 -396h237l-119 396h-2z" />
    <glyph glyph-name="uni03A9" unicode="&#x3a9;" horiz-adv-x="819" 
d="M584 155v-5h143v-150h-289v139c68 30 85 77 85 249c0 168 -53 200 -112 200c-46 0 -115 -25 -115 -202c0 -147 16 -212 73 -247v-139h-280v150h141v3c-102 32 -162 114 -162 260c0 186 122 334 345 334c241 0 338 -149 338 -326c0 -140 -66 -221 -167 -266z" />
    <glyph glyph-name="uni03BC" unicode="&#x3bc;" horiz-adv-x="629" 
d="M62 -176v692h192v-291c0 -56 1 -93 50 -93c68 0 70 61 70 153v231h193v-516h-163l-21 99c-29 -47 -90 -98 -146 -105l-3 -3l30 -167h-202z" />
    <glyph glyph-name="pi" unicode="&#x3c0;" horiz-adv-x="669" 
d="M603 516v-516h-195v378h-146v-378h-196v516h537z" />
    <glyph glyph-name="mu" unicode="&#xb5;" horiz-adv-x="629" 
d="M62 -176v692h192v-291c0 -56 1 -93 50 -93c68 0 70 61 70 153v231h193v-516h-163l-21 99c-29 -47 -90 -98 -146 -105l-3 -3l30 -167h-202z" />
    <glyph glyph-name="radical" unicode="&#x221a;" horiz-adv-x="621" 
d="M418 0h-154l-123 247l-75 -32l-47 110l205 88l107 -239l148 585l134 -28z" />
    <glyph glyph-name="infinity" unicode="&#x221e;" horiz-adv-x="683" 
d="M487 176c-70 0 -113 40 -145 76c-33 -34 -78 -77 -151 -77c-72 0 -141 43 -141 137c0 82 58 142 155 142c65 0 107 -37 142 -75c34 35 81 75 147 75c70 0 139 -43 139 -142c0 -77 -68 -136 -146 -136zM199 261c36 0 68 32 91 57c-26 28 -53 50 -88 50
c-30 0 -48 -23 -48 -50c0 -29 13 -57 45 -57zM401 314c24 -30 47 -53 80 -53c29 0 48 26 48 55c0 26 -11 53 -43 53c-31 0 -58 -25 -85 -55z" />
    <glyph glyph-name="integral" unicode="&#x222b;" horiz-adv-x="411" 
d="M401 728l-7 -133c-22 6 -48 8 -61 8c-38 0 -49 -19 -41 -83l59 -478c19 -151 -53 -224 -182 -224c-62 0 -109 15 -129 21l-2 132c21 -6 48 -9 61 -9c38 0 50 19 42 84l-59 470c-20 156 50 231 180 231c63 0 120 -13 139 -19z" />
    <glyph glyph-name="lozenge" unicode="&#x25ca;" horiz-adv-x="574" 
d="M355 46h-135l-178 324l178 324h135l177 -324zM287 158l109 212l-109 208l-108 -208z" />
    <glyph glyph-name="commaaccent" horiz-adv-x="500" 
d="M175 -169v130h146v-103l-54 -135l-70 16l21 92h-43z" />
    <glyph glyph-name="revcommaaccent" horiz-adv-x="500" 
d="M323 700v-130h-145v103l54 135l70 -17l-21 -91h42z" />
    <glyph glyph-name="tilde.cap" horiz-adv-x="500" 
d="M146 774l-66 12c15 76 44 133 106 133c59 0 94 -26 132 -26c15 0 29 5 36 36l65 -10c-15 -88 -52 -137 -105 -137c-61 0 -100 28 -134 28c-17 0 -28 -10 -34 -36z" />
    <glyph glyph-name="ring.cap" horiz-adv-x="500" 
d="M248 760c-92 0 -114 46 -114 103s42 104 118 104c89 0 122 -46 122 -101c0 -60 -36 -106 -126 -106zM250 823c12 0 21 7 21 41c0 33 -9 40 -20 40c-13 0 -24 -8 -24 -41c0 -34 9 -40 23 -40z" />
    <glyph glyph-name="circumflex.cap" horiz-adv-x="500" 
d="M202 929h98l117 -113l-50 -62l-118 67l-114 -67l-50 62z" />
    <glyph glyph-name="acute.cap" horiz-adv-x="500" 
d="M309 953l65 -120l-183 -76l-50 83z" />
    <glyph glyph-name="grave.cap" horiz-adv-x="500" 
d="M121 833l67 120l169 -113l-53 -83z" />
    <glyph glyph-name="dieresis.cap" horiz-adv-x="500" 
d="M276 775v129h136v-129h-136zM88 775v129h136v-129h-136z" />
    <glyph glyph-name="caron.cap" horiz-adv-x="500" 
d="M298 769h-99l-116 114l51 63l116 -64l115 64l49 -63z" />
    <glyph glyph-name="macron.cap" horiz-adv-x="500" 
d="M106 785v114h288v-114h-288z" />
    <glyph glyph-name="dotaccent.cap" horiz-adv-x="500" 
d="M152 778v139h196v-139h-196z" />
    <glyph glyph-name="cedilla.cap" horiz-adv-x="500" 
d="M188 -90l40 90h72l-23 -41c10 4 14 5 29 5c57 0 89 -41 89 -94c0 -54 -38 -108 -120 -108c-48 0 -84 9 -132 44l46 62c23 -14 48 -23 63 -23c19 0 27 12 27 30c0 19 -7 27 -23 27c-11 0 -19 -4 -27 -9z" />
    <glyph glyph-name="hungarumlaut.cap" horiz-adv-x="500" 
d="M452 940l67 -91l-176 -92l-48 63zM234 956l78 -91l-160 -104l-51 61z" />
    <glyph glyph-name="apostrophe" unicode="&#x2bc;" horiz-adv-x="500" 
d="M321 754v-130h-42l21 -91l-71 -17l-54 135v103h146z" />
    <glyph glyph-name="commaaccent.cap" horiz-adv-x="500" 
d="M175 -169v130h146v-103l-54 -135l-70 16l21 92h-43z" />
    <glyph glyph-name="breve.cap" horiz-adv-x="500" 
d="M86 919l85 17c17 -47 42 -67 81 -67c43 0 68 13 91 67l82 -17c-23 -111 -73 -159 -174 -159c-89 0 -147 40 -165 159z" />
    <glyph glyph-name="caron.alt" horiz-adv-x="500" 
d="M193 734h133l-40 -198l-87 2z" />
    <glyph glyph-name="thinspace" unicode="&#x2009;" horiz-adv-x="125" 
 />
    </font>
</defs>
</svg>
