<?xml version="1.0" standalone="no"?>
<!DOCTYPE svg PUBLIC "-//W3C//DTD SVG 1.1//EN" "http://www.w3.org/Graphics/SVG/1.1/DTD/svg11.dtd" >
<svg xmlns="http://www.w3.org/2000/svg" xmlns:xlink="http://www.w3.org/1999/xlink" version="1.1">
<metadata>
Created by FontForge 20201107 at Wed Jan 23 17:11:05 2013
 By Jimmy Wärting
Copyright (c) 2012 by TypeTogether. All rights reserved.
</metadata>
<defs>
<font id="TabletGothic-Bold" horiz-adv-x="500" >
  <font-face 
    font-family="Tablet Gothic"
    font-weight="700"
    font-stretch="normal"
    units-per-em="1000"
    panose-1="2 0 5 3 0 0 0 2 0 4"
    ascent="755"
    descent="-245"
    x-height="515"
    cap-height="734"
    bbox="-166 -264 1062 1074"
    underline-thickness="50"
    underline-position="-100"
    stemh="115"
    stemv="160"
    unicode-range="U+0020-FB04"
  />
<missing-glyph horiz-adv-x="185" 
 />
    <glyph glyph-name="ij" unicode="ij" horiz-adv-x="520" 
d="M52 607v127h158v-127h-158zM52 0v515h158v-515h-158zM315 607v127h157v-127h-157zM171 -183l14 108c21 -5 40 -7 60 -7c51 0 70 23 70 91v506h157v-494c0 -174 -85 -216 -200 -216c-38 0 -82 7 -101 12z" />
    <glyph glyph-name="ff" unicode="ff" horiz-adv-x="679" 
d="M232 407v-407h-157v407h-61v108h61v10c0 156 70 217 196 217c40 0 82 -8 101 -13l-18 -113c-20 6 -39 9 -57 9c-45 0 -65 -26 -65 -94v-16h167v15c0 156 70 217 196 217c46 0 88 -9 106 -14l-17 -113c-21 6 -45 10 -63 10c-45 0 -65 -26 -65 -94v-21h112v-108h-112v-407
h-157v407h-167z" />
    <glyph glyph-name="fi" unicode="fi" horiz-adv-x="609" 
d="M346 737v-116c-14 4 -29 7 -49 7c-46 0 -65 -24 -65 -83v-30h324v-515h-157v407h-167v-407h-157v407h-61v108h61v15c0 156 68 217 194 217c31 0 58 -5 77 -10zM399 607v127h157v-127h-157z" />
    <glyph glyph-name="fl" unicode="fl" horiz-adv-x="609" 
d="M346 737v-116c-14 4 -29 7 -49 7c-46 0 -65 -24 -65 -83v-30h105v-108h-105v-407h-157v407h-61v108h61v15c0 156 68 217 194 217c31 0 58 -5 77 -10zM556 734v-734h-157v734h157z" />
    <glyph glyph-name="ffi" unicode="ffi" horiz-adv-x="933" 
d="M670 737v-116c-14 4 -29 7 -49 7c-46 0 -65 -24 -65 -83v-30h324v-515h-157v407h-167v-407h-157v407h-167v-407h-157v407h-61v108h61v10c0 156 70 217 196 217c40 0 82 -8 101 -13l-18 -113c-20 6 -39 9 -57 9c-45 0 -65 -26 -65 -94v-16h167v15c0 156 68 217 194 217
c31 0 58 -5 77 -10zM723 607v127h157v-127h-157z" />
    <glyph glyph-name="ffl" unicode="ffl" horiz-adv-x="933" 
d="M670 737v-116c-14 4 -29 7 -49 7c-46 0 -65 -24 -65 -83v-30h105v-108h-105v-407h-157v407h-167v-407h-157v407h-61v108h61v10c0 156 70 217 196 217c40 0 82 -8 101 -13l-18 -113c-20 6 -39 9 -57 9c-45 0 -65 -26 -65 -94v-16h167v15c0 156 68 217 194 217
c31 0 58 -5 77 -10zM880 734v-734h-157v734h157z" />
    <glyph glyph-name="t_t" unicode="tt" horiz-adv-x="706" 
d="M232 409v-214c0 -68 13 -93 63 -93c17 0 31 3 52 9l13 -106c-23 -9 -66 -17 -108 -17c-109 0 -177 48 -177 186v235h-61v106h61v104l157 44v-148h171v104l157 44v-148h112v-106h-112v-214c0 -68 16 -93 66 -93c18 0 35 3 56 9l14 -105c-24 -10 -64 -18 -112 -18
c-113 0 -181 48 -181 186v235h-171z" />
    <glyph glyph-name=".notdef" horiz-adv-x="185" 
 />
    <glyph glyph-name="space" unicode=" " horiz-adv-x="185" 
 />
    <glyph glyph-name="quotesingle" unicode="'" horiz-adv-x="225" 
d="M56 734h113l-15 -215h-90z" />
    <glyph glyph-name="quotedbl" unicode="&#x22;" horiz-adv-x="378" 
d="M209 734h113l-15 -215h-90zM56 734h113l-15 -215h-90z" />
    <glyph glyph-name="numbersign" unicode="#" horiz-adv-x="656" 
d="M467 0h-126l17 111h-112l-17 -111h-125l17 111h-78l17 105h77l19 135h-82l17 106h81l14 98h125l-14 -98h112l14 98h126l-15 -98h78l-16 -106h-77l-20 -135h84l-16 -105h-83zM374 216l19 135h-112l-19 -135h112z" />
    <glyph glyph-name="ampersand" unicode="&#x26;" horiz-adv-x="735" 
d="M427 166l-152 159c-47 -30 -76 -71 -76 -120c0 -60 43 -90 99 -90c51 0 92 19 129 51zM531 525l-138 15c5 14 6 32 6 41c0 34 -21 57 -62 57c-40 0 -61 -22 -61 -60c0 -35 21 -66 55 -103l185 -196c21 41 29 85 35 143l142 -13c-13 -96 -31 -164 -71 -239l88 -92
l-107 -97l-84 89c-65 -48 -149 -82 -251 -82c-164 0 -233 86 -233 193c0 92 40 168 159 231c-53 55 -72 104 -72 153c0 104 79 181 218 181c124 0 199 -64 199 -156c0 -18 -3 -44 -8 -65z" />
    <glyph glyph-name="asterisk" unicode="*" horiz-adv-x="386" 
d="M149 734h89l-26 -130l115 65l28 -86l-132 -13l97 -91l-73 -53l-55 116l-56 -115l-72 53l97 92l-130 13l28 85l115 -65z" />
    <glyph glyph-name="comma" unicode="," horiz-adv-x="268" 
d="M56 0v140h161v-115l-80 -170l-61 18l27 127h-47z" />
    <glyph glyph-name="hyphen" unicode="-" horiz-adv-x="321" 
d="M296 203h-271v124h271v-124z" />
    <glyph glyph-name="period" unicode="." horiz-adv-x="275" 
d="M58 0v140h160v-140h-160z" />
    <glyph glyph-name="colon" unicode=":" horiz-adv-x="275" 
d="M58 0v140h159v-140h-159zM58 376v140h159v-140h-159z" />
    <glyph glyph-name="semicolon" unicode=";" horiz-adv-x="268" 
d="M57 376v140h160v-140h-160zM56 0v140h161v-115l-80 -170l-61 18l27 127h-47z" />
    <glyph glyph-name="question" unicode="?" horiz-adv-x="505" 
d="M329 521c0 74 -30 105 -78 105c-54 0 -74 -40 -77 -113l-146 10c3 130 68 224 230 224c144 0 230 -85 230 -227c0 -150 -78 -213 -179 -236l-7 -85h-144l-9 178c133 4 180 51 180 144zM147 0v140h160v-140h-160z" />
    <glyph glyph-name="exclam" unicode="!" horiz-adv-x="331" 
d="M239 209h-145l-13 525h169zM86 0v140h159v-140h-159z" />
    <glyph glyph-name="exclamdown" unicode="&#xa1;" horiz-adv-x="331" 
d="M94 317h145l11 -525h-169zM86 386v140h159v-140h-159z" />
    <glyph glyph-name="questiondown" unicode="&#xbf;" horiz-adv-x="505" 
d="M176 5c0 93 47 140 180 144l-9 178h-144l-7 -85c-101 -23 -179 -86 -179 -236c0 -142 86 -227 230 -227c162 0 227 94 230 224l-146 10c-3 -73 -23 -113 -77 -113c-48 0 -78 31 -78 105zM358 526v-140h-160v140h160z" />
    <glyph glyph-name="at" unicode="@" horiz-adv-x="822" 
d="M625 -24l46 -64c-59 -59 -155 -85 -255 -85c-233 0 -374 124 -374 363c0 228 156 378 386 378c198 0 351 -104 351 -318c0 -175 -64 -252 -170 -252c-65 0 -105 25 -120 59c-22 -36 -66 -65 -130 -65c-96 0 -142 70 -142 162c0 130 58 243 183 243c50 0 81 -24 98 -53
l13 47h93l-25 -233c-6 -55 -9 -93 41 -93c49 0 71 59 71 170c0 182 -98 257 -272 257c-182 0 -282 -127 -282 -305c0 -201 119 -281 282 -281c93 0 161 27 206 70zM475 158l9 81c6 53 -17 84 -64 84c-76 0 -97 -88 -97 -164c0 -54 15 -91 66 -91c50 0 81 37 86 90z" />
    <glyph glyph-name="at.case" horiz-adv-x="822" 
d="M625 141l46 -64c-59 -59 -155 -85 -255 -85c-233 0 -374 124 -374 363c0 228 156 378 386 378c198 0 351 -104 351 -318c0 -175 -64 -252 -170 -252c-65 0 -105 25 -120 59c-22 -36 -66 -65 -130 -65c-96 0 -142 70 -142 162c0 130 58 243 183 243c50 0 81 -24 98 -53
l13 47h93l-25 -233c-6 -55 -9 -93 41 -93c49 0 71 59 71 170c0 182 -98 257 -272 257c-182 0 -282 -127 -282 -305c0 -201 119 -281 282 -281c93 0 161 27 206 70zM475 323l9 81c6 53 -17 84 -64 84c-76 0 -97 -88 -97 -164c0 -54 15 -91 66 -91c50 0 81 37 86 90z" />
    <glyph glyph-name="A" unicode="A" horiz-adv-x="693" 
d="M243 734h202l247 -734h-166l-56 169h-254l-54 -169h-161zM435 293l-93 292h-2l-90 -292h185z" />
    <glyph glyph-name="B" unicode="B" horiz-adv-x="643" 
d="M334 0h-254v734h267c171 0 236 -66 236 -184c0 -96 -73 -150 -143 -165v-4c113 -8 168 -73 168 -172c0 -148 -101 -209 -274 -209zM241 129h76c85 0 130 20 130 93c0 58 -35 89 -108 89h-98v-182zM241 434h45c73 0 132 16 132 93c0 52 -22 80 -96 80h-81v-173z" />
    <glyph glyph-name="C" unicode="C" horiz-adv-x="657" 
d="M346 117c70 0 106 46 113 134l156 -11c-17 -176 -115 -252 -277 -252c-188 0 -297 122 -297 368c0 268 131 391 318 391c170 0 262 -104 262 -268l-159 -12c1 117 -47 152 -112 152c-76 0 -138 -61 -138 -259c0 -177 51 -243 134 -243z" />
    <glyph glyph-name="D" unicode="D" horiz-adv-x="686" 
d="M258 0h-178v734h180c278 0 385 -122 385 -352c0 -255 -107 -382 -387 -382zM242 132h39c129 0 197 60 197 240c0 173 -62 231 -197 231h-39v-471z" />
    <glyph glyph-name="E" unicode="E" horiz-adv-x="572" 
d="M483 439v-128h-241v-179h288v-132h-450v734h433v-131h-271v-164h241z" />
    <glyph glyph-name="F" unicode="F" horiz-adv-x="542" 
d="M478 419v-127h-236v-292h-162v734h433v-131h-271v-184h236z" />
    <glyph glyph-name="G" unicode="G" horiz-adv-x="695" 
d="M368 256v117h267v-385h-102l-16 86c-42 -54 -108 -86 -184 -86c-184 0 -292 125 -292 363c0 280 136 396 323 396c161 0 254 -95 255 -268l-159 -12c-2 121 -49 152 -107 152c-78 0 -141 -61 -141 -261c0 -180 59 -243 147 -243c68 0 130 43 134 141h-125z" />
    <glyph glyph-name="H" unicode="H" horiz-adv-x="734" 
d="M655 734v-734h-163v298h-250v-298h-162v734h162v-303h250v303h163z" />
    <glyph glyph-name="I" unicode="I" horiz-adv-x="407" 
d="M284 630v-526h74v-104h-309v104h74v526h-74v104h309v-104h-74z" />
    <glyph glyph-name="J" unicode="J" horiz-adv-x="568" 
d="M17 238l153 11c5 -69 12 -132 86 -132c57 0 79 33 79 120v497h162v-503c0 -164 -89 -243 -244 -243c-154 0 -237 80 -236 250z" />
    <glyph glyph-name="K" unicode="K" horiz-adv-x="699" 
d="M242 734v-306l252 306h180l-254 -301l276 -433h-189l-196 303l-69 -82v-221h-162v734h162z" />
    <glyph glyph-name="L" unicode="L" horiz-adv-x="539" 
d="M242 734v-602h258v-132h-420v734h162z" />
    <glyph glyph-name="M" unicode="M" horiz-adv-x="914" 
d="M539 0h-157l-147 542h-3v-542h-152v734h240l141 -571h3l137 571h233v-734h-152v541h-4z" />
    <glyph glyph-name="N" unicode="N" horiz-adv-x="744" 
d="M664 0h-180l-254 491v-491h-150v734h190l244 -498v498h150v-734z" />
    <glyph glyph-name="O" unicode="O" horiz-adv-x="709" 
d="M351 -12c-210 0 -310 137 -310 376c0 244 126 383 325 383c204 0 303 -136 303 -371c0 -247 -108 -388 -318 -388zM356 115c97 0 143 76 143 258c0 170 -44 244 -138 244c-91 0 -150 -73 -150 -248c0 -174 45 -254 145 -254z" />
    <glyph glyph-name="P" unicode="P" horiz-adv-x="629" 
d="M241 260v-260h-161v734h275c180 0 245 -90 245 -221c0 -103 -35 -253 -278 -253h-81zM241 382h60c87 0 135 31 135 118c0 65 -26 107 -113 107h-82v-225z" />
    <glyph glyph-name="Q" unicode="Q" horiz-adv-x="709" 
d="M351 -12c-210 0 -310 137 -310 376c0 244 126 383 325 383c204 0 303 -136 303 -371c0 -172 -52 -292 -154 -350l78 -133l-120 -56l-108 152c-5 0 -9 -1 -14 -1zM356 115c97 0 143 76 143 258c0 170 -44 244 -138 244c-91 0 -150 -73 -150 -248c0 -174 45 -254 145 -254z
" />
    <glyph glyph-name="R" unicode="R" horiz-adv-x="648" 
d="M241 293v-293h-161v734h275c178 0 245 -88 245 -210c0 -78 -20 -170 -134 -211l149 -313h-173l-134 293h-67zM241 414h64c81 0 131 18 131 99c0 60 -32 94 -113 94h-82v-193z" />
    <glyph glyph-name="S" unicode="S" horiz-adv-x="626" 
d="M581 541l-158 -31c-12 75 -50 111 -112 111c-59 0 -91 -27 -91 -77c0 -61 58 -80 128 -97c107 -27 241 -52 241 -216c0 -162 -121 -243 -273 -243c-171 0 -270 71 -291 227l167 23c11 -71 37 -120 129 -120c66 0 102 30 102 83c0 68 -66 86 -143 105
c-106 26 -232 56 -232 222c0 136 111 220 270 220c149 0 241 -66 263 -207z" />
    <glyph glyph-name="T" unicode="T" horiz-adv-x="565" 
d="M201 0v603h-194v131h551v-131h-194v-603h-163z" />
    <glyph glyph-name="U" unicode="U" horiz-adv-x="719" 
d="M488 311v423h160v-471c0 -175 -94 -275 -293 -275c-211 0 -284 106 -284 281v465h159v-422c0 -128 25 -195 130 -195s128 62 128 194z" />
    <glyph glyph-name="V" unicode="V" horiz-adv-x="677" 
d="M516 734h161l-235 -734h-202l-240 734h166l176 -586h3z" />
    <glyph glyph-name="W" unicode="W" horiz-adv-x="992" 
d="M807 0h-201l-110 481h-5l-107 -481h-202l-168 734h166l104 -585h3l136 585h146l139 -585h3l107 585h160z" />
    <glyph glyph-name="X" unicode="X" horiz-adv-x="663" 
d="M183 0h-181l215 379l-207 355h186l132 -253h3l134 253h178l-205 -354l223 -380h-188l-148 262h-3z" />
    <glyph glyph-name="Y" unicode="Y" horiz-adv-x="632" 
d="M399 276v-276h-159v272l-251 462h180l151 -308l155 308h169z" />
    <glyph glyph-name="Z" unicode="Z" horiz-adv-x="587" 
d="M32 603v131h511v-121l-322 -481h325v-132h-520v122l321 481h-315z" />
    <glyph glyph-name="a" unicode="a" horiz-adv-x="549" 
d="M527 95l4 -92c-112 -26 -166 -5 -187 63c-28 -48 -79 -78 -158 -78c-114 0 -157 71 -157 147c0 140 129 153 297 168v18c0 74 -20 103 -70 103c-61 0 -70 -33 -61 -89l-141 -14c-20 118 35 206 209 206c171 0 216 -91 216 -222v-176c0 -30 10 -42 48 -34zM326 183v32
c-116 -7 -141 -30 -141 -72c0 -37 27 -56 59 -56c50 0 82 44 82 96z" />
    <glyph glyph-name="b" unicode="b" horiz-adv-x="576" 
d="M188 0h-136v734h157v-282h1c22 34 70 75 152 75c92 0 185 -60 185 -258c0 -192 -88 -281 -207 -281c-66 0 -115 26 -138 66h-3zM205 258c0 -109 28 -168 86 -168c57 0 94 47 94 179c0 125 -39 155 -84 155c-65 0 -96 -53 -96 -166z" />
    <glyph glyph-name="c" unicode="c" horiz-adv-x="527" 
d="M507 325l-139 -11c-5 75 -41 100 -84 100c-52 0 -95 -36 -95 -155c0 -115 33 -158 94 -158c44 0 73 20 84 88l138 -10c-18 -145 -121 -191 -228 -191c-177 0 -250 112 -250 265c0 173 100 274 262 274c146 0 212 -88 218 -202z" />
    <glyph glyph-name="d" unicode="d" horiz-adv-x="572" 
d="M367 734h157v-734h-138l-12 64h-2c-21 -42 -73 -76 -139 -76c-120 0 -204 70 -204 259c0 181 82 280 212 280c66 0 102 -26 125 -60h1v267zM372 258c0 123 -32 167 -90 167c-56 0 -90 -45 -90 -177c0 -117 30 -160 87 -160c65 0 93 63 93 170z" />
    <glyph glyph-name="e" unicode="e" horiz-adv-x="544" 
d="M375 178l134 -13c-28 -147 -136 -177 -230 -177c-175 0 -252 110 -252 264c0 172 100 275 262 275c167 0 243 -114 223 -299h-324c1 -79 27 -127 97 -127c48 0 79 22 90 77zM189 318h173c4 75 -29 107 -81 107c-60 0 -89 -44 -92 -107z" />
    <glyph glyph-name="f" unicode="f" horiz-adv-x="355" 
d="M14 407v108h61v15c0 156 70 217 196 217c46 0 88 -9 106 -14l-17 -113c-21 6 -45 10 -63 10c-45 0 -65 -26 -65 -94v-21h112v-108h-112v-407h-157v407h-61z" />
    <glyph glyph-name="g" unicode="g" horiz-adv-x="572" 
d="M390 515h134v-461c0 -167 -94 -249 -258 -249c-123 0 -199 52 -221 149l144 26c7 -32 19 -63 81 -63c66 0 97 36 97 124v43h-1c-19 -35 -64 -70 -141 -70c-105 0 -196 57 -196 243c0 182 91 270 212 270c70 0 110 -25 133 -65h2zM371 264c0 111 -28 162 -87 162
c-58 0 -92 -49 -92 -164c0 -117 32 -148 84 -148c68 0 95 48 95 150z" />
    <glyph glyph-name="h" unicode="h" horiz-adv-x="579" 
d="M532 312v-312h-157v305c0 66 -18 104 -72 104c-72 0 -93 -53 -93 -127v-282h-158v734h157v-284h2c26 38 69 77 152 77c105 0 169 -65 169 -215z" />
    <glyph glyph-name="i" unicode="i" horiz-adv-x="262" 
d="M52 607v127h158v-127h-158zM52 0v515h158v-515h-158z" />
    <glyph glyph-name="j" unicode="j" horiz-adv-x="257" 
d="M53 607v127h157v-127h-157zM-91 -183l14 108c21 -5 40 -7 60 -7c51 0 70 23 70 91v506h157v-494c0 -174 -85 -216 -200 -216c-38 0 -82 7 -101 12z" />
    <glyph glyph-name="k" unicode="k" horiz-adv-x="563" 
d="M210 734v-397l156 178h181l-173 -185l189 -330h-181l-114 217l-58 -60v-157h-158v734h158z" />
    <glyph glyph-name="l" unicode="l" horiz-adv-x="262" 
d="M210 734v-734h-158v734h158z" />
    <glyph glyph-name="m" unicode="m" horiz-adv-x="875" 
d="M348 527c79 0 127 -38 151 -99c35 62 80 99 158 99c115 0 171 -82 171 -217v-310h-158v305c0 65 -15 104 -67 104c-64 0 -85 -59 -85 -129v-280h-157v305c0 80 -22 104 -67 104c-54 0 -84 -37 -84 -129v-280h-158v515h144l5 -77h3c23 45 63 89 144 89z" />
    <glyph glyph-name="n" unicode="n" horiz-adv-x="579" 
d="M532 315v-315h-157v305c0 77 -25 104 -72 104c-73 0 -93 -55 -93 -128v-281h-158v515h144l5 -74h3c20 38 64 86 156 86c105 0 172 -62 172 -212z" />
    <glyph glyph-name="o" unicode="o" horiz-adv-x="571" 
d="M280 -12c-165 0 -253 99 -253 269c0 176 120 270 266 270c154 0 251 -92 251 -260c0 -185 -103 -279 -264 -279zM286 97c68 0 97 62 97 164c0 98 -29 153 -94 153c-67 0 -100 -57 -100 -156c0 -103 26 -161 97 -161z" />
    <glyph glyph-name="p" unicode="p" horiz-adv-x="574" 
d="M206 -183h-154v698h141l7 -64h2c29 45 79 76 154 76c102 0 190 -67 190 -255c0 -208 -95 -284 -210 -284c-56 0 -106 22 -128 57h-2v-228zM205 262c0 -120 30 -171 88 -171c63 0 93 58 93 180c0 107 -28 153 -85 153c-69 0 -96 -64 -96 -162z" />
    <glyph glyph-name="q" unicode="q" horiz-adv-x="570" 
d="M388 515h134v-698h-154v243h-1c-18 -33 -65 -72 -139 -72c-110 0 -202 60 -202 259c0 202 100 280 218 280c60 0 99 -24 127 -66h3zM370 259c0 111 -25 166 -89 166c-58 0 -92 -51 -92 -177c0 -108 26 -159 87 -159c66 0 94 60 94 170z" />
    <glyph glyph-name="r" unicode="r" horiz-adv-x="490" 
d="M473 314l-153 -8c9 72 -2 101 -39 101c-57 0 -71 -67 -71 -156v-251h-158v515h144l6 -74h2c19 40 57 86 140 86c99 0 150 -66 129 -213z" />
    <glyph glyph-name="s" unicode="s" horiz-adv-x="497" 
d="M464 387l-136 -29c-8 41 -29 65 -75 65c-37 0 -65 -12 -65 -42c0 -91 283 -12 283 -217c0 -119 -113 -176 -226 -176c-131 0 -206 46 -225 155l140 20c10 -45 27 -72 86 -72c46 0 70 20 70 49c0 96 -278 17 -278 218c0 110 100 169 218 169c121 0 182 -46 208 -140z" />
    <glyph glyph-name="t" unicode="t" horiz-adv-x="380" 
d="M14 409v106h61v104l157 44v-148h112v-106h-112v-214c0 -68 17 -93 67 -93c17 0 34 3 55 9l14 -105c-24 -10 -64 -18 -112 -18c-113 0 -181 48 -181 186v235h-61z" />
    <glyph glyph-name="u" unicode="u" horiz-adv-x="575" 
d="M48 202v313h157v-307c0 -69 20 -103 70 -103c73 0 92 62 92 140v270h157v-515h-143l-6 75h-2c-23 -40 -64 -87 -156 -87c-106 0 -169 64 -169 214z" />
    <glyph glyph-name="v" unicode="v" horiz-adv-x="531" 
d="M357 0h-182l-166 515h166l91 -375h3l92 375h161z" />
    <glyph glyph-name="w" unicode="w" horiz-adv-x="842" 
d="M334 0h-177l-146 515h159l81 -372h2l86 372h177l87 -372h3l76 372h149l-139 -515h-182l-86 367h-2z" />
    <glyph glyph-name="x" unicode="x" horiz-adv-x="561" 
d="M174 0h-164l175 265l-169 250h170l92 -148h2l94 148h162l-167 -248l182 -267h-172l-105 154h-1z" />
    <glyph glyph-name="y" unicode="y" horiz-adv-x="528" 
d="M520 515l-175 -508c-52 -152 -99 -202 -215 -202c-38 0 -84 8 -102 15l16 102c19 -5 37 -9 56 -9c41 0 67 20 88 85l3 8l-181 509h168l87 -350h5l89 350h161z" />
    <glyph glyph-name="z" unicode="z" horiz-adv-x="481" 
d="M39 395v120h410v-110l-229 -284h234v-121h-421v111l229 284h-223z" />
    <glyph glyph-name="bracketleft" unicode="[" horiz-adv-x="352" 
d="M327 -35v-97h-265v915h263v-97l-106 -3v-716z" />
    <glyph glyph-name="bracketright" unicode="]" horiz-adv-x="352" 
d="M25 -132v97l108 2v716l-106 3v97h263v-915h-265z" />
    <glyph glyph-name="parenleft" unicode="(" horiz-adv-x="318" 
d="M208 797l94 -29c-68 -142 -103 -277 -103 -431c0 -161 37 -303 102 -450l-90 -36c-132 158 -183 294 -183 477c0 185 75 332 180 469z" />
    <glyph glyph-name="parenright" unicode=")" horiz-adv-x="318" 
d="M110 -147l-94 30c68 141 103 276 103 431c0 160 -37 303 -102 449l89 37c133 -159 183 -295 183 -478c0 -185 -75 -331 -179 -469z" />
    <glyph glyph-name="braceleft" unicode="{" horiz-adv-x="366" 
d="M111 459v157c0 128 81 160 214 166l12 -59c-61 -21 -71 -36 -71 -82v-180c0 -68 -27 -121 -113 -137v-2c82 -10 113 -57 113 -127v-183c0 -45 8 -61 72 -82l-12 -59c-112 4 -215 31 -215 149v164c0 44 -18 89 -86 90v86c68 9 86 48 86 99z" />
    <glyph glyph-name="braceright" unicode="}" horiz-adv-x="366" 
d="M255 616v-157c0 -51 18 -90 86 -99v-86c-68 -1 -86 -46 -86 -90v-164c0 -118 -103 -145 -215 -149l-12 59c64 21 72 37 72 82v183c0 70 31 117 113 127v2c-86 16 -113 69 -113 137v180c0 46 -10 61 -71 82l12 59c133 -6 214 -38 214 -166z" />
    <glyph glyph-name="backslash" unicode="\" horiz-adv-x="351" 
d="M116 789l262 -875l-130 -39l-262 875z" />
    <glyph glyph-name="slash" unicode="/" horiz-adv-x="439" 
d="M-28 -53l354 843l127 -49l-355 -846z" />
    <glyph glyph-name="brokenbar" unicode="&#xa6;" horiz-adv-x="262" 
d="M57 -240v445h148v-445h-148zM57 760h148v-445h-148v445z" />
    <glyph glyph-name="bar" unicode="|" horiz-adv-x="262" 
d="M57 760h148v-1000h-148v1000z" />
    <glyph glyph-name="asciicircum" unicode="^" horiz-adv-x="505" 
d="M199 755h119l169 -357l-128 -47l-103 239h-2l-112 -239l-125 45z" />
    <glyph glyph-name="underscore" unicode="_" horiz-adv-x="440" 
d="M0 -46h440v-115h-440v115z" />
    <glyph glyph-name="asciitilde" unicode="~" 
d="M122 211l-75 26c14 86 63 128 122 128c29 0 63 -11 93 -22c26 -10 49 -20 69 -20c25 0 39 17 47 46l75 -25c-15 -68 -54 -125 -114 -125c-27 0 -55 7 -96 22c-36 13 -57 19 -70 19c-21 0 -41 -10 -51 -49z" />
    <glyph glyph-name="uni00A0" unicode="&#xa0;" horiz-adv-x="185" 
 />
    <glyph glyph-name="zero" unicode="0" horiz-adv-x="657" 
d="M325 -12c-195 0 -285 137 -285 376c0 244 115 383 299 383c190 0 278 -136 278 -371c0 -247 -97 -388 -292 -388zM330 107c87 0 124 76 124 266c0 178 -35 250 -120 250c-81 0 -130 -71 -130 -254c0 -181 36 -262 126 -262z" />
    <glyph glyph-name="one" unicode="1" horiz-adv-x="405" 
d="M45 498l-33 126c60 19 154 68 202 110h102v-734h-157v549c-21 -15 -71 -37 -114 -51z" />
    <glyph glyph-name="two" unicode="2" horiz-adv-x="559" 
d="M230 132h270v-132h-446c0 14 -1 31 -1 50c0 32 2 66 7 90c32 176 297 269 297 410c0 52 -31 78 -77 78c-71 0 -84 -61 -69 -139l-150 -10c-31 146 38 268 224 268c145 0 232 -72 232 -197c0 -214 -272 -280 -287 -418z" />
    <glyph glyph-name="three" unicode="3" horiz-adv-x="569" 
d="M203 311l-13 119c110 4 161 33 161 115c0 61 -33 83 -79 83c-60 0 -86 -32 -70 -139l-149 -10c-30 150 36 268 223 268c144 0 234 -64 234 -183c0 -105 -63 -156 -139 -179c101 -23 154 -90 154 -180c0 -142 -95 -217 -243 -217c-173 0 -236 80 -243 228l155 10
c6 -82 28 -119 92 -119c48 0 80 34 80 98c0 85 -56 112 -163 106z" />
    <glyph glyph-name="four" unicode="4" horiz-adv-x="562" 
d="M157 248h152v302h-4zM465 734v-486h74v-133h-74v-115h-156v115h-295v108l260 511h191z" />
    <glyph glyph-name="five" unicode="5" horiz-adv-x="570" 
d="M283 364c-40 0 -71 -27 -89 -61l-132 13l28 418h403v-132h-274l-22 -177c27 36 77 59 135 59c111 0 196 -74 196 -236c0 -160 -78 -260 -252 -260c-176 0 -223 103 -232 228l154 10c7 -95 42 -119 88 -119c60 0 83 55 83 127c0 102 -37 130 -86 130z" />
    <glyph glyph-name="six" unicode="6" horiz-adv-x="595" 
d="M325 628c-66 0 -104 -58 -112 -223c33 46 93 66 144 66c99 0 197 -65 197 -225c0 -178 -99 -258 -252 -258c-180 0 -250 102 -250 340c0 266 91 419 280 419c166 0 214 -91 206 -217l-147 -10c5 65 -10 108 -66 108zM304 359c-59 0 -96 -41 -96 -118s24 -134 95 -134
c77 0 95 69 95 131c0 79 -29 121 -94 121z" />
    <glyph glyph-name="seven" unicode="7" horiz-adv-x="476" 
d="M277 0h-163c1 260 78 449 190 602h-275v132h437v-91c-153 -207 -180 -395 -189 -643z" />
    <glyph glyph-name="eight" unicode="8" horiz-adv-x="602" 
d="M294 -12c-187 0 -257 90 -257 211c0 98 43 168 143 200c-78 25 -113 84 -113 159c0 113 88 189 243 189s224 -77 224 -178c0 -80 -42 -140 -119 -167c104 -27 150 -96 150 -192c0 -127 -78 -222 -271 -222zM299 107c74 0 109 47 109 119c0 69 -33 119 -105 119
c-69 0 -108 -44 -108 -124c0 -66 27 -114 104 -114zM299 453c60 0 76 51 76 95c0 49 -16 92 -74 92c-59 0 -75 -45 -75 -93c0 -52 17 -94 73 -94z" />
    <glyph glyph-name="nine" unicode="9" horiz-adv-x="595" 
d="M282 108c68 0 104 76 108 222c-32 -46 -92 -66 -142 -66c-100 0 -201 64 -201 223c0 172 102 260 255 260c171 0 246 -101 246 -336c0 -269 -80 -423 -270 -423c-166 0 -225 90 -229 217l150 11c5 -74 24 -108 83 -108zM296 376c59 0 97 41 97 120c0 77 -24 132 -96 132
c-77 0 -95 -69 -95 -131c0 -79 29 -121 94 -121z" />
    <glyph glyph-name="dollar" unicode="$" horiz-adv-x="595" 
d="M549 528l-142 -29c-11 72 -46 106 -104 106c-56 0 -90 -23 -90 -71c0 -146 348 -34 348 -295c0 -122 -75 -195 -177 -220v-85h-148v79c-120 16 -185 85 -202 214l150 21c10 -69 37 -116 123 -116c64 0 99 27 99 78c0 154 -354 31 -354 305c0 111 75 184 184 205v77h148
v-78c93 -21 149 -84 165 -191z" />
    <glyph glyph-name="Euro" unicode="&#x20ac;" horiz-adv-x="626" 
d="M348 116c74 0 101 48 109 122l140 -12c-21 -163 -109 -238 -258 -238c-138 0 -235 88 -259 239h-77l16 98h49c-1 9 0 23 0 32v29h-46l15 99h41c34 179 143 262 283 262c156 0 239 -104 241 -255l-142 -12c-5 106 -41 140 -104 140c-56 0 -105 -34 -125 -135h167l-15 -99
h-161v-25v-36h158l-16 -98h-129c11 -71 55 -111 113 -111z" />
    <glyph glyph-name="cent" unicode="&#xa2;" horiz-adv-x="535" 
d="M514 418l-139 -12c-5 76 -41 101 -83 101c-53 0 -96 -36 -96 -155c0 -115 33 -159 95 -159c44 0 73 20 84 88l137 -9c-14 -111 -77 -164 -153 -183v-89h-148v89c-124 27 -176 127 -176 257c0 140 65 233 176 263v88h148v-84c102 -22 151 -100 155 -195z" />
    <glyph glyph-name="sterling" unicode="&#xa3;" horiz-adv-x="567" 
d="M35 313v112h71c-16 31 -29 66 -29 113c0 113 74 209 242 209c128 0 228 -60 228 -207c0 -15 -1 -32 -3 -49l-150 8c2 15 3 29 3 41c0 73 -34 89 -78 89c-50 0 -84 -33 -84 -87c0 -48 21 -82 44 -117h172v-112h-125c1 -6 1 -11 1 -17c0 -57 -41 -111 -103 -164h308v-132
h-459v132c72 51 101 104 101 147c0 12 -2 23 -6 34h-133z" />
    <glyph glyph-name="yen" unicode="&#xa5;" horiz-adv-x="600" 
d="M498 324h-115v-72h115v-105h-115v-147h-159v147h-128v105h128v72h-128v105h79l-175 305h179l124 -269l131 269h166l-172 -305h70v-105z" />
    <glyph glyph-name="florin" unicode="&#x192;" horiz-adv-x="478" 
d="M48 350l19 108h91l16 92c25 139 91 197 210 197c56 0 98 -13 120 -23l-33 -104c-20 6 -44 10 -61 10c-46 0 -70 -26 -82 -94l-14 -78h115l-19 -108h-115l-51 -298c-23 -135 -92 -192 -218 -192c-53 0 -92 12 -109 18l31 108c19 -6 43 -9 61 -9c45 0 70 26 81 92l49 281
h-91z" />
    <glyph glyph-name="section" unicode="&#xa7;" horiz-adv-x="658" 
d="M52 250c0 64 33 107 102 148c-35 30 -61 72 -61 136c0 126 116 200 260 200c126 0 232 -54 246 -193l-151 -15c-5 61 -33 96 -100 96c-54 0 -92 -24 -92 -66c0 -136 350 -65 350 -274c0 -65 -37 -115 -100 -155c35 -29 59 -72 59 -135c0 -125 -115 -199 -258 -199
c-128 0 -235 53 -249 191l150 17c5 -61 34 -95 103 -95c54 0 90 22 90 68c0 136 -349 51 -349 276zM210 286c0 -67 99 -76 193 -106c27 15 46 35 46 64c0 63 -105 68 -199 102c-26 -14 -40 -34 -40 -60z" />
    <glyph glyph-name="copyright" unicode="&#xa9;" horiz-adv-x="809" 
d="M765 341c0 -217 -147 -362 -361 -362c-240 0 -360 151 -360 346c0 227 160 362 363 362c222 0 358 -136 358 -346zM407 64c165 0 268 103 268 272c0 173 -112 266 -268 266s-270 -101 -270 -275c0 -164 101 -263 270 -263zM496 290l73 -14c-19 -108 -89 -143 -162 -143
c-122 0 -175 85 -175 198c0 119 68 203 178 203c76 0 146 -34 156 -145l-77 -11c-7 58 -30 84 -79 84c-52 0 -92 -38 -92 -131c0 -68 22 -126 90 -126c53 0 77 30 88 85z" />
    <glyph glyph-name="registered" unicode="&#xae;" horiz-adv-x="444" 
d="M419 543c0 -117 -80 -196 -198 -196c-130 0 -196 82 -196 189c0 123 88 198 197 198c122 0 197 -75 197 -191zM365 540c0 94 -60 144 -143 144c-81 0 -141 -54 -141 -147c0 -88 52 -141 141 -141s143 55 143 144zM265 530l44 -83h-46l-39 75h-26v-75h-43v191h81
c52 0 64 -26 64 -54c0 -26 -13 -47 -35 -54zM198 554h13c25 0 43 2 43 27c0 22 -13 24 -36 24h-20v-51z" />
    <glyph glyph-name="trademark" unicode="&#x2122;" horiz-adv-x="847" 
d="M111 350v300h-102v84h314v-84h-103v-300h-109zM630 350h-88l-85 274v-274h-94v384h142l82 -275l84 275h137v-384h-99v274z" />
    <glyph glyph-name="ordfeminine" unicode="&#xaa;" horiz-adv-x="396" 
d="M373 491l3 -70c-78 -18 -124 -11 -142 36c-19 -29 -51 -46 -106 -46c-77 0 -103 45 -103 94c0 80 88 92 199 106v10c0 33 -13 48 -39 48c-27 0 -40 -11 -33 -38l-111 -10c-12 72 27 126 149 126c118 0 154 -52 154 -130v-107c0 -15 5 -23 29 -19zM224 532v23
c-62 -4 -78 -20 -78 -42c0 -23 14 -32 32 -32c28 0 46 19 46 51z" />
    <glyph glyph-name="ordmasculine" unicode="&#xba;" horiz-adv-x="418" 
d="M204 411c-114 0 -172 61 -172 167c0 113 81 169 182 169c108 0 172 -55 172 -163c0 -117 -68 -173 -182 -173zM210 493c34 0 50 26 50 87c0 58 -15 83 -48 83c-34 0 -54 -25 -54 -85c0 -61 14 -85 52 -85z" />
    <glyph glyph-name="guillemotleft" unicode="&#xab;" horiz-adv-x="459" 
d="M432 79l-86 -38l-134 210l133 203l86 -36l-92 -164zM249 79l-87 -38l-133 210l132 203l87 -36l-93 -164z" />
    <glyph glyph-name="guillemotright" unicode="&#xbb;" horiz-adv-x="459" 
d="M113 41l-86 38l93 175l-92 164l86 36l133 -203zM297 41l-87 38l94 175l-93 164l87 36l132 -203z" />
    <glyph glyph-name="guilsinglleft" unicode="&#x2039;" horiz-adv-x="276" 
d="M249 79l-87 -38l-133 210l132 203l87 -36l-93 -164z" />
    <glyph glyph-name="guilsinglright" unicode="&#x203a;" horiz-adv-x="275" 
d="M111 41l-87 38l94 175l-93 164l87 36l132 -203z" />
    <glyph glyph-name="quoteleft" unicode="&#x2018;" horiz-adv-x="217" 
d="M180 612v-148h-145v120l71 177l54 -16l-39 -133h59z" />
    <glyph glyph-name="quoteright" unicode="&#x2019;" horiz-adv-x="217" 
d="M35 586v148h145v-120l-71 -177l-54 15l39 134h-59z" />
    <glyph glyph-name="quotesinglbase" unicode="&#x201a;" horiz-adv-x="217" 
d="M37 0v148h146v-120l-72 -177l-54 15l39 134h-59z" />
    <glyph glyph-name="quotedblleft" unicode="&#x201c;" horiz-adv-x="415" 
d="M380 612v-148h-145v120l71 177l54 -16l-39 -133h59zM180 612v-148h-145v120l71 177l54 -16l-39 -133h59z" />
    <glyph glyph-name="quotedblright" unicode="&#x201d;" horiz-adv-x="417" 
d="M235 586v148h145v-120l-71 -177l-54 15l39 134h-59zM35 586v148h145v-120l-71 -177l-54 15l39 134h-59z" />
    <glyph glyph-name="quotedblbase" unicode="&#x201e;" horiz-adv-x="417" 
d="M235 0v148h145v-120l-71 -177l-54 15l39 134h-59zM35 0v148h145v-120l-71 -177l-54 15l39 134h-59z" />
    <glyph glyph-name="dagger" unicode="&#x2020;" horiz-adv-x="429" 
d="M416 509l-138 -15l-19 -229h-89l-20 229l-134 15v83l138 13l13 129h95l13 -129l141 -13v-83z" />
    <glyph glyph-name="daggerdbl" unicode="&#x2021;" horiz-adv-x="429" 
d="M414 330l-139 -15l-18 -85h-85l-17 85l-140 15v83l139 13l18 52l-18 63l-139 14v83l139 14l13 82h95l13 -82l139 -14v-83l-139 -14l-18 -64l18 -51l139 -13v-83z" />
    <glyph glyph-name="bullet" unicode="&#x2022;" horiz-adv-x="498" 
d="M120 341c0 78 49 117 127 117c79 0 131 -39 131 -117c0 -77 -52 -118 -131 -118c-78 0 -127 41 -127 118z" />
    <glyph glyph-name="ellipsis" unicode="&#x2026;" horiz-adv-x="825" 
d="M58 0v140h160v-140h-160zM333 0v140h160v-140h-160zM608 0v140h160v-140h-160z" />
    <glyph glyph-name="paragraph" unicode="&#xb6;" horiz-adv-x="671" 
d="M300 -141v359h-6c-182 0 -251 119 -251 259s65 257 272 257h103v-875h-118zM477 -140v874h118v-874h-118z" />
    <glyph glyph-name="periodcentered" unicode="&#xb7;" horiz-adv-x="275" 
d="M58 261v140h160v-140h-160z" />
    <glyph glyph-name="uni00AD" unicode="&#xad;" horiz-adv-x="321" 
d="M296 203h-271v124h271v-124z" />
    <glyph glyph-name="endash" unicode="&#x2013;" horiz-adv-x="440" 
d="M0 362h440v-114h-440v114z" />
    <glyph glyph-name="emdash" unicode="&#x2014;" horiz-adv-x="880" 
d="M0 362h880v-115h-880v115z" />
    <glyph glyph-name="hyphen.case" horiz-adv-x="321" 
d="M296 263h-271v124h271v-124z" />
    <glyph glyph-name="Agrave" unicode="&#xc0;" horiz-adv-x="693" 
d="M243 734h202l247 -734h-166l-56 169h-254l-54 -169h-161zM435 293l-93 292h-2l-90 -292h185zM218 840l58 101l166 -112l-44 -69z" />
    <glyph glyph-name="Aacute" unicode="&#xc1;" horiz-adv-x="693" 
d="M243 734h202l247 -734h-166l-56 169h-254l-54 -169h-161zM435 293l-93 292h-2l-90 -292h185zM408 941l55 -101l-180 -80l-42 69z" />
    <glyph glyph-name="Acircumflex" unicode="&#xc2;" horiz-adv-x="693" 
d="M243 734h202l247 -734h-166l-56 169h-254l-54 -169h-161zM435 293l-93 292h-2l-90 -292h185zM300 924h82l118 -115l-42 -52l-118 71l-116 -71l-42 52z" />
    <glyph glyph-name="Atilde" unicode="&#xc3;" horiz-adv-x="693" 
d="M243 734h202l247 -734h-166l-56 169h-254l-54 -169h-161zM435 293l-93 292h-2l-90 -292h185zM241 777l-60 10c15 75 47 119 97 119c55 0 93 -28 129 -28c15 0 29 7 36 39l59 -10c-15 -83 -51 -122 -96 -122c-57 0 -97 29 -131 29c-16 0 -28 -11 -34 -37z" />
    <glyph glyph-name="Adieresis" unicode="&#xc4;" horiz-adv-x="693" 
d="M243 734h202l247 -734h-166l-56 169h-254l-54 -169h-161zM435 293l-93 292h-2l-90 -292h185zM371 778v118h116v-118h-116zM193 778v118h116v-118h-116z" />
    <glyph glyph-name="Aring" unicode="&#xc5;" horiz-adv-x="693" 
d="M243 734h202l247 -734h-166l-56 169h-254l-54 -169h-161zM435 293l-93 292h-2l-90 -292h185zM336 760c-83 0 -107 43 -107 98c0 57 43 98 111 98c78 0 113 -40 113 -95c0 -58 -36 -101 -117 -101zM338 816c17 0 28 10 28 43s-12 42 -27 42c-17 0 -31 -10 -31 -43
s11 -42 30 -42z" />
    <glyph glyph-name="Aringacute" unicode="&#x1fa;" horiz-adv-x="693" 
d="M244 734h-1c-6 15 -9 32 -9 51c0 57 43 98 111 98c78 0 113 -40 113 -95c0 -20 -5 -39 -13 -54l247 -734h-166l-56 169h-254l-54 -169h-161zM435 293l-93 292h-2l-90 -292h185zM400 1074l55 -101l-180 -80l-42 69zM343 743c17 0 28 10 28 43s-12 42 -27 42
c-17 0 -31 -10 -31 -43s11 -42 30 -42z" />
    <glyph glyph-name="AE" unicode="&#xc6;" horiz-adv-x="944" 
d="M854 429v-128h-241v-169h289v-132h-451v301h-191l-98 -301h-161l254 734h630v-131h-272v-174h241zM351 603l-57 -174h157v174h-100z" />
    <glyph glyph-name="AEacute" unicode="&#x1fc;" horiz-adv-x="944" 
d="M648 941l55 -101l-180 -80l-42 69zM854 429v-128h-241v-169h289v-132h-451v301h-191l-98 -301h-161l254 734h630v-131h-272v-174h241zM351 603l-57 -174h157v174h-100z" />
    <glyph glyph-name="Ccedilla" unicode="&#xc7;" horiz-adv-x="657" 
d="M263 -87l33 77c-162 17 -255 138 -255 366c0 268 131 391 318 391c170 0 262 -104 262 -268l-159 -12c1 117 -47 152 -112 152c-76 0 -138 -61 -138 -259c0 -177 51 -243 134 -243c70 0 106 46 113 134l156 -11c-17 -169 -107 -245 -256 -251l-17 -34c10 4 16 6 29 6
c53 0 86 -38 86 -90c0 -55 -42 -101 -117 -101c-43 0 -79 9 -120 45l42 52c20 -16 44 -26 61 -26c23 0 34 13 34 34c0 22 -11 31 -30 31c-11 0 -20 -4 -28 -9z" />
    <glyph glyph-name="Egrave" unicode="&#xc8;" horiz-adv-x="572" 
d="M173 840l58 101l166 -112l-44 -69zM483 439v-128h-241v-179h288v-132h-450v734h433v-131h-271v-164h241z" />
    <glyph glyph-name="Eacute" unicode="&#xc9;" horiz-adv-x="572" 
d="M364 941l55 -101l-180 -80l-42 69zM483 439v-128h-241v-179h288v-132h-450v734h433v-131h-271v-164h241z" />
    <glyph glyph-name="Ecircumflex" unicode="&#xca;" horiz-adv-x="572" 
d="M483 439v-128h-241v-179h288v-132h-450v734h433v-131h-271v-164h241zM249 924h82l118 -115l-42 -52l-118 71l-116 -71l-42 52z" />
    <glyph glyph-name="Edieresis" unicode="&#xcb;" horiz-adv-x="572" 
d="M329 778v118h116v-118h-116zM151 778v118h116v-118h-116zM483 439v-128h-241v-179h288v-132h-450v734h433v-131h-271v-164h241z" />
    <glyph glyph-name="Igrave" unicode="&#xcc;" horiz-adv-x="407" 
d="M284 630v-526h74v-104h-309v104h74v526h-74v104h309v-104h-74zM79 840l58 101l166 -112l-44 -69z" />
    <glyph glyph-name="Iacute" unicode="&#xcd;" horiz-adv-x="407" 
d="M284 630v-526h74v-104h-309v104h74v526h-74v104h309v-104h-74zM269 941l55 -101l-180 -80l-42 69z" />
    <glyph glyph-name="Icircumflex" unicode="&#xce;" horiz-adv-x="407" 
d="M284 630v-526h74v-104h-309v104h74v526h-74v104h309v-104h-74zM161 924h82l118 -115l-42 -52l-118 71l-116 -71l-42 52z" />
    <glyph glyph-name="Idieresis" unicode="&#xcf;" horiz-adv-x="407" 
d="M284 630v-526h74v-104h-309v104h74v526h-74v104h309v-104h-74zM235 778v118h116v-118h-116zM57 778v118h116v-118h-116z" />
    <glyph glyph-name="Eth" unicode="&#xd0;" horiz-adv-x="695" 
d="M268 0h-178v306h-69v123h69v305h180c278 0 385 -122 385 -352c0 -255 -107 -382 -387 -382zM252 132h39c129 0 197 60 197 240c0 173 -62 231 -197 231h-39v-174h152v-123h-152v-174z" />
    <glyph glyph-name="Ntilde" unicode="&#xd1;" horiz-adv-x="744" 
d="M269 777l-60 10c15 75 47 119 97 119c55 0 93 -28 129 -28c15 0 29 7 36 39l59 -10c-15 -83 -51 -122 -96 -122c-57 0 -97 29 -131 29c-16 0 -28 -11 -34 -37zM664 0h-180l-254 491v-491h-150v734h190l244 -498v498h150v-734z" />
    <glyph glyph-name="Ograve" unicode="&#xd2;" horiz-adv-x="709" 
d="M238 840l58 101l166 -112l-44 -69zM351 -12c-210 0 -310 137 -310 376c0 244 126 383 325 383c204 0 303 -136 303 -371c0 -247 -108 -388 -318 -388zM356 115c97 0 143 76 143 258c0 170 -44 244 -138 244c-91 0 -150 -73 -150 -248c0 -174 45 -254 145 -254z" />
    <glyph glyph-name="Oacute" unicode="&#xd3;" horiz-adv-x="709" 
d="M429 941l55 -101l-180 -80l-42 69zM351 -12c-210 0 -310 137 -310 376c0 244 126 383 325 383c204 0 303 -136 303 -371c0 -247 -108 -388 -318 -388zM356 115c97 0 143 76 143 258c0 170 -44 244 -138 244c-91 0 -150 -73 -150 -248c0 -174 45 -254 145 -254z" />
    <glyph glyph-name="Ocircumflex" unicode="&#xd4;" horiz-adv-x="709" 
d="M351 -12c-210 0 -310 137 -310 376c0 244 126 383 325 383c204 0 303 -136 303 -371c0 -247 -108 -388 -318 -388zM356 115c97 0 143 76 143 258c0 170 -44 244 -138 244c-91 0 -150 -73 -150 -248c0 -174 45 -254 145 -254zM323 924h82l118 -115l-42 -52l-118 71
l-116 -71l-42 52z" />
    <glyph glyph-name="Otilde" unicode="&#xd5;" horiz-adv-x="709" 
d="M262 777l-60 10c15 75 47 119 97 119c55 0 93 -28 129 -28c15 0 29 7 36 39l59 -10c-15 -83 -51 -122 -96 -122c-57 0 -97 29 -131 29c-16 0 -28 -11 -34 -37zM351 -12c-210 0 -310 137 -310 376c0 244 126 383 325 383c204 0 303 -136 303 -371
c0 -247 -108 -388 -318 -388zM356 115c97 0 143 76 143 258c0 170 -44 244 -138 244c-91 0 -150 -73 -150 -248c0 -174 45 -254 145 -254z" />
    <glyph glyph-name="Odieresis" unicode="&#xd6;" horiz-adv-x="709" 
d="M394 778v118h116v-118h-116zM216 778v118h116v-118h-116zM351 -12c-210 0 -310 137 -310 376c0 244 126 383 325 383c204 0 303 -136 303 -371c0 -247 -108 -388 -318 -388zM356 115c97 0 143 76 143 258c0 170 -44 244 -138 244c-91 0 -150 -73 -150 -248
c0 -174 45 -254 145 -254z" />
    <glyph glyph-name="Oslash" unicode="&#xd8;" horiz-adv-x="707" 
d="M350 -12c-31 0 -58 3 -84 9l-33 -74l-126 54l36 81c-69 63 -102 167 -102 306c0 244 126 383 324 383c30 0 59 -3 85 -9l31 69l127 -51l-38 -83c64 -63 96 -164 96 -297c0 -247 -107 -388 -316 -388zM211 369c0 -53 4 -97 13 -133l169 377c-10 2 -22 4 -34 4
c-89 0 -148 -73 -148 -248zM355 115c95 0 142 76 142 258c0 45 -3 83 -10 115l-166 -369c10 -3 22 -4 34 -4z" />
    <glyph glyph-name="Oslashacute" unicode="&#x1fe;" horiz-adv-x="707" 
d="M427 955l55 -101l-180 -80l-42 69zM350 -12c-31 0 -58 3 -84 9l-33 -74l-126 54l36 81c-69 63 -102 167 -102 306c0 244 126 383 324 383c30 0 59 -3 85 -9l31 69l127 -51l-38 -83c64 -63 96 -164 96 -297c0 -247 -107 -388 -316 -388zM211 369c0 -53 4 -97 13 -133
l169 377c-10 2 -22 4 -34 4c-89 0 -148 -73 -148 -248zM355 115c95 0 142 76 142 258c0 45 -3 83 -10 115l-166 -369c10 -3 22 -4 34 -4z" />
    <glyph glyph-name="Ugrave" unicode="&#xd9;" horiz-adv-x="719" 
d="M233 840l58 101l166 -112l-44 -69zM488 311v423h160v-471c0 -175 -94 -275 -293 -275c-211 0 -284 106 -284 281v465h159v-422c0 -128 25 -195 130 -195s128 62 128 194z" />
    <glyph glyph-name="Uacute" unicode="&#xda;" horiz-adv-x="719" 
d="M424 941l55 -101l-180 -80l-42 69zM488 311v423h160v-471c0 -175 -94 -275 -293 -275c-211 0 -284 106 -284 281v465h159v-422c0 -128 25 -195 130 -195s128 62 128 194z" />
    <glyph glyph-name="Ucircumflex" unicode="&#xdb;" horiz-adv-x="719" 
d="M488 311v423h160v-471c0 -175 -94 -275 -293 -275c-211 0 -284 106 -284 281v465h159v-422c0 -128 25 -195 130 -195s128 62 128 194zM318 924h82l118 -115l-42 -52l-118 71l-116 -71l-42 52z" />
    <glyph glyph-name="Udieresis" unicode="&#xdc;" horiz-adv-x="719" 
d="M389 778v118h116v-118h-116zM211 778v118h116v-118h-116zM488 311v423h160v-471c0 -175 -94 -275 -293 -275c-211 0 -284 106 -284 281v465h159v-422c0 -128 25 -195 130 -195s128 62 128 194z" />
    <glyph glyph-name="Yacute" unicode="&#xdd;" horiz-adv-x="632" 
d="M399 276v-276h-159v272l-251 462h180l151 -308l155 308h169zM386 941l55 -101l-180 -80l-42 69z" />
    <glyph glyph-name="Thorn" unicode="&#xde;" horiz-adv-x="629" 
d="M241 140v-140h-161v734h161v-120h114c180 0 245 -90 245 -221c0 -104 -35 -253 -278 -253h-81zM241 261h60c87 0 135 32 135 119c0 65 -26 107 -113 107h-82v-226z" />
    <glyph glyph-name="germandbls" unicode="&#xdf;" horiz-adv-x="702" 
d="M214 478v-478h-157v485c0 186 116 262 286 262c166 0 242 -77 242 -183c0 -56 -19 -113 -28 -136c-17 4 -32 5 -45 5c-36 -2 -57 -17 -57 -45c0 -30 28 -44 64 -55c67 -21 157 -46 157 -162c0 -125 -93 -183 -206 -183c-120 0 -201 41 -219 157l140 21
c6 -51 32 -75 76 -75c34 0 60 17 60 56c0 43 -45 57 -94 73c-61 21 -129 48 -129 146c0 89 70 129 129 141c4 11 7 30 7 44c0 49 -35 80 -97 80c-102 0 -129 -60 -129 -153z" />
    <glyph glyph-name="agrave" unicode="&#xe0;" horiz-adv-x="549" 
d="M527 95l4 -92c-112 -26 -166 -5 -187 63c-28 -48 -79 -78 -158 -78c-114 0 -157 71 -157 147c0 140 129 153 297 168v18c0 74 -20 103 -70 103c-61 0 -70 -33 -61 -89l-141 -14c-20 118 35 206 209 206c171 0 216 -91 216 -222v-176c0 -30 10 -42 48 -34zM326 183v32
c-116 -7 -141 -30 -141 -72c0 -37 27 -56 59 -56c50 0 82 44 82 96zM137 689l87 81l128 -156l-60 -53z" />
    <glyph glyph-name="aacute" unicode="&#xe1;" horiz-adv-x="549" 
d="M527 95l4 -92c-112 -26 -166 -5 -187 63c-28 -48 -79 -78 -158 -78c-114 0 -157 71 -157 147c0 140 129 153 297 168v18c0 74 -20 103 -70 103c-61 0 -70 -33 -61 -89l-141 -14c-20 118 35 206 209 206c171 0 216 -91 216 -222v-176c0 -30 10 -42 48 -34zM326 183v32
c-116 -7 -141 -30 -141 -72c0 -37 27 -56 59 -56c50 0 82 44 82 96zM305 772l85 -82l-154 -129l-59 53z" />
    <glyph glyph-name="acircumflex" unicode="&#xe2;" horiz-adv-x="549" 
d="M527 95l4 -92c-112 -26 -166 -5 -187 63c-28 -48 -79 -78 -158 -78c-114 0 -157 71 -157 147c0 140 129 153 297 168v18c0 74 -20 103 -70 103c-61 0 -70 -33 -61 -89l-141 -14c-20 118 35 206 209 206c171 0 216 -91 216 -222v-176c0 -30 10 -42 48 -34zM326 183v32
c-116 -7 -141 -30 -141 -72c0 -37 27 -56 59 -56c50 0 82 44 82 96zM222 751h82l119 -142l-54 -48l-109 88l-104 -88l-54 48z" />
    <glyph glyph-name="atilde" unicode="&#xe3;" horiz-adv-x="549" 
d="M527 95l4 -92c-112 -26 -166 -5 -187 63c-28 -48 -79 -78 -158 -78c-114 0 -157 71 -157 147c0 140 129 153 297 168v18c0 74 -20 103 -70 103c-61 0 -70 -33 -61 -89l-141 -14c-20 118 35 206 209 206c171 0 216 -91 216 -222v-176c0 -30 10 -42 48 -34zM326 183v32
c-116 -7 -141 -30 -141 -72c0 -37 27 -56 59 -56c50 0 82 44 82 96zM161 602l-60 10c15 75 47 119 97 119c55 0 93 -28 129 -28c15 0 28 7 36 39l59 -10c-15 -83 -51 -122 -96 -122c-57 0 -97 29 -131 29c-17 0 -28 -11 -34 -37z" />
    <glyph glyph-name="adieresis" unicode="&#xe4;" horiz-adv-x="549" 
d="M527 95l4 -92c-112 -26 -166 -5 -187 63c-28 -48 -79 -78 -158 -78c-114 0 -157 71 -157 147c0 140 129 153 297 168v18c0 74 -20 103 -70 103c-61 0 -70 -33 -61 -89l-141 -14c-20 118 35 206 209 206c171 0 216 -91 216 -222v-176c0 -30 10 -42 48 -34zM326 183v32
c-116 -7 -141 -30 -141 -72c0 -37 27 -56 59 -56c50 0 82 44 82 96zM293 604v117h116v-117h-116zM115 604v117h116v-117h-116z" />
    <glyph glyph-name="aring" unicode="&#xe5;" horiz-adv-x="549" 
d="M527 95l4 -92c-112 -26 -166 -5 -187 63c-28 -48 -79 -78 -158 -78c-114 0 -157 71 -157 147c0 140 129 153 297 168v18c0 74 -20 103 -70 103c-61 0 -70 -33 -61 -89l-141 -14c-20 118 35 206 209 206c171 0 216 -91 216 -222v-176c0 -30 10 -42 48 -34zM326 183v32
c-116 -7 -141 -30 -141 -72c0 -37 27 -56 59 -56c50 0 82 44 82 96zM260 570c-83 0 -107 42 -107 98s43 98 111 98c78 0 113 -41 113 -95c0 -59 -36 -101 -117 -101zM262 625c17 0 28 10 28 44c0 33 -12 41 -27 41c-17 0 -31 -9 -31 -42c0 -34 11 -43 30 -43z" />
    <glyph glyph-name="aringacute" unicode="&#x1fb;" horiz-adv-x="549" 
d="M527 95l4 -92c-112 -26 -166 -5 -187 63c-28 -48 -79 -78 -158 -78c-114 0 -157 71 -157 147c0 140 129 153 297 168v18c0 74 -20 103 -70 103c-61 0 -70 -33 -61 -89l-141 -14c-20 118 35 206 209 206c171 0 216 -91 216 -222v-176c0 -30 10 -42 48 -34zM326 183v32
c-116 -7 -141 -30 -141 -72c0 -37 27 -56 59 -56c50 0 82 44 82 96zM260 556c-83 0 -107 42 -107 98s43 98 111 98c78 0 113 -41 113 -95c0 -59 -36 -101 -117 -101zM262 611c17 0 28 10 28 44c0 33 -12 41 -27 41c-17 0 -31 -9 -31 -42c0 -34 11 -43 30 -43zM318 941
l55 -101l-180 -80l-42 69z" />
    <glyph glyph-name="ae" unicode="&#xe6;" horiz-adv-x="835" 
d="M667 180l133 -13c-27 -148 -136 -179 -229 -179c-99 0 -158 34 -191 101c-40 -77 -113 -101 -194 -101c-114 0 -157 71 -157 147c0 140 129 153 297 168v18c0 74 -20 103 -70 103c-61 0 -70 -33 -61 -89l-141 -14c-20 118 35 206 209 206c74 0 118 -25 152 -70
c42 47 100 70 165 70c167 0 243 -114 224 -299h-325c1 -79 28 -127 99 -127c46 0 78 22 89 79zM480 318h173c5 75 -29 107 -80 107c-61 0 -89 -44 -93 -107zM326 183v32c-117 -8 -140 -30 -140 -72c0 -41 27 -55 58 -55c55 0 82 47 82 95z" />
    <glyph glyph-name="aeacute" unicode="&#x1fd;" horiz-adv-x="835" 
d="M457 772l85 -82l-154 -129l-59 53zM667 180l133 -13c-27 -148 -136 -179 -229 -179c-99 0 -158 34 -191 101c-40 -77 -113 -101 -194 -101c-114 0 -157 71 -157 147c0 140 129 153 297 168v18c0 74 -20 103 -70 103c-61 0 -70 -33 -61 -89l-141 -14
c-20 118 35 206 209 206c74 0 118 -25 152 -70c42 47 100 70 165 70c167 0 243 -114 224 -299h-325c1 -79 28 -127 99 -127c46 0 78 22 89 79zM480 318h173c5 75 -29 107 -80 107c-61 0 -89 -44 -93 -107zM326 183v32c-117 -8 -140 -30 -140 -72c0 -41 27 -55 58 -55
c55 0 82 47 82 95z" />
    <glyph glyph-name="ccedilla" unicode="&#xe7;" horiz-adv-x="527" 
d="M205 -87l33 77c-149 15 -211 121 -211 263c0 173 100 274 262 274c146 0 212 -88 218 -202l-139 -11c-5 75 -41 100 -84 100c-52 0 -95 -36 -95 -155c0 -115 33 -158 94 -158c44 0 73 20 84 88l138 -10c-17 -134 -106 -183 -204 -190l-17 -34c10 4 16 6 29 6
c53 0 86 -38 86 -90c0 -55 -42 -101 -117 -101c-43 0 -79 9 -120 45l42 52c20 -16 44 -26 61 -26c23 0 34 13 34 34c0 22 -11 31 -30 31c-11 0 -20 -4 -28 -9z" />
    <glyph glyph-name="egrave" unicode="&#xe8;" horiz-adv-x="544" 
d="M375 178l134 -13c-28 -147 -136 -177 -230 -177c-175 0 -252 110 -252 264c0 172 100 275 262 275c167 0 243 -114 223 -299h-324c1 -79 27 -127 97 -127c48 0 79 22 90 77zM189 318h173c4 75 -29 107 -81 107c-60 0 -89 -44 -92 -107zM158 689l87 81l128 -156l-60 -53z
" />
    <glyph glyph-name="eacute" unicode="&#xe9;" horiz-adv-x="544" 
d="M326 772l85 -82l-154 -129l-59 53zM375 178l134 -13c-28 -147 -136 -177 -230 -177c-175 0 -252 110 -252 264c0 172 100 275 262 275c167 0 243 -114 223 -299h-324c1 -79 27 -127 97 -127c48 0 79 22 90 77zM189 318h173c4 75 -29 107 -81 107c-60 0 -89 -44 -92 -107z
" />
    <glyph glyph-name="ecircumflex" unicode="&#xea;" horiz-adv-x="544" 
d="M243 751h82l119 -142l-54 -48l-109 88l-104 -88l-54 48zM375 178l134 -13c-28 -147 -136 -177 -230 -177c-175 0 -252 110 -252 264c0 172 100 275 262 275c167 0 243 -114 223 -299h-324c1 -79 27 -127 97 -127c48 0 79 22 90 77zM189 318h173c4 75 -29 107 -81 107
c-60 0 -89 -44 -92 -107z" />
    <glyph glyph-name="edieresis" unicode="&#xeb;" horiz-adv-x="544" 
d="M314 604v117h116v-117h-116zM136 604v117h116v-117h-116zM375 178l134 -13c-28 -147 -136 -177 -230 -177c-175 0 -252 110 -252 264c0 172 100 275 262 275c167 0 243 -114 223 -299h-324c1 -79 27 -127 97 -127c48 0 79 22 90 77zM189 318h173c4 75 -29 107 -81 107
c-60 0 -89 -44 -92 -107z" />
    <glyph glyph-name="igrave" unicode="&#xec;" horiz-adv-x="262" 
d="M52 0v515h158v-515h-158zM5 689l87 81l128 -156l-60 -53z" />
    <glyph glyph-name="iacute" unicode="&#xed;" horiz-adv-x="262" 
d="M173 772l85 -82l-154 -129l-59 53zM52 0v515h158v-515h-158z" />
    <glyph glyph-name="icircumflex" unicode="&#xee;" horiz-adv-x="262" 
d="M90 751h82l119 -142l-54 -48l-109 88l-104 -88l-54 48zM52 0v515h158v-515h-158z" />
    <glyph glyph-name="idieresis" unicode="&#xef;" horiz-adv-x="262" 
d="M161 604v117h116v-117h-116zM-17 604v117h116v-117h-116zM52 0v515h158v-515h-158z" />
    <glyph glyph-name="eth" unicode="&#xf0;" horiz-adv-x="571" 
d="M481 670l-72 -27c86 -95 135 -221 135 -360c0 -201 -103 -295 -264 -295c-165 0 -253 99 -253 269c0 153 92 268 227 268c48 0 76 -12 110 -42l2 4c-17 39 -44 75 -74 108l-114 -43l-26 73l77 29c-21 18 -42 33 -60 46l130 34c16 -10 33 -21 48 -33l108 41zM286 97
c68 0 97 62 97 164c0 98 -29 153 -94 153c-67 0 -100 -57 -100 -156c0 -103 26 -161 97 -161z" />
    <glyph glyph-name="ntilde" unicode="&#xf1;" horiz-adv-x="579" 
d="M532 315v-315h-157v305c0 77 -25 104 -72 104c-73 0 -93 -55 -93 -128v-281h-158v515h144l5 -74h3c20 38 64 86 156 86c105 0 172 -62 172 -212zM197 602l-60 10c15 75 47 119 97 119c55 0 93 -28 129 -28c15 0 28 7 36 39l59 -10c-15 -83 -51 -122 -96 -122
c-57 0 -97 29 -131 29c-17 0 -28 -11 -34 -37z" />
    <glyph glyph-name="ograve" unicode="&#xf2;" horiz-adv-x="571" 
d="M280 -12c-165 0 -253 99 -253 269c0 176 120 270 266 270c154 0 251 -92 251 -260c0 -185 -103 -279 -264 -279zM286 97c68 0 97 62 97 164c0 98 -29 153 -94 153c-67 0 -100 -57 -100 -156c0 -103 26 -161 97 -161zM162 689l87 81l128 -156l-60 -53z" />
    <glyph glyph-name="oacute" unicode="&#xf3;" horiz-adv-x="571" 
d="M330 772l85 -82l-154 -129l-59 53zM280 -12c-165 0 -253 99 -253 269c0 176 120 270 266 270c154 0 251 -92 251 -260c0 -185 -103 -279 -264 -279zM286 97c68 0 97 62 97 164c0 98 -29 153 -94 153c-67 0 -100 -57 -100 -156c0 -103 26 -161 97 -161z" />
    <glyph glyph-name="ocircumflex" unicode="&#xf4;" horiz-adv-x="571" 
d="M247 751h82l119 -142l-54 -48l-109 88l-104 -88l-54 48zM280 -12c-165 0 -253 99 -253 269c0 176 120 270 266 270c154 0 251 -92 251 -260c0 -185 -103 -279 -264 -279zM286 97c68 0 97 62 97 164c0 98 -29 153 -94 153c-67 0 -100 -57 -100 -156
c0 -103 26 -161 97 -161z" />
    <glyph glyph-name="otilde" unicode="&#xf5;" horiz-adv-x="571" 
d="M280 -12c-165 0 -253 99 -253 269c0 176 120 270 266 270c154 0 251 -92 251 -260c0 -185 -103 -279 -264 -279zM286 97c68 0 97 62 97 164c0 98 -29 153 -94 153c-67 0 -100 -57 -100 -156c0 -103 26 -161 97 -161zM186 602l-60 10c15 75 47 119 97 119
c55 0 93 -28 129 -28c15 0 28 7 36 39l59 -10c-15 -83 -51 -122 -96 -122c-57 0 -97 29 -131 29c-17 0 -28 -11 -34 -37z" />
    <glyph glyph-name="odieresis" unicode="&#xf6;" horiz-adv-x="571" 
d="M318 604v117h116v-117h-116zM140 604v117h116v-117h-116zM280 -12c-165 0 -253 99 -253 269c0 176 120 270 266 270c154 0 251 -92 251 -260c0 -185 -103 -279 -264 -279zM286 97c68 0 97 62 97 164c0 98 -29 153 -94 153c-67 0 -100 -57 -100 -156
c0 -103 26 -161 97 -161z" />
    <glyph glyph-name="oslash" unicode="&#xf8;" horiz-adv-x="571" 
d="M280 -12c-28 0 -54 3 -77 9l-48 -83l-103 60l46 78c-47 46 -71 115 -71 205c0 176 120 270 266 270c28 0 53 -3 77 -9l43 72l104 -58l-42 -71c44 -44 69 -110 69 -194c0 -185 -103 -279 -264 -279zM286 97c68 0 97 62 97 164c0 14 -1 27 -2 39l-118 -201
c7 -2 14 -2 23 -2zM189 258c0 -17 0 -33 2 -47l117 201c-6 1 -12 2 -19 2c-67 0 -100 -57 -100 -156z" />
    <glyph glyph-name="oslashacute" unicode="&#x1ff;" horiz-adv-x="571" 
d="M330 772l85 -82l-154 -129l-59 53zM280 -12c-28 0 -54 3 -77 9l-48 -83l-103 60l46 78c-47 46 -71 115 -71 205c0 176 120 270 266 270c28 0 53 -3 77 -9l43 72l104 -58l-42 -71c44 -44 69 -110 69 -194c0 -185 -103 -279 -264 -279zM286 97c68 0 97 62 97 164
c0 14 -1 27 -2 39l-118 -201c7 -2 14 -2 23 -2zM189 258c0 -17 0 -33 2 -47l117 201c-6 1 -12 2 -19 2c-67 0 -100 -57 -100 -156z" />
    <glyph glyph-name="ugrave" unicode="&#xf9;" horiz-adv-x="575" 
d="M48 202v313h157v-307c0 -69 20 -103 70 -103c73 0 92 62 92 140v270h157v-515h-143l-6 75h-2c-23 -40 -64 -87 -156 -87c-106 0 -169 64 -169 214zM159 689l87 81l128 -156l-60 -53z" />
    <glyph glyph-name="uacute" unicode="&#xfa;" horiz-adv-x="575" 
d="M327 772l85 -82l-154 -129l-59 53zM48 202v313h157v-307c0 -69 20 -103 70 -103c73 0 92 62 92 140v270h157v-515h-143l-6 75h-2c-23 -40 -64 -87 -156 -87c-106 0 -169 64 -169 214z" />
    <glyph glyph-name="ucircumflex" unicode="&#xfb;" horiz-adv-x="575" 
d="M244 751h82l119 -142l-54 -48l-109 88l-104 -88l-54 48zM48 202v313h157v-307c0 -69 20 -103 70 -103c73 0 92 62 92 140v270h157v-515h-143l-6 75h-2c-23 -40 -64 -87 -156 -87c-106 0 -169 64 -169 214z" />
    <glyph glyph-name="udieresis" unicode="&#xfc;" horiz-adv-x="575" 
d="M315 604v117h116v-117h-116zM137 604v117h116v-117h-116zM48 202v313h157v-307c0 -69 20 -103 70 -103c73 0 92 62 92 140v270h157v-515h-143l-6 75h-2c-23 -40 -64 -87 -156 -87c-106 0 -169 64 -169 214z" />
    <glyph glyph-name="yacute" unicode="&#xfd;" horiz-adv-x="528" 
d="M520 515l-175 -508c-52 -152 -99 -202 -215 -202c-38 0 -84 8 -102 15l16 102c19 -5 37 -9 56 -9c41 0 67 20 88 85l3 8l-181 509h168l87 -350h5l89 350h161zM310 772l85 -82l-154 -129l-59 53z" />
    <glyph glyph-name="thorn" unicode="&#xfe;" horiz-adv-x="574" 
d="M358 527c99 0 188 -67 188 -255c0 -208 -96 -284 -218 -284c-49 0 -95 22 -120 55h-2v-226h-154v917h157v-284h1c23 35 73 77 148 77zM300 425c-63 0 -95 -53 -95 -166c0 -117 29 -168 88 -168c62 0 93 58 93 180c0 107 -28 154 -86 154z" />
    <glyph glyph-name="ydieresis" unicode="&#xff;" horiz-adv-x="528" 
d="M520 515l-175 -508c-52 -152 -99 -202 -215 -202c-38 0 -84 8 -102 15l16 102c19 -5 37 -9 56 -9c41 0 67 20 88 85l3 8l-181 509h168l87 -350h5l89 350h161zM298 604v117h116v-117h-116zM120 604v117h116v-117h-116z" />
    <glyph glyph-name="Amacron" unicode="&#x100;" horiz-adv-x="693" 
d="M243 734h202l247 -734h-166l-56 169h-254l-54 -169h-161zM435 293l-93 292h-2l-90 -292h185zM201 790v97h282v-97h-282z" />
    <glyph glyph-name="amacron" unicode="&#x101;" horiz-adv-x="549" 
d="M527 95l4 -92c-112 -26 -166 -5 -187 63c-28 -48 -79 -78 -158 -78c-114 0 -157 71 -157 147c0 140 129 153 297 168v18c0 74 -20 103 -70 103c-61 0 -70 -33 -61 -89l-141 -14c-20 118 35 206 209 206c171 0 216 -91 216 -222v-176c0 -30 10 -42 48 -34zM326 183v32
c-116 -7 -141 -30 -141 -72c0 -37 27 -56 59 -56c50 0 82 44 82 96zM121 607v97h282v-97h-282z" />
    <glyph glyph-name="Abreve" unicode="&#x102;" horiz-adv-x="693" 
d="M243 734h202l247 -734h-166l-56 169h-254l-54 -169h-161zM435 293l-93 292h-2l-90 -292h185zM186 912l74 15c17 -50 41 -70 83 -70c45 0 70 16 92 70l71 -15c-21 -103 -71 -149 -164 -149c-85 0 -139 42 -156 149z" />
    <glyph glyph-name="abreve" unicode="&#x103;" horiz-adv-x="549" 
d="M527 95l4 -92c-112 -26 -166 -5 -187 63c-28 -48 -79 -78 -158 -78c-114 0 -157 71 -157 147c0 140 129 153 297 168v18c0 74 -20 103 -70 103c-61 0 -70 -33 -61 -89l-141 -14c-20 118 35 206 209 206c171 0 216 -91 216 -222v-176c0 -30 10 -42 48 -34zM326 183v32
c-116 -7 -141 -30 -141 -72c0 -37 27 -56 59 -56c50 0 82 44 82 96zM109 735l74 8c9 -50 35 -77 80 -77c47 0 74 23 88 77l71 -8c-14 -105 -64 -162 -160 -162c-90 0 -142 52 -153 162z" />
    <glyph glyph-name="Aogonek" unicode="&#x104;" horiz-adv-x="693" 
d="M243 734h202l247 -734h-52c-28 -29 -51 -58 -51 -86c0 -16 9 -22 21 -22c17 0 27 11 39 29l49 -35c-25 -48 -73 -81 -136 -81c-51 0 -86 22 -86 71c0 43 25 82 78 124h-28l-56 169h-254l-54 -169h-161zM435 293l-93 292h-2l-90 -292h185z" />
    <glyph glyph-name="aogonek" unicode="&#x105;" horiz-adv-x="549" 
d="M527 95l4 -92c-23 -5 -38 -8 -54 -17c-34 -19 -51 -47 -51 -72c0 -16 9 -22 21 -22c17 0 27 11 39 29l49 -35c-25 -48 -73 -81 -136 -81c-51 0 -86 22 -86 71c0 44 26 83 81 127c-25 11 -41 32 -50 63c-28 -48 -79 -78 -158 -78c-114 0 -157 71 -157 147
c0 140 129 153 297 168v18c0 74 -20 103 -70 103c-61 0 -70 -33 -61 -89l-141 -14c-20 118 35 206 209 206c171 0 216 -91 216 -222v-176c0 -30 10 -42 48 -34zM326 183v32c-116 -7 -141 -30 -141 -72c0 -37 27 -56 59 -56c50 0 82 44 82 96z" />
    <glyph glyph-name="Cacute" unicode="&#x106;" horiz-adv-x="657" 
d="M346 117c70 0 106 46 113 134l156 -11c-17 -176 -115 -252 -277 -252c-188 0 -297 122 -297 368c0 268 131 391 318 391c170 0 262 -104 262 -268l-159 -12c1 117 -47 152 -112 152c-76 0 -138 -61 -138 -259c0 -177 51 -243 134 -243zM420 941l55 -101l-180 -80l-42 69z
" />
    <glyph glyph-name="cacute" unicode="&#x107;" horiz-adv-x="527" 
d="M322 772l85 -82l-154 -129l-59 53zM507 325l-139 -11c-5 75 -41 100 -84 100c-52 0 -95 -36 -95 -155c0 -115 33 -158 94 -158c44 0 73 20 84 88l138 -10c-18 -145 -121 -191 -228 -191c-177 0 -250 112 -250 265c0 173 100 274 262 274c146 0 212 -88 218 -202z" />
    <glyph glyph-name="Ccircumflex" unicode="&#x108;" horiz-adv-x="657" 
d="M346 117c70 0 106 46 113 134l156 -11c-17 -176 -115 -252 -277 -252c-188 0 -297 122 -297 368c0 268 131 391 318 391c170 0 262 -104 262 -268l-159 -12c1 117 -47 152 -112 152c-76 0 -138 -61 -138 -259c0 -177 51 -243 134 -243zM314 924h82l118 -115l-42 -52
l-118 71l-116 -71l-42 52z" />
    <glyph glyph-name="ccircumflex" unicode="&#x109;" horiz-adv-x="527" 
d="M240 751h82l119 -142l-54 -48l-109 88l-104 -88l-54 48zM507 325l-139 -11c-5 75 -41 100 -84 100c-52 0 -95 -36 -95 -155c0 -115 33 -158 94 -158c44 0 73 20 84 88l138 -10c-18 -145 -121 -191 -228 -191c-177 0 -250 112 -250 265c0 173 100 274 262 274
c146 0 212 -88 218 -202z" />
    <glyph glyph-name="Cdotaccent" unicode="&#x10a;" horiz-adv-x="657" 
d="M275 782v127h158v-127h-158zM346 117c70 0 106 46 113 134l156 -11c-17 -176 -115 -252 -277 -252c-188 0 -297 122 -297 368c0 268 131 391 318 391c170 0 262 -104 262 -268l-159 -12c1 117 -47 152 -112 152c-76 0 -138 -61 -138 -259c0 -177 51 -243 134 -243z" />
    <glyph glyph-name="cdotaccent" unicode="&#x10b;" horiz-adv-x="527" 
d="M507 325l-139 -11c-5 75 -41 100 -84 100c-52 0 -95 -36 -95 -155c0 -115 33 -158 94 -158c44 0 73 20 84 88l138 -10c-18 -145 -121 -191 -228 -191c-177 0 -250 112 -250 265c0 173 100 274 262 274c146 0 212 -88 218 -202zM202 607v127h158v-127h-158z" />
    <glyph glyph-name="Ccaron" unicode="&#x10c;" horiz-adv-x="657" 
d="M346 117c70 0 106 46 113 134l156 -11c-17 -176 -115 -252 -277 -252c-188 0 -297 122 -297 368c0 268 131 391 318 391c170 0 262 -104 262 -268l-159 -12c1 117 -47 152 -112 152c-76 0 -138 -61 -138 -259c0 -177 51 -243 134 -243zM394 774h-82l-118 114l43 53
l117 -70l116 70l43 -53z" />
    <glyph glyph-name="ccaron" unicode="&#x10d;" horiz-adv-x="527" 
d="M320 572h-81l-120 142l54 48l107 -90l106 90l54 -48zM507 325l-139 -11c-5 75 -41 100 -84 100c-52 0 -95 -36 -95 -155c0 -115 33 -158 94 -158c44 0 73 20 84 88l138 -10c-18 -145 -121 -191 -228 -191c-177 0 -250 112 -250 265c0 173 100 274 262 274
c146 0 212 -88 218 -202z" />
    <glyph glyph-name="Dcaron" unicode="&#x10e;" horiz-adv-x="686" 
d="M364 768h-82l-118 114l43 53l117 -70l116 70l43 -53zM258 0h-178v734h180c278 0 385 -122 385 -352c0 -255 -107 -382 -387 -382zM242 132h39c129 0 197 60 197 240c0 173 -62 231 -197 231h-39v-471z" />
    <glyph glyph-name="dcaron" unicode="&#x10f;" horiz-adv-x="654" 
d="M561 734h113l-36 -198l-72 3zM367 734h157v-734h-138l-12 64h-2c-21 -42 -73 -76 -139 -76c-120 0 -204 70 -204 259c0 181 82 280 212 280c66 0 102 -26 125 -60h1v267zM372 258c0 123 -32 167 -90 167c-56 0 -90 -45 -90 -177c0 -117 30 -160 87 -160
c65 0 93 63 93 170z" />
    <glyph glyph-name="Dcroat" unicode="&#x110;" horiz-adv-x="695" 
d="M268 0h-178v306h-69v123h69v305h180c278 0 385 -122 385 -352c0 -255 -107 -382 -387 -382zM252 132h39c129 0 197 60 197 240c0 173 -62 231 -197 231h-39v-174h152v-123h-152v-174z" />
    <glyph glyph-name="dcroat" unicode="&#x111;" horiz-adv-x="572" 
d="M367 734h157v-57h50v-99h-50v-578h-138l-12 64h-2c-21 -42 -73 -76 -139 -76c-120 0 -204 70 -204 259c0 181 82 280 212 280c66 0 102 -26 125 -60h1v111h-174v99h174v57zM372 258c0 123 -32 167 -90 167c-56 0 -90 -45 -90 -177c0 -117 30 -160 87 -160
c65 0 93 63 93 170z" />
    <glyph glyph-name="Emacron" unicode="&#x112;" horiz-adv-x="572" 
d="M155 790v97h282v-97h-282zM483 439v-128h-241v-179h288v-132h-450v734h433v-131h-271v-164h241z" />
    <glyph glyph-name="emacron" unicode="&#x113;" horiz-adv-x="544" 
d="M375 178l134 -13c-28 -147 -136 -177 -230 -177c-175 0 -252 110 -252 264c0 172 100 275 262 275c167 0 243 -114 223 -299h-324c1 -79 27 -127 97 -127c48 0 79 22 90 77zM189 318h173c4 75 -29 107 -81 107c-60 0 -89 -44 -92 -107zM138 607v97h282v-97h-282z" />
    <glyph glyph-name="Ebreve" unicode="&#x114;" horiz-adv-x="572" 
d="M137 912l74 15c17 -50 41 -70 83 -70c45 0 70 16 92 70l71 -15c-21 -103 -71 -149 -164 -149c-85 0 -139 42 -156 149zM483 439v-128h-241v-179h288v-132h-450v734h433v-131h-271v-164h241z" />
    <glyph glyph-name="ebreve" unicode="&#x115;" horiz-adv-x="544" 
d="M375 178l134 -13c-28 -147 -136 -177 -230 -177c-175 0 -252 110 -252 264c0 172 100 275 262 275c167 0 243 -114 223 -299h-324c1 -79 27 -127 97 -127c48 0 79 22 90 77zM189 318h173c4 75 -29 107 -81 107c-60 0 -89 -44 -92 -107zM128 735l74 8c9 -50 35 -77 80 -77
c47 0 74 23 88 77l71 -8c-14 -105 -64 -162 -160 -162c-90 0 -142 52 -153 162z" />
    <glyph glyph-name="Edotaccent" unicode="&#x116;" horiz-adv-x="572" 
d="M221 782v127h158v-127h-158zM483 439v-128h-241v-179h288v-132h-450v734h433v-131h-271v-164h241z" />
    <glyph glyph-name="edotaccent" unicode="&#x117;" horiz-adv-x="544" 
d="M375 178l134 -13c-28 -147 -136 -177 -230 -177c-175 0 -252 110 -252 264c0 172 100 275 262 275c167 0 243 -114 223 -299h-324c1 -79 27 -127 97 -127c48 0 79 22 90 77zM189 318h173c4 75 -29 107 -81 107c-60 0 -89 -44 -92 -107zM203 607v127h158v-127h-158z" />
    <glyph glyph-name="Eogonek" unicode="&#x118;" horiz-adv-x="572" 
d="M483 439v-128h-241v-179h288v-132h-65c-28 -29 -51 -58 -51 -86c0 -16 9 -22 21 -22c17 0 27 11 39 29l49 -35c-25 -48 -73 -81 -136 -81c-51 0 -86 22 -86 71c0 43 25 82 78 124h-299v734h433v-131h-271v-164h241z" />
    <glyph glyph-name="eogonek" unicode="&#x119;" horiz-adv-x="544" 
d="M375 178l134 -13c-13 -69 -43 -109 -79 -140c-48 -42 -75 -82 -75 -111c0 -17 10 -23 22 -23c17 0 29 12 41 30l50 -35c-30 -47 -78 -81 -141 -81c-50 0 -85 22 -85 69c0 40 25 74 77 116c-13 -1 -27 -2 -40 -2c-175 0 -252 110 -252 264c0 172 100 275 262 275
c167 0 243 -114 223 -299h-324c1 -79 27 -127 97 -127c48 0 79 22 90 77zM189 318h173c4 75 -29 107 -81 107c-60 0 -89 -44 -92 -107z" />
    <glyph glyph-name="Ecaron" unicode="&#x11a;" horiz-adv-x="572" 
d="M333 768h-82l-118 114l43 53l117 -70l116 70l43 -53zM483 439v-128h-241v-179h288v-132h-450v734h433v-131h-271v-164h241z" />
    <glyph glyph-name="ecaron" unicode="&#x11b;" horiz-adv-x="544" 
d="M321 572h-81l-120 142l54 48l107 -90l106 90l54 -48zM375 178l134 -13c-28 -147 -136 -177 -230 -177c-175 0 -252 110 -252 264c0 172 100 275 262 275c167 0 243 -114 223 -299h-324c1 -79 27 -127 97 -127c48 0 79 22 90 77zM189 318h173c4 75 -29 107 -81 107
c-60 0 -89 -44 -92 -107z" />
    <glyph glyph-name="Gcircumflex" unicode="&#x11c;" horiz-adv-x="695" 
d="M368 256v117h267v-385h-102l-16 86c-42 -54 -108 -86 -184 -86c-184 0 -292 125 -292 363c0 280 136 396 323 396c161 0 254 -95 255 -268l-159 -12c-2 121 -49 152 -107 152c-78 0 -141 -61 -141 -261c0 -180 59 -243 147 -243c68 0 130 43 134 141h-125zM317 924h82
l118 -115l-42 -52l-118 71l-116 -71l-42 52z" />
    <glyph glyph-name="gcircumflex" unicode="&#x11d;" horiz-adv-x="572" 
d="M244 751h82l119 -142l-54 -48l-109 88l-104 -88l-54 48zM390 515h134v-461c0 -167 -94 -249 -258 -249c-123 0 -199 52 -221 149l144 26c7 -32 19 -63 81 -63c66 0 97 36 97 124v43h-1c-19 -35 -64 -70 -141 -70c-105 0 -196 57 -196 243c0 182 91 270 212 270
c70 0 110 -25 133 -65h2zM371 264c0 111 -28 162 -87 162c-58 0 -92 -49 -92 -164c0 -117 32 -148 84 -148c68 0 95 48 95 150z" />
    <glyph glyph-name="Gbreve" unicode="&#x11e;" horiz-adv-x="695" 
d="M201 923l74 15c17 -50 41 -70 83 -70c45 0 70 16 92 70l71 -15c-21 -103 -71 -149 -164 -149c-85 0 -139 42 -156 149zM368 256v117h267v-385h-102l-16 86c-42 -54 -108 -86 -184 -86c-184 0 -292 125 -292 363c0 280 136 396 323 396c161 0 254 -95 255 -268l-159 -12
c-2 121 -49 152 -107 152c-78 0 -141 -61 -141 -261c0 -180 59 -243 147 -243c68 0 130 43 134 141h-125z" />
    <glyph glyph-name="gbreve" unicode="&#x11f;" horiz-adv-x="572" 
d="M390 515h134v-461c0 -167 -94 -249 -258 -249c-123 0 -199 52 -221 149l144 26c7 -32 19 -63 81 -63c66 0 97 36 97 124v43h-1c-19 -35 -64 -70 -141 -70c-105 0 -196 57 -196 243c0 182 91 270 212 270c70 0 110 -25 133 -65h2zM371 264c0 111 -28 162 -87 162
c-58 0 -92 -49 -92 -164c0 -117 32 -148 84 -148c68 0 95 48 95 150zM128 735l74 8c9 -50 35 -77 80 -77c47 0 74 23 88 77l71 -8c-14 -105 -64 -162 -160 -162c-90 0 -142 52 -153 162z" />
    <glyph glyph-name="Gdotaccent" unicode="&#x120;" horiz-adv-x="695" 
d="M278 782v127h158v-127h-158zM368 256v117h267v-385h-102l-16 86c-42 -54 -108 -86 -184 -86c-184 0 -292 125 -292 363c0 280 136 396 323 396c161 0 254 -95 255 -268l-159 -12c-2 121 -49 152 -107 152c-78 0 -141 -61 -141 -261c0 -180 59 -243 147 -243
c68 0 130 43 134 141h-125z" />
    <glyph glyph-name="gdotaccent" unicode="&#x121;" horiz-adv-x="572" 
d="M390 515h134v-461c0 -167 -94 -249 -258 -249c-123 0 -199 52 -221 149l144 26c7 -32 19 -63 81 -63c66 0 97 36 97 124v43h-1c-19 -35 -64 -70 -141 -70c-105 0 -196 57 -196 243c0 182 91 270 212 270c70 0 110 -25 133 -65h2zM371 264c0 111 -28 162 -87 162
c-58 0 -92 -49 -92 -164c0 -117 32 -148 84 -148c68 0 95 48 95 150zM205 607v127h158v-127h-158z" />
    <glyph glyph-name="Gcommaaccent" unicode="&#x122;" horiz-adv-x="695" 
d="M368 256v117h267v-385h-102l-16 86c-42 -54 -108 -86 -184 -86c-184 0 -292 125 -292 363c0 280 136 396 323 396c161 0 254 -95 255 -268l-159 -12c-2 121 -49 152 -107 152c-78 0 -141 -61 -141 -261c0 -180 59 -243 147 -243c68 0 130 43 134 141h-125zM278 -161v119
h126v-96l-50 -126l-60 14l21 89h-37z" />
    <glyph glyph-name="gcommaaccent" unicode="&#x123;" horiz-adv-x="572" 
d="M349 692v-118h-127v96l50 126l60 -14l-21 -90h38zM390 515h134v-461c0 -167 -94 -249 -258 -249c-123 0 -199 52 -221 149l144 26c7 -32 19 -63 81 -63c66 0 97 36 97 124v43h-1c-19 -35 -64 -70 -141 -70c-105 0 -196 57 -196 243c0 182 91 270 212 270
c70 0 110 -25 133 -65h2zM371 264c0 111 -28 162 -87 162c-58 0 -92 -49 -92 -164c0 -117 32 -148 84 -148c68 0 95 48 95 150z" />
    <glyph glyph-name="Hcircumflex" unicode="&#x124;" horiz-adv-x="734" 
d="M655 734v-734h-163v298h-250v-298h-162v734h162v-303h250v303h163zM326 924h82l118 -115l-42 -52l-118 71l-116 -71l-42 52z" />
    <glyph glyph-name="hcircumflex" unicode="&#x125;" horiz-adv-x="579" 
d="M532 312v-312h-157v305c0 66 -18 104 -72 104c-72 0 -93 -53 -93 -127v-282h-158v734h157v-284h2c26 38 69 77 152 77c105 0 169 -65 169 -215zM95 920h82l118 -115l-42 -52l-118 71l-116 -71l-42 52z" />
    <glyph glyph-name="Hbar" unicode="&#x126;" horiz-adv-x="754" 
d="M665 734v-96h60v-114h-60v-524h-163v298h-250v-298h-162v524h-61v114h61v96h162v-96h250v96h163zM252 431h250v93h-250v-93z" />
    <glyph glyph-name="hbar" unicode="&#x127;" horiz-adv-x="579" 
d="M532 312v-312h-157v305c0 66 -18 104 -72 104c-72 0 -93 -53 -93 -127v-282h-158v578h-53v99h53v57h157v-57h179v-99h-179v-128h2c26 38 69 77 152 77c105 0 169 -65 169 -215z" />
    <glyph glyph-name="Itilde" unicode="&#x128;" horiz-adv-x="407" 
d="M284 630v-526h74v-104h-309v104h74v526h-74v104h309v-104h-74zM103 777l-60 10c15 75 47 119 97 119c55 0 93 -28 129 -28c15 0 29 7 36 39l59 -10c-15 -83 -51 -122 -96 -122c-57 0 -97 29 -131 29c-16 0 -28 -11 -34 -37z" />
    <glyph glyph-name="itilde" unicode="&#x129;" horiz-adv-x="262" 
d="M52 0v515h158v-515h-158zM29 602l-60 10c15 75 47 119 97 119c55 0 93 -28 129 -28c15 0 28 7 36 39l59 -10c-15 -83 -51 -122 -96 -122c-57 0 -97 29 -131 29c-17 0 -28 -11 -34 -37z" />
    <glyph glyph-name="Imacron" unicode="&#x12a;" horiz-adv-x="407" 
d="M284 630v-526h74v-104h-309v104h74v526h-74v104h309v-104h-74zM63 790v97h282v-97h-282z" />
    <glyph glyph-name="imacron" unicode="&#x12b;" horiz-adv-x="262" 
d="M52 0v515h158v-515h-158zM-11 607v97h282v-97h-282z" />
    <glyph glyph-name="Ibreve" unicode="&#x12c;" horiz-adv-x="407" 
d="M284 630v-526h74v-104h-309v104h74v526h-74v104h309v-104h-74zM48 912l74 15c17 -50 41 -70 83 -70c45 0 70 16 92 70l71 -15c-21 -103 -71 -149 -164 -149c-85 0 -139 42 -156 149z" />
    <glyph glyph-name="ibreve" unicode="&#x12d;" horiz-adv-x="262" 
d="M52 0v515h158v-515h-158zM-23 735l74 8c9 -50 35 -77 80 -77c47 0 74 23 88 77l71 -8c-14 -105 -64 -162 -160 -162c-90 0 -142 52 -153 162z" />
    <glyph glyph-name="Iogonek" unicode="&#x12e;" horiz-adv-x="407" 
d="M284 630v-526h74v-104h-105c-28 -29 -51 -58 -51 -86c0 -16 9 -22 21 -22c17 0 27 11 39 29l49 -35c-25 -48 -73 -81 -136 -81c-51 0 -86 22 -86 71c0 43 25 82 78 124h-118v104h74v526h-74v104h309v-104h-74z" />
    <glyph glyph-name="iogonek" unicode="&#x12f;" horiz-adv-x="262" 
d="M52 0v515h158v-515h-31c-28 -29 -51 -58 -51 -86c0 -16 9 -22 21 -22c17 0 27 11 39 29l49 -35c-25 -48 -73 -81 -136 -81c-51 0 -86 22 -86 71c0 43 25 82 78 124h-41zM52 607v127h158v-127h-158z" />
    <glyph glyph-name="Idotaccent" unicode="&#x130;" horiz-adv-x="407" 
d="M284 630v-526h74v-104h-309v104h74v526h-74v104h309v-104h-74zM125 782v127h158v-127h-158z" />
    <glyph glyph-name="idotaccent" horiz-adv-x="262" 
d="M52 607v127h158v-127h-158zM52 0v515h158v-515h-158z" />
    <glyph glyph-name="dotlessi" unicode="&#x131;" horiz-adv-x="262" 
d="M52 0v515h158v-515h-158z" />
    <glyph glyph-name="IJ" unicode="&#x132;" horiz-adv-x="975" 
d="M284 630v-526h74v-104h-309v104h74v526h-74v104h309v-104h-74zM424 238l153 11c5 -69 12 -132 86 -132c57 0 79 33 79 120v497h162v-503c0 -164 -89 -243 -244 -243c-154 0 -237 80 -236 250z" />
    <glyph glyph-name="Jcircumflex" unicode="&#x134;" horiz-adv-x="568" 
d="M17 238l153 11c5 -69 12 -132 86 -132c57 0 79 33 79 120v497h162v-503c0 -164 -89 -243 -244 -243c-154 0 -237 80 -236 250zM376 924h82l118 -115l-42 -52l-118 71l-116 -71l-42 52z" />
    <glyph glyph-name="jcircumflex" unicode="&#x135;" horiz-adv-x="257" 
d="M-91 -183l14 108c21 -5 40 -7 60 -7c51 0 70 23 70 91v506h157v-494c0 -174 -85 -216 -200 -216c-38 0 -82 7 -101 12zM92 751h82l119 -142l-54 -48l-109 88l-104 -88l-54 48z" />
    <glyph glyph-name="Kcommaaccent" unicode="&#x136;" horiz-adv-x="699" 
d="M294 -161v119h126v-96l-50 -126l-60 14l21 89h-37zM242 734v-306l252 306h180l-254 -301l276 -433h-189l-196 303l-69 -82v-221h-162v734h162z" />
    <glyph glyph-name="kcommaaccent" unicode="&#x137;" horiz-adv-x="563" 
d="M223 -161v119h126v-96l-50 -126l-60 14l21 89h-37zM210 734v-397l156 178h181l-173 -185l189 -330h-181l-114 217l-58 -60v-157h-158v734h158z" />
    <glyph glyph-name="kgreenlandic" unicode="&#x138;" horiz-adv-x="563" 
d="M210 515v-170l156 170h181l-171 -184l187 -331h-181l-114 215l-58 -62v-153h-158v515h158z" />
    <glyph glyph-name="Lacute" unicode="&#x139;" horiz-adv-x="539" 
d="M229 941l55 -101l-180 -80l-42 69zM242 734v-602h258v-132h-420v734h162z" />
    <glyph glyph-name="lacute" unicode="&#x13a;" horiz-adv-x="262" 
d="M198 941l55 -101l-180 -80l-42 69zM210 734v-734h-158v734h158z" />
    <glyph glyph-name="Lcommaaccent" unicode="&#x13b;" horiz-adv-x="539" 
d="M227 -161v119h126v-96l-50 -126l-60 14l21 89h-37zM242 734v-602h258v-132h-420v734h162z" />
    <glyph glyph-name="lcommaaccent" unicode="&#x13c;" horiz-adv-x="262" 
d="M68 -161v119h126v-96l-50 -126l-60 14l21 89h-37zM210 734v-734h-158v734h158z" />
    <glyph glyph-name="Lcaron" unicode="&#x13d;" horiz-adv-x="539" 
d="M314 734h113l-36 -198l-72 3zM242 734v-602h258v-132h-420v734h162z" />
    <glyph glyph-name="lcaron" unicode="&#x13e;" horiz-adv-x="340" 
d="M247 734h113l-36 -198l-72 3zM210 734v-734h-158v734h158z" />
    <glyph glyph-name="Ldot" unicode="&#x13f;" horiz-adv-x="539" 
d="M322 365v127h158v-127h-158zM242 734v-602h258v-132h-420v734h162z" />
    <glyph glyph-name="ldot" unicode="&#x140;" horiz-adv-x="392" 
d="M210 734v-734h-158v734h158zM249 324v127h158v-127h-158z" />
    <glyph glyph-name="Lslash" unicode="&#x141;" horiz-adv-x="539" 
d="M242 734v-264l128 56l28 -111l-156 -70v-213h258v-132h-420v283l-72 -31l-26 112l98 43v327h162z" />
    <glyph glyph-name="lslash" unicode="&#x142;" horiz-adv-x="348" 
d="M255 734v-255l63 28l30 -113l-93 -41v-353h-158v294l-61 -28l-28 112l89 41v315h158z" />
    <glyph glyph-name="Nacute" unicode="&#x143;" horiz-adv-x="744" 
d="M454 941l55 -101l-180 -80l-42 69zM664 0h-180l-254 491v-491h-150v734h190l244 -498v498h150v-734z" />
    <glyph glyph-name="nacute" unicode="&#x144;" horiz-adv-x="579" 
d="M343 772l85 -82l-154 -129l-59 53zM532 315v-315h-157v305c0 77 -25 104 -72 104c-73 0 -93 -55 -93 -128v-281h-158v515h144l5 -74h3c20 38 64 86 156 86c105 0 172 -62 172 -212z" />
    <glyph glyph-name="Ncommaaccent" unicode="&#x145;" horiz-adv-x="744" 
d="M322 -161v119h126v-96l-50 -126l-60 14l21 89h-37zM664 0h-180l-254 491v-491h-150v734h190l244 -498v498h150v-734z" />
    <glyph glyph-name="ncommaaccent" unicode="&#x146;" horiz-adv-x="579" 
d="M228 -161v119h126v-96l-50 -126l-60 14l21 89h-37zM532 315v-315h-157v305c0 77 -25 104 -72 104c-73 0 -93 -55 -93 -128v-281h-158v515h144l5 -74h3c20 38 64 86 156 86c105 0 172 -62 172 -212z" />
    <glyph glyph-name="Ncaron" unicode="&#x147;" horiz-adv-x="744" 
d="M429 768h-82l-118 114l43 53l117 -70l116 70l43 -53zM664 0h-180l-254 491v-491h-150v734h190l244 -498v498h150v-734z" />
    <glyph glyph-name="ncaron" unicode="&#x148;" horiz-adv-x="579" 
d="M339 572h-81l-120 142l54 48l107 -90l106 90l54 -48zM532 315v-315h-157v305c0 77 -25 104 -72 104c-73 0 -93 -55 -93 -128v-281h-158v515h144l5 -74h3c20 38 64 86 156 86c105 0 172 -62 172 -212z" />
    <glyph glyph-name="napostrophe" unicode="&#x149;" horiz-adv-x="654" 
d="M113 734v-118h-37l21 -90l-60 -14l-50 127v95h126zM607 315v-315h-157v305c0 77 -25 104 -72 104c-73 0 -93 -55 -93 -128v-281h-158v515h144l5 -74h3c20 38 64 86 156 86c105 0 172 -62 172 -212z" />
    <glyph glyph-name="Eng" unicode="&#x14a;" horiz-adv-x="744" 
d="M281 -169l23 116c18 -5 55 -17 101 -17c73 0 97 38 98 109l-273 452v-491h-150v734h177l257 -438v438h150v-696c0 -158 -83 -233 -239 -233c-56 0 -115 13 -144 26z" />
    <glyph glyph-name="eng" unicode="&#x14b;" horiz-adv-x="579" 
d="M231 -183l14 108c21 -5 40 -7 60 -7c48 0 68 21 70 82v305c0 77 -25 104 -72 104c-73 0 -93 -55 -93 -128v-281h-158v515h144l5 -74h3c20 38 64 86 156 86c105 0 172 -62 172 -212v-315h-1c-6 -156 -89 -195 -199 -195c-38 0 -82 7 -101 12z" />
    <glyph glyph-name="Omacron" unicode="&#x14c;" horiz-adv-x="709" 
d="M222 790v97h282v-97h-282zM351 -12c-210 0 -310 137 -310 376c0 244 126 383 325 383c204 0 303 -136 303 -371c0 -247 -108 -388 -318 -388zM356 115c97 0 143 76 143 258c0 170 -44 244 -138 244c-91 0 -150 -73 -150 -248c0 -174 45 -254 145 -254z" />
    <glyph glyph-name="omacron" unicode="&#x14d;" horiz-adv-x="571" 
d="M146 607v97h282v-97h-282zM280 -12c-165 0 -253 99 -253 269c0 176 120 270 266 270c154 0 251 -92 251 -260c0 -185 -103 -279 -264 -279zM286 97c68 0 97 62 97 164c0 98 -29 153 -94 153c-67 0 -100 -57 -100 -156c0 -103 26 -161 97 -161z" />
    <glyph glyph-name="Obreve" unicode="&#x14e;" horiz-adv-x="709" 
d="M207 923l74 15c17 -50 41 -70 83 -70c45 0 70 16 92 70l71 -15c-21 -103 -71 -149 -164 -149c-85 0 -139 42 -156 149zM351 -12c-210 0 -310 137 -310 376c0 244 126 383 325 383c204 0 303 -136 303 -371c0 -247 -108 -388 -318 -388zM356 115c97 0 143 76 143 258
c0 170 -44 244 -138 244c-91 0 -150 -73 -150 -248c0 -174 45 -254 145 -254z" />
    <glyph glyph-name="obreve" unicode="&#x14f;" horiz-adv-x="571" 
d="M280 -12c-165 0 -253 99 -253 269c0 176 120 270 266 270c154 0 251 -92 251 -260c0 -185 -103 -279 -264 -279zM286 97c68 0 97 62 97 164c0 98 -29 153 -94 153c-67 0 -100 -57 -100 -156c0 -103 26 -161 97 -161zM134 735l74 8c9 -50 35 -77 80 -77c47 0 74 23 88 77
l71 -8c-14 -105 -64 -162 -160 -162c-90 0 -142 52 -153 162z" />
    <glyph glyph-name="Ohungarumlaut" unicode="&#x150;" horiz-adv-x="709" 
d="M351 -12c-210 0 -310 137 -310 376c0 244 126 383 325 383c204 0 303 -136 303 -371c0 -247 -108 -388 -318 -388zM356 115c97 0 143 76 143 258c0 170 -44 244 -138 244c-91 0 -150 -73 -150 -248c0 -174 45 -254 145 -254zM538 932l58 -79l-171 -92l-40 54zM341 945
l66 -79l-156 -102l-43 51z" />
    <glyph glyph-name="ohungarumlaut" unicode="&#x151;" horiz-adv-x="571" 
d="M436 758l74 -63l-148 -131l-50 43zM272 767l81 -62l-132 -137l-53 39zM280 -12c-165 0 -253 99 -253 269c0 176 120 270 266 270c154 0 251 -92 251 -260c0 -185 -103 -279 -264 -279zM286 97c68 0 97 62 97 164c0 98 -29 153 -94 153c-67 0 -100 -57 -100 -156
c0 -103 26 -161 97 -161z" />
    <glyph glyph-name="OE" unicode="&#x152;" horiz-adv-x="941" 
d="M851 439v-128h-240v-179h288v-132h-466c-29 -8 -60 -12 -93 -12c-192 0 -299 137 -299 372c0 246 127 387 316 387c34 0 67 -5 97 -13h428v-131h-271v-164h240zM359 115c26 0 64 5 89 15v469c-24 11 -58 18 -86 18c-95 0 -151 -73 -151 -254c0 -168 45 -248 148 -248z
" />
    <glyph glyph-name="oe" unicode="&#x153;" horiz-adv-x="892" 
d="M724 180l133 -13c-26 -146 -135 -179 -227 -179c-76 0 -132 24 -174 74c-46 -50 -106 -74 -181 -74c-158 0 -248 103 -248 262c0 184 120 277 261 277c79 0 136 -30 176 -74c45 46 101 74 178 74c158 0 239 -114 219 -299h-325c1 -79 28 -127 98 -127c47 0 79 22 90 79z
M284 97c70 0 99 61 99 163c0 100 -29 154 -95 154c-67 0 -99 -56 -99 -161c0 -96 27 -156 95 -156zM537 318h173c4 75 -29 107 -80 107c-61 0 -90 -44 -93 -107z" />
    <glyph glyph-name="Racute" unicode="&#x154;" horiz-adv-x="648" 
d="M241 293v-293h-161v734h275c178 0 245 -88 245 -210c0 -78 -20 -170 -134 -211l149 -313h-173l-134 293h-67zM241 414h64c81 0 131 18 131 99c0 60 -32 94 -113 94h-82v-193zM379 941l55 -101l-180 -80l-42 69z" />
    <glyph glyph-name="racute" unicode="&#x155;" horiz-adv-x="490" 
d="M312 772l85 -82l-154 -129l-59 53zM473 314l-153 -8c9 72 -2 101 -39 101c-57 0 -71 -67 -71 -156v-251h-158v515h144l6 -74h2c19 40 57 86 140 86c99 0 150 -66 129 -213z" />
    <glyph glyph-name="Rcommaaccent" unicode="&#x156;" horiz-adv-x="648" 
d="M241 293v-293h-161v734h275c178 0 245 -88 245 -210c0 -78 -20 -170 -134 -211l149 -313h-173l-134 293h-67zM241 414h64c81 0 131 18 131 99c0 60 -32 94 -113 94h-82v-193zM267 -161v119h126v-96l-50 -126l-60 14l21 89h-37z" />
    <glyph glyph-name="rcommaaccent" unicode="&#x157;" horiz-adv-x="490" 
d="M67 -161v119h126v-96l-50 -126l-60 14l21 89h-37zM473 314l-153 -8c9 72 -2 101 -39 101c-57 0 -71 -67 -71 -156v-251h-158v515h144l6 -74h2c19 40 57 86 140 86c99 0 150 -66 129 -213z" />
    <glyph glyph-name="Rcaron" unicode="&#x158;" horiz-adv-x="648" 
d="M353 768h-82l-118 114l43 53l117 -70l116 70l43 -53zM241 293v-293h-161v734h275c178 0 245 -88 245 -210c0 -78 -20 -170 -134 -211l149 -313h-173l-134 293h-67zM241 414h64c81 0 131 18 131 99c0 60 -32 94 -113 94h-82v-193z" />
    <glyph glyph-name="rcaron" unicode="&#x159;" horiz-adv-x="490" 
d="M308 572h-81l-120 142l54 48l107 -90l106 90l54 -48zM473 314l-153 -8c9 72 -2 101 -39 101c-57 0 -71 -67 -71 -156v-251h-158v515h144l6 -74h2c19 40 57 86 140 86c99 0 150 -66 129 -213z" />
    <glyph glyph-name="Sacute" unicode="&#x15a;" horiz-adv-x="626" 
d="M581 541l-158 -31c-12 75 -50 111 -112 111c-59 0 -91 -27 -91 -77c0 -61 58 -80 128 -97c107 -27 241 -52 241 -216c0 -162 -121 -243 -273 -243c-171 0 -270 71 -291 227l167 23c11 -71 37 -120 129 -120c66 0 102 30 102 83c0 68 -66 86 -143 105
c-106 26 -232 56 -232 222c0 136 111 220 270 220c149 0 241 -66 263 -207zM394 941l55 -101l-180 -80l-42 69z" />
    <glyph glyph-name="sacute" unicode="&#x15b;" horiz-adv-x="497" 
d="M299 772l85 -82l-154 -129l-59 53zM464 387l-136 -29c-8 41 -29 65 -75 65c-37 0 -65 -12 -65 -42c0 -91 283 -12 283 -217c0 -119 -113 -176 -226 -176c-131 0 -206 46 -225 155l140 20c10 -45 27 -72 86 -72c46 0 70 20 70 49c0 96 -278 17 -278 218
c0 110 100 169 218 169c121 0 182 -46 208 -140z" />
    <glyph glyph-name="Scircumflex" unicode="&#x15c;" horiz-adv-x="626" 
d="M581 541l-158 -31c-12 75 -50 111 -112 111c-59 0 -91 -27 -91 -77c0 -61 58 -80 128 -97c107 -27 241 -52 241 -216c0 -162 -121 -243 -273 -243c-171 0 -270 71 -291 227l167 23c11 -71 37 -120 129 -120c66 0 102 30 102 83c0 68 -66 86 -143 105
c-106 26 -232 56 -232 222c0 136 111 220 270 220c149 0 241 -66 263 -207zM288 924h82l118 -115l-42 -52l-118 71l-116 -71l-42 52z" />
    <glyph glyph-name="scircumflex" unicode="&#x15d;" horiz-adv-x="497" 
d="M213 751h82l119 -142l-54 -48l-109 88l-104 -88l-54 48zM464 387l-136 -29c-8 41 -29 65 -75 65c-37 0 -65 -12 -65 -42c0 -91 283 -12 283 -217c0 -119 -113 -176 -226 -176c-131 0 -206 46 -225 155l140 20c10 -45 27 -72 86 -72c46 0 70 20 70 49
c0 96 -278 17 -278 218c0 110 100 169 218 169c121 0 182 -46 208 -140z" />
    <glyph glyph-name="Scedilla" unicode="&#x15e;" horiz-adv-x="626" 
d="M248 -87l33 76c-150 10 -237 81 -256 226l167 23c11 -71 37 -120 129 -120c66 0 102 30 102 83c0 68 -66 86 -143 105c-106 26 -232 56 -232 222c0 136 111 220 270 220c149 0 241 -66 263 -207l-158 -31c-12 75 -50 111 -112 111c-59 0 -91 -27 -91 -77
c0 -61 58 -80 128 -97c107 -27 241 -52 241 -216c0 -152 -106 -232 -245 -242l-17 -34c10 4 16 6 29 6c53 0 86 -38 86 -90c0 -55 -42 -101 -117 -101c-43 0 -79 9 -120 45l42 52c20 -16 44 -26 61 -26c23 0 34 13 34 34c0 22 -11 31 -30 31c-11 0 -20 -4 -28 -9z" />
    <glyph glyph-name="scedilla" unicode="&#x15f;" horiz-adv-x="497" 
d="M175 -87l33 77c-108 8 -171 54 -188 153l140 20c10 -45 27 -72 86 -72c46 0 70 20 70 49c0 96 -278 17 -278 218c0 110 100 169 218 169c121 0 182 -46 208 -140l-136 -29c-8 41 -29 65 -75 65c-37 0 -65 -12 -65 -42c0 -91 283 -12 283 -217c0 -110 -96 -167 -200 -175
l-17 -34c10 4 16 6 29 6c53 0 86 -38 86 -90c0 -55 -42 -101 -117 -101c-43 0 -79 9 -120 45l42 52c20 -16 44 -26 61 -26c23 0 34 13 34 34c0 22 -11 31 -30 31c-11 0 -20 -4 -28 -9z" />
    <glyph glyph-name="Scaron" unicode="&#x160;" horiz-adv-x="626" 
d="M581 541l-158 -31c-12 75 -50 111 -112 111c-59 0 -91 -27 -91 -77c0 -61 58 -80 128 -97c107 -27 241 -52 241 -216c0 -162 -121 -243 -273 -243c-171 0 -270 71 -291 227l167 23c11 -71 37 -120 129 -120c66 0 102 30 102 83c0 68 -66 86 -143 105
c-106 26 -232 56 -232 222c0 136 111 220 270 220c149 0 241 -66 263 -207zM365 774h-82l-118 114l43 53l117 -70l116 70l43 -53z" />
    <glyph glyph-name="scaron" unicode="&#x161;" horiz-adv-x="497" 
d="M293 572h-81l-120 142l54 48l107 -90l106 90l54 -48zM464 387l-136 -29c-8 41 -29 65 -75 65c-37 0 -65 -12 -65 -42c0 -91 283 -12 283 -217c0 -119 -113 -176 -226 -176c-131 0 -206 46 -225 155l140 20c10 -45 27 -72 86 -72c46 0 70 20 70 49c0 96 -278 17 -278 218
c0 110 100 169 218 169c121 0 182 -46 208 -140z" />
    <glyph glyph-name="Scommaaccent" unicode="&#x218;" horiz-adv-x="626" 
d="M581 541l-158 -31c-12 75 -50 111 -112 111c-59 0 -91 -27 -91 -77c0 -61 58 -80 128 -97c107 -27 241 -52 241 -216c0 -162 -121 -243 -273 -243c-171 0 -270 71 -291 227l167 23c11 -71 37 -120 129 -120c66 0 102 30 102 83c0 68 -66 86 -143 105
c-106 26 -232 56 -232 222c0 136 111 220 270 220c149 0 241 -66 263 -207zM261 -161v119h126v-96l-50 -126l-60 14l21 89h-37z" />
    <glyph glyph-name="scommaaccent" unicode="&#x219;" horiz-adv-x="497" 
d="M184 -161v119h126v-96l-50 -126l-60 14l21 89h-37zM464 387l-136 -29c-8 41 -29 65 -75 65c-37 0 -65 -12 -65 -42c0 -91 283 -12 283 -217c0 -119 -113 -176 -226 -176c-131 0 -206 46 -225 155l140 20c10 -45 27 -72 86 -72c46 0 70 20 70 49c0 96 -278 17 -278 218
c0 110 100 169 218 169c121 0 182 -46 208 -140z" />
    <glyph glyph-name="uni0162" unicode="&#x162;" horiz-adv-x="565" 
d="M201 0v603h-194v131h551v-131h-194v-603h-55l-23 -45c10 4 16 6 29 6c53 0 86 -38 86 -90c0 -55 -42 -101 -117 -101c-43 0 -79 9 -120 45l42 52c20 -16 44 -26 61 -26c23 0 34 13 34 34c0 22 -11 31 -30 31c-11 0 -20 -4 -28 -9l-36 16l38 87h-44z" />
    <glyph glyph-name="uni0163" unicode="&#x163;" horiz-adv-x="380" 
d="M148 -87l36 84c-69 18 -109 71 -109 177v235h-61v106h61v104l157 44v-148h112v-106h-112v-214c0 -68 17 -93 67 -93c17 0 34 3 55 9l14 -105c-24 -10 -64 -18 -112 -18h-12l-17 -33c10 4 16 6 29 6c53 0 86 -38 86 -90c0 -55 -42 -101 -117 -101c-43 0 -79 9 -120 45
l42 52c20 -16 44 -26 61 -26c23 0 34 13 34 34c0 22 -11 31 -30 31c-11 0 -20 -4 -28 -9z" />
    <glyph glyph-name="Tcaron" unicode="&#x164;" horiz-adv-x="565" 
d="M321 768h-82l-118 114l43 53l117 -70l116 70l43 -53zM201 0v603h-194v131h551v-131h-194v-603h-163z" />
    <glyph glyph-name="tcaron" unicode="&#x165;" horiz-adv-x="380" 
d="M268 758h113l-36 -198l-72 3zM14 409v106h61v104l157 44v-148h112v-106h-112v-214c0 -68 17 -93 67 -93c17 0 34 3 55 9l14 -105c-24 -10 -64 -18 -112 -18c-113 0 -181 48 -181 186v235h-61z" />
    <glyph glyph-name="Tbar" unicode="&#x166;" horiz-adv-x="565" 
d="M201 0v311h-150v117h150v175h-194v131h551v-131h-194v-175h150v-117h-150v-311h-163z" />
    <glyph glyph-name="tbar" unicode="&#x167;" horiz-adv-x="380" 
d="M14 409v106h61v104l157 44v-148h112v-106h-112v-56h112v-99h-112v-59c0 -68 17 -93 67 -93c17 0 34 3 55 9l14 -105c-24 -10 -64 -18 -112 -18c-113 0 -181 48 -181 186v80h-61v99h61v56h-61z" />
    <glyph glyph-name="uni021A" unicode="&#x21a;" horiz-adv-x="565" 
d="M201 0v603h-194v131h551v-131h-194v-603h-163zM217 -161v119h126v-96l-50 -126l-60 14l21 89h-37z" />
    <glyph glyph-name="uni021B" unicode="&#x21b;" horiz-adv-x="380" 
d="M163 -161v119h126v-96l-50 -126l-60 14l21 89h-37zM14 409v106h61v104l157 44v-148h112v-106h-112v-214c0 -68 17 -93 67 -93c17 0 34 3 55 9l14 -105c-24 -10 -64 -18 -112 -18c-113 0 -181 48 -181 186v235h-61z" />
    <glyph glyph-name="Utilde" unicode="&#x168;" horiz-adv-x="719" 
d="M257 777l-60 10c15 75 47 119 97 119c55 0 93 -28 129 -28c15 0 29 7 36 39l59 -10c-15 -83 -51 -122 -96 -122c-57 0 -97 29 -131 29c-16 0 -28 -11 -34 -37zM488 311v423h160v-471c0 -175 -94 -275 -293 -275c-211 0 -284 106 -284 281v465h159v-422
c0 -128 25 -195 130 -195s128 62 128 194z" />
    <glyph glyph-name="utilde" unicode="&#x169;" horiz-adv-x="575" 
d="M48 202v313h157v-307c0 -69 20 -103 70 -103c73 0 92 62 92 140v270h157v-515h-143l-6 75h-2c-23 -40 -64 -87 -156 -87c-106 0 -169 64 -169 214zM183 602l-60 10c15 75 47 119 97 119c55 0 93 -28 129 -28c15 0 28 7 36 39l59 -10c-15 -83 -51 -122 -96 -122
c-57 0 -97 29 -131 29c-17 0 -28 -11 -34 -37z" />
    <glyph glyph-name="Umacron" unicode="&#x16a;" horiz-adv-x="719" 
d="M217 790v97h282v-97h-282zM488 311v423h160v-471c0 -175 -94 -275 -293 -275c-211 0 -284 106 -284 281v465h159v-422c0 -128 25 -195 130 -195s128 62 128 194z" />
    <glyph glyph-name="umacron" unicode="&#x16b;" horiz-adv-x="575" 
d="M48 202v313h157v-307c0 -69 20 -103 70 -103c73 0 92 62 92 140v270h157v-515h-143l-6 75h-2c-23 -40 -64 -87 -156 -87c-106 0 -169 64 -169 214zM143 607v97h282v-97h-282z" />
    <glyph glyph-name="Ubreve" unicode="&#x16c;" horiz-adv-x="719" 
d="M202 912l74 15c17 -50 41 -70 83 -70c45 0 70 16 92 70l71 -15c-21 -103 -71 -149 -164 -149c-85 0 -139 42 -156 149zM488 311v423h160v-471c0 -175 -94 -275 -293 -275c-211 0 -284 106 -284 281v465h159v-422c0 -128 25 -195 130 -195s128 62 128 194z" />
    <glyph glyph-name="ubreve" unicode="&#x16d;" horiz-adv-x="575" 
d="M48 202v313h157v-307c0 -69 20 -103 70 -103c73 0 92 62 92 140v270h157v-515h-143l-6 75h-2c-23 -40 -64 -87 -156 -87c-106 0 -169 64 -169 214zM131 735l74 8c9 -50 35 -77 80 -77c47 0 74 23 88 77l71 -8c-14 -105 -64 -162 -160 -162c-90 0 -142 52 -153 162z" />
    <glyph glyph-name="Uring" unicode="&#x16e;" horiz-adv-x="719" 
d="M488 311v423h160v-471c0 -175 -94 -275 -293 -275c-211 0 -284 106 -284 281v465h159v-422c0 -128 25 -195 130 -195s128 62 128 194zM356 760c-83 0 -107 43 -107 98c0 57 43 98 111 98c78 0 113 -40 113 -95c0 -58 -36 -101 -117 -101zM358 816c17 0 28 10 28 43
s-12 42 -27 42c-17 0 -31 -10 -31 -43s11 -42 30 -42z" />
    <glyph glyph-name="uring" unicode="&#x16f;" horiz-adv-x="575" 
d="M282 570c-83 0 -107 42 -107 98s43 98 111 98c78 0 113 -41 113 -95c0 -59 -36 -101 -117 -101zM284 625c17 0 28 10 28 44c0 33 -12 41 -27 41c-17 0 -31 -9 -31 -42c0 -34 11 -43 30 -43zM48 202v313h157v-307c0 -69 20 -103 70 -103c73 0 92 62 92 140v270h157v-515
h-143l-6 75h-2c-23 -40 -64 -87 -156 -87c-106 0 -169 64 -169 214z" />
    <glyph glyph-name="Uhungarumlaut" unicode="&#x170;" horiz-adv-x="719" 
d="M488 311v423h160v-471c0 -175 -94 -275 -293 -275c-211 0 -284 106 -284 281v465h159v-422c0 -128 25 -195 130 -195s128 62 128 194zM546 932l58 -79l-171 -92l-40 54zM349 945l66 -79l-156 -102l-43 51z" />
    <glyph glyph-name="uhungarumlaut" unicode="&#x171;" horiz-adv-x="575" 
d="M48 202v313h157v-307c0 -69 20 -103 70 -103c73 0 92 62 92 140v270h157v-515h-143l-6 75h-2c-23 -40 -64 -87 -156 -87c-106 0 -169 64 -169 214zM429 758l74 -63l-148 -131l-50 43zM265 767l81 -62l-132 -137l-53 39z" />
    <glyph glyph-name="Uogonek" unicode="&#x172;" horiz-adv-x="719" 
d="M488 311v423h160v-471c0 -126 -49 -196 -142 -254c-44 -27 -71 -66 -71 -96c0 -17 11 -22 23 -22c17 0 29 11 42 31l49 -36c-30 -47 -79 -81 -141 -81c-51 0 -86 22 -86 69c0 38 27 77 77 116c-14 -1 -29 -2 -44 -2c-211 0 -284 106 -284 281v465h159v-422
c0 -128 25 -195 130 -195s128 62 128 194z" />
    <glyph glyph-name="uogonek" unicode="&#x173;" horiz-adv-x="575" 
d="M48 202v313h157v-307c0 -69 20 -103 70 -103c73 0 92 62 92 140v270h157v-515h-30c-28 -29 -51 -58 -51 -86c0 -16 9 -22 21 -22c17 0 27 11 39 29l49 -35c-25 -48 -73 -81 -136 -81c-51 0 -86 22 -86 71c0 43 25 82 78 124h-27l-6 75h-2c-23 -40 -64 -87 -156 -87
c-106 0 -169 64 -169 214z" />
    <glyph glyph-name="Wcircumflex" unicode="&#x174;" horiz-adv-x="992" 
d="M807 0h-201l-110 481h-5l-107 -481h-202l-168 734h166l104 -585h3l136 585h146l139 -585h3l107 585h160zM457 924h82l118 -115l-42 -52l-118 71l-116 -71l-42 52z" />
    <glyph glyph-name="wcircumflex" unicode="&#x175;" horiz-adv-x="842" 
d="M386 751h82l119 -142l-54 -48l-109 88l-104 -88l-54 48zM334 0h-177l-146 515h159l81 -372h2l86 372h177l87 -372h3l76 372h149l-139 -515h-182l-86 367h-2z" />
    <glyph glyph-name="Wgrave" unicode="&#x1e80;" horiz-adv-x="992" 
d="M372 840l58 101l166 -112l-44 -69zM807 0h-201l-110 481h-5l-107 -481h-202l-168 734h166l104 -585h3l136 585h146l139 -585h3l107 585h160z" />
    <glyph glyph-name="wgrave" unicode="&#x1e81;" horiz-adv-x="842" 
d="M334 0h-177l-146 515h159l81 -372h2l86 372h177l87 -372h3l76 372h149l-139 -515h-182l-86 367h-2zM306 689l87 81l128 -156l-60 -53z" />
    <glyph glyph-name="Wacute" unicode="&#x1e82;" horiz-adv-x="992" 
d="M563 941l55 -101l-180 -80l-42 69zM807 0h-201l-110 481h-5l-107 -481h-202l-168 734h166l104 -585h3l136 585h146l139 -585h3l107 585h160z" />
    <glyph glyph-name="wacute" unicode="&#x1e83;" horiz-adv-x="842" 
d="M460 772l85 -82l-154 -129l-59 53zM334 0h-177l-146 515h159l81 -372h2l86 372h177l87 -372h3l76 372h149l-139 -515h-182l-86 367h-2z" />
    <glyph glyph-name="Wdieresis" unicode="&#x1e84;" horiz-adv-x="992" 
d="M528 778v118h116v-118h-116zM350 778v118h116v-118h-116zM807 0h-201l-110 481h-5l-107 -481h-202l-168 734h166l104 -585h3l136 585h146l139 -585h3l107 585h160z" />
    <glyph glyph-name="wdieresis" unicode="&#x1e85;" horiz-adv-x="842" 
d="M457 604v117h116v-117h-116zM279 604v117h116v-117h-116zM334 0h-177l-146 515h159l81 -372h2l86 372h177l87 -372h3l76 372h149l-139 -515h-182l-86 367h-2z" />
    <glyph glyph-name="Ygrave" unicode="&#x1ef2;" horiz-adv-x="632" 
d="M399 276v-276h-159v272l-251 462h180l151 -308l155 308h169zM194 840l58 101l166 -112l-44 -69z" />
    <glyph glyph-name="ygrave" unicode="&#x1ef3;" horiz-adv-x="528" 
d="M520 515l-175 -508c-52 -152 -99 -202 -215 -202c-38 0 -84 8 -102 15l16 102c19 -5 37 -9 56 -9c41 0 67 20 88 85l3 8l-181 509h168l87 -350h5l89 350h161zM142 689l87 81l128 -156l-60 -53z" />
    <glyph glyph-name="Ycircumflex" unicode="&#x176;" horiz-adv-x="632" 
d="M399 276v-276h-159v272l-251 462h180l151 -308l155 308h169zM280 924h82l118 -115l-42 -52l-118 71l-116 -71l-42 52z" />
    <glyph glyph-name="ycircumflex" unicode="&#x177;" horiz-adv-x="528" 
d="M520 515l-175 -508c-52 -152 -99 -202 -215 -202c-38 0 -84 8 -102 15l16 102c19 -5 37 -9 56 -9c41 0 67 20 88 85l3 8l-181 509h168l87 -350h5l89 350h161zM227 751h82l119 -142l-54 -48l-109 88l-104 -88l-54 48z" />
    <glyph glyph-name="Ydieresis" unicode="&#x178;" horiz-adv-x="632" 
d="M399 276v-276h-159v272l-251 462h180l151 -308l155 308h169zM351 778v118h116v-118h-116zM173 778v118h116v-118h-116z" />
    <glyph glyph-name="Zacute" unicode="&#x179;" horiz-adv-x="587" 
d="M32 603v131h511v-121l-322 -481h325v-132h-520v122l321 481h-315zM352 941l55 -101l-180 -80l-42 69z" />
    <glyph glyph-name="zacute" unicode="&#x17a;" horiz-adv-x="481" 
d="M287 772l85 -82l-154 -129l-59 53zM39 395v120h410v-110l-229 -284h234v-121h-421v111l229 284h-223z" />
    <glyph glyph-name="Zdotaccent" unicode="&#x17b;" horiz-adv-x="587" 
d="M207 782v127h158v-127h-158zM32 603v131h511v-121l-322 -481h325v-132h-520v122l321 481h-315z" />
    <glyph glyph-name="zdotaccent" unicode="&#x17c;" horiz-adv-x="481" 
d="M39 395v120h410v-110l-229 -284h234v-121h-421v111l229 284h-223zM167 607v127h158v-127h-158z" />
    <glyph glyph-name="Zcaron" unicode="&#x17d;" horiz-adv-x="587" 
d="M326 768h-82l-118 114l43 53l117 -70l116 70l43 -53zM32 603v131h511v-121l-322 -481h325v-132h-520v122l321 481h-315z" />
    <glyph glyph-name="zcaron" unicode="&#x17e;" horiz-adv-x="481" 
d="M283 572h-81l-120 142l54 48l107 -90l106 90l54 -48zM39 395v120h410v-110l-229 -284h234v-121h-421v111l229 284h-223z" />
    <glyph glyph-name="longs" unicode="&#x17f;" horiz-adv-x="316" 
d="M363 733l-18 -113c-20 6 -44 10 -62 10c-45 0 -65 -26 -65 -94v-536h-157v530c0 156 70 217 196 217c46 0 87 -9 106 -14z" />
    <glyph glyph-name="dotlessj" unicode="&#x237;" horiz-adv-x="257" 
d="M-91 -183l14 108c21 -5 40 -7 60 -7c51 0 70 23 70 91v506h157v-494c0 -174 -85 -216 -200 -216c-38 0 -82 7 -101 12z" />
    <glyph glyph-name="circumflex" unicode="&#x2c6;" 
d="M210 751h82l119 -142l-54 -48l-109 88l-104 -88l-54 48z" />
    <glyph glyph-name="caron" unicode="&#x2c7;" 
d="M289 572h-81l-120 142l54 48l107 -90l106 90l54 -48z" />
    <glyph glyph-name="uni02C9" unicode="&#x2c9;" 
d="M109 607v97h282v-97h-282z" />
    <glyph glyph-name="breve" unicode="&#x2d8;" 
d="M97 735l74 8c9 -50 35 -77 80 -77c47 0 74 23 88 77l71 -8c-14 -105 -64 -162 -160 -162c-90 0 -142 52 -153 162z" />
    <glyph glyph-name="dieresis" unicode="&#xa8;" 
d="M281 604v117h116v-117h-116zM103 604v117h116v-117h-116z" />
    <glyph glyph-name="macron" unicode="&#xaf;" 
d="M109 607v97h282v-97h-282z" />
    <glyph glyph-name="degree" unicode="&#xb0;" horiz-adv-x="312" 
d="M154 527c-70 0 -114 42 -114 111c0 70 56 112 119 112c66 0 113 -41 113 -108c0 -73 -48 -115 -118 -115zM156 583c25 0 46 15 46 56s-23 54 -45 54s-48 -11 -48 -55c0 -40 20 -55 47 -55z" />
    <glyph glyph-name="acute" unicode="&#xb4;" 
d="M293 772l85 -82l-154 -129l-59 53z" />
    <glyph glyph-name="grave" unicode="`" 
d="M125 689l87 81l128 -156l-60 -53z" />
    <glyph glyph-name="cedilla" unicode="&#xb8;" 
d="M193 -87l38 87h64l-23 -45c10 4 16 6 29 6c53 0 86 -38 86 -90c0 -55 -42 -101 -117 -101c-43 0 -79 9 -120 45l42 52c20 -16 44 -26 61 -26c23 0 34 13 34 34c0 22 -11 31 -30 31c-11 0 -20 -4 -28 -9z" />
    <glyph glyph-name="dotaccent" unicode="&#x2d9;" 
d="M171 607v127h158v-127h-158z" />
    <glyph glyph-name="ring" unicode="&#x2da;" 
d="M248 570c-83 0 -107 42 -107 98s43 98 111 98c78 0 113 -41 113 -95c0 -59 -36 -101 -117 -101zM250 625c17 0 28 10 28 44c0 33 -12 41 -27 41c-17 0 -31 -9 -31 -42c0 -34 11 -43 30 -43z" />
    <glyph glyph-name="ogonek" unicode="&#x2db;" 
d="M229 13l74 -8c-30 -31 -56 -62 -56 -91c0 -16 9 -22 21 -22c17 0 27 11 39 29l49 -35c-25 -48 -73 -81 -136 -81c-51 0 -86 22 -86 71c0 47 31 89 95 137z" />
    <glyph glyph-name="tilde" unicode="&#x2dc;" 
d="M149 602l-60 10c15 75 47 119 97 119c55 0 93 -28 129 -28c15 0 28 7 36 39l59 -10c-15 -83 -51 -122 -96 -122c-57 0 -97 29 -131 29c-17 0 -28 -11 -34 -37z" />
    <glyph glyph-name="hungarumlaut" unicode="&#x2dd;" 
d="M399 758l74 -63l-148 -131l-50 43zM235 767l81 -62l-132 -137l-53 39z" />
    <glyph glyph-name="perthousand" unicode="&#x2030;" horiz-adv-x="1076" 
d="M14 557c0 107 66 177 173 177c110 0 161 -64 161 -172c0 -111 -56 -178 -169 -178c-114 0 -165 64 -165 173zM893 -8c-114 0 -166 64 -166 173c0 107 67 177 174 177c110 0 161 -65 161 -172c0 -112 -56 -178 -169 -178zM895 70c42 0 62 27 62 100c0 65 -18 93 -60 93
c-38 0 -64 -23 -64 -95c0 -65 18 -98 62 -98zM181 462c42 0 63 27 63 100c0 65 -19 93 -61 93c-38 0 -64 -23 -64 -95c0 -65 19 -98 62 -98zM534 -8c-114 0 -165 64 -165 173c0 107 66 177 174 177c109 0 160 -65 160 -172c0 -112 -56 -178 -169 -178zM536 70
c42 0 63 27 63 100c0 65 -19 93 -61 93c-38 0 -64 -23 -64 -95c0 -65 19 -98 62 -98zM141 107l-74 86l551 457l76 -83z" />
    <glyph glyph-name="percent" unicode="%" horiz-adv-x="905" 
d="M194 42l429 715l98 -56l-430 -717zM696 -8c-127 0 -185 74 -185 198c0 123 74 204 194 204c122 0 180 -74 180 -197c0 -129 -63 -205 -189 -205zM699 73c48 0 71 32 71 123c0 84 -21 115 -70 115c-44 0 -73 -31 -73 -117c0 -85 21 -121 72 -121zM205 332
c-127 0 -185 74 -185 198c0 123 74 204 194 204c123 0 180 -74 180 -198c0 -128 -63 -204 -189 -204zM208 413c48 0 71 31 71 123c0 84 -21 115 -70 115c-43 0 -73 -31 -73 -117c0 -85 21 -121 72 -121z" />
    <glyph glyph-name="fraction" unicode="&#x2044;" horiz-adv-x="192" 
d="M-166 42l429 715l98 -56l-430 -717z" />
    <glyph glyph-name="zerosuperior" unicode="&#x2070;" horiz-adv-x="481" 
d="M238 383c-134 0 -195 85 -195 232c0 152 79 238 205 238c129 0 190 -84 190 -230c0 -153 -67 -240 -200 -240zM241 474c51 0 75 34 75 147c0 102 -22 138 -71 138c-48 0 -79 -34 -79 -140c0 -102 21 -145 75 -145z" />
    <glyph glyph-name="onesuperior" unicode="&#xb9;" horiz-adv-x="299" 
d="M42 686l-25 87c32 10 105 46 139 72h76v-455h-118v328c-15 -9 -45 -22 -72 -32z" />
    <glyph glyph-name="twosuperior" unicode="&#xb2;" horiz-adv-x="411" 
d="M183 482h173v-92h-306c-3 31 -1 65 5 95c22 103 195 166 195 247c0 24 -16 39 -44 39c-40 0 -48 -34 -39 -79l-112 -7c-21 92 26 168 154 168c100 0 160 -44 160 -122c0 -132 -172 -171 -186 -249z" />
    <glyph glyph-name="threesuperior" unicode="&#xb3;" horiz-adv-x="402" 
d="M142 577l-11 83c74 3 105 20 105 66c0 34 -17 45 -43 45c-33 0 -50 -14 -39 -79l-112 -7c-21 95 25 168 153 168c100 0 161 -40 161 -113c0 -66 -42 -96 -93 -111c67 -15 103 -54 103 -111c0 -90 -65 -135 -167 -135c-117 0 -161 46 -166 141l116 6c4 -46 17 -66 53 -66
c30 0 46 22 46 53c0 49 -37 63 -106 60z" />
    <glyph glyph-name="foursuperior" unicode="&#x2074;" horiz-adv-x="395" 
d="M114 546h95v183h-3zM326 845v-299h49v-87h-49v-69h-117v69h-196v70l168 316h145z" />
    <glyph glyph-name="fivesuperior" unicode="&#x2075;" horiz-adv-x="402" 
d="M200 606c-23 0 -41 -13 -51 -33l-101 9l20 263h276v-92h-181l-11 -96c17 21 48 33 85 33c74 0 131 -44 131 -145c0 -102 -53 -162 -174 -162c-120 0 -152 63 -158 141l116 6c3 -53 24 -66 52 -66c29 0 46 24 46 71c0 58 -22 71 -50 71z" />
    <glyph glyph-name="sixsuperior" unicode="&#x2076;" horiz-adv-x="417" 
d="M226 771c-36 0 -60 -31 -65 -124c19 25 58 37 91 37c66 0 132 -39 132 -138c0 -117 -70 -163 -174 -163c-122 0 -170 65 -170 210c0 164 62 260 191 260c114 0 148 -54 143 -136l-111 -7c4 36 -4 61 -37 61zM213 606c-37 0 -57 -23 -57 -67s14 -75 55 -75
c48 0 56 42 56 76c0 44 -17 66 -54 66z" />
    <glyph glyph-name="sevensuperior" unicode="&#x2077;" horiz-adv-x="337" 
d="M196 390h-122c-1 159 51 274 123 363h-179v92h299v-63c-101 -126 -116 -239 -121 -392z" />
    <glyph glyph-name="eightsuperior" unicode="&#x2078;" horiz-adv-x="429" 
d="M210 383c-129 0 -177 55 -177 130c0 61 29 106 98 125c-55 15 -77 52 -77 97c0 70 59 118 167 118c107 0 153 -48 153 -110c0 -50 -28 -87 -81 -103c71 -17 103 -60 103 -120c0 -78 -53 -137 -186 -137zM214 464c44 0 64 27 64 68c0 42 -20 69 -62 69
c-40 0 -64 -24 -64 -72c0 -38 16 -65 62 -65zM213 675c35 0 42 30 42 53c0 27 -8 52 -40 52c-34 0 -42 -27 -42 -53c0 -29 9 -52 40 -52z" />
    <glyph glyph-name="ninesuperior" unicode="&#x2079;" horiz-adv-x="417" 
d="M202 465c38 0 62 42 63 124c-19 -25 -58 -37 -91 -37c-65 0 -134 38 -134 138c0 111 72 163 176 163c118 0 168 -65 168 -210c0 -164 -55 -260 -185 -260c-114 0 -155 54 -158 135l112 8c4 -40 13 -61 49 -61zM211 629c36 0 57 24 57 68s-14 74 -56 74
c-47 0 -56 -41 -56 -75c0 -44 17 -67 55 -67z" />
    <glyph glyph-name="zeroinferior" unicode="&#x2080;" horiz-adv-x="481" 
d="M238 -137c-134 0 -195 85 -195 232c0 152 79 238 205 238c129 0 190 -84 190 -230c0 -153 -67 -240 -200 -240zM241 -46c51 0 75 34 75 147c0 102 -22 138 -71 138c-48 0 -79 -34 -79 -140c0 -102 21 -145 75 -145z" />
    <glyph glyph-name="oneinferior" unicode="&#x2081;" horiz-adv-x="299" 
d="M42 166l-25 87c32 10 105 46 139 72h76v-455h-118v328c-15 -9 -45 -22 -72 -32z" />
    <glyph glyph-name="twoinferior" unicode="&#x2082;" horiz-adv-x="411" 
d="M183 -38h173v-92h-306c-3 31 -1 65 5 95c22 103 195 166 195 247c0 24 -16 39 -44 39c-40 0 -48 -34 -39 -79l-112 -7c-21 92 26 168 154 168c100 0 160 -44 160 -122c0 -132 -172 -171 -186 -249z" />
    <glyph glyph-name="threeinferior" unicode="&#x2083;" horiz-adv-x="402" 
d="M142 57l-11 83c74 3 105 20 105 66c0 34 -17 45 -43 45c-33 0 -50 -14 -39 -79l-112 -7c-21 95 25 168 153 168c100 0 161 -40 161 -113c0 -66 -42 -96 -93 -111c67 -15 103 -54 103 -111c0 -90 -65 -135 -167 -135c-117 0 -161 46 -166 141l116 6c4 -46 17 -66 53 -66
c30 0 46 22 46 53c0 49 -37 63 -106 60z" />
    <glyph glyph-name="fourinferior" unicode="&#x2084;" horiz-adv-x="395" 
d="M114 26h95v183h-3zM326 325v-299h49v-87h-49v-69h-117v69h-196v70l168 316h145z" />
    <glyph glyph-name="fiveinferior" unicode="&#x2085;" horiz-adv-x="402" 
d="M200 86c-23 0 -41 -13 -51 -33l-101 9l20 263h276v-92h-181l-11 -96c17 21 48 33 85 33c74 0 131 -44 131 -145c0 -102 -53 -162 -174 -162c-120 0 -152 63 -158 141l116 6c3 -53 24 -66 52 -66c29 0 46 24 46 71c0 58 -22 71 -50 71z" />
    <glyph glyph-name="sixinferior" unicode="&#x2086;" horiz-adv-x="417" 
d="M226 251c-36 0 -60 -31 -65 -124c19 25 58 37 91 37c66 0 132 -39 132 -138c0 -117 -70 -163 -174 -163c-122 0 -170 65 -170 210c0 164 62 260 191 260c114 0 148 -54 143 -136l-111 -7c4 36 -4 61 -37 61zM213 86c-37 0 -57 -23 -57 -67s14 -75 55 -75
c48 0 56 42 56 76c0 44 -17 66 -54 66z" />
    <glyph glyph-name="seveninferior" unicode="&#x2087;" horiz-adv-x="337" 
d="M196 -130h-122c-1 159 51 274 123 363h-179v92h299v-63c-101 -126 -116 -239 -121 -392z" />
    <glyph glyph-name="eightinferior" unicode="&#x2088;" horiz-adv-x="429" 
d="M210 -137c-129 0 -177 55 -177 130c0 61 29 106 98 125c-55 15 -77 52 -77 97c0 70 59 118 167 118c107 0 153 -48 153 -110c0 -50 -28 -87 -81 -103c71 -17 103 -60 103 -120c0 -78 -53 -137 -186 -137zM214 -56c44 0 64 27 64 68c0 42 -20 69 -62 69
c-40 0 -64 -24 -64 -72c0 -38 16 -65 62 -65zM213 155c35 0 42 30 42 53c0 27 -8 52 -40 52c-34 0 -42 -27 -42 -53c0 -29 9 -52 40 -52z" />
    <glyph glyph-name="nineinferior" unicode="&#x2089;" horiz-adv-x="417" 
d="M202 -55c38 0 62 42 63 124c-19 -25 -58 -37 -91 -37c-65 0 -134 38 -134 138c0 111 72 163 176 163c118 0 168 -65 168 -210c0 -164 -55 -260 -185 -260c-114 0 -155 54 -158 135l112 8c4 -40 13 -61 49 -61zM211 109c36 0 57 24 57 68s-14 74 -56 74
c-47 0 -56 -41 -56 -75c0 -44 17 -67 55 -67z" />
    <glyph glyph-name="zero.num" horiz-adv-x="481" 
d="M238 271c-134 0 -195 85 -195 232c0 152 79 238 205 238c129 0 190 -84 190 -230c0 -153 -67 -240 -200 -240zM241 362c51 0 75 34 75 147c0 102 -22 138 -71 138c-48 0 -79 -34 -79 -140c0 -102 21 -145 75 -145z" />
    <glyph glyph-name="one.num" horiz-adv-x="299" 
d="M42 574l-25 87c32 10 105 46 139 72h76v-455h-118v328c-15 -9 -45 -22 -72 -32z" />
    <glyph glyph-name="two.num" horiz-adv-x="411" 
d="M183 370h173v-92h-306c-3 31 -1 65 5 95c22 103 195 166 195 247c0 24 -16 39 -44 39c-40 0 -48 -34 -39 -79l-112 -7c-21 92 26 168 154 168c100 0 160 -44 160 -122c0 -132 -172 -171 -186 -249z" />
    <glyph glyph-name="three.num" horiz-adv-x="402" 
d="M142 465l-11 83c74 3 105 20 105 66c0 34 -17 45 -43 45c-33 0 -50 -14 -39 -79l-112 -7c-21 95 25 168 153 168c100 0 161 -40 161 -113c0 -66 -42 -96 -93 -111c67 -15 103 -54 103 -111c0 -90 -65 -135 -167 -135c-117 0 -161 46 -166 141l116 6c4 -46 17 -66 53 -66
c30 0 46 22 46 53c0 49 -37 63 -106 60z" />
    <glyph glyph-name="four.num" horiz-adv-x="395" 
d="M114 434h95v183h-3zM326 733v-299h49v-87h-49v-69h-117v69h-196v70l168 316h145z" />
    <glyph glyph-name="five.num" horiz-adv-x="402" 
d="M200 494c-23 0 -41 -13 -51 -33l-101 9l20 263h276v-92h-181l-11 -96c17 21 48 33 85 33c74 0 131 -44 131 -145c0 -102 -53 -162 -174 -162c-120 0 -152 63 -158 141l116 6c3 -53 24 -66 52 -66c29 0 46 24 46 71c0 58 -22 71 -50 71z" />
    <glyph glyph-name="six.num" horiz-adv-x="417" 
d="M226 659c-36 0 -60 -31 -65 -124c19 25 58 37 91 37c66 0 132 -39 132 -138c0 -117 -70 -163 -174 -163c-122 0 -170 65 -170 210c0 164 62 260 191 260c114 0 148 -54 143 -136l-111 -7c4 36 -4 61 -37 61zM213 494c-37 0 -57 -23 -57 -67s14 -75 55 -75
c48 0 56 42 56 76c0 44 -17 66 -54 66z" />
    <glyph glyph-name="seven.num" horiz-adv-x="337" 
d="M196 278h-122c-1 159 51 274 123 363h-179v92h299v-63c-101 -126 -116 -239 -121 -392z" />
    <glyph glyph-name="eight.num" horiz-adv-x="429" 
d="M210 271c-129 0 -177 55 -177 130c0 61 29 106 98 125c-55 15 -77 52 -77 97c0 70 59 118 167 118c107 0 153 -48 153 -110c0 -50 -28 -87 -81 -103c71 -17 103 -60 103 -120c0 -78 -53 -137 -186 -137zM214 352c44 0 64 27 64 68c0 42 -20 69 -62 69
c-40 0 -64 -24 -64 -72c0 -38 16 -65 62 -65zM213 563c35 0 42 30 42 53c0 27 -8 52 -40 52c-34 0 -42 -27 -42 -53c0 -29 9 -52 40 -52z" />
    <glyph glyph-name="nine.num" horiz-adv-x="417" 
d="M202 353c38 0 62 42 63 124c-19 -25 -58 -37 -91 -37c-65 0 -134 38 -134 138c0 111 72 163 176 163c118 0 168 -65 168 -210c0 -164 -55 -260 -185 -260c-114 0 -155 54 -158 135l112 8c4 -40 13 -61 49 -61zM211 517c36 0 57 24 57 68s-14 74 -56 74
c-47 0 -56 -41 -56 -75c0 -44 17 -67 55 -67z" />
    <glyph glyph-name="zero.denom" horiz-adv-x="481" 
d="M238 -7c-134 0 -195 85 -195 232c0 152 79 238 205 238c129 0 190 -84 190 -230c0 -153 -67 -240 -200 -240zM241 84c51 0 75 34 75 147c0 102 -22 138 -71 138c-48 0 -79 -34 -79 -140c0 -102 21 -145 75 -145z" />
    <glyph glyph-name="one.denom" horiz-adv-x="299" 
d="M42 296l-25 87c32 10 105 46 139 72h76v-455h-118v328c-15 -9 -45 -22 -72 -32z" />
    <glyph glyph-name="two.denom" horiz-adv-x="411" 
d="M183 92h173v-92h-306c-3 31 -1 65 5 95c22 103 195 166 195 247c0 24 -16 39 -44 39c-40 0 -48 -34 -39 -79l-112 -7c-21 92 26 168 154 168c100 0 160 -44 160 -122c0 -132 -172 -171 -186 -249z" />
    <glyph glyph-name="three.denom" horiz-adv-x="402" 
d="M142 187l-11 83c74 3 105 20 105 66c0 34 -17 45 -43 45c-33 0 -50 -14 -39 -79l-112 -7c-21 95 25 168 153 168c100 0 161 -40 161 -113c0 -66 -42 -96 -93 -111c67 -15 103 -54 103 -111c0 -90 -65 -135 -167 -135c-117 0 -161 46 -166 141l116 6c4 -46 17 -66 53 -66
c30 0 46 22 46 53c0 49 -37 63 -106 60z" />
    <glyph glyph-name="four.denom" horiz-adv-x="395" 
d="M114 156h95v183h-3zM326 455v-299h49v-87h-49v-69h-117v69h-196v70l168 316h145z" />
    <glyph glyph-name="five.denom" horiz-adv-x="402" 
d="M200 216c-23 0 -41 -13 -51 -33l-101 9l20 263h276v-92h-181l-11 -96c17 21 48 33 85 33c74 0 131 -44 131 -145c0 -102 -53 -162 -174 -162c-120 0 -152 63 -158 141l116 6c3 -53 24 -66 52 -66c29 0 46 24 46 71c0 58 -22 71 -50 71z" />
    <glyph glyph-name="six.denom" horiz-adv-x="417" 
d="M226 381c-36 0 -60 -31 -65 -124c19 25 58 37 91 37c66 0 132 -39 132 -138c0 -117 -70 -163 -174 -163c-122 0 -170 65 -170 210c0 164 62 260 191 260c114 0 148 -54 143 -136l-111 -7c4 36 -4 61 -37 61zM213 216c-37 0 -57 -23 -57 -67s14 -75 55 -75
c48 0 56 42 56 76c0 44 -17 66 -54 66z" />
    <glyph glyph-name="seven.denom" horiz-adv-x="337" 
d="M196 0h-122c-1 159 51 274 123 363h-179v92h299v-63c-101 -126 -116 -239 -121 -392z" />
    <glyph glyph-name="eight.denom" horiz-adv-x="429" 
d="M210 -7c-129 0 -177 55 -177 130c0 61 29 106 98 125c-55 15 -77 52 -77 97c0 70 59 118 167 118c107 0 153 -48 153 -110c0 -50 -28 -87 -81 -103c71 -17 103 -60 103 -120c0 -78 -53 -137 -186 -137zM214 74c44 0 64 27 64 68c0 42 -20 69 -62 69
c-40 0 -64 -24 -64 -72c0 -38 16 -65 62 -65zM213 285c35 0 42 30 42 53c0 27 -8 52 -40 52c-34 0 -42 -27 -42 -53c0 -29 9 -52 40 -52z" />
    <glyph glyph-name="nine.denom" horiz-adv-x="417" 
d="M202 75c38 0 62 42 63 124c-19 -25 -58 -37 -91 -37c-65 0 -134 38 -134 138c0 111 72 163 176 163c118 0 168 -65 168 -210c0 -164 -55 -260 -185 -260c-114 0 -155 54 -158 135l112 8c4 -40 13 -61 49 -61zM211 239c36 0 57 24 57 68s-14 74 -56 74
c-47 0 -56 -41 -56 -75c0 -44 17 -67 55 -67z" />
    <glyph glyph-name="onehalf" unicode="&#xbd;" horiz-adv-x="960" 
d="M869 92h-173c14 78 186 117 186 249c0 78 -60 122 -160 122c-128 0 -175 -76 -154 -168l112 7c-9 45 -1 79 39 79c28 0 44 -15 44 -39c0 -81 -173 -144 -195 -247c-6 -30 -8 -64 -5 -95h306v92zM68 575l-25 87c32 10 105 46 139 72h76v-455h-118v328
c-15 -9 -45 -22 -72 -32zM173 42l429 715l98 -56l-430 -717z" />
    <glyph glyph-name="onequarter" unicode="&#xbc;" horiz-adv-x="960" 
d="M609 156h95v183h-3zM821 455v-299h49v-87h-49v-69h-117v69h-196v70l168 316h145zM57 575l-25 87c32 10 105 46 139 72h76v-455h-118v328c-15 -9 -45 -22 -72 -32zM171 42l429 715l98 -56l-430 -717z" />
    <glyph glyph-name="threequarters" unicode="&#xbe;" horiz-adv-x="960" 
d="M655 156h95v183h-3zM867 455v-299h49v-87h-49v-69h-117v69h-196v70l168 316h145zM136 548l11 -83c69 3 106 -11 106 -60c0 -31 -16 -53 -46 -53c-36 0 -49 20 -53 66l-116 -6c5 -95 49 -141 166 -141c102 0 167 45 167 135c0 57 -36 96 -103 111c51 15 93 45 93 111
c0 73 -61 113 -161 113c-128 0 -174 -73 -153 -168l112 7c-11 65 6 79 39 79c26 0 43 -11 43 -45c0 -46 -31 -63 -105 -66zM231 42l429 715l98 -56l-430 -717z" />
    <glyph glyph-name="onethird" unicode="&#x2153;" horiz-adv-x="960" 
d="M664 270l11 -83c69 3 106 -11 106 -60c0 -31 -16 -53 -46 -53c-36 0 -49 20 -53 66l-116 -6c5 -95 49 -141 166 -141c102 0 167 45 167 135c0 57 -36 96 -103 111c51 15 93 45 93 111c0 73 -61 113 -161 113c-128 0 -174 -73 -153 -168l112 7c-11 65 6 79 39 79
c26 0 43 -11 43 -45c0 -46 -31 -63 -105 -66zM52 575l-25 87c32 10 105 46 139 72h76v-455h-118v328c-15 -9 -45 -22 -72 -32zM169 42l429 715l98 -56l-430 -717z" />
    <glyph glyph-name="twothirds" unicode="&#x2154;" horiz-adv-x="960" 
d="M704 270l11 -83c69 3 106 -11 106 -60c0 -31 -16 -53 -46 -53c-36 0 -49 20 -53 66l-116 -6c5 -95 49 -141 166 -141c102 0 167 45 167 135c0 57 -36 96 -103 111c51 15 93 45 93 111c0 73 -61 113 -161 113c-128 0 -174 -73 -153 -168l112 7c-11 65 6 79 39 79
c26 0 43 -11 43 -45c0 -46 -31 -63 -105 -66zM339 370h-173c14 78 186 117 186 249c0 78 -60 122 -160 122c-128 0 -175 -76 -154 -168l112 7c-9 45 -1 79 39 79c28 0 44 -15 44 -39c0 -81 -173 -144 -195 -247c-6 -30 -8 -64 -5 -95h306v92zM224 42l429 715l98 -56
l-430 -717z" />
    <glyph glyph-name="zero.slash" horiz-adv-x="580" 
d="M287 -12c-180 0 -263 137 -263 376c0 244 108 383 276 383c174 0 256 -136 256 -371c0 -247 -91 -388 -269 -388zM291 107c63 0 94 57 101 196h-204c7 -135 37 -196 103 -196zM295 623c-59 0 -98 -56 -107 -194h205c-6 137 -35 194 -98 194z" />
    <glyph glyph-name="zero.tf" horiz-adv-x="580" 
d="M287 -12c-180 0 -263 137 -263 376c0 244 108 383 276 383c174 0 256 -136 256 -371c0 -247 -91 -388 -269 -388zM291 107c73 0 103 76 103 266c0 178 -28 250 -99 250c-67 0 -108 -71 -108 -254c0 -181 28 -262 104 -262z" />
    <glyph glyph-name="one.tf" horiz-adv-x="580" 
d="M112 0v126h121v424c-23 -16 -72 -39 -116 -57l-33 125c52 19 155 74 205 116h102v-608h112v-126h-391z" />
    <glyph glyph-name="two.tf" horiz-adv-x="580" 
d="M236 132h270v-132h-446c0 14 -1 31 -1 50c0 32 2 66 7 90c32 176 297 269 297 410c0 52 -31 78 -77 78c-71 0 -84 -61 -69 -139l-150 -10c-31 146 38 268 224 268c145 0 232 -72 232 -197c0 -214 -272 -280 -287 -418z" />
    <glyph glyph-name="three.tf" horiz-adv-x="580" 
d="M207 311l-13 119c110 4 161 33 161 115c0 61 -33 83 -79 83c-60 0 -86 -32 -70 -139l-149 -10c-30 150 36 268 223 268c144 0 234 -64 234 -183c0 -105 -63 -156 -139 -179c101 -23 154 -90 154 -180c0 -142 -95 -217 -243 -217c-173 0 -236 80 -243 228l155 10
c6 -82 28 -119 92 -119c48 0 80 34 80 98c0 85 -56 112 -163 106z" />
    <glyph glyph-name="four.tf" horiz-adv-x="580" 
d="M169 248h152v302h-4zM477 734v-486h74v-133h-74v-115h-156v115h-295v108l260 511h191z" />
    <glyph glyph-name="five.tf" horiz-adv-x="580" 
d="M284 364c-40 0 -71 -27 -89 -61l-132 13l28 418h403v-132h-274l-22 -177c27 36 77 59 135 59c111 0 196 -74 196 -236c0 -160 -78 -260 -252 -260c-176 0 -223 103 -232 228l154 10c7 -95 42 -119 88 -119c60 0 83 55 83 127c0 102 -37 130 -86 130z" />
    <glyph glyph-name="six.tf" horiz-adv-x="580" 
d="M316 628c-66 0 -104 -58 -112 -223c33 46 93 66 144 66c99 0 197 -65 197 -225c0 -178 -99 -258 -252 -258c-180 0 -250 102 -250 340c0 266 91 419 280 419c166 0 214 -91 206 -217l-147 -10c5 65 -10 108 -66 108zM295 359c-59 0 -96 -41 -96 -118s24 -134 95 -134
c77 0 95 69 95 131c0 79 -29 121 -94 121z" />
    <glyph glyph-name="seven.tf" horiz-adv-x="580" 
d="M331 0h-163c2 260 79 449 190 602h-290v132h452v-91c-153 -207 -180 -395 -189 -643z" />
    <glyph glyph-name="eight.tf" horiz-adv-x="580" 
d="M283 -12c-187 0 -257 90 -257 211c0 98 43 168 143 200c-78 25 -113 84 -113 159c0 113 88 189 243 189s224 -77 224 -178c0 -80 -42 -140 -119 -167c104 -27 150 -96 150 -192c0 -127 -78 -222 -271 -222zM288 107c74 0 109 47 109 119c0 69 -33 119 -105 119
c-69 0 -108 -44 -108 -124c0 -66 27 -114 104 -114zM288 453c60 0 76 51 76 95c0 49 -16 92 -74 92c-59 0 -75 -45 -75 -93c0 -52 17 -94 73 -94z" />
    <glyph glyph-name="nine.tf" horiz-adv-x="580" 
d="M268 108c68 0 104 76 108 222c-32 -46 -92 -66 -142 -66c-100 0 -201 64 -201 223c0 172 102 260 255 260c171 0 246 -101 246 -336c0 -269 -80 -423 -270 -423c-166 0 -225 90 -229 217l150 11c5 -74 24 -108 83 -108zM282 376c59 0 97 41 97 120c0 77 -24 132 -96 132
c-77 0 -95 -69 -95 -131c0 -79 29 -121 94 -121z" />
    <glyph glyph-name="dollar.tf" horiz-adv-x="580" 
d="M529 528l-142 -29c-11 72 -46 106 -104 106c-56 0 -90 -23 -90 -71c0 -146 348 -34 348 -295c0 -122 -75 -195 -177 -220v-85h-148v79c-120 16 -185 85 -202 214l150 21c10 -69 37 -116 123 -116c64 0 99 27 99 78c0 154 -354 31 -354 305c0 111 75 184 184 205v77h148
v-78c93 -21 149 -84 165 -191z" />
    <glyph glyph-name="Euro.tf" horiz-adv-x="580" 
d="M327 116c62 0 84 40 93 114l139 -11c-21 -164 -110 -231 -237 -231c-129 0 -223 86 -248 239h-76l15 98h49c-1 9 0 23 0 32v30h-46l15 99h40c33 178 138 261 269 261c146 0 222 -96 224 -247l-142 -12c-5 106 -34 132 -87 132c-48 0 -93 -32 -110 -134h150l-15 -99h-143
v-26v-36h140l-15 -98h-114c12 -69 43 -111 99 -111z" />
    <glyph glyph-name="cent.tf" horiz-adv-x="580" 
d="M521 417l-139 -12c-5 76 -41 101 -83 101c-53 0 -96 -36 -96 -155c0 -115 33 -159 95 -159c44 0 73 20 84 88l137 -9c-14 -111 -77 -164 -153 -183v-89h-148v89c-124 27 -176 127 -176 257c0 140 65 233 176 263v88h148v-84c102 -22 151 -100 155 -195z" />
    <glyph glyph-name="sterling.tf" horiz-adv-x="580" 
d="M39 313v112h71c-16 31 -29 66 -29 113c0 113 74 209 242 209c128 0 228 -60 228 -207c0 -15 -1 -32 -3 -49l-150 8c2 15 3 29 3 41c0 73 -34 89 -78 89c-50 0 -84 -33 -84 -87c0 -48 21 -82 44 -117h172v-112h-125c1 -6 1 -11 1 -17c0 -57 -41 -111 -103 -164h308v-132
h-459v132c72 51 101 104 101 147c0 12 -2 23 -6 34h-133z" />
    <glyph glyph-name="yen.tf" horiz-adv-x="580" 
d="M487 324h-114v-72h114v-105h-114v-147h-160v147h-127v105h127v72h-127v105h79l-175 305h178l125 -269l130 269h167l-172 -305h69v-105z" />
    <glyph glyph-name="florin.tf" horiz-adv-x="580" 
d="M95 350l19 108h91l16 92c25 139 91 197 210 197c56 0 98 -13 120 -23l-33 -104c-20 6 -44 10 -61 10c-46 0 -70 -26 -82 -94l-14 -78h115l-19 -108h-115l-51 -298c-23 -135 -92 -192 -218 -192c-53 0 -92 12 -109 18l31 108c19 -6 43 -9 61 -9c45 0 70 26 81 92l49 281
h-91z" />
    <glyph glyph-name="comma.tf" horiz-adv-x="288" 
d="M64 0v140h162v-115l-80 -170l-61 18l27 127h-48z" />
    <glyph glyph-name="period.tf" horiz-adv-x="290" 
d="M65 0v140h160v-140h-160z" />
    <glyph glyph-name="perthousand.tf" horiz-adv-x="580" 
d="M14 404h549v-80h-549v80zM145 -10c-90 0 -131 57 -131 152c0 94 53 155 138 155c87 0 127 -55 127 -151c0 -98 -44 -156 -134 -156zM431 -10c-92 0 -132 57 -132 152c0 94 53 155 139 155s127 -56 127 -151c0 -98 -45 -156 -134 -156zM432 58c31 0 45 28 45 88
c0 56 -13 81 -43 81c-28 0 -45 -22 -45 -83c0 -56 12 -86 43 -86zM145 432c-90 0 -131 56 -131 152c0 94 52 155 138 155c88 0 127 -57 127 -151c0 -97 -44 -156 -134 -156zM147 58c29 0 43 27 43 88c0 55 -11 81 -41 81c-28 0 -45 -22 -45 -83c0 -55 12 -86 43 -86z
M146 501c30 0 44 27 44 87c0 57 -13 82 -42 82c-26 0 -45 -20 -45 -84c0 -55 12 -85 43 -85z" />
    <glyph glyph-name="percent.tf" horiz-adv-x="580" 
d="M54 404h469v-80h-469v80zM283 -10c-91 0 -131 57 -131 152c0 94 52 155 138 155s127 -56 127 -151c0 -98 -44 -156 -134 -156zM284 58c32 0 45 28 45 88c0 56 -13 81 -42 81c-28 0 -45 -22 -45 -83c0 -56 11 -86 42 -86zM284 432c-90 0 -131 56 -131 152
c0 94 52 155 138 155c87 0 127 -57 127 -151c0 -97 -44 -156 -134 -156zM285 501c30 0 44 27 44 87c0 57 -13 82 -42 82c-26 0 -45 -20 -45 -84c0 -55 12 -85 43 -85z" />
    <glyph glyph-name="minus" unicode="&#x2212;" horiz-adv-x="580" 
d="M482 295h-385v100h385v-100z" />
    <glyph glyph-name="approxequal" unicode="&#x2248;" horiz-adv-x="580" 
d="M161 135l-75 26c14 86 63 128 122 128c29 0 63 -11 93 -22c26 -10 49 -20 69 -20c25 0 39 17 47 46l75 -25c-15 -68 -54 -125 -114 -125c-27 0 -55 7 -96 22c-36 13 -57 19 -70 19c-21 0 -41 -10 -51 -49zM162 313l-75 26c14 86 63 128 122 128c29 0 63 -11 93 -22
c26 -10 49 -20 69 -20c25 0 39 17 47 46l75 -25c-15 -68 -54 -125 -114 -125c-27 0 -55 7 -96 22c-36 13 -57 19 -70 19c-21 0 -41 -10 -51 -49z" />
    <glyph glyph-name="notequal" unicode="&#x2260;" horiz-adv-x="580" 
d="M482 175h-217l-38 -75h-91l39 75h-78v100h129l34 65h-163v100h214l35 70h88l-35 -70h83v-100h-134l-33 -65h167v-100z" />
    <glyph glyph-name="lessequal" unicode="&#x2264;" horiz-adv-x="580" 
d="M482 0h-385v100h385v-100zM482 120l-385 141v124l385 154v-122l-272 -91l272 -85v-121z" />
    <glyph glyph-name="greaterequal" unicode="&#x2265;" horiz-adv-x="580" 
d="M482 0h-385v100h385v-100zM97 539l385 -141v-124l-385 -154v122l272 91l-272 85v121z" />
    <glyph glyph-name="less" unicode="&#x3c;" horiz-adv-x="580" 
d="M482 81l-385 141v124l385 154v-122l-272 -91l272 -85v-121z" />
    <glyph glyph-name="equal" unicode="=" horiz-adv-x="580" 
d="M482 175h-385v100h385v-100zM482 340h-385v100h385v-100z" />
    <glyph glyph-name="greater" unicode="&#x3e;" horiz-adv-x="580" 
d="M97 500l385 -141v-124l-385 -154v122l272 91l-272 85v121z" />
    <glyph glyph-name="logicalnot" unicode="&#xac;" horiz-adv-x="580" 
d="M482 168h-107v127h-278v100h385v-227z" />
    <glyph glyph-name="plus" unicode="+" horiz-adv-x="580" 
d="M482 295h-143v-143h-100v143h-142v100h142v142h100v-142h143v-100z" />
    <glyph glyph-name="plusminus" unicode="&#xb1;" horiz-adv-x="580" 
d="M482 295h-143v-143h-100v143h-142v100h142v142h100v-142h143v-100zM482 0h-385v100h385v-100z" />
    <glyph glyph-name="divide" unicode="&#xf7;" horiz-adv-x="580" 
d="M482 295h-385v100h385v-100zM221 432v120h135v-120h-135zM221 134v120h135v-120h-135z" />
    <glyph glyph-name="multiply" unicode="&#xd7;" 
d="M421 446l-102 -101l102 -101l-71 -70l-101 101l-101 -101l-70 70l101 101l-101 101l70 70l101 -101l101 101z" />
    <glyph glyph-name="partialdiff" unicode="&#x2202;" horiz-adv-x="595" 
d="M404 403c3 101 -7 222 -117 222c-54 0 -107 -19 -144 -39l-38 91c52 31 139 57 198 57c186 0 239 -153 239 -308c0 -195 -41 -438 -276 -438c-170 0 -219 121 -219 234c0 130 59 255 219 255c68 0 112 -32 138 -74zM387 257c0 72 -31 119 -96 119
c-72 0 -105 -60 -105 -153c0 -71 24 -125 91 -125c72 0 110 64 110 159z" />
    <glyph glyph-name="Omega" unicode="&#x2126;" horiz-adv-x="827" 
d="M579 139v-17h152v-122h-272v138c70 30 112 87 112 259s-68 220 -153 220c-77 0 -162 -45 -162 -227c0 -152 36 -217 105 -252v-138h-269v122h154v15c-115 40 -171 130 -171 271c0 191 124 339 345 339c235 0 332 -149 332 -326c0 -140 -66 -232 -173 -282z" />
    <glyph glyph-name="Delta" unicode="&#x2206;" horiz-adv-x="719" 
d="M705 0h-690l247 734h190zM354 589l-143 -459h288l-143 459h-2z" />
    <glyph glyph-name="product" unicode="&#x220f;" horiz-adv-x="752" 
d="M654 734v-895h-162v771h-232v-771h-162v895h556z" />
    <glyph glyph-name="summation" unicode="&#x2211;" horiz-adv-x="627" 
d="M431 279l-226 -323h378v-132h-551v130l225 327l-203 325v128h527v-131h-351z" />
    <glyph glyph-name="uni0394" unicode="&#x394;" horiz-adv-x="719" 
d="M705 0h-690l247 734h190zM354 589l-143 -459h288l-143 459h-2z" />
    <glyph glyph-name="uni03A9" unicode="&#x3a9;" horiz-adv-x="827" 
d="M579 139v-17h152v-122h-272v138c70 30 112 87 112 259s-68 220 -153 220c-77 0 -162 -45 -162 -227c0 -152 36 -217 105 -252v-138h-269v122h154v15c-115 40 -171 130 -171 271c0 191 124 339 345 339c235 0 332 -149 332 -326c0 -140 -66 -232 -173 -282z" />
    <glyph glyph-name="uni03BC" unicode="&#x3bc;" horiz-adv-x="629" 
d="M79 -176v691h154v-301c0 -59 2 -109 64 -109c85 0 100 93 100 167v243h154v-515h-131l-20 95c-36 -56 -97 -95 -159 -95c-10 0 -16 1 -21 2l-3 -3l23 -175h-161z" />
    <glyph glyph-name="pi" unicode="&#x3c0;" horiz-adv-x="662" 
d="M580 515v-515h-156v402h-185v-402h-157v515h498z" />
    <glyph glyph-name="mu" unicode="&#xb5;" horiz-adv-x="629" 
d="M79 -176v691h154v-301c0 -59 2 -109 64 -109c85 0 100 93 100 167v243h154v-515h-131l-20 95c-36 -56 -97 -95 -159 -95c-10 0 -16 1 -21 2l-3 -3l23 -175h-161z" />
    <glyph glyph-name="radical" unicode="&#x221a;" horiz-adv-x="606" 
d="M394 0h-127l-130 251l-75 -32l-39 93l182 77l117 -246l157 611l110 -23z" />
    <glyph glyph-name="infinity" unicode="&#x221e;" horiz-adv-x="679" 
d="M488 180c-72 0 -115 45 -147 81c-33 -34 -80 -82 -154 -82c-68 0 -137 43 -137 134c0 81 58 140 150 140c66 0 109 -41 146 -81c35 37 81 81 148 81c69 0 135 -42 135 -140c0 -75 -64 -133 -141 -133zM194 253c42 0 78 41 101 66c-28 32 -58 60 -98 60
c-34 0 -56 -29 -56 -60s15 -66 53 -66zM393 315c27 -32 52 -61 91 -61c33 0 54 30 54 63c0 30 -12 63 -51 63c-36 0 -64 -31 -94 -65z" />
    <glyph glyph-name="integral" unicode="&#x222b;" horiz-adv-x="411" 
d="M385 729l-4 -109c-22 6 -47 10 -64 10c-46 0 -57 -26 -49 -94l63 -511c16 -131 -37 -207 -163 -207c-53 0 -95 12 -115 18v108c21 -6 45 -9 63 -9c45 0 57 25 49 92l-63 506c-16 132 35 214 163 214c52 0 102 -12 120 -18z" />
    <glyph glyph-name="lozenge" unicode="&#x25ca;" horiz-adv-x="573" 
d="M344 46h-115l-175 324l175 324h115l175 -324zM287 141l117 229l-117 227l-117 -227z" />
    <glyph glyph-name="commaaccent" 
d="M186 -161v119h126v-96l-50 -126l-60 14l21 89h-37z" />
    <glyph glyph-name="revcommaaccent" 
d="M314 692v-118h-127v96l50 126l60 -14l-21 -90h38z" />
    <glyph glyph-name="tilde.cap" 
d="M149 777l-60 10c15 75 47 119 97 119c55 0 93 -28 129 -28c15 0 29 7 36 39l59 -10c-15 -83 -51 -122 -96 -122c-57 0 -97 29 -131 29c-16 0 -28 -11 -34 -37z" />
    <glyph glyph-name="ring.cap" 
d="M248 760c-83 0 -107 43 -107 98c0 57 43 98 111 98c78 0 113 -40 113 -95c0 -58 -36 -101 -117 -101zM250 816c17 0 28 10 28 43s-12 42 -27 42c-17 0 -31 -10 -31 -43s11 -42 30 -42z" />
    <glyph glyph-name="circumflex.cap" 
d="M210 924h82l118 -115l-42 -52l-118 71l-116 -71l-42 52z" />
    <glyph glyph-name="acute.cap" 
d="M316 941l55 -101l-180 -80l-42 69z" />
    <glyph glyph-name="grave.cap" 
d="M125 840l58 101l166 -112l-44 -69z" />
    <glyph glyph-name="dieresis.cap" 
d="M281 778v118h116v-118h-116zM103 778v118h116v-118h-116z" />
    <glyph glyph-name="caron.cap" 
d="M290 768h-82l-118 114l43 53l117 -70l116 70l43 -53z" />
    <glyph glyph-name="macron.cap" 
d="M109 790v97h282v-97h-282z" />
    <glyph glyph-name="dotaccent.cap" 
d="M171 782v127h158v-127h-158z" />
    <glyph glyph-name="cedilla.cap" 
d="M193 -87l38 87h64l-23 -45c10 4 16 6 29 6c53 0 86 -38 86 -90c0 -55 -42 -101 -117 -101c-43 0 -79 9 -120 45l42 52c20 -16 44 -26 61 -26c23 0 34 13 34 34c0 22 -11 31 -30 31c-11 0 -20 -4 -28 -9z" />
    <glyph glyph-name="hungarumlaut.cap" 
d="M448 932l58 -79l-171 -92l-40 54zM251 945l66 -79l-156 -102l-43 51z" />
    <glyph glyph-name="apostrophe" unicode="&#x2bc;" 
d="M312 738v-118h-37l21 -90l-60 -14l-50 127v95h126z" />
    <glyph glyph-name="commaaccent.cap" 
d="M186 -161v119h126v-96l-50 -126l-60 14l21 89h-37z" />
    <glyph glyph-name="breve.cap" 
d="M94 912l74 15c17 -50 41 -70 83 -70c45 0 70 16 92 70l71 -15c-21 -103 -71 -149 -164 -149c-85 0 -139 42 -156 149z" />
    <glyph glyph-name="caron.alt" 
d="M202 734h113l-36 -198l-72 3z" />
    <glyph glyph-name="thinspace" unicode="&#x2009;" horiz-adv-x="125" 
 />
    </font>
</defs>
</svg>
