<?xml version="1.0" standalone="no"?>
<!DOCTYPE svg PUBLIC "-//W3C//DTD SVG 1.1//EN" "http://www.w3.org/Graphics/SVG/1.1/DTD/svg11.dtd" >
<svg xmlns="http://www.w3.org/2000/svg" xmlns:xlink="http://www.w3.org/1999/xlink" version="1.1">
<metadata>
Created by FontForge 20201107 at Wed Jan 23 17:12:37 2013
 By Jimmy Wärting
Copyright (c) 2012 by TypeTogether. All rights reserved.
</metadata>
<defs>
<font id="TabletGothic" horiz-adv-x="500" >
  <font-face 
    font-family="Tablet Gothic"
    font-weight="400"
    font-stretch="normal"
    units-per-em="1000"
    panose-1="2 0 5 3 0 0 0 2 0 4"
    ascent="755"
    descent="-245"
    x-height="512"
    cap-height="734"
    bbox="-158 -243 995 1056"
    underline-thickness="50"
    underline-position="-100"
    stemh="72"
    stemv="94"
    unicode-range="U+0020-FB04"
  />
<missing-glyph horiz-adv-x="196" 
 />
    <glyph glyph-name="ij" unicode="ij" horiz-adv-x="462" 
d="M69 627v107h93v-107h-93zM69 0v512h93v-512h-93zM303 627v107h92v-107h-92zM165 -184l10 67c21 -5 38 -8 59 -8c51 0 69 34 69 110v527h92v-516c0 -128 -43 -191 -155 -191c-27 0 -56 5 -75 11z" />
    <glyph glyph-name="ff" unicode="ff" horiz-adv-x="617" 
d="M24 442v70h62v38c0 119 37 192 160 192c32 0 65 -7 83 -12l-10 -70c-20 6 -40 11 -66 11c-57 0 -75 -39 -75 -111v-48h212v42c0 119 37 192 160 192c34 0 67 -7 84 -12l-9 -70c-20 6 -42 11 -68 11c-57 0 -75 -38 -75 -111v-52h122v-70h-122v-442h-92v442h-212v-442h-92
v442h-62z" />
    <glyph glyph-name="fi" unicode="fi" horiz-adv-x="552" 
d="M318 735v-71c-18 6 -39 10 -65 10c-57 0 -75 -37 -75 -108v-54h305v-512h-92v442h-213v-442h-92v442h-62v70h62v42c0 119 36 192 159 192c30 0 56 -6 73 -11zM391 627v107h92v-107h-92z" />
    <glyph glyph-name="fl" unicode="fl" horiz-adv-x="552" 
d="M318 735v-71c-18 6 -39 10 -65 10c-57 0 -75 -37 -75 -108v-54h120v-70h-120v-442h-92v442h-62v70h62v42c0 119 36 192 159 192c30 0 56 -6 73 -11zM483 734v-734h-92v734h92z" />
    <glyph glyph-name="ffi" unicode="ffi" horiz-adv-x="856" 
d="M622 735v-71c-18 6 -39 10 -65 10c-57 0 -75 -37 -75 -108v-54h305v-512h-92v442h-213v-442h-92v442h-212v-442h-92v442h-62v70h62v37c0 119 37 192 160 192c32 0 65 -7 83 -12l-10 -70c-20 6 -40 11 -66 11c-57 0 -75 -38 -75 -111v-47h212v42c0 119 36 192 159 192
c30 0 56 -6 73 -11zM695 627v107h92v-107h-92z" />
    <glyph glyph-name="ffl" unicode="ffl" horiz-adv-x="856" 
d="M622 735v-71c-18 6 -39 10 -65 10c-57 0 -75 -37 -75 -108v-54h120v-70h-120v-442h-92v442h-212v-442h-92v442h-62v70h62v37c0 119 37 192 160 192c32 0 65 -7 83 -12l-10 -70c-20 6 -40 11 -66 11c-57 0 -75 -38 -75 -111v-47h212v42c0 119 36 192 159 192
c30 0 56 -6 73 -11zM787 734v-734h-92v734h92z" />
    <glyph glyph-name="t_t" unicode="tt" horiz-adv-x="633" 
d="M178 443v-276c0 -74 14 -108 71 -108c26 0 43 4 63 10l9 -67c-19 -8 -53 -14 -92 -14c-110 0 -143 63 -143 170v285h-62v69h62v111l92 29v-140h208v111l91 29v-140h122v-69h-122v-276c0 -74 16 -108 73 -108c26 0 44 4 64 10l9 -67c-19 -7 -53 -14 -93 -14
c-112 0 -144 63 -144 170v285h-208z" />
    <glyph glyph-name=".notdef" horiz-adv-x="196" 
 />
    <glyph glyph-name="space" unicode=" " horiz-adv-x="196" 
 />
    <glyph glyph-name="quotesingle" unicode="'" horiz-adv-x="218" 
d="M70 734h78l-9 -214h-62z" />
    <glyph glyph-name="quotedbl" unicode="&#x22;" horiz-adv-x="350" 
d="M202 734h78l-9 -214h-62zM70 734h78l-9 -214h-62z" />
    <glyph glyph-name="numbersign" unicode="#" horiz-adv-x="654" 
d="M436 0h-81l21 138h-141l-21 -138h-79l20 138h-105l11 67h104l23 157h-109l11 68h108l19 125h79l-18 -125h141l18 125h81l-19 -125h105l-11 -68h-104l-23 -157h111l-11 -67h-110zM386 205l23 157h-141l-23 -157h141z" />
    <glyph glyph-name="ampersand" unicode="&#x26;" horiz-adv-x="710" 
d="M460 145l-201 216c-66 -42 -114 -93 -114 -169c0 -87 66 -124 141 -124c70 0 125 29 174 77zM490 533l-87 12c5 13 7 33 7 46c0 50 -34 80 -92 80c-59 0 -87 -31 -87 -84c0 -43 25 -89 72 -140l212 -231c33 59 48 125 51 207l86 -11c-8 -102 -26 -179 -75 -262l97 -104
l-67 -58l-92 97c-72 -65 -155 -97 -241 -97c-158 0 -228 82 -228 188c0 103 53 175 163 240c-52 58 -73 112 -73 164c0 91 63 166 187 166c109 0 177 -58 177 -148c0 -23 -4 -46 -10 -65z" />
    <glyph glyph-name="asterisk" unicode="*" horiz-adv-x="389" 
d="M158 734h72l-18 -131l121 57l22 -69l-131 -20l91 -99l-58 -42l-63 113l-64 -113l-58 42l90 98l-128 22l22 68l119 -57z" />
    <glyph glyph-name="comma" unicode="," horiz-adv-x="202" 
d="M57 0v118h105v-102l-58 -147l-45 13l28 118h-30z" />
    <glyph glyph-name="hyphen" unicode="-" horiz-adv-x="342" 
d="M307 245h-271v76h271v-76z" />
    <glyph glyph-name="period" unicode="." horiz-adv-x="226" 
d="M64 0v118h98v-118h-98z" />
    <glyph glyph-name="colon" unicode=":" horiz-adv-x="226" 
d="M64 0v118h98v-118h-98zM64 398v118h98v-118h-98z" />
    <glyph glyph-name="semicolon" unicode=";" horiz-adv-x="202" 
d="M63 398v118h99v-118h-99zM57 0v118h105v-102l-58 -147l-45 13l28 118h-30z" />
    <glyph glyph-name="question" unicode="?" horiz-adv-x="515" 
d="M359 523c0 106 -48 146 -117 146c-83 0 -107 -59 -110 -146l-89 6c2 113 50 218 202 218c136 0 212 -84 212 -221c0 -153 -82 -221 -189 -240l-6 -94h-87l-5 157c143 4 189 62 189 174zM166 0v118h99v-118h-99z" />
    <glyph glyph-name="exclam" unicode="!" horiz-adv-x="293" 
d="M191 205h-89l-7 529h104zM98 0v118h99v-118h-99z" />
    <glyph glyph-name="exclamdown" unicode="&#xa1;" horiz-adv-x="293" 
d="M102 318h89l8 -529h-104zM98 405v118h99v-118h-99z" />
    <glyph glyph-name="questiondown" unicode="&#xbf;" horiz-adv-x="515" 
d="M156 0c0 112 46 170 189 174l-5 157h-87l-6 -94c-107 -19 -189 -87 -189 -240c0 -137 76 -221 212 -221c152 0 200 105 202 218l-89 6c-3 -87 -27 -146 -110 -146c-69 0 -117 40 -117 146zM349 523v-118h-99v118h99z" />
    <glyph glyph-name="at" unicode="@" horiz-adv-x="833" 
d="M633 -36l40 -49c-59 -59 -155 -85 -255 -85c-217 0 -370 118 -370 357c0 228 156 381 386 381c198 0 351 -104 351 -318c0 -175 -74 -252 -176 -252c-57 0 -91 23 -110 57c-26 -35 -70 -63 -132 -63c-96 0 -137 66 -137 158c0 118 56 247 190 247c48 0 78 -23 95 -51
l12 45h66l-29 -245c-7 -57 3 -93 57 -93c53 0 92 55 92 182c0 192 -106 271 -286 271c-189 0 -304 -133 -304 -318c0 -208 127 -294 302 -294c90 0 163 27 208 70zM490 148l14 112c7 58 -32 81 -76 81c-90 0 -121 -98 -121 -190c0 -61 20 -100 78 -100c48 0 97 31 105 97z
" />
    <glyph glyph-name="at.case" horiz-adv-x="833" 
d="M633 123l40 -49c-59 -59 -155 -85 -255 -85c-217 0 -370 118 -370 357c0 228 156 381 386 381c198 0 351 -104 351 -318c0 -175 -74 -252 -176 -252c-57 0 -91 23 -110 57c-26 -35 -70 -63 -132 -63c-96 0 -137 66 -137 158c0 118 56 247 190 247c48 0 78 -23 95 -51
l12 45h66l-29 -245c-7 -57 3 -93 57 -93c53 0 92 55 92 182c0 192 -106 271 -286 271c-189 0 -304 -133 -304 -318c0 -208 127 -294 302 -294c90 0 163 27 208 70zM490 307l14 112c7 58 -32 81 -76 81c-90 0 -121 -98 -121 -190c0 -61 20 -100 78 -100c48 0 97 31 105 97z
" />
    <glyph glyph-name="A" unicode="A" horiz-adv-x="640" 
d="M254 734h129l253 -734h-101l-69 201h-296l-68 -201h-98zM441 278l-124 367h-1l-123 -367h248z" />
    <glyph glyph-name="B" unicode="B" horiz-adv-x="622" 
d="M309 0h-218v734h239c171 0 222 -73 222 -178c0 -101 -70 -157 -148 -173v-2c122 -11 173 -77 173 -176c0 -148 -107 -205 -268 -205zM189 78h107c104 0 180 23 180 131c0 92 -59 128 -158 128h-129v-259zM189 413h85c79 0 177 26 177 137c0 77 -43 106 -144 106h-118
v-243z" />
    <glyph glyph-name="C" unicode="C" horiz-adv-x="640" 
d="M340 69c97 0 151 69 159 179l93 -8c-13 -179 -114 -252 -257 -252c-186 0 -282 123 -282 372c0 261 126 386 305 386c152 0 242 -104 237 -265l-93 -8c0 144 -66 192 -153 192c-105 0 -191 -84 -191 -302c0 -199 58 -294 182 -294z" />
    <glyph glyph-name="D" unicode="D" horiz-adv-x="655" 
d="M219 0h-129v734h130c287 0 382 -111 382 -363c0 -260 -101 -371 -383 -371zM188 79h45c193 0 269 76 269 292c0 195 -64 284 -263 284h-51v-576z" />
    <glyph glyph-name="E" unicode="E" horiz-adv-x="557" 
d="M454 416v-78h-266v-259h323v-79h-421v734h398v-79h-300v-239h266z" />
    <glyph glyph-name="F" unicode="F" horiz-adv-x="523" 
d="M448 405v-78h-260v-327h-98v734h396v-79h-298v-250h260z" />
    <glyph glyph-name="G" unicode="G" horiz-adv-x="678" 
d="M347 285v78h250v-375h-72l-8 100c-40 -68 -107 -100 -188 -100c-176 0 -276 123 -276 361c0 274 125 397 305 397c151 0 238 -99 235 -265l-93 -8c-1 145 -68 192 -151 192c-105 0 -189 -83 -189 -305c0 -198 62 -292 181 -292c94 0 164 68 168 187v30h-162z" />
    <glyph glyph-name="H" unicode="H" horiz-adv-x="697" 
d="M607 734v-734h-99v326h-319v-326h-98v734h98v-326h319v326h99z" />
    <glyph glyph-name="I" unicode="I" horiz-adv-x="364" 
d="M229 663v-592h79v-71h-251v71h76v592h-76v71h251v-71h-79z" />
    <glyph glyph-name="J" unicode="J" horiz-adv-x="532" 
d="M30 211l92 9c5 -71 14 -149 117 -149c80 0 110 46 110 145v518h98v-529c0 -131 -65 -217 -210 -217c-139 0 -204 76 -207 223z" />
    <glyph glyph-name="K" unicode="K" horiz-adv-x="624" 
d="M189 734v-358l301 358h109l-262 -308l280 -426h-112l-232 349l-84 -99v-250h-98v734h98z" />
    <glyph glyph-name="L" unicode="L" horiz-adv-x="514" 
d="M189 734v-655h289v-79h-387v734h98z" />
    <glyph glyph-name="M" unicode="M" horiz-adv-x="859" 
d="M477 0h-94l-198 619h-3v-619h-91v734h147l193 -629h3l192 629h142v-734h-92v619h-2z" />
    <glyph glyph-name="N" unicode="N" horiz-adv-x="702" 
d="M611 0h-113l-317 608v-608h-90v734h125l306 -602v602h89v-734z" />
    <glyph glyph-name="O" unicode="O" horiz-adv-x="685" 
d="M339 -12c-194 0 -286 136 -286 377c0 243 115 382 305 382c187 0 274 -136 274 -368c0 -250 -96 -391 -293 -391zM345 68c133 0 187 112 187 305c0 185 -51 292 -179 292c-131 0 -199 -110 -199 -296c0 -189 54 -301 191 -301z" />
    <glyph glyph-name="P" unicode="P" horiz-adv-x="604" 
d="M189 279v-279h-98v734h235c185 0 237 -94 237 -210c0 -104 -39 -245 -272 -245h-102zM189 356h95c123 0 177 54 177 163c0 93 -43 137 -156 137h-116v-300z" />
    <glyph glyph-name="Q" unicode="Q" horiz-adv-x="685" 
d="M339 -12c-194 0 -286 136 -286 377c0 243 115 382 305 382c187 0 274 -136 274 -368c0 -177 -48 -299 -146 -356l77 -144l-71 -34l-99 147c-17 -2 -35 -4 -54 -4zM345 68c133 0 187 112 187 305c0 185 -51 292 -179 292c-131 0 -199 -110 -199 -296
c0 -189 54 -301 191 -301z" />
    <glyph glyph-name="R" unicode="R" horiz-adv-x="615" 
d="M470 0l-160 317h-19h-102v-317h-98v734h235c181 0 237 -88 237 -196c0 -84 -25 -175 -155 -208l169 -330h-107zM189 394h96c122 0 176 32 176 139c0 87 -49 123 -156 123h-116v-262z" />
    <glyph glyph-name="S" unicode="S" horiz-adv-x="582" 
d="M532 526l-94 -14c-9 101 -54 155 -147 155c-86 0 -133 -42 -133 -118c0 -80 60 -105 133 -123c109 -29 248 -48 248 -216c0 -136 -100 -222 -248 -222c-160 0 -246 65 -261 227l98 15c11 -101 43 -160 165 -160c100 0 146 53 146 129c0 89 -70 114 -148 133
c-108 26 -235 49 -235 209c0 129 99 207 238 207c148 0 226 -85 238 -222z" />
    <glyph glyph-name="T" unicode="T" horiz-adv-x="546" 
d="M224 0v655h-209v79h516v-79h-209v-655h-98z" />
    <glyph glyph-name="U" unicode="U" horiz-adv-x="703" 
d="M521 278v456h97v-477c0 -172 -93 -269 -271 -269c-189 0 -262 103 -262 271v475h97v-455c0 -143 50 -210 170 -210c117 0 169 63 169 209z" />
    <glyph glyph-name="V" unicode="V" horiz-adv-x="618" 
d="M520 734h98l-245 -734h-125l-248 734h101l211 -648z" />
    <glyph glyph-name="W" unicode="W" horiz-adv-x="925" 
d="M736 0h-125l-148 599h-5l-141 -599h-127l-179 734h102l139 -646h4l154 646h102l161 -646h3l140 646h98z" />
    <glyph glyph-name="X" unicode="X" horiz-adv-x="601" 
d="M114 0h-106l220 379l-212 355h110l168 -293h1l172 293h101l-213 -355l239 -379h-110l-194 306h-1z" />
    <glyph glyph-name="Y" unicode="Y" horiz-adv-x="570" 
d="M334 283v-283h-97v278l-240 456h110l178 -359l186 359h103z" />
    <glyph glyph-name="Z" unicode="Z" horiz-adv-x="550" 
d="M43 655v79h469v-74l-370 -581h370v-79h-480v74l368 581h-357z" />
    <glyph glyph-name="a" unicode="a" horiz-adv-x="543" 
d="M510 59l1 -58c-104 -22 -129 14 -138 70c-29 -51 -86 -83 -164 -83c-113 0 -161 69 -161 141c0 140 139 156 316 165v25c0 109 -48 138 -111 138c-110 0 -106 -58 -98 -127l-82 -7c-24 114 28 201 186 201c164 0 195 -104 195 -240v-186c0 -38 13 -49 56 -39zM364 182v49
c-188 -4 -222 -38 -222 -95c0 -51 32 -82 96 -82c68 0 126 53 126 128z" />
    <glyph glyph-name="b" unicode="b" horiz-adv-x="561" 
d="M135 0h-66v734h92v-292c23 36 75 82 161 82c97 0 195 -58 195 -259c0 -180 -78 -277 -214 -277c-66 0 -113 24 -146 71h-3zM157 254c0 -142 48 -199 128 -199c89 0 137 69 137 211c0 145 -51 191 -125 191c-84 0 -140 -55 -140 -203z" />
    <glyph glyph-name="c" unicode="c" horiz-adv-x="512" 
d="M480 337l-82 -6c-7 84 -52 123 -120 123c-85 0 -140 -62 -140 -201c0 -123 43 -193 137 -193c75 0 109 38 120 115l81 -7c-15 -134 -103 -180 -205 -180c-165 0 -228 114 -228 261c0 173 90 275 240 275c137 0 193 -87 197 -187z" />
    <glyph glyph-name="d" unicode="d" horiz-adv-x="560" 
d="M401 734h91v-734h-74l-12 71h-2c-29 -52 -87 -83 -152 -83c-122 0 -208 71 -208 259c0 179 81 277 216 277c70 0 112 -28 141 -70v280zM405 260c0 150 -55 197 -129 197c-87 0 -137 -65 -137 -210c0 -141 49 -193 129 -193c82 0 137 57 137 206z" />
    <glyph glyph-name="e" unicode="e" horiz-adv-x="525" 
d="M399 170l77 -9c-19 -141 -122 -173 -203 -173c-170 0 -230 113 -230 263c0 165 85 273 240 273c144 0 214 -105 194 -286h-339c0 -99 33 -179 137 -179c66 0 113 31 124 111zM138 301h254c4 93 -31 156 -119 156c-92 0 -132 -74 -135 -156z" />
    <glyph glyph-name="f" unicode="f" horiz-adv-x="313" 
d="M24 442v70h62v42c0 119 37 192 160 192c34 0 67 -7 84 -12l-9 -70c-20 6 -42 11 -68 11c-57 0 -75 -38 -75 -111v-52h122v-70h-122v-442h-92v442h-62z" />
    <glyph glyph-name="g" unicode="g" horiz-adv-x="560" 
d="M425 512h67v-483c0 -141 -73 -224 -229 -224c-97 0 -175 38 -197 130l81 20c15 -46 40 -79 117 -79c95 0 137 44 137 152v55h-2c-23 -42 -71 -80 -153 -80c-110 0 -202 65 -202 247c0 183 88 274 216 274c77 0 118 -30 144 -71h3zM404 261c0 147 -53 196 -127 196
c-76 0 -138 -51 -138 -205c0 -135 49 -183 127 -183c86 0 138 56 138 192z" />
    <glyph glyph-name="h" unicode="h" horiz-adv-x="563" 
d="M497 307v-307h-92v299c0 70 -13 152 -108 152c-104 0 -135 -76 -135 -161v-290h-93v734h92v-296h1c29 44 69 86 159 86c112 0 176 -68 176 -217z" />
    <glyph glyph-name="i" unicode="i" horiz-adv-x="231" 
d="M69 627v107h93v-107h-93zM69 0v512h93v-512h-93z" />
    <glyph glyph-name="j" unicode="j" horiz-adv-x="232" 
d="M72 627v107h92v-107h-92zM-66 -184l10 67c21 -5 38 -8 59 -8c51 0 69 34 69 110v527h92v-516c0 -128 -43 -191 -155 -191c-27 0 -56 5 -75 11z" />
    <glyph glyph-name="k" unicode="k" horiz-adv-x="506" 
d="M162 734v-441l205 219h109l-176 -182l196 -330h-106l-153 266l-75 -75v-191h-93v734h93z" />
    <glyph glyph-name="l" unicode="l" horiz-adv-x="231" 
d="M162 734v-734h-93v734h93z" />
    <glyph glyph-name="m" unicode="m" horiz-adv-x="863" 
d="M307 524c95 0 135 -49 154 -104c37 69 85 104 165 104c104 0 171 -61 171 -220v-304h-93v299c0 121 -42 152 -102 152c-71 0 -123 -51 -123 -161v-290h-92v299c0 121 -40 152 -101 152c-77 0 -124 -53 -124 -161v-290h-93v512h86l4 -77h1c22 42 64 89 147 89z" />
    <glyph glyph-name="n" unicode="n" horiz-adv-x="563" 
d="M497 309v-309h-92v299c0 109 -36 152 -109 152c-106 0 -134 -80 -134 -161v-290h-93v512h86l4 -77h1c21 40 67 89 158 89c114 0 179 -67 179 -215z" />
    <glyph glyph-name="o" unicode="o" horiz-adv-x="553" 
d="M274 -12c-156 0 -231 96 -231 268c0 176 106 268 242 268c141 0 225 -90 225 -258c0 -183 -88 -278 -236 -278zM278 58c99 0 138 87 138 202c0 113 -38 192 -136 192s-142 -83 -142 -195c0 -115 37 -199 140 -199z" />
    <glyph glyph-name="p" unicode="p" horiz-adv-x="561" 
d="M160 -183h-91v695h77l10 -69h3c36 52 87 81 163 81c105 0 196 -75 196 -253c0 -210 -102 -283 -215 -283c-65 0 -116 28 -141 67h-2v-238zM157 261c0 -157 55 -206 131 -206c91 0 134 76 134 215c0 136 -51 187 -123 187c-88 0 -142 -55 -142 -196z" />
    <glyph glyph-name="q" unicode="q" horiz-adv-x="559" 
d="M425 512h66v-695h-90v251h-1c-26 -41 -75 -80 -154 -80c-109 0 -203 62 -203 259c0 202 101 277 220 277c66 0 111 -27 141 -71h3zM405 262c0 132 -45 195 -130 195c-80 0 -136 -57 -136 -212c0 -137 47 -191 124 -191c85 0 142 53 142 208z" />
    <glyph glyph-name="r" unicode="r" horiz-adv-x="438" 
d="M415 345l-86 -4c10 85 -10 109 -56 109c-82 0 -111 -81 -111 -173v-277h-93v512h86l5 -74h1c24 49 67 86 138 86c85 0 135 -53 116 -179z" />
    <glyph glyph-name="s" unicode="s" horiz-adv-x="477" 
d="M431 372l-80 -15c-8 65 -38 98 -106 98c-64 0 -102 -23 -102 -73c0 -132 294 -23 294 -234c0 -99 -87 -160 -206 -160c-120 0 -183 49 -196 158l82 14c10 -65 32 -103 116 -103c80 0 114 35 114 82c0 139 -291 30 -291 233c0 99 81 152 189 152c116 0 174 -55 186 -152z
" />
    <glyph glyph-name="t" unicode="t" horiz-adv-x="341" 
d="M24 443v69h62v111l92 29v-140h122v-69h-122v-276c0 -74 15 -108 73 -108c25 0 43 4 63 10l9 -67c-19 -7 -52 -14 -92 -14c-112 0 -145 63 -145 170v285h-62z" />
    <glyph glyph-name="u" unicode="u" horiz-adv-x="549" 
d="M65 204v308h92v-302c0 -106 36 -149 103 -149c100 0 128 86 128 174v277h93v-512h-84l-6 77h-1c-21 -36 -61 -89 -152 -89c-112 0 -173 67 -173 216z" />
    <glyph glyph-name="v" unicode="v" horiz-adv-x="469" 
d="M281 0h-94l-177 512h96l130 -412l129 412h95z" />
    <glyph glyph-name="w" unicode="w" horiz-adv-x="780" 
d="M267 0h-94l-159 512h94l114 -407h1l117 407h103l119 -407h1l111 407h92l-158 -512h-96l-121 417h-1z" />
    <glyph glyph-name="x" unicode="x" horiz-adv-x="492" 
d="M111 0h-97l173 263l-167 249h103l118 -185h1l120 185h96l-164 -246l184 -266h-104l-135 197z" />
    <glyph glyph-name="y" unicode="y" horiz-adv-x="463" 
d="M455 512l-182 -513c-51 -147 -87 -194 -184 -194c-26 0 -57 5 -73 11l11 65c20 -5 30 -8 51 -8c54 0 75 35 104 121l3 10l-174 508h97l124 -406h1l128 406h94z" />
    <glyph glyph-name="z" unicode="z" horiz-adv-x="437" 
d="M39 437v75h371v-70l-274 -366h275v-76h-384v71l272 366h-260z" />
    <glyph glyph-name="bracketleft" unicode="[" horiz-adv-x="302" 
d="M270 -69v-63h-203v915h201v-63l-108 -2v-784z" />
    <glyph glyph-name="bracketright" unicode="]" horiz-adv-x="302" 
d="M32 -132v63l110 3v784l-108 2v63h201v-915h-203z" />
    <glyph glyph-name="parenleft" unicode="(" horiz-adv-x="304" 
d="M210 789l56 -18c-80 -145 -120 -276 -120 -436c0 -165 42 -311 118 -452l-54 -22c-106 145 -163 288 -163 468c0 181 64 319 163 460z" />
    <glyph glyph-name="parenright" unicode=")" horiz-adv-x="304" 
d="M94 -139l-56 18c80 146 120 277 120 436c0 166 -43 312 -118 453l54 22c106 -145 162 -288 162 -468c0 -181 -63 -319 -162 -461z" />
    <glyph glyph-name="braceleft" unicode="{" horiz-adv-x="355" 
d="M125 443v185c0 116 46 149 174 154l7 -38c-71 -18 -90 -36 -90 -82v-201c0 -68 -10 -117 -91 -139v-2c77 -12 92 -55 92 -125v-204c0 -45 16 -64 90 -82l-7 -38c-106 3 -175 31 -175 138v193c0 44 -26 89 -94 90v52c68 9 94 48 94 99z" />
    <glyph glyph-name="braceright" unicode="}" horiz-adv-x="355" 
d="M230 628v-185c0 -51 26 -90 94 -99v-52c-68 -1 -94 -46 -94 -90v-193c0 -107 -69 -135 -175 -138l-7 38c74 18 90 37 90 82v204c0 70 15 113 92 125v2c-81 22 -91 71 -91 139v201c0 46 -19 64 -90 82l7 38c128 -5 174 -38 174 -154z" />
    <glyph glyph-name="backslash" unicode="\" horiz-adv-x="313" 
d="M51 779l305 -858l-73 -25l-305 860z" />
    <glyph glyph-name="slash" unicode="/" horiz-adv-x="369" 
d="M-35 -67l355 846l72 -27l-356 -849z" />
    <glyph glyph-name="brokenbar" unicode="&#xa6;" horiz-adv-x="249" 
d="M84 -240v445h81v-445h-81zM84 760h81v-445h-81v445z" />
    <glyph glyph-name="bar" unicode="|" horiz-adv-x="249" 
d="M84 760h81v-1000h-81v1000z" />
    <glyph glyph-name="asciicircum" unicode="^" horiz-adv-x="459" 
d="M204 755h68l155 -370l-71 -26l-119 291h-2l-133 -291l-71 25z" />
    <glyph glyph-name="underscore" unicode="_" horiz-adv-x="440" 
d="M0 -52h440v-72h-440v72z" />
    <glyph glyph-name="asciitilde" unicode="~" 
d="M95 218l-46 30c20 54 59 98 114 98c30 0 66 -12 95 -24c24 -10 56 -24 79 -24c32 0 55 27 69 54l46 -29c-20 -48 -58 -94 -111 -94c-13 0 -41 2 -96 25c-44 17 -63 23 -79 23c-34 0 -54 -26 -71 -59z" />
    <glyph glyph-name="uni00A0" unicode="&#xa0;" horiz-adv-x="196" 
 />
    <glyph glyph-name="zero" unicode="0" horiz-adv-x="646" 
d="M319 -12c-185 0 -267 136 -267 377c0 243 105 382 283 382c180 0 258 -136 258 -368c0 -250 -86 -391 -274 -391zM325 65c125 0 172 112 172 308c0 187 -45 296 -167 296s-181 -111 -181 -300c0 -191 49 -304 176 -304z" />
    <glyph glyph-name="one" unicode="1" horiz-adv-x="341" 
d="M37 557l-19 78c51 21 113 58 163 100h63v-735h-94v615c-20 -17 -68 -41 -113 -58z" />
    <glyph glyph-name="two" unicode="2" horiz-adv-x="537" 
d="M162 79h314v-79h-416c0 8 -1 19 -1 32c0 23 2 49 4 65c26 207 329 274 329 452c0 91 -61 121 -126 121c-110 0 -125 -81 -111 -174l-89 -6c-30 137 31 257 207 257c135 0 216 -74 216 -197c0 -221 -332 -294 -327 -471z" />
    <glyph glyph-name="three" unicode="3" horiz-adv-x="557" 
d="M220 341l-7 74c111 1 183 36 183 138c0 83 -55 117 -130 117c-103 0 -129 -65 -113 -173l-89 -7c-29 136 31 257 206 257c131 0 223 -61 223 -186c0 -98 -65 -155 -147 -175c108 -21 159 -101 159 -183c0 -139 -92 -215 -226 -215c-173 0 -228 94 -235 228l93 6
c7 -102 39 -157 143 -157c62 0 128 34 128 136c0 109 -70 144 -188 140z" />
    <glyph glyph-name="four" unicode="4" horiz-adv-x="551" 
d="M119 238h218v373h-3zM430 734v-496h92v-81h-92v-157h-93v157h-312v64l299 513h106z" />
    <glyph glyph-name="five" unicode="5" horiz-adv-x="560" 
d="M277 408c-60 0 -108 -39 -132 -80l-73 8l23 398h381v-81h-302l-20 -234c31 36 83 67 148 67c123 0 206 -87 206 -246c0 -147 -79 -252 -234 -252c-166 0 -210 104 -222 228l91 6c11 -110 53 -157 137 -157c74 0 131 53 131 171c0 124 -56 172 -134 172z" />
    <glyph glyph-name="six" unicode="6" horiz-adv-x="594" 
d="M330 670c-109 0 -156 -83 -167 -291c47 61 117 81 173 81c108 0 204 -73 204 -227c0 -151 -84 -245 -235 -245c-168 0 -237 96 -237 340c0 271 85 419 266 419c157 0 197 -101 189 -211l-89 -8c6 89 -23 142 -104 142zM306 388c-76 0 -142 -48 -142 -144
c0 -99 35 -179 145 -179c101 0 136 78 136 164c0 100 -41 159 -139 159z" />
    <glyph glyph-name="seven" unicode="7" horiz-adv-x="472" 
d="M237 0h-100c11 268 86 471 220 653h-318v81h418v-62c-165 -215 -210 -423 -220 -672z" />
    <glyph glyph-name="eight" unicode="8" horiz-adv-x="601" 
d="M295 -12c-173 0 -242 89 -242 211c0 98 43 162 135 198c-67 28 -106 85 -106 162c0 113 86 188 225 188c143 0 211 -76 211 -180c0 -77 -39 -138 -111 -166c96 -30 141 -95 141 -191c0 -128 -77 -222 -253 -222zM295 65c104 0 159 60 159 150c0 79 -42 149 -152 149
c-103 0 -154 -63 -154 -154c0 -81 39 -145 147 -145zM299 434c92 0 124 58 124 124c0 63 -29 115 -121 115c-93 0 -124 -52 -124 -118s32 -121 121 -121z" />
    <glyph glyph-name="nine" unicode="9" horiz-adv-x="594" 
d="M278 65c109 0 149 100 158 291c-43 -60 -112 -81 -168 -81c-109 0 -209 68 -209 222c0 150 84 250 235 250c160 0 236 -93 236 -326c0 -281 -74 -433 -255 -433c-157 0 -209 97 -210 211l89 8c6 -103 41 -142 124 -142zM293 347c76 0 142 48 142 153
c0 94 -36 170 -145 170c-101 0 -136 -78 -136 -164c0 -100 41 -159 139 -159z" />
    <glyph glyph-name="dollar" unicode="$" horiz-adv-x="585" 
d="M259 797h82v-74c118 -14 178 -95 188 -216l-87 -14c-8 83 -38 134 -101 150v-233c97 -23 199 -52 199 -190c0 -119 -80 -193 -199 -208v-76h-82v74c-135 9 -204 75 -217 223l91 14c9 -92 36 -147 126 -158v251c-96 21 -193 50 -193 190c0 115 82 180 193 193v74zM445 209
c0 69 -45 95 -104 112v-231c70 12 104 55 104 119zM162 537c0 -63 41 -89 97 -107v215c-62 -9 -97 -44 -97 -108z" />
    <glyph glyph-name="Euro" unicode="&#x20ac;" horiz-adv-x="595" 
d="M327 67c93 0 137 66 149 160l86 -9c-21 -159 -108 -230 -242 -230c-142 0 -225 88 -248 264h-74l12 70h56c-1 13 -1 27 -1 41c0 12 0 25 1 37h-48l12 70h43c28 188 135 278 272 278c140 0 220 -101 219 -249l-85 -8c-6 136 -60 177 -140 177c-83 0 -149 -56 -170 -198
h222l-12 -70h-217v-34c0 -16 0 -30 1 -44h208l-12 -70h-190c18 -123 69 -185 158 -185z" />
    <glyph glyph-name="cent" unicode="&#xa2;" horiz-adv-x="514" 
d="M236 696h82v-82c112 -13 158 -93 163 -185l-80 -6c-6 67 -37 106 -83 118v-386c46 11 71 48 80 111l79 -5c-14 -115 -78 -165 -159 -178v-83h-82v82c-138 16 -190 123 -190 259c0 153 70 250 190 271v84zM141 346c0 -103 29 -170 95 -189v382c-60 -19 -95 -81 -95 -193z
" />
    <glyph glyph-name="sterling" unicode="&#xa3;" horiz-adv-x="514" 
d="M29 330v71h72c-26 39 -49 84 -49 145c0 113 82 201 229 201c145 0 227 -91 201 -253l-88 7c15 132 -34 170 -118 170c-77 0 -130 -43 -130 -121c0 -61 29 -106 58 -149h193v-71h-152c9 -20 14 -40 14 -63c0 -61 -33 -111 -108 -188h329v-79h-425v79
c79 77 114 128 114 179c0 26 -9 49 -21 72h-119z" />
    <glyph glyph-name="yen" unicode="&#xa5;" horiz-adv-x="533" 
d="M429 334h-113v-70h113v-71h-113v-193h-98v193h-126v71h126v70h-126v71h91l-183 329h110l156 -312l164 312h103l-186 -329h82v-71z" />
    <glyph glyph-name="florin" unicode="&#x192;" horiz-adv-x="418" 
d="M46 385l13 69h99l20 114c19 114 62 178 183 178c37 0 69 -9 87 -15l-20 -67c-20 6 -41 11 -66 11c-58 0 -83 -38 -95 -111l-20 -110h125l-13 -69h-124l-61 -351c-19 -111 -64 -174 -185 -174c-37 0 -68 9 -84 14l19 68c20 -6 41 -11 66 -11c56 0 81 37 94 108l61 346h-99
z" />
    <glyph glyph-name="section" unicode="&#xa7;" horiz-adv-x="628" 
d="M58 271c0 58 32 104 107 148c-38 28 -68 68 -68 132c0 120 106 183 236 183s218 -62 226 -183l-90 -11c-9 75 -49 120 -139 120c-87 0 -134 -41 -134 -98c0 -172 374 -75 374 -288c0 -62 -38 -115 -102 -153c38 -27 64 -67 64 -130c0 -121 -106 -182 -233 -182
c-136 0 -225 63 -237 180l91 12c8 -75 52 -116 147 -116c86 0 134 37 134 99c0 176 -376 59 -376 287zM154 285c0 -95 134 -92 241 -129c47 26 79 58 79 105c0 89 -136 86 -243 124c-47 -28 -77 -60 -77 -100z" />
    <glyph glyph-name="copyright" unicode="&#xa9;" horiz-adv-x="807" 
d="M755 333c0 -212 -142 -355 -352 -355c-235 0 -351 148 -351 340c0 222 156 354 353 354c218 0 350 -133 350 -339zM405 41c175 0 280 110 280 289c0 181 -115 279 -280 279c-163 0 -281 -106 -281 -290c0 -172 104 -278 281 -278zM508 274l55 -9
c-15 -108 -91 -138 -155 -138c-124 0 -176 85 -176 198c0 118 64 203 179 203c75 0 141 -36 147 -136l-58 -9c-7 60 -33 90 -89 90c-64 0 -112 -42 -112 -148c0 -75 30 -142 107 -142c66 0 91 36 102 91z" />
    <glyph glyph-name="registered" unicode="&#xae;" horiz-adv-x="446" 
d="M411 553c0 -111 -77 -187 -188 -187c-124 0 -187 78 -187 180c0 116 83 188 188 188c115 0 187 -72 187 -181zM367 550c0 94 -60 144 -143 144c-81 0 -144 -54 -144 -147c0 -88 55 -141 144 -141s143 55 143 144zM262 543l49 -86h-41l-43 76h-27v-76h-39v191h71
c52 0 64 -26 64 -54c0 -26 -13 -43 -34 -51zM200 562h13c25 0 43 4 43 30c0 22 -13 27 -36 27h-20v-57z" />
    <glyph glyph-name="trademark" unicode="&#x2122;" horiz-adv-x="815" 
d="M130 350v330h-113v54h294v-54h-113v-330h-68zM589 350h-57l-110 314v-314h-59v384h91l108 -317l108 317h88v-384h-61v314z" />
    <glyph glyph-name="ordfeminine" unicode="&#xaa;" horiz-adv-x="371" 
d="M345 466l1 -47c-71 -15 -96 3 -105 42c-18 -31 -55 -50 -107 -50c-75 0 -103 44 -103 90c0 86 88 99 203 107v12c0 57 -26 73 -64 73c-58 0 -60 -26 -54 -63l-69 -7c-16 72 22 124 128 124c111 0 134 -60 134 -143v-115c0 -21 8 -28 36 -23zM234 531v32
c-107 -4 -125 -25 -125 -56c0 -28 18 -46 51 -46c40 0 74 28 74 70z" />
    <glyph glyph-name="ordmasculine" unicode="&#xba;" horiz-adv-x="390" 
d="M192 411c-105 0 -156 59 -156 168c0 111 72 168 165 168c95 0 152 -56 152 -162c0 -117 -60 -174 -161 -174zM195 467c57 0 80 44 80 114c0 67 -22 110 -78 110s-82 -45 -82 -112c0 -69 19 -112 80 -112z" />
    <glyph glyph-name="guillemotleft" unicode="&#xab;" horiz-adv-x="421" 
d="M377 76l-55 -27l-129 202l128 195l55 -25l-97 -167zM220 76l-54 -27l-129 202l128 195l54 -25l-97 -167z" />
    <glyph glyph-name="guillemotright" unicode="&#xbb;" horiz-adv-x="421" 
d="M99 49l-55 27l98 178l-97 167l55 25l128 -195zM255 49l-54 27l98 178l-97 167l54 25l128 -195z" />
    <glyph glyph-name="guilsinglleft" unicode="&#x2039;" horiz-adv-x="264" 
d="M220 76l-54 -27l-129 202l128 195l54 -25l-97 -167z" />
    <glyph glyph-name="guilsinglright" unicode="&#x203a;" horiz-adv-x="263" 
d="M89 49l-54 27l98 178l-97 167l54 25l128 -195z" />
    <glyph glyph-name="quoteleft" unicode="&#x2018;" horiz-adv-x="200" 
d="M147 605v-121h-101v98l53 164l40 -11l-33 -130h41z" />
    <glyph glyph-name="quoteright" unicode="&#x2019;" horiz-adv-x="200" 
d="M46 613v121h101v-99l-54 -163l-40 11l33 130h-40z" />
    <glyph glyph-name="quotesinglbase" unicode="&#x201a;" horiz-adv-x="200" 
d="M53 0v121h101v-99l-53 -163l-40 11l33 130h-41z" />
    <glyph glyph-name="quotedblleft" unicode="&#x201c;" horiz-adv-x="352" 
d="M307 605v-121h-101v98l53 164l40 -11l-33 -130h41zM147 605v-121h-101v98l53 164l40 -11l-33 -130h41z" />
    <glyph glyph-name="quotedblright" unicode="&#x201d;" horiz-adv-x="360" 
d="M206 613v121h101v-99l-54 -163l-40 11l33 130h-40zM46 613v121h101v-99l-54 -163l-40 11l33 130h-40z" />
    <glyph glyph-name="quotedblbase" unicode="&#x201e;" horiz-adv-x="360" 
d="M206 0v121h101v-99l-54 -163l-40 11l33 130h-40zM47 0v121h101v-99l-54 -163l-40 11l33 130h-40z" />
    <glyph glyph-name="dagger" unicode="&#x2020;" horiz-adv-x="423" 
d="M397 542l-145 -10l-13 -252h-55l-15 252l-143 10v53l147 10l9 129h59l9 -129l147 -10v-53z" />
    <glyph glyph-name="daggerdbl" unicode="&#x2021;" horiz-adv-x="423" 
d="M397 357l-147 -10l-13 -91h-51l-13 91l-147 10v54l147 9l13 64l-13 78l-147 10v54l147 10l9 98h59l9 -98l147 -10v-54l-147 -10l-13 -79l13 -63l147 -9v-54z" />
    <glyph glyph-name="bullet" unicode="&#x2022;" horiz-adv-x="479" 
d="M141 340c0 71 45 99 98 99c52 0 99 -28 99 -99c0 -70 -47 -98 -99 -98c-53 0 -98 28 -98 98z" />
    <glyph glyph-name="ellipsis" unicode="&#x2026;" horiz-adv-x="678" 
d="M64 0v118h98v-118h-98zM290 0v118h98v-118h-98zM516 0v118h98v-118h-98z" />
    <glyph glyph-name="paragraph" unicode="&#xb6;" horiz-adv-x="640" 
d="M304 -141v380h-9c-177 0 -244 119 -244 253c0 125 65 242 260 242h75v-875h-82zM469 -140v874h82v-874h-82z" />
    <glyph glyph-name="periodcentered" unicode="&#xb7;" horiz-adv-x="226" 
d="M64 272v118h98v-118h-98z" />
    <glyph glyph-name="uni00AD" unicode="&#xad;" horiz-adv-x="342" 
d="M307 245h-271v76h271v-76z" />
    <glyph glyph-name="endash" unicode="&#x2013;" horiz-adv-x="440" 
d="M0 345h440v-72h-440v72z" />
    <glyph glyph-name="emdash" unicode="&#x2014;" horiz-adv-x="880" 
d="M0 345h880v-72h-880v72z" />
    <glyph glyph-name="hyphen.case" horiz-adv-x="342" 
d="M307 305h-271v76h271v-76z" />
    <glyph glyph-name="Agrave" unicode="&#xc0;" horiz-adv-x="640" 
d="M254 734h129l253 -734h-101l-69 201h-296l-68 -201h-98zM441 278l-124 367h-1l-123 -367h248zM196 851l43 69l162 -110l-27 -47z" />
    <glyph glyph-name="Aacute" unicode="&#xc1;" horiz-adv-x="640" 
d="M254 734h129l253 -734h-101l-69 201h-296l-68 -201h-98zM441 278l-124 367h-1l-123 -367h248zM393 920l41 -69l-178 -88l-26 47z" />
    <glyph glyph-name="Acircumflex" unicode="&#xc2;" horiz-adv-x="640" 
d="M254 734h129l253 -734h-101l-69 201h-296l-68 -201h-98zM441 278l-124 367h-1l-123 -367h248zM290 916h53l122 -117l-29 -36l-120 79l-120 -79l-28 36z" />
    <glyph glyph-name="Atilde" unicode="&#xc3;" horiz-adv-x="640" 
d="M254 734h129l253 -734h-101l-69 201h-296l-68 -201h-98zM441 278l-124 367h-1l-123 -367h248zM223 782l-48 7c15 74 50 96 80 96c48 0 91 -31 125 -31c16 0 27 10 37 42l46 -8c-15 -74 -47 -98 -79 -98c-52 0 -93 31 -126 31c-16 0 -28 -12 -35 -39z" />
    <glyph glyph-name="Adieresis" unicode="&#xc4;" horiz-adv-x="640" 
d="M254 734h129l253 -734h-101l-69 201h-296l-68 -201h-98zM441 278l-124 367h-1l-123 -367h248zM353 784v97h84v-97h-84zM189 784v97h84v-97h-84z" />
    <glyph glyph-name="Aring" unicode="&#xc5;" horiz-adv-x="640" 
d="M254 734h129l253 -734h-101l-69 201h-296l-68 -201h-98zM441 278l-124 367h-1l-123 -367h248zM314 761c-68 0 -97 36 -97 89c0 55 47 89 101 89c60 0 98 -33 98 -86c0 -56 -37 -92 -102 -92zM316 805c25 0 39 14 39 46c0 33 -16 45 -38 45c-24 0 -42 -13 -42 -46
c0 -32 14 -45 41 -45z" />
    <glyph glyph-name="Aringacute" unicode="&#x1fa;" horiz-adv-x="640" 
d="M102 0h-98l249 732c-22 16 -32 41 -32 73c0 55 47 89 101 89c60 0 98 -33 98 -86c0 -33 -13 -59 -37 -75l253 -733h-101l-69 201h-296zM441 278l-124 367h-1l-123 -367h248zM384 1056l41 -69l-178 -88l-26 47zM320 760c25 0 39 14 39 46c0 33 -16 45 -38 45
c-24 0 -42 -13 -42 -46c0 -32 14 -45 41 -45z" />
    <glyph glyph-name="AE" unicode="&#xc6;" horiz-adv-x="909" 
d="M806 406v-78h-266v-249h323v-79h-421v328h-224l-116 -328h-98l268 734h567v-79h-299v-249h266zM332 655l-89 -249h199v249h-110z" />
    <glyph glyph-name="AEacute" unicode="&#x1fc;" horiz-adv-x="909" 
d="M642 920l41 -69l-178 -88l-26 47zM806 406v-78h-266v-249h323v-79h-421v328h-224l-116 -328h-98l268 734h567v-79h-299v-249h266zM332 655l-89 -249h199v249h-110z" />
    <glyph glyph-name="Ccedilla" unicode="&#xc7;" horiz-adv-x="640" 
d="M279 -84l30 73c-169 11 -256 133 -256 371c0 261 126 386 305 386c152 0 242 -104 237 -265l-93 -8c0 144 -66 192 -153 192c-105 0 -191 -84 -191 -302c0 -199 58 -294 182 -294c97 0 151 69 159 179l93 -8c-13 -169 -103 -243 -233 -251l-18 -40c9 4 18 6 29 6
c46 0 79 -30 79 -80c0 -58 -48 -92 -110 -92c-33 0 -73 11 -101 49l34 34c18 -20 37 -31 61 -31c29 0 45 14 45 39c0 27 -17 39 -41 39c-12 0 -22 -5 -30 -10z" />
    <glyph glyph-name="Egrave" unicode="&#xc8;" horiz-adv-x="557" 
d="M171 851l43 69l162 -110l-27 -47zM454 416v-78h-266v-259h323v-79h-421v734h398v-79h-300v-239h266z" />
    <glyph glyph-name="Eacute" unicode="&#xc9;" horiz-adv-x="557" 
d="M367 920l41 -69l-178 -88l-26 47zM454 416v-78h-266v-259h323v-79h-421v734h398v-79h-300v-239h266z" />
    <glyph glyph-name="Ecircumflex" unicode="&#xca;" horiz-adv-x="557" 
d="M454 416v-78h-266v-259h323v-79h-421v734h398v-79h-300v-239h266zM262 916h53l122 -117l-29 -36l-120 79l-120 -79l-28 36z" />
    <glyph glyph-name="Edieresis" unicode="&#xcb;" horiz-adv-x="557" 
d="M330 784v97h84v-97h-84zM166 784v97h84v-97h-84zM454 416v-78h-266v-259h323v-79h-421v734h398v-79h-300v-239h266z" />
    <glyph glyph-name="Igrave" unicode="&#xcc;" horiz-adv-x="364" 
d="M229 663v-592h79v-71h-251v71h76v592h-76v71h251v-71h-79zM64 851l43 69l162 -110l-27 -47z" />
    <glyph glyph-name="Iacute" unicode="&#xcd;" horiz-adv-x="364" 
d="M229 663v-592h79v-71h-251v71h76v592h-76v71h251v-71h-79zM256 920l41 -69l-178 -88l-26 47z" />
    <glyph glyph-name="Icircumflex" unicode="&#xce;" horiz-adv-x="364" 
d="M229 663v-592h79v-71h-251v71h76v592h-76v71h251v-71h-79zM156 916h53l122 -117l-29 -36l-120 79l-120 -79l-28 36z" />
    <glyph glyph-name="Idieresis" unicode="&#xcf;" horiz-adv-x="364" 
d="M229 663v-592h79v-71h-251v71h76v592h-76v71h251v-71h-79zM223 784v97h84v-97h-84zM59 784v97h84v-97h-84z" />
    <glyph glyph-name="Eth" unicode="&#xd0;" horiz-adv-x="658" 
d="M222 0h-129v331h-69v76h69v327h130c287 0 382 -111 382 -363c0 -260 -101 -371 -383 -371zM191 79h45c193 0 269 76 269 292c0 195 -64 284 -263 284h-51v-248h194v-76h-194v-252z" />
    <glyph glyph-name="Ntilde" unicode="&#xd1;" horiz-adv-x="702" 
d="M254 782l-48 7c15 74 50 96 80 96c48 0 91 -31 125 -31c16 0 27 10 37 42l46 -8c-15 -74 -47 -98 -79 -98c-52 0 -93 31 -126 31c-16 0 -28 -12 -35 -39zM611 0h-113l-317 608v-608h-90v734h125l306 -602v602h89v-734z" />
    <glyph glyph-name="Ograve" unicode="&#xd2;" horiz-adv-x="685" 
d="M236 851l43 69l162 -110l-27 -47zM339 -12c-194 0 -286 136 -286 377c0 243 115 382 305 382c187 0 274 -136 274 -368c0 -250 -96 -391 -293 -391zM345 68c133 0 187 112 187 305c0 185 -51 292 -179 292c-131 0 -199 -110 -199 -296c0 -189 54 -301 191 -301z" />
    <glyph glyph-name="Oacute" unicode="&#xd3;" horiz-adv-x="685" 
d="M432 920l41 -69l-178 -88l-26 47zM339 -12c-194 0 -286 136 -286 377c0 243 115 382 305 382c187 0 274 -136 274 -368c0 -250 -96 -391 -293 -391zM345 68c133 0 187 112 187 305c0 185 -51 292 -179 292c-131 0 -199 -110 -199 -296c0 -189 54 -301 191 -301z" />
    <glyph glyph-name="Ocircumflex" unicode="&#xd4;" horiz-adv-x="685" 
d="M339 -12c-194 0 -286 136 -286 377c0 243 115 382 305 382c187 0 274 -136 274 -368c0 -250 -96 -391 -293 -391zM345 68c133 0 187 112 187 305c0 185 -51 292 -179 292c-131 0 -199 -110 -199 -296c0 -189 54 -301 191 -301zM329 916h53l122 -117l-29 -36l-120 79
l-120 -79l-28 36z" />
    <glyph glyph-name="Otilde" unicode="&#xd5;" horiz-adv-x="685" 
d="M259 782l-48 7c15 74 50 96 80 96c48 0 91 -31 125 -31c16 0 27 10 37 42l46 -8c-15 -74 -47 -98 -79 -98c-52 0 -93 31 -126 31c-16 0 -28 -12 -35 -39zM339 -12c-194 0 -286 136 -286 377c0 243 115 382 305 382c187 0 274 -136 274 -368c0 -250 -96 -391 -293 -391z
M345 68c133 0 187 112 187 305c0 185 -51 292 -179 292c-131 0 -199 -110 -199 -296c0 -189 54 -301 191 -301z" />
    <glyph glyph-name="Odieresis" unicode="&#xd6;" horiz-adv-x="685" 
d="M395 784v97h84v-97h-84zM231 784v97h84v-97h-84zM339 -12c-194 0 -286 136 -286 377c0 243 115 382 305 382c187 0 274 -136 274 -368c0 -250 -96 -391 -293 -391zM345 68c133 0 187 112 187 305c0 185 -51 292 -179 292c-131 0 -199 -110 -199 -296
c0 -189 54 -301 191 -301z" />
    <glyph glyph-name="Oslash" unicode="&#xd8;" horiz-adv-x="677" 
d="M335 -12c-47 0 -89 8 -124 24l-38 -74l-72 37l44 85c-62 63 -92 167 -92 305c0 243 115 382 301 382c51 0 94 -11 131 -31l37 72l73 -34l-47 -91c51 -63 76 -160 76 -284c0 -250 -96 -391 -289 -391zM154 369c0 -90 12 -163 40 -214l249 480c-25 20 -56 30 -94 30
c-127 0 -195 -110 -195 -296zM341 68c130 0 183 112 183 305c0 77 -9 141 -29 189l-243 -471c24 -15 54 -23 89 -23z" />
    <glyph glyph-name="Oslashacute" unicode="&#x1fe;" horiz-adv-x="677" 
d="M101 -25l44 85c-62 63 -92 167 -92 305c0 243 115 382 301 382c50 0 94 -11 130 -31l36 70l73 -35l-46 -88c52 -63 77 -160 77 -284c0 -250 -96 -391 -289 -391c-47 0 -89 8 -124 24l-38 -74zM154 369c0 -90 12 -163 40 -214l248 481c-25 19 -55 29 -93 29
c-127 0 -195 -110 -195 -296zM341 68c130 0 183 112 183 305c0 77 -9 141 -29 189l-243 -471c24 -15 54 -23 89 -23zM428 924l41 -69l-178 -88l-26 47z" />
    <glyph glyph-name="Ugrave" unicode="&#xd9;" horiz-adv-x="703" 
d="M227 851l43 69l162 -110l-27 -47zM521 278v456h97v-477c0 -172 -93 -269 -271 -269c-189 0 -262 103 -262 271v475h97v-455c0 -143 50 -210 170 -210c117 0 169 63 169 209z" />
    <glyph glyph-name="Uacute" unicode="&#xda;" horiz-adv-x="703" 
d="M423 920l41 -69l-178 -88l-26 47zM521 278v456h97v-477c0 -172 -93 -269 -271 -269c-189 0 -262 103 -262 271v475h97v-455c0 -143 50 -210 170 -210c117 0 169 63 169 209z" />
    <glyph glyph-name="Ucircumflex" unicode="&#xdb;" horiz-adv-x="703" 
d="M521 278v456h97v-477c0 -172 -93 -269 -271 -269c-189 0 -262 103 -262 271v475h97v-455c0 -143 50 -210 170 -210c117 0 169 63 169 209zM320 916h53l122 -117l-29 -36l-120 79l-120 -79l-28 36z" />
    <glyph glyph-name="Udieresis" unicode="&#xdc;" horiz-adv-x="703" 
d="M386 784v97h84v-97h-84zM222 784v97h84v-97h-84zM521 278v456h97v-477c0 -172 -93 -269 -271 -269c-189 0 -262 103 -262 271v475h97v-455c0 -143 50 -210 170 -210c117 0 169 63 169 209z" />
    <glyph glyph-name="Yacute" unicode="&#xdd;" horiz-adv-x="570" 
d="M334 283v-283h-97v278l-240 456h110l178 -359l186 359h103zM362 920l41 -69l-178 -88l-26 47z" />
    <glyph glyph-name="Thorn" unicode="&#xde;" horiz-adv-x="604" 
d="M189 147v-147h-98v734h98v-132h137c185 0 237 -94 237 -211c0 -103 -39 -244 -272 -244h-102zM189 224h95c123 0 177 54 177 162c0 94 -43 138 -156 138h-116v-300z" />
    <glyph glyph-name="germandbls" unicode="&#xdf;" horiz-adv-x="654" 
d="M165 487v-487h-92v502c0 169 101 245 251 245c139 0 209 -68 209 -177c0 -37 -13 -94 -22 -117c-14 2 -26 3 -37 3c-42 0 -85 -14 -85 -62c0 -36 28 -57 73 -72c71 -23 152 -50 152 -163c0 -110 -77 -171 -187 -171c-108 0 -182 40 -193 159l80 13
c10 -75 42 -104 112 -104c64 0 99 33 99 94c0 59 -44 78 -94 96c-63 22 -131 43 -131 137c0 82 69 126 139 127c3 10 7 41 7 58c0 74 -49 107 -122 107c-109 0 -159 -58 -159 -188z" />
    <glyph glyph-name="agrave" unicode="&#xe0;" horiz-adv-x="543" 
d="M510 59l1 -58c-104 -22 -129 14 -138 70c-29 -51 -86 -83 -164 -83c-113 0 -161 69 -161 141c0 140 139 156 316 165v25c0 109 -48 138 -111 138c-110 0 -106 -58 -98 -127l-82 -7c-24 114 28 201 186 201c164 0 195 -104 195 -240v-186c0 -38 13 -49 56 -39zM364 182v49
c-188 -4 -222 -38 -222 -95c0 -51 32 -82 96 -82c68 0 126 53 126 128zM142 702l60 53l124 -152l-38 -35z" />
    <glyph glyph-name="aacute" unicode="&#xe1;" horiz-adv-x="543" 
d="M510 59l1 -58c-104 -22 -129 14 -138 70c-29 -51 -86 -83 -164 -83c-113 0 -161 69 -161 141c0 140 139 156 316 165v25c0 109 -48 138 -111 138c-110 0 -106 -58 -98 -127l-82 -7c-24 114 28 201 186 201c164 0 195 -104 195 -240v-186c0 -38 13 -49 56 -39zM364 182v49
c-188 -4 -222 -38 -222 -95c0 -51 32 -82 96 -82c68 0 126 53 126 128zM311 756l60 -54l-146 -134l-38 35z" />
    <glyph glyph-name="acircumflex" unicode="&#xe2;" horiz-adv-x="543" 
d="M510 59l1 -58c-104 -22 -129 14 -138 70c-29 -51 -86 -83 -164 -83c-113 0 -161 69 -161 141c0 140 139 156 316 165v25c0 109 -48 138 -111 138c-110 0 -106 -58 -98 -127l-82 -7c-24 114 28 201 186 201c164 0 195 -104 195 -240v-186c0 -38 13 -49 56 -39zM364 182v49
c-188 -4 -222 -38 -222 -95c0 -51 32 -82 96 -82c68 0 126 53 126 128zM230 743h53l119 -142l-36 -33l-111 102l-108 -102l-37 33z" />
    <glyph glyph-name="atilde" unicode="&#xe3;" horiz-adv-x="543" 
d="M510 59l1 -58c-104 -22 -129 14 -138 70c-29 -51 -86 -83 -164 -83c-113 0 -161 69 -161 141c0 140 139 156 316 165v25c0 109 -48 138 -111 138c-110 0 -106 -58 -98 -127l-82 -7c-24 114 28 201 186 201c164 0 195 -104 195 -240v-186c0 -38 13 -49 56 -39zM364 182v49
c-188 -4 -222 -38 -222 -95c0 -51 32 -82 96 -82c68 0 126 53 126 128zM159 607l-48 7c15 74 50 96 80 96c48 0 91 -31 125 -31c16 0 27 10 37 42l47 -8c-16 -74 -48 -98 -80 -98c-51 0 -93 31 -126 31c-16 0 -28 -12 -35 -39z" />
    <glyph glyph-name="adieresis" unicode="&#xe4;" horiz-adv-x="543" 
d="M510 59l1 -58c-104 -22 -129 14 -138 70c-29 -51 -86 -83 -164 -83c-113 0 -161 69 -161 141c0 140 139 156 316 165v25c0 109 -48 138 -111 138c-110 0 -106 -58 -98 -127l-82 -7c-24 114 28 201 186 201c164 0 195 -104 195 -240v-186c0 -38 13 -49 56 -39zM364 182v49
c-188 -4 -222 -38 -222 -95c0 -51 32 -82 96 -82c68 0 126 53 126 128zM296 612v98h84v-98h-84zM132 612v98h84v-98h-84z" />
    <glyph glyph-name="aring" unicode="&#xe5;" horiz-adv-x="543" 
d="M510 59l1 -58c-104 -22 -129 14 -138 70c-29 -51 -86 -83 -164 -83c-113 0 -161 69 -161 141c0 140 139 156 316 165v25c0 109 -48 138 -111 138c-110 0 -106 -58 -98 -127l-82 -7c-24 114 28 201 186 201c164 0 195 -104 195 -240v-186c0 -38 13 -49 56 -39zM364 182v49
c-188 -4 -222 -38 -222 -95c0 -51 32 -82 96 -82c68 0 126 53 126 128zM254 576c-68 0 -97 36 -97 89c0 55 47 89 101 89c60 0 98 -33 98 -86c0 -56 -37 -92 -102 -92zM256 619c25 0 39 15 39 47c0 33 -16 45 -38 45c-24 0 -42 -13 -42 -46c0 -32 14 -46 41 -46z" />
    <glyph glyph-name="aringacute" unicode="&#x1fb;" horiz-adv-x="543" 
d="M510 59l1 -58c-104 -22 -129 14 -138 70c-29 -51 -86 -83 -164 -83c-113 0 -161 69 -161 141c0 140 139 156 316 165v25c0 109 -48 138 -111 138c-110 0 -106 -58 -98 -127l-82 -7c-24 114 28 201 186 201c164 0 195 -104 195 -240v-186c0 -38 13 -49 56 -39zM364 182v49
c-188 -4 -222 -38 -222 -95c0 -51 32 -82 96 -82c68 0 126 53 126 128zM254 568c-68 0 -97 36 -97 89c0 55 47 89 101 89c60 0 98 -33 98 -86c0 -56 -37 -92 -102 -92zM256 611c25 0 39 15 39 47c0 33 -16 45 -38 45c-24 0 -42 -13 -42 -46c0 -32 14 -46 41 -46zM319 920
l41 -69l-178 -88l-26 47z" />
    <glyph glyph-name="ae" unicode="&#xe6;" horiz-adv-x="839" 
d="M715 175l75 -7c-16 -145 -122 -180 -202 -180c-97 0 -154 41 -184 110c-40 -78 -102 -110 -195 -110c-113 0 -161 69 -161 141c0 140 139 156 316 165v25c0 109 -48 138 -111 138c-110 0 -107 -58 -99 -127l-81 -7c-24 114 28 201 186 201c86 0 133 -37 157 -92
c39 60 100 92 181 92c144 0 214 -105 195 -286h-339c0 -99 33 -179 140 -179c62 0 111 33 122 116zM453 301h254c3 93 -31 156 -119 156c-93 0 -133 -74 -135 -156zM364 182v49c-190 -7 -218 -38 -218 -95c0 -59 42 -82 94 -82c72 0 124 57 124 128z" />
    <glyph glyph-name="aeacute" unicode="&#x1fd;" horiz-adv-x="839" 
d="M473 756l60 -54l-146 -134l-38 35zM715 175l75 -7c-16 -145 -122 -180 -202 -180c-97 0 -154 41 -184 110c-40 -78 -102 -110 -195 -110c-113 0 -161 69 -161 141c0 140 139 156 316 165v25c0 109 -48 138 -111 138c-110 0 -107 -58 -99 -127l-81 -7
c-24 114 28 201 186 201c86 0 133 -37 157 -92c39 60 100 92 181 92c144 0 214 -105 195 -286h-339c0 -99 33 -179 140 -179c62 0 111 33 122 116zM453 301h254c3 93 -31 156 -119 156c-93 0 -133 -74 -135 -156zM364 182v49c-190 -7 -218 -38 -218 -95c0 -59 42 -82 94 -82
c72 0 124 57 124 128z" />
    <glyph glyph-name="ccedilla" unicode="&#xe7;" horiz-adv-x="512" 
d="M208 -84l30 74c-141 13 -195 122 -195 259c0 173 90 275 240 275c137 0 193 -87 197 -187l-82 -6c-7 84 -52 123 -120 123c-85 0 -140 -62 -140 -201c0 -123 43 -193 137 -193c75 0 109 38 120 115l81 -7c-14 -127 -94 -174 -188 -179l-18 -40c9 4 18 6 29 6
c46 0 79 -30 79 -80c0 -58 -48 -92 -110 -92c-33 0 -73 11 -101 49l34 34c18 -20 37 -31 61 -31c29 0 45 14 45 39c0 27 -17 39 -41 39c-12 0 -22 -5 -30 -10z" />
    <glyph glyph-name="egrave" unicode="&#xe8;" horiz-adv-x="525" 
d="M399 170l77 -9c-19 -141 -122 -173 -203 -173c-170 0 -230 113 -230 263c0 165 85 273 240 273c144 0 214 -105 194 -286h-339c0 -99 33 -179 137 -179c66 0 113 31 124 111zM138 301h254c4 93 -31 156 -119 156c-92 0 -132 -74 -135 -156zM163 702l60 53l124 -152
l-38 -35z" />
    <glyph glyph-name="eacute" unicode="&#xe9;" horiz-adv-x="525" 
d="M332 756l60 -54l-146 -134l-38 35zM399 170l77 -9c-19 -141 -122 -173 -203 -173c-170 0 -230 113 -230 263c0 165 85 273 240 273c144 0 214 -105 194 -286h-339c0 -99 33 -179 137 -179c66 0 113 31 124 111zM138 301h254c4 93 -31 156 -119 156
c-92 0 -132 -74 -135 -156z" />
    <glyph glyph-name="ecircumflex" unicode="&#xea;" horiz-adv-x="525" 
d="M251 743h53l119 -142l-36 -33l-111 102l-108 -102l-37 33zM399 170l77 -9c-19 -141 -122 -173 -203 -173c-170 0 -230 113 -230 263c0 165 85 273 240 273c144 0 214 -105 194 -286h-339c0 -99 33 -179 137 -179c66 0 113 31 124 111zM138 301h254c4 93 -31 156 -119 156
c-92 0 -132 -74 -135 -156z" />
    <glyph glyph-name="edieresis" unicode="&#xeb;" horiz-adv-x="525" 
d="M317 612v98h84v-98h-84zM153 612v98h84v-98h-84zM399 170l77 -9c-19 -141 -122 -173 -203 -173c-170 0 -230 113 -230 263c0 165 85 273 240 273c144 0 214 -105 194 -286h-339c0 -99 33 -179 137 -179c66 0 113 31 124 111zM138 301h254c4 93 -31 156 -119 156
c-92 0 -132 -74 -135 -156z" />
    <glyph glyph-name="igrave" unicode="&#xec;" horiz-adv-x="231" 
d="M69 0v512h93v-512h-93zM1 702l60 53l124 -152l-38 -35z" />
    <glyph glyph-name="iacute" unicode="&#xed;" horiz-adv-x="231" 
d="M170 756l60 -54l-146 -134l-38 35zM69 0v512h93v-512h-93z" />
    <glyph glyph-name="icircumflex" unicode="&#xee;" horiz-adv-x="231" 
d="M89 743h53l119 -142l-36 -33l-111 102l-108 -102l-37 33zM69 0v512h93v-512h-93z" />
    <glyph glyph-name="idieresis" unicode="&#xef;" horiz-adv-x="231" 
d="M155 612v98h84v-98h-84zM-9 612v98h84v-98h-84zM69 0v512h93v-512h-93z" />
    <glyph glyph-name="eth" unicode="&#xf0;" horiz-adv-x="554" 
d="M463 693l-90 -45c88 -94 137 -226 137 -371c0 -194 -88 -289 -236 -289c-156 0 -231 96 -231 268c0 169 97 267 222 267c50 0 87 -16 118 -46l2 3c-21 52 -50 95 -84 131l-112 -56l-24 50l93 46c-27 23 -55 42 -82 59l88 24c23 -13 45 -29 65 -45l110 55zM278 58
c99 0 138 87 138 202c0 113 -38 192 -136 192s-142 -83 -142 -195c0 -115 37 -199 140 -199z" />
    <glyph glyph-name="ntilde" unicode="&#xf1;" horiz-adv-x="563" 
d="M497 309v-309h-92v299c0 109 -36 152 -109 152c-106 0 -134 -80 -134 -161v-290h-93v512h86l4 -77h1c21 40 67 89 158 89c114 0 179 -67 179 -215zM190 607l-48 7c15 74 50 96 80 96c48 0 91 -31 125 -31c16 0 27 10 37 42l47 -8c-16 -74 -48 -98 -80 -98
c-51 0 -93 31 -126 31c-16 0 -28 -12 -35 -39z" />
    <glyph glyph-name="ograve" unicode="&#xf2;" horiz-adv-x="553" 
d="M274 -12c-156 0 -231 96 -231 268c0 176 106 268 242 268c141 0 225 -90 225 -258c0 -183 -88 -278 -236 -278zM278 58c99 0 138 87 138 202c0 113 -38 192 -136 192s-142 -83 -142 -195c0 -115 37 -199 140 -199zM165 702l60 53l124 -152l-38 -35z" />
    <glyph glyph-name="oacute" unicode="&#xf3;" horiz-adv-x="553" 
d="M334 756l60 -54l-146 -134l-38 35zM274 -12c-156 0 -231 96 -231 268c0 176 106 268 242 268c141 0 225 -90 225 -258c0 -183 -88 -278 -236 -278zM278 58c99 0 138 87 138 202c0 113 -38 192 -136 192s-142 -83 -142 -195c0 -115 37 -199 140 -199z" />
    <glyph glyph-name="ocircumflex" unicode="&#xf4;" horiz-adv-x="553" 
d="M253 743h53l119 -142l-36 -33l-111 102l-108 -102l-37 33zM274 -12c-156 0 -231 96 -231 268c0 176 106 268 242 268c141 0 225 -90 225 -258c0 -183 -88 -278 -236 -278zM278 58c99 0 138 87 138 202c0 113 -38 192 -136 192s-142 -83 -142 -195
c0 -115 37 -199 140 -199z" />
    <glyph glyph-name="otilde" unicode="&#xf5;" horiz-adv-x="553" 
d="M274 -12c-156 0 -231 96 -231 268c0 176 106 268 242 268c141 0 225 -90 225 -258c0 -183 -88 -278 -236 -278zM278 58c99 0 138 87 138 202c0 113 -38 192 -136 192s-142 -83 -142 -195c0 -115 37 -199 140 -199zM182 607l-48 7c15 74 50 96 80 96c48 0 91 -31 125 -31
c16 0 27 10 37 42l47 -8c-16 -74 -48 -98 -80 -98c-51 0 -93 31 -126 31c-16 0 -28 -12 -35 -39z" />
    <glyph glyph-name="odieresis" unicode="&#xf6;" horiz-adv-x="553" 
d="M319 612v98h84v-98h-84zM155 612v98h84v-98h-84zM274 -12c-156 0 -231 96 -231 268c0 176 106 268 242 268c141 0 225 -90 225 -258c0 -183 -88 -278 -236 -278zM278 58c99 0 138 87 138 202c0 113 -38 192 -136 192s-142 -83 -142 -195c0 -115 37 -199 140 -199z" />
    <glyph glyph-name="oslash" unicode="&#xf8;" horiz-adv-x="553" 
d="M274 -12c-40 0 -74 6 -103 18l-44 -73l-63 37l46 76c-45 46 -67 117 -67 210c0 176 106 268 242 268c37 0 71 -6 100 -19l38 64l64 -35l-42 -70c42 -44 65 -110 65 -198c0 -183 -88 -278 -236 -278zM138 257c0 -49 6 -93 22 -126l184 306c-18 9 -39 15 -64 15
c-98 0 -142 -83 -142 -195zM278 58c99 0 138 87 138 202c0 47 -7 88 -21 120l-184 -307c18 -10 41 -15 67 -15z" />
    <glyph glyph-name="oslashacute" unicode="&#x1ff;" horiz-adv-x="553" 
d="M334 756l60 -54l-146 -134l-38 35zM274 -12c-40 0 -74 6 -103 18l-44 -73l-63 37l46 76c-45 46 -67 117 -67 210c0 176 106 268 242 268c37 0 71 -6 100 -19l38 64l64 -35l-42 -70c42 -44 65 -110 65 -198c0 -183 -88 -278 -236 -278zM138 257c0 -49 6 -93 22 -126
l184 306c-18 9 -39 15 -64 15c-98 0 -142 -83 -142 -195zM278 58c99 0 138 87 138 202c0 47 -7 88 -21 120l-184 -307c18 -10 41 -15 67 -15z" />
    <glyph glyph-name="ugrave" unicode="&#xf9;" horiz-adv-x="549" 
d="M65 204v308h92v-302c0 -106 36 -149 103 -149c100 0 128 86 128 174v277h93v-512h-84l-6 77h-1c-21 -36 -61 -89 -152 -89c-112 0 -173 67 -173 216zM157 702l60 53l124 -152l-38 -35z" />
    <glyph glyph-name="uacute" unicode="&#xfa;" horiz-adv-x="549" 
d="M326 756l60 -54l-146 -134l-38 35zM65 204v308h92v-302c0 -106 36 -149 103 -149c100 0 128 86 128 174v277h93v-512h-84l-6 77h-1c-21 -36 -61 -89 -152 -89c-112 0 -173 67 -173 216z" />
    <glyph glyph-name="ucircumflex" unicode="&#xfb;" horiz-adv-x="549" 
d="M245 743h53l119 -142l-36 -33l-111 102l-108 -102l-37 33zM65 204v308h92v-302c0 -106 36 -149 103 -149c100 0 128 86 128 174v277h93v-512h-84l-6 77h-1c-21 -36 -61 -89 -152 -89c-112 0 -173 67 -173 216z" />
    <glyph glyph-name="udieresis" unicode="&#xfc;" horiz-adv-x="549" 
d="M311 612v98h84v-98h-84zM147 612v98h84v-98h-84zM65 204v308h92v-302c0 -106 36 -149 103 -149c100 0 128 86 128 174v277h93v-512h-84l-6 77h-1c-21 -36 -61 -89 -152 -89c-112 0 -173 67 -173 216z" />
    <glyph glyph-name="yacute" unicode="&#xfd;" horiz-adv-x="463" 
d="M455 512l-182 -513c-51 -147 -87 -194 -184 -194c-26 0 -57 5 -73 11l11 65c20 -5 30 -8 51 -8c54 0 75 35 104 121l3 10l-174 508h97l124 -406h1l128 406h94zM289 756l60 -54l-146 -134l-38 35z" />
    <glyph glyph-name="thorn" unicode="&#xfe;" horiz-adv-x="561" 
d="M321 524c105 0 197 -75 197 -253c0 -210 -103 -283 -225 -283c-57 0 -103 28 -131 67h-2v-238h-91v917h92v-292c27 40 76 82 160 82zM296 457c-85 0 -138 -55 -138 -201c0 -151 50 -201 129 -201c92 0 135 76 135 215c0 136 -50 187 -126 187z" />
    <glyph glyph-name="ydieresis" unicode="&#xff;" horiz-adv-x="463" 
d="M455 512l-182 -513c-51 -147 -87 -194 -184 -194c-26 0 -57 5 -73 11l11 65c20 -5 30 -8 51 -8c54 0 75 35 104 121l3 10l-174 508h97l124 -406h1l128 406h94zM274 612v98h84v-98h-84zM110 612v98h84v-98h-84z" />
    <glyph glyph-name="Amacron" unicode="&#x100;" horiz-adv-x="640" 
d="M254 734h129l253 -734h-101l-69 201h-296l-68 -201h-98zM441 278l-124 367h-1l-123 -367h248zM180 799v69h271v-69h-271z" />
    <glyph glyph-name="amacron" unicode="&#x101;" horiz-adv-x="543" 
d="M510 59l1 -58c-104 -22 -129 14 -138 70c-29 -51 -86 -83 -164 -83c-113 0 -161 69 -161 141c0 140 139 156 316 165v25c0 109 -48 138 -111 138c-110 0 -106 -58 -98 -127l-82 -7c-24 114 28 201 186 201c164 0 195 -104 195 -240v-186c0 -38 13 -49 56 -39zM364 182v49
c-188 -4 -222 -38 -222 -95c0 -51 32 -82 96 -82c68 0 126 53 126 128zM120 622v66h271v-66h-271z" />
    <glyph glyph-name="Abreve" unicode="&#x102;" horiz-adv-x="640" 
d="M254 734h129l253 -734h-101l-69 201h-296l-68 -201h-98zM441 278l-124 367h-1l-123 -367h248zM173 900l56 11c16 -53 40 -74 87 -74c49 0 72 21 93 74l52 -11c-18 -88 -69 -131 -147 -131s-127 44 -141 131z" />
    <glyph glyph-name="abreve" unicode="&#x103;" horiz-adv-x="543" 
d="M510 59l1 -58c-104 -22 -129 14 -138 70c-29 -51 -86 -83 -164 -83c-113 0 -161 69 -161 141c0 140 139 156 316 165v25c0 109 -48 138 -111 138c-110 0 -106 -58 -98 -127l-82 -7c-24 114 28 201 186 201c164 0 195 -104 195 -240v-186c0 -38 13 -49 56 -39zM364 182v49
c-188 -4 -222 -38 -222 -95c0 -51 32 -82 96 -82c68 0 126 53 126 128zM115 725l56 7c10 -55 37 -85 85 -85c50 0 77 30 91 85l52 -7c-14 -96 -66 -144 -145 -144c-81 0 -129 49 -139 144z" />
    <glyph glyph-name="Aogonek" unicode="&#x104;" horiz-adv-x="640" 
d="M254 734h129l253 -734c-52 -19 -97 -72 -97 -103c0 -22 12 -29 28 -29c21 0 33 17 45 38l44 -23c-25 -52 -63 -78 -112 -78c-45 0 -81 20 -81 69c0 44 27 85 72 126l-69 201h-296l-68 -201h-98zM441 278l-124 367h-1l-123 -367h248z" />
    <glyph glyph-name="aogonek" unicode="&#x105;" horiz-adv-x="543" 
d="M510 59l1 -58c-18 -3 -36 -9 -48 -15c-44 -23 -65 -60 -65 -89c0 -22 12 -29 28 -29c21 0 33 17 45 38l44 -23c-25 -52 -63 -78 -112 -78c-45 0 -81 20 -81 65c0 49 31 90 90 133c-24 13 -34 37 -39 68c-29 -51 -86 -83 -164 -83c-113 0 -161 69 -161 141
c0 140 139 156 316 165v25c0 109 -48 138 -111 138c-110 0 -106 -58 -98 -127l-82 -7c-24 114 28 201 186 201c164 0 195 -104 195 -240v-186c0 -38 13 -49 56 -39zM364 182v49c-188 -4 -222 -38 -222 -95c0 -51 32 -82 96 -82c68 0 126 53 126 128z" />
    <glyph glyph-name="Cacute" unicode="&#x106;" horiz-adv-x="640" 
d="M340 69c97 0 151 69 159 179l93 -8c-13 -179 -114 -252 -257 -252c-186 0 -282 123 -282 372c0 261 126 386 305 386c152 0 242 -104 237 -265l-93 -8c0 144 -66 192 -153 192c-105 0 -191 -84 -191 -302c0 -199 58 -294 182 -294zM433 920l41 -69l-178 -88l-26 47z" />
    <glyph glyph-name="cacute" unicode="&#x107;" horiz-adv-x="512" 
d="M329 756l60 -54l-146 -134l-38 35zM480 337l-82 -6c-7 84 -52 123 -120 123c-85 0 -140 -62 -140 -201c0 -123 43 -193 137 -193c75 0 109 38 120 115l81 -7c-15 -134 -103 -180 -205 -180c-165 0 -228 114 -228 261c0 173 90 275 240 275c137 0 193 -87 197 -187z" />
    <glyph glyph-name="Ccircumflex" unicode="&#x108;" horiz-adv-x="640" 
d="M340 69c97 0 151 69 159 179l93 -8c-13 -179 -114 -252 -257 -252c-186 0 -282 123 -282 372c0 261 126 386 305 386c152 0 242 -104 237 -265l-93 -8c0 144 -66 192 -153 192c-105 0 -191 -84 -191 -302c0 -199 58 -294 182 -294zM330 916h53l122 -117l-29 -36l-120 79
l-120 -79l-28 36z" />
    <glyph glyph-name="ccircumflex" unicode="&#x109;" horiz-adv-x="512" 
d="M248 743h53l119 -142l-36 -33l-111 102l-108 -102l-37 33zM480 337l-82 -6c-7 84 -52 123 -120 123c-85 0 -140 -62 -140 -201c0 -123 43 -193 137 -193c75 0 109 38 120 115l81 -7c-15 -134 -103 -180 -205 -180c-165 0 -228 114 -228 261c0 173 90 275 240 275
c137 0 193 -87 197 -187z" />
    <glyph glyph-name="Cdotaccent" unicode="&#x10a;" horiz-adv-x="640" 
d="M310 790v107h92v-107h-92zM340 69c97 0 151 69 159 179l93 -8c-13 -179 -114 -252 -257 -252c-186 0 -282 123 -282 372c0 261 126 386 305 386c152 0 242 -104 237 -265l-93 -8c0 144 -66 192 -153 192c-105 0 -191 -84 -191 -302c0 -199 58 -294 182 -294z" />
    <glyph glyph-name="cdotaccent" unicode="&#x10b;" horiz-adv-x="512" 
d="M480 337l-82 -6c-7 84 -52 123 -120 123c-85 0 -140 -62 -140 -201c0 -123 43 -193 137 -193c75 0 109 38 120 115l81 -7c-15 -134 -103 -180 -205 -180c-165 0 -228 114 -228 261c0 173 90 275 240 275c137 0 193 -87 197 -187zM230 627v107h92v-107h-92z" />
    <glyph glyph-name="Ccaron" unicode="&#x10c;" horiz-adv-x="640" 
d="M340 69c97 0 151 69 159 179l93 -8c-13 -179 -114 -252 -257 -252c-186 0 -282 123 -282 372c0 261 126 386 305 386c152 0 242 -104 237 -265l-93 -8c0 144 -66 192 -153 192c-105 0 -191 -84 -191 -302c0 -199 58 -294 182 -294zM380 774h-54l-122 113l29 37l120 -79
l120 79l29 -37z" />
    <glyph glyph-name="ccaron" unicode="&#x10d;" horiz-adv-x="512" 
d="M301 579h-53l-119 142l36 33l110 -103l109 103l37 -33zM480 337l-82 -6c-7 84 -52 123 -120 123c-85 0 -140 -62 -140 -201c0 -123 43 -193 137 -193c75 0 109 38 120 115l81 -7c-15 -134 -103 -180 -205 -180c-165 0 -228 114 -228 261c0 173 90 275 240 275
c137 0 193 -87 197 -187z" />
    <glyph glyph-name="Dcaron" unicode="&#x10e;" horiz-adv-x="655" 
d="M332 766h-54l-122 113l29 37l120 -79l120 79l29 -37zM219 0h-129v734h130c287 0 382 -111 382 -363c0 -260 -101 -371 -383 -371zM188 79h45c193 0 269 76 269 292c0 195 -64 284 -263 284h-51v-576z" />
    <glyph glyph-name="dcaron" unicode="&#x10f;" horiz-adv-x="596" 
d="M548 734h78l-28 -196l-49 2zM401 734h91v-734h-74l-12 71h-2c-29 -52 -87 -83 -152 -83c-122 0 -208 71 -208 259c0 179 81 277 216 277c70 0 112 -28 141 -70v280zM405 260c0 150 -55 197 -129 197c-87 0 -137 -65 -137 -210c0 -141 49 -193 129 -193
c82 0 137 57 137 206z" />
    <glyph glyph-name="Dcroat" unicode="&#x110;" horiz-adv-x="658" 
d="M222 0h-129v331h-69v76h69v327h130c287 0 382 -111 382 -363c0 -260 -101 -371 -383 -371zM191 79h45c193 0 269 76 269 292c0 195 -64 284 -263 284h-51v-248h194v-76h-194v-252z" />
    <glyph glyph-name="dcroat" unicode="&#x111;" horiz-adv-x="560" 
d="M401 734h91v-76h61v-66h-61v-592h-74l-12 71h-2c-29 -52 -87 -83 -152 -83c-122 0 -208 71 -208 259c0 179 81 277 216 277c70 0 112 -28 141 -70v138h-200v66h200v76zM405 260c0 150 -55 197 -129 197c-87 0 -137 -65 -137 -210c0 -141 49 -193 129 -193
c82 0 137 57 137 206z" />
    <glyph glyph-name="Emacron" unicode="&#x112;" horiz-adv-x="557" 
d="M152 799v69h271v-69h-271zM454 416v-78h-266v-259h323v-79h-421v734h398v-79h-300v-239h266z" />
    <glyph glyph-name="emacron" unicode="&#x113;" horiz-adv-x="525" 
d="M399 170l77 -9c-19 -141 -122 -173 -203 -173c-170 0 -230 113 -230 263c0 165 85 273 240 273c144 0 214 -105 194 -286h-339c0 -99 33 -179 137 -179c66 0 113 31 124 111zM138 301h254c4 93 -31 156 -119 156c-92 0 -132 -74 -135 -156zM135 622v66h271v-66h-271z" />
    <glyph glyph-name="Ebreve" unicode="&#x114;" horiz-adv-x="557" 
d="M147 900l56 11c16 -53 40 -74 87 -74c49 0 72 21 93 74l52 -11c-18 -88 -69 -131 -147 -131s-127 44 -141 131zM454 416v-78h-266v-259h323v-79h-421v734h398v-79h-300v-239h266z" />
    <glyph glyph-name="ebreve" unicode="&#x115;" horiz-adv-x="525" 
d="M399 170l77 -9c-19 -141 -122 -173 -203 -173c-170 0 -230 113 -230 263c0 165 85 273 240 273c144 0 214 -105 194 -286h-339c0 -99 33 -179 137 -179c66 0 113 31 124 111zM138 301h254c4 93 -31 156 -119 156c-92 0 -132 -74 -135 -156zM128 725l56 7
c10 -55 37 -85 85 -85c50 0 77 30 91 85l52 -7c-14 -96 -66 -144 -145 -144c-81 0 -129 49 -139 144z" />
    <glyph glyph-name="Edotaccent" unicode="&#x116;" horiz-adv-x="557" 
d="M246 790v107h92v-107h-92zM454 416v-78h-266v-259h323v-79h-421v734h398v-79h-300v-239h266z" />
    <glyph glyph-name="edotaccent" unicode="&#x117;" horiz-adv-x="525" 
d="M399 170l77 -9c-19 -141 -122 -173 -203 -173c-170 0 -230 113 -230 263c0 165 85 273 240 273c144 0 214 -105 194 -286h-339c0 -99 33 -179 137 -179c66 0 113 31 124 111zM138 301h254c4 93 -31 156 -119 156c-92 0 -132 -74 -135 -156zM227 627v107h92v-107h-92z" />
    <glyph glyph-name="Eogonek" unicode="&#x118;" horiz-adv-x="557" 
d="M454 416v-78h-266v-259h323v-79h-60c-39 -39 -72 -72 -72 -103c0 -22 12 -29 28 -29c21 0 33 17 45 38l44 -23c-25 -52 -63 -78 -112 -78c-45 0 -81 20 -81 65c0 48 34 89 86 130h-299v734h398v-79h-300v-239h266z" />
    <glyph glyph-name="eogonek" unicode="&#x119;" horiz-adv-x="525" 
d="M399 170l77 -9c-10 -70 -42 -108 -73 -140c-46 -48 -77 -93 -77 -124c0 -22 13 -29 29 -29c23 0 39 17 51 38l43 -23c-24 -52 -71 -78 -120 -78c-46 0 -78 20 -78 65c0 40 23 79 68 122c-16 -2 -31 -4 -46 -4c-170 0 -230 113 -230 263c0 165 85 273 240 273
c144 0 214 -105 194 -286h-339c0 -99 33 -179 137 -179c66 0 113 31 124 111zM138 301h254c4 93 -31 156 -119 156c-92 0 -132 -74 -135 -156z" />
    <glyph glyph-name="Ecaron" unicode="&#x11a;" horiz-adv-x="557" 
d="M315 766h-54l-122 113l29 37l120 -79l120 79l29 -37zM454 416v-78h-266v-259h323v-79h-421v734h398v-79h-300v-239h266z" />
    <glyph glyph-name="ecaron" unicode="&#x11b;" horiz-adv-x="525" 
d="M300 579h-53l-119 142l36 33l110 -103l109 103l37 -33zM399 170l77 -9c-19 -141 -122 -173 -203 -173c-170 0 -230 113 -230 263c0 165 85 273 240 273c144 0 214 -105 194 -286h-339c0 -99 33 -179 137 -179c66 0 113 31 124 111zM138 301h254c4 93 -31 156 -119 156
c-92 0 -132 -74 -135 -156z" />
    <glyph glyph-name="Gcircumflex" unicode="&#x11c;" horiz-adv-x="678" 
d="M347 285v78h250v-375h-72l-8 100c-40 -68 -107 -100 -188 -100c-176 0 -276 123 -276 361c0 274 125 397 305 397c151 0 238 -99 235 -265l-93 -8c-1 145 -68 192 -151 192c-105 0 -189 -83 -189 -305c0 -198 62 -292 181 -292c94 0 164 68 168 187v30h-162zM328 916h53
l122 -117l-29 -36l-120 79l-120 -79l-28 36z" />
    <glyph glyph-name="gcircumflex" unicode="&#x11d;" horiz-adv-x="560" 
d="M250 743h53l119 -142l-36 -33l-111 102l-108 -102l-37 33zM425 512h67v-483c0 -141 -73 -224 -229 -224c-97 0 -175 38 -197 130l81 20c15 -46 40 -79 117 -79c95 0 137 44 137 152v55h-2c-23 -42 -71 -80 -153 -80c-110 0 -202 65 -202 247c0 183 88 274 216 274
c77 0 118 -30 144 -71h3zM404 261c0 147 -53 196 -127 196c-76 0 -138 -51 -138 -205c0 -135 49 -183 127 -183c86 0 138 56 138 192z" />
    <glyph glyph-name="Gbreve" unicode="&#x11e;" horiz-adv-x="678" 
d="M211 905l56 11c16 -53 40 -74 87 -74c49 0 72 21 93 74l52 -11c-18 -88 -69 -131 -147 -131s-127 44 -141 131zM347 285v78h250v-375h-72l-8 100c-40 -68 -107 -100 -188 -100c-176 0 -276 123 -276 361c0 274 125 397 305 397c151 0 238 -99 235 -265l-93 -8
c-1 145 -68 192 -151 192c-105 0 -189 -83 -189 -305c0 -198 62 -292 181 -292c94 0 164 68 168 187v30h-162z" />
    <glyph glyph-name="gbreve" unicode="&#x11f;" horiz-adv-x="560" 
d="M425 512h67v-483c0 -141 -73 -224 -229 -224c-97 0 -175 38 -197 130l81 20c15 -46 40 -79 117 -79c95 0 137 44 137 152v55h-2c-23 -42 -71 -80 -153 -80c-110 0 -202 65 -202 247c0 183 88 274 216 274c77 0 118 -30 144 -71h3zM404 261c0 147 -53 196 -127 196
c-76 0 -138 -51 -138 -205c0 -135 49 -183 127 -183c86 0 138 56 138 192zM134 725l56 7c10 -55 37 -85 85 -85c50 0 77 30 91 85l52 -7c-14 -96 -66 -144 -145 -144c-81 0 -129 49 -139 144z" />
    <glyph glyph-name="Gdotaccent" unicode="&#x120;" horiz-adv-x="678" 
d="M306 790v107h92v-107h-92zM347 285v78h250v-375h-72l-8 100c-40 -68 -107 -100 -188 -100c-176 0 -276 123 -276 361c0 274 125 397 305 397c151 0 238 -99 235 -265l-93 -8c-1 145 -68 192 -151 192c-105 0 -189 -83 -189 -305c0 -198 62 -292 181 -292
c94 0 164 68 168 187v30h-162z" />
    <glyph glyph-name="gdotaccent" unicode="&#x121;" horiz-adv-x="560" 
d="M425 512h67v-483c0 -141 -73 -224 -229 -224c-97 0 -175 38 -197 130l81 20c15 -46 40 -79 117 -79c95 0 137 44 137 152v55h-2c-23 -42 -71 -80 -153 -80c-110 0 -202 65 -202 247c0 183 88 274 216 274c77 0 118 -30 144 -71h3zM404 261c0 147 -53 196 -127 196
c-76 0 -138 -51 -138 -205c0 -135 49 -183 127 -183c86 0 138 56 138 192zM228 627v107h92v-107h-92z" />
    <glyph glyph-name="Gcommaaccent" unicode="&#x122;" horiz-adv-x="678" 
d="M347 285v78h250v-375h-72l-8 100c-40 -68 -107 -100 -188 -100c-176 0 -276 123 -276 361c0 274 125 397 305 397c151 0 238 -99 235 -265l-93 -8c-1 145 -68 192 -151 192c-105 0 -189 -83 -189 -305c0 -198 62 -292 181 -292c94 0 164 68 168 187v30h-162zM290 -146
v100h93v-85l-42 -112l-44 11l22 86h-29z" />
    <glyph glyph-name="gcommaaccent" unicode="&#x123;" horiz-adv-x="560" 
d="M323 680v-100h-94v85l43 112l43 -11l-21 -86h29zM425 512h67v-483c0 -141 -73 -224 -229 -224c-97 0 -175 38 -197 130l81 20c15 -46 40 -79 117 -79c95 0 137 44 137 152v55h-2c-23 -42 -71 -80 -153 -80c-110 0 -202 65 -202 247c0 183 88 274 216 274
c77 0 118 -30 144 -71h3zM404 261c0 147 -53 196 -127 196c-76 0 -138 -51 -138 -205c0 -135 49 -183 127 -183c86 0 138 56 138 192z" />
    <glyph glyph-name="Hcircumflex" unicode="&#x124;" horiz-adv-x="697" 
d="M607 734v-734h-99v326h-319v-326h-98v734h98v-326h319v326h99zM319 916h53l122 -117l-29 -36l-120 79l-120 -79l-28 36z" />
    <glyph glyph-name="hcircumflex" unicode="&#x125;" horiz-adv-x="563" 
d="M497 307v-307h-92v299c0 70 -13 152 -108 152c-104 0 -135 -76 -135 -161v-290h-93v734h92v-296h1c29 44 69 86 159 86c112 0 176 -68 176 -217zM95 908h53l122 -117l-29 -36l-120 79l-120 -79l-28 36z" />
    <glyph glyph-name="Hbar" unicode="&#x126;" horiz-adv-x="717" 
d="M617 734v-131h65v-73h-65v-530h-99v326h-319v-326h-98v530h-66v73h66v131h98v-131h319v131h99zM199 408h319v122h-319v-122z" />
    <glyph glyph-name="hbar" unicode="&#x127;" horiz-adv-x="563" 
d="M497 307v-307h-92v299c0 70 -13 152 -108 152c-104 0 -135 -76 -135 -161v-290h-93v592h-62v66h62v76h92v-76h202v-66h-202v-154h1c29 44 69 86 159 86c112 0 176 -68 176 -217z" />
    <glyph glyph-name="Itilde" unicode="&#x128;" horiz-adv-x="364" 
d="M229 663v-592h79v-71h-251v71h76v592h-76v71h251v-71h-79zM87 782l-48 7c15 74 50 96 80 96c48 0 91 -31 125 -31c16 0 27 10 37 42l46 -8c-15 -74 -47 -98 -79 -98c-52 0 -93 31 -126 31c-16 0 -28 -12 -35 -39z" />
    <glyph glyph-name="itilde" unicode="&#x129;" horiz-adv-x="231" 
d="M69 0v512h93v-512h-93zM18 607l-48 7c15 74 50 96 80 96c48 0 91 -31 125 -31c16 0 27 10 37 42l47 -8c-16 -74 -48 -98 -80 -98c-51 0 -93 31 -126 31c-16 0 -28 -12 -35 -39z" />
    <glyph glyph-name="Imacron" unicode="&#x12a;" horiz-adv-x="364" 
d="M229 663v-592h79v-71h-251v71h76v592h-76v71h251v-71h-79zM47 799v69h271v-69h-271z" />
    <glyph glyph-name="imacron" unicode="&#x12b;" horiz-adv-x="231" 
d="M69 0v512h93v-512h-93zM-21 622v66h271v-66h-271z" />
    <glyph glyph-name="Ibreve" unicode="&#x12c;" horiz-adv-x="364" 
d="M229 663v-592h79v-71h-251v71h76v592h-76v71h251v-71h-79zM40 900l56 11c16 -53 40 -74 87 -74c49 0 72 21 93 74l52 -11c-18 -88 -69 -131 -147 -131s-127 44 -141 131z" />
    <glyph glyph-name="ibreve" unicode="&#x12d;" horiz-adv-x="231" 
d="M69 0v512h93v-512h-93zM-26 725l56 7c10 -55 37 -85 85 -85c50 0 77 30 91 85l52 -7c-14 -96 -66 -144 -145 -144c-81 0 -129 49 -139 144z" />
    <glyph glyph-name="Iogonek" unicode="&#x12e;" horiz-adv-x="364" 
d="M229 663v-592h79v-71h-97c-39 -39 -72 -72 -72 -103c0 -22 12 -29 28 -29c21 0 33 17 45 38l44 -23c-25 -52 -63 -78 -112 -78c-45 0 -81 20 -81 65c0 48 34 89 86 130h-92v71h76v592h-76v71h251v-71h-79z" />
    <glyph glyph-name="iogonek" unicode="&#x12f;" horiz-adv-x="231" 
d="M69 0v512h93v-512c-46 -22 -89 -72 -89 -103c0 -22 12 -29 28 -29c21 0 33 17 45 38l44 -23c-25 -52 -63 -78 -112 -78c-45 0 -81 20 -81 65c0 48 28 88 72 130zM69 627v107h93v-107h-93z" />
    <glyph glyph-name="Idotaccent" unicode="&#x130;" horiz-adv-x="364" 
d="M229 663v-592h79v-71h-251v71h76v592h-76v71h251v-71h-79zM137 790v107h92v-107h-92z" />
    <glyph glyph-name="idotaccent" horiz-adv-x="231" 
d="M69 627v107h93v-107h-93zM69 0v512h93v-512h-93z" />
    <glyph glyph-name="dotlessi" unicode="&#x131;" horiz-adv-x="231" 
d="M69 0v512h93v-512h-93z" />
    <glyph glyph-name="IJ" unicode="&#x132;" horiz-adv-x="896" 
d="M229 663v-592h79v-71h-251v71h76v592h-76v71h251v-71h-79zM394 211l92 9c5 -71 14 -149 117 -149c80 0 110 46 110 145v518h98v-529c0 -131 -65 -217 -210 -217c-139 0 -204 76 -207 223z" />
    <glyph glyph-name="Jcircumflex" unicode="&#x134;" horiz-adv-x="532" 
d="M30 211l92 9c5 -71 14 -149 117 -149c80 0 110 46 110 145v518h98v-529c0 -131 -65 -217 -210 -217c-139 0 -204 76 -207 223zM372 916h53l122 -117l-29 -36l-120 79l-120 -79l-28 36z" />
    <glyph glyph-name="jcircumflex" unicode="&#x135;" horiz-adv-x="232" 
d="M-66 -184l10 67c21 -5 38 -8 59 -8c51 0 69 34 69 110v527h92v-516c0 -128 -43 -191 -155 -191c-27 0 -56 5 -75 11zM92 743h53l119 -142l-36 -33l-111 102l-108 -102l-37 33z" />
    <glyph glyph-name="Kcommaaccent" unicode="&#x136;" horiz-adv-x="624" 
d="M285 -146v100h93v-85l-42 -112l-44 11l22 86h-29zM189 734v-358l301 358h109l-262 -308l280 -426h-112l-232 349l-84 -99v-250h-98v734h98z" />
    <glyph glyph-name="kcommaaccent" unicode="&#x137;" horiz-adv-x="506" 
d="M210 -146v100h93v-85l-42 -112l-44 11l22 86h-29zM162 734v-441l205 219h109l-176 -182l196 -330h-106l-153 266l-75 -75v-191h-93v734h93z" />
    <glyph glyph-name="kgreenlandic" unicode="&#x138;" horiz-adv-x="506" 
d="M162 512v-211l205 211h109l-175 -180l195 -332h-106l-153 266l-75 -77v-189h-93v512h93z" />
    <glyph glyph-name="Lacute" unicode="&#x139;" horiz-adv-x="514" 
d="M221 920l41 -69l-178 -88l-26 47zM189 734v-655h289v-79h-387v734h98z" />
    <glyph glyph-name="lacute" unicode="&#x13a;" horiz-adv-x="231" 
d="M193 920l41 -69l-178 -88l-26 47zM162 734v-734h-93v734h93z" />
    <glyph glyph-name="Lcommaaccent" unicode="&#x13b;" horiz-adv-x="514" 
d="M238 -146v100h93v-85l-42 -112l-44 11l22 86h-29zM189 734v-655h289v-79h-387v734h98z" />
    <glyph glyph-name="lcommaaccent" unicode="&#x13c;" horiz-adv-x="231" 
d="M70 -146v100h93v-85l-42 -112l-44 11l22 86h-29zM162 734v-734h-93v734h93z" />
    <glyph glyph-name="Lcaron" unicode="&#x13d;" horiz-adv-x="514" 
d="M285 734h78l-28 -196l-49 2zM189 734v-655h289v-79h-387v734h98z" />
    <glyph glyph-name="lcaron" unicode="&#x13e;" horiz-adv-x="265" 
d="M217 734h78l-28 -196l-49 2zM162 734v-734h-93v734h93z" />
    <glyph glyph-name="Ldot" unicode="&#x13f;" horiz-adv-x="514" 
d="M325 359v107h92v-107h-92zM189 734v-655h289v-79h-387v734h98z" />
    <glyph glyph-name="ldot" unicode="&#x140;" horiz-adv-x="292" 
d="M162 734v-734h-93v734h93zM217 334v107h92v-107h-92z" />
    <glyph glyph-name="Lslash" unicode="&#x141;" horiz-adv-x="514" 
d="M189 734v-309l160 76l18 -70l-178 -84v-268h289v-79h-387v308l-80 -37l-15 70l95 46v347h98z" />
    <glyph glyph-name="lslash" unicode="&#x142;" horiz-adv-x="281" 
d="M188 734v-284l74 34l19 -71l-93 -42v-371h-93v335l-73 -33l-17 70l90 42v320h93z" />
    <glyph glyph-name="Nacute" unicode="&#x143;" horiz-adv-x="702" 
d="M440 920l41 -69l-178 -88l-26 47zM611 0h-113l-317 608v-608h-90v734h125l306 -602v602h89v-734z" />
    <glyph glyph-name="nacute" unicode="&#x144;" horiz-adv-x="563" 
d="M342 756l60 -54l-146 -134l-38 35zM497 309v-309h-92v299c0 109 -36 152 -109 152c-106 0 -134 -80 -134 -161v-290h-93v512h86l4 -77h1c21 40 67 89 158 89c114 0 179 -67 179 -215z" />
    <glyph glyph-name="Ncommaaccent" unicode="&#x145;" horiz-adv-x="702" 
d="M312 -146v100h93v-85l-42 -112l-44 11l22 86h-29zM612 0h-113l-317 608v-608h-90v734h125l306 -602v602h89v-734z" />
    <glyph glyph-name="ncommaaccent" unicode="&#x146;" horiz-adv-x="563" 
d="M236 -146v100h93v-85l-42 -112l-44 11l22 86h-29zM497 309v-309h-92v299c0 109 -36 152 -109 152c-106 0 -134 -80 -134 -161v-290h-93v512h86l4 -77h1c21 40 67 89 158 89c114 0 179 -67 179 -215z" />
    <glyph glyph-name="Ncaron" unicode="&#x147;" horiz-adv-x="702" 
d="M390 766h-54l-122 113l29 37l120 -79l120 79l29 -37zM611 0h-113l-317 608v-608h-90v734h125l306 -602v602h89v-734z" />
    <glyph glyph-name="ncaron" unicode="&#x148;" horiz-adv-x="563" 
d="M313 579h-53l-119 142l36 33l110 -103l109 103l37 -33zM497 309v-309h-92v299c0 109 -36 152 -109 152c-106 0 -134 -80 -134 -161v-290h-93v512h86l4 -77h1c21 40 67 89 158 89c114 0 179 -67 179 -215z" />
    <glyph glyph-name="napostrophe" unicode="&#x149;" horiz-adv-x="619" 
d="M83 709v-100h-29l22 -86l-43 -11l-43 112v85h93zM552 309v-309h-92v299c0 109 -36 152 -109 152c-106 0 -134 -80 -134 -161v-290h-93v512h86l4 -77h1c21 40 67 89 158 89c114 0 179 -67 179 -215z" />
    <glyph glyph-name="Eng" unicode="&#x14a;" horiz-adv-x="702" 
d="M287 -170l17 73c20 -7 52 -20 103 -20c83 0 107 44 108 124l-334 601v-608h-90v734h120l311 -563v563h89v-739c0 -112 -59 -190 -194 -190c-52 0 -110 14 -130 25z" />
    <glyph glyph-name="eng" unicode="&#x14b;" horiz-adv-x="563" 
d="M268 -184l10 67c20 -5 38 -8 58 -8c51 0 69 34 69 110v314c0 109 -36 152 -109 152c-106 0 -134 -80 -134 -161v-290h-93v512h86l4 -77h1c21 40 67 89 158 89c114 0 179 -67 179 -215v-313c0 -128 -42 -191 -154 -191c-28 0 -56 5 -75 11z" />
    <glyph glyph-name="Omacron" unicode="&#x14c;" horiz-adv-x="685" 
d="M219 799v69h271v-69h-271zM339 -12c-194 0 -286 136 -286 377c0 243 115 382 305 382c187 0 274 -136 274 -368c0 -250 -96 -391 -293 -391zM345 68c133 0 187 112 187 305c0 185 -51 292 -179 292c-131 0 -199 -110 -199 -296c0 -189 54 -301 191 -301z" />
    <glyph glyph-name="omacron" unicode="&#x14d;" horiz-adv-x="553" 
d="M143 622v66h271v-66h-271zM274 -12c-156 0 -231 96 -231 268c0 176 106 268 242 268c141 0 225 -90 225 -258c0 -183 -88 -278 -236 -278zM278 58c99 0 138 87 138 202c0 113 -38 192 -136 192s-142 -83 -142 -195c0 -115 37 -199 140 -199z" />
    <glyph glyph-name="Obreve" unicode="&#x14e;" horiz-adv-x="685" 
d="M212 905l56 11c16 -53 40 -74 87 -74c49 0 72 21 93 74l52 -11c-18 -88 -69 -131 -147 -131s-127 44 -141 131zM339 -12c-194 0 -286 136 -286 377c0 243 115 382 305 382c187 0 274 -136 274 -368c0 -250 -96 -391 -293 -391zM345 68c133 0 187 112 187 305
c0 185 -51 292 -179 292c-131 0 -199 -110 -199 -296c0 -189 54 -301 191 -301z" />
    <glyph glyph-name="obreve" unicode="&#x14f;" horiz-adv-x="553" 
d="M274 -12c-156 0 -231 96 -231 268c0 176 106 268 242 268c141 0 225 -90 225 -258c0 -183 -88 -278 -236 -278zM278 58c99 0 138 87 138 202c0 113 -38 192 -136 192s-142 -83 -142 -195c0 -115 37 -199 140 -199zM138 725l56 7c10 -55 37 -85 85 -85c50 0 77 30 91 85
l52 -7c-14 -96 -66 -144 -145 -144c-81 0 -129 49 -139 144z" />
    <glyph glyph-name="Ohungarumlaut" unicode="&#x150;" horiz-adv-x="685" 
d="M339 -12c-194 0 -286 136 -286 377c0 243 115 382 305 382c187 0 274 -136 274 -368c0 -250 -96 -391 -293 -391zM345 68c133 0 187 112 187 305c0 185 -51 292 -179 292c-131 0 -199 -110 -199 -296c0 -189 54 -301 191 -301zM515 919l41 -59l-160 -93l-26 39zM353 926
l46 -58l-150 -100l-28 36z" />
    <glyph glyph-name="ohungarumlaut" unicode="&#x151;" horiz-adv-x="553" 
d="M432 752l55 -47l-144 -135l-33 31zM290 756l59 -45l-132 -140l-36 28zM274 -12c-156 0 -231 96 -231 268c0 176 106 268 242 268c141 0 225 -90 225 -258c0 -183 -88 -278 -236 -278zM278 58c99 0 138 87 138 202c0 113 -38 192 -136 192s-142 -83 -142 -195
c0 -115 37 -199 140 -199z" />
    <glyph glyph-name="OE" unicode="&#x152;" horiz-adv-x="920" 
d="M818 416v-78h-267v-259h323v-79h-454c-29 -7 -59 -12 -88 -12c-185 0 -279 136 -279 376c0 244 116 383 298 383c32 0 62 -5 90 -13h410v-79h-300v-239h267zM342 68c37 0 80 8 111 22v552c-27 14 -66 23 -103 23c-129 0 -196 -110 -196 -298c0 -187 56 -299 188 -299z
" />
    <glyph glyph-name="oe" unicode="&#x153;" horiz-adv-x="893" 
d="M769 175l75 -7c-17 -146 -121 -180 -205 -180c-86 0 -147 37 -181 101c-40 -69 -103 -101 -187 -101c-152 0 -228 101 -228 259c0 188 106 277 239 277c86 0 146 -38 183 -102c40 64 102 102 188 102c141 0 212 -105 193 -286h-339c0 -99 34 -179 138 -179
c66 0 114 33 124 116zM276 58c101 0 140 87 140 200c0 116 -38 194 -136 194c-99 0 -142 -81 -142 -199c0 -108 37 -195 138 -195zM507 301h254c4 92 -31 156 -118 156c-95 0 -133 -74 -136 -156z" />
    <glyph glyph-name="Racute" unicode="&#x154;" horiz-adv-x="615" 
d="M470 0l-160 317h-19h-102v-317h-98v734h235c181 0 237 -88 237 -196c0 -84 -25 -175 -155 -208l169 -330h-107zM189 394h96c122 0 176 32 176 139c0 87 -49 123 -156 123h-116v-262zM377 920l41 -69l-178 -88l-26 47z" />
    <glyph glyph-name="racute" unicode="&#x155;" horiz-adv-x="438" 
d="M297 756l60 -54l-146 -134l-38 35zM415 345l-86 -4c10 85 -10 109 -56 109c-82 0 -111 -81 -111 -173v-277h-93v512h86l5 -74h1c24 49 67 86 138 86c85 0 135 -53 116 -179z" />
    <glyph glyph-name="Rcommaaccent" unicode="&#x156;" horiz-adv-x="615" 
d="M470 0l-160 317h-19h-102v-317h-98v734h235c181 0 237 -88 237 -196c0 -84 -25 -175 -155 -208l169 -330h-107zM189 394h96c122 0 176 32 176 139c0 87 -49 123 -156 123h-116v-262zM273 -146v100h93v-85l-42 -112l-44 11l22 86h-29z" />
    <glyph glyph-name="rcommaaccent" unicode="&#x157;" horiz-adv-x="438" 
d="M69 -146v100h93v-85l-42 -112l-44 11l22 86h-29zM415 345l-86 -4c10 85 -10 109 -56 109c-82 0 -111 -81 -111 -173v-277h-93v512h86l5 -74h1c24 49 67 86 138 86c85 0 135 -53 116 -179z" />
    <glyph glyph-name="Rcaron" unicode="&#x158;" horiz-adv-x="615" 
d="M327 766h-54l-122 113l29 37l120 -79l120 79l29 -37zM470 0l-160 317h-19h-102v-317h-98v734h235c181 0 237 -88 237 -196c0 -84 -25 -175 -155 -208l169 -330h-107zM189 394h96c122 0 176 32 176 139c0 87 -49 123 -156 123h-116v-262z" />
    <glyph glyph-name="rcaron" unicode="&#x159;" horiz-adv-x="438" 
d="M268 579h-53l-119 142l36 33l110 -103l109 103l37 -33zM415 345l-86 -4c10 85 -10 109 -56 109c-82 0 -111 -81 -111 -173v-277h-93v512h86l5 -74h1c24 49 67 86 138 86c85 0 135 -53 116 -179z" />
    <glyph glyph-name="Sacute" unicode="&#x15a;" horiz-adv-x="582" 
d="M532 526l-94 -14c-9 101 -54 155 -147 155c-86 0 -133 -42 -133 -118c0 -80 60 -105 133 -123c109 -29 248 -48 248 -216c0 -136 -100 -222 -248 -222c-160 0 -246 65 -261 227l98 15c11 -101 43 -160 165 -160c100 0 146 53 146 129c0 89 -70 114 -148 133
c-108 26 -235 49 -235 209c0 129 99 207 238 207c148 0 226 -85 238 -222zM384 920l41 -69l-178 -88l-26 47z" />
    <glyph glyph-name="sacute" unicode="&#x15b;" horiz-adv-x="477" 
d="M300 756l60 -54l-146 -134l-38 35zM431 372l-80 -15c-8 65 -38 98 -106 98c-64 0 -102 -23 -102 -73c0 -132 294 -23 294 -234c0 -99 -87 -160 -206 -160c-120 0 -183 49 -196 158l82 14c10 -65 32 -103 116 -103c80 0 114 35 114 82c0 139 -291 30 -291 233
c0 99 81 152 189 152c116 0 174 -55 186 -152z" />
    <glyph glyph-name="Scircumflex" unicode="&#x15c;" horiz-adv-x="582" 
d="M532 526l-94 -14c-9 101 -54 155 -147 155c-86 0 -133 -42 -133 -118c0 -80 60 -105 133 -123c109 -29 248 -48 248 -216c0 -136 -100 -222 -248 -222c-160 0 -246 65 -261 227l98 15c11 -101 43 -160 165 -160c100 0 146 53 146 129c0 89 -70 114 -148 133
c-108 26 -235 49 -235 209c0 129 99 207 238 207c148 0 226 -85 238 -222zM281 916h53l122 -117l-29 -36l-120 79l-120 -79l-28 36z" />
    <glyph glyph-name="scircumflex" unicode="&#x15d;" horiz-adv-x="477" 
d="M218 743h53l119 -142l-36 -33l-111 102l-108 -102l-37 33zM431 372l-80 -15c-8 65 -38 98 -106 98c-64 0 -102 -23 -102 -73c0 -132 294 -23 294 -234c0 -99 -87 -160 -206 -160c-120 0 -183 49 -196 158l82 14c10 -65 32 -103 116 -103c80 0 114 35 114 82
c0 139 -291 30 -291 233c0 99 81 152 189 152c116 0 174 -55 186 -152z" />
    <glyph glyph-name="Scedilla" unicode="&#x15e;" horiz-adv-x="582" 
d="M238 -84l30 73c-146 6 -224 72 -238 226l98 15c11 -101 43 -160 165 -160c100 0 146 53 146 129c0 89 -70 114 -148 133c-108 26 -235 49 -235 209c0 129 99 207 238 207c148 0 226 -85 238 -222l-94 -14c-9 101 -54 155 -147 155c-86 0 -133 -42 -133 -118
c0 -80 60 -105 133 -123c109 -29 248 -48 248 -216c0 -128 -88 -211 -221 -221l-18 -40c9 4 18 6 29 6c46 0 79 -30 79 -80c0 -58 -48 -92 -110 -92c-33 0 -73 11 -101 49l34 34c18 -20 37 -31 61 -31c29 0 45 14 45 39c0 27 -17 39 -41 39c-12 0 -22 -5 -30 -10z" />
    <glyph glyph-name="scedilla" unicode="&#x15f;" horiz-adv-x="477" 
d="M176 -84l30 73c-104 7 -159 55 -171 157l82 14c10 -65 32 -103 116 -103c80 0 114 35 114 82c0 139 -291 30 -291 233c0 99 81 152 189 152c116 0 174 -55 186 -152l-80 -15c-8 65 -38 98 -106 98c-64 0 -102 -23 -102 -73c0 -132 294 -23 294 -234
c0 -92 -75 -151 -181 -159l-18 -40c9 4 18 6 29 6c46 0 79 -30 79 -80c0 -58 -48 -92 -110 -92c-33 0 -73 11 -101 49l34 34c18 -20 37 -31 61 -31c29 0 45 14 45 39c0 27 -17 39 -41 39c-12 0 -22 -5 -30 -10z" />
    <glyph glyph-name="Scaron" unicode="&#x160;" horiz-adv-x="582" 
d="M532 526l-94 -14c-9 101 -54 155 -147 155c-86 0 -133 -42 -133 -118c0 -80 60 -105 133 -123c109 -29 248 -48 248 -216c0 -136 -100 -222 -248 -222c-160 0 -246 65 -261 227l98 15c11 -101 43 -160 165 -160c100 0 146 53 146 129c0 89 -70 114 -148 133
c-108 26 -235 49 -235 209c0 129 99 207 238 207c148 0 226 -85 238 -222zM333 774h-54l-122 113l29 37l120 -79l120 79l29 -37z" />
    <glyph glyph-name="scaron" unicode="&#x161;" horiz-adv-x="477" 
d="M270 579h-53l-119 142l36 33l110 -103l109 103l37 -33zM431 372l-80 -15c-8 65 -38 98 -106 98c-64 0 -102 -23 -102 -73c0 -132 294 -23 294 -234c0 -99 -87 -160 -206 -160c-120 0 -183 49 -196 158l82 14c10 -65 32 -103 116 -103c80 0 114 35 114 82
c0 139 -291 30 -291 233c0 99 81 152 189 152c116 0 174 -55 186 -152z" />
    <glyph glyph-name="Scommaaccent" unicode="&#x218;" horiz-adv-x="582" 
d="M532 526l-94 -14c-9 101 -54 155 -147 155c-86 0 -133 -42 -133 -118c0 -80 60 -105 133 -123c109 -29 248 -48 248 -216c0 -136 -100 -222 -248 -222c-160 0 -246 65 -261 227l98 15c11 -101 43 -160 165 -160c100 0 146 53 146 129c0 89 -70 114 -148 133
c-108 26 -235 49 -235 209c0 129 99 207 238 207c148 0 226 -85 238 -222zM252 -146v100h93v-85l-42 -112l-44 11l22 86h-29z" />
    <glyph glyph-name="scommaaccent" unicode="&#x219;" horiz-adv-x="477" 
d="M193 -146v100h93v-85l-42 -112l-44 11l22 86h-29zM431 372l-80 -15c-8 65 -38 98 -106 98c-64 0 -102 -23 -102 -73c0 -132 294 -23 294 -234c0 -99 -87 -160 -206 -160c-120 0 -183 49 -196 158l82 14c10 -65 32 -103 116 -103c80 0 114 35 114 82
c0 139 -291 30 -291 233c0 99 81 152 189 152c116 0 174 -55 186 -152z" />
    <glyph glyph-name="uni0162" unicode="&#x162;" horiz-adv-x="546" 
d="M224 0v655h-209v79h516v-79h-209v-655h-27l-23 -51c9 4 18 6 29 6c46 0 79 -30 79 -80c0 -58 -48 -92 -110 -92c-33 0 -73 11 -101 49l34 34c18 -20 37 -31 61 -31c29 0 45 14 45 39c0 27 -17 39 -41 39c-12 0 -22 -5 -30 -10l-28 13l35 84h-21z" />
    <glyph glyph-name="uni0163" unicode="&#x163;" horiz-adv-x="341" 
d="M141 -84l33 79c-67 19 -88 77 -88 163v285h-62v69h62v111l92 29v-140h122v-69h-122v-276c0 -74 15 -108 73 -108c25 0 43 4 63 10l9 -67c-19 -7 -52 -14 -92 -14h-11l-17 -39c9 4 18 6 29 6c46 0 79 -30 79 -80c0 -58 -48 -92 -110 -92c-33 0 -73 11 -101 49l34 34
c18 -20 37 -31 61 -31c29 0 45 14 45 39c0 27 -17 39 -41 39c-12 0 -22 -5 -30 -10z" />
    <glyph glyph-name="Tcaron" unicode="&#x164;" horiz-adv-x="546" 
d="M300 766h-54l-122 113l29 37l120 -79l120 79l29 -37zM224 0v655h-209v79h516v-79h-209v-655h-98z" />
    <glyph glyph-name="tcaron" unicode="&#x165;" horiz-adv-x="341" 
d="M227 757h78l-28 -196l-49 2zM24 443v69h62v111l92 29v-140h122v-69h-122v-276c0 -74 15 -108 73 -108c25 0 43 4 63 10l9 -67c-19 -7 -52 -14 -92 -14c-112 0 -145 63 -145 170v285h-62z" />
    <glyph glyph-name="Tbar" unicode="&#x166;" horiz-adv-x="546" 
d="M224 0v351h-159v74h159v230h-209v79h516v-79h-209v-230h159v-74h-159v-351h-98z" />
    <glyph glyph-name="tbar" unicode="&#x167;" horiz-adv-x="341" 
d="M24 443v69h62v111l92 29v-140h122v-69h-122v-93h122v-65h-122v-118c0 -74 15 -108 73 -108c25 0 43 4 63 10l9 -67c-19 -7 -52 -14 -92 -14c-112 0 -145 63 -145 170v127h-62v65h62v93h-62z" />
    <glyph glyph-name="uni021A" unicode="&#x21a;" horiz-adv-x="546" 
d="M224 0v655h-209v79h516v-79h-209v-655h-98zM224 -146v100h93v-85l-42 -112l-44 11l22 86h-29z" />
    <glyph glyph-name="uni021B" unicode="&#x21b;" horiz-adv-x="341" 
d="M160 -146v100h93v-85l-42 -112l-44 11l22 86h-29zM24 443v69h62v111l92 29v-140h122v-69h-122v-276c0 -74 15 -108 73 -108c25 0 43 4 63 10l9 -67c-19 -7 -52 -14 -92 -14c-112 0 -145 63 -145 170v285h-62z" />
    <glyph glyph-name="Utilde" unicode="&#x168;" horiz-adv-x="703" 
d="M250 782l-48 7c15 74 50 96 80 96c48 0 91 -31 125 -31c16 0 27 10 37 42l46 -8c-15 -74 -47 -98 -79 -98c-52 0 -93 31 -126 31c-16 0 -28 -12 -35 -39zM521 278v456h97v-477c0 -172 -93 -269 -271 -269c-189 0 -262 103 -262 271v475h97v-455c0 -143 50 -210 170 -210
c117 0 169 63 169 209z" />
    <glyph glyph-name="utilde" unicode="&#x169;" horiz-adv-x="549" 
d="M65 204v308h92v-302c0 -106 36 -149 103 -149c100 0 128 86 128 174v277h93v-512h-84l-6 77h-1c-21 -36 -61 -89 -152 -89c-112 0 -173 67 -173 216zM174 607l-48 7c15 74 50 96 80 96c48 0 91 -31 125 -31c16 0 27 10 37 42l47 -8c-16 -74 -48 -98 -80 -98
c-51 0 -93 31 -126 31c-16 0 -28 -12 -35 -39z" />
    <glyph glyph-name="Umacron" unicode="&#x16a;" horiz-adv-x="703" 
d="M210 799v69h271v-69h-271zM521 278v456h97v-477c0 -172 -93 -269 -271 -269c-189 0 -262 103 -262 271v475h97v-455c0 -143 50 -210 170 -210c117 0 169 63 169 209z" />
    <glyph glyph-name="umacron" unicode="&#x16b;" horiz-adv-x="549" 
d="M65 204v308h92v-302c0 -106 36 -149 103 -149c100 0 128 86 128 174v277h93v-512h-84l-6 77h-1c-21 -36 -61 -89 -152 -89c-112 0 -173 67 -173 216zM135 622v66h271v-66h-271z" />
    <glyph glyph-name="Ubreve" unicode="&#x16c;" horiz-adv-x="703" 
d="M203 900l56 11c16 -53 40 -74 87 -74c49 0 72 21 93 74l52 -11c-18 -88 -69 -131 -147 -131s-127 44 -141 131zM521 278v456h97v-477c0 -172 -93 -269 -271 -269c-189 0 -262 103 -262 271v475h97v-455c0 -143 50 -210 170 -210c117 0 169 63 169 209z" />
    <glyph glyph-name="ubreve" unicode="&#x16d;" horiz-adv-x="549" 
d="M65 204v308h92v-302c0 -106 36 -149 103 -149c100 0 128 86 128 174v277h93v-512h-84l-6 77h-1c-21 -36 -61 -89 -152 -89c-112 0 -173 67 -173 216zM130 725l56 7c10 -55 37 -85 85 -85c50 0 77 30 91 85l52 -7c-14 -96 -66 -144 -145 -144c-81 0 -129 49 -139 144z" />
    <glyph glyph-name="Uring" unicode="&#x16e;" horiz-adv-x="703" 
d="M521 278v456h97v-477c0 -172 -93 -269 -271 -269c-189 0 -262 103 -262 271v475h97v-455c0 -143 50 -210 170 -210c117 0 169 63 169 209zM344 761c-68 0 -97 36 -97 89c0 55 47 89 101 89c60 0 98 -33 98 -86c0 -56 -37 -92 -102 -92zM346 805c25 0 39 14 39 46
c0 33 -16 45 -38 45c-24 0 -42 -13 -42 -46c0 -32 14 -45 41 -45z" />
    <glyph glyph-name="uring" unicode="&#x16f;" horiz-adv-x="549" 
d="M269 576c-68 0 -97 36 -97 89c0 55 47 89 101 89c60 0 98 -33 98 -86c0 -56 -37 -92 -102 -92zM271 619c25 0 39 15 39 47c0 33 -16 45 -38 45c-24 0 -42 -13 -42 -46c0 -32 14 -46 41 -46zM65 204v308h92v-302c0 -106 36 -149 103 -149c100 0 128 86 128 174v277h93
v-512h-84l-6 77h-1c-21 -36 -61 -89 -152 -89c-112 0 -173 67 -173 216z" />
    <glyph glyph-name="Uhungarumlaut" unicode="&#x170;" horiz-adv-x="703" 
d="M521 278v456h97v-477c0 -172 -93 -269 -271 -269c-189 0 -262 103 -262 271v475h97v-455c0 -143 50 -210 170 -210c117 0 169 63 169 209zM516 919l41 -59l-160 -93l-26 39zM354 926l46 -58l-150 -100l-28 36z" />
    <glyph glyph-name="uhungarumlaut" unicode="&#x171;" horiz-adv-x="549" 
d="M65 204v308h92v-302c0 -106 36 -149 103 -149c100 0 128 86 128 174v277h93v-512h-84l-6 77h-1c-21 -36 -61 -89 -152 -89c-112 0 -173 67 -173 216zM414 752l55 -47l-144 -135l-33 31zM272 756l59 -45l-132 -140l-36 28z" />
    <glyph glyph-name="Uogonek" unicode="&#x172;" horiz-adv-x="703" 
d="M521 278v456h97v-477c0 -119 -48 -190 -123 -242c-48 -33 -94 -86 -94 -118c0 -22 12 -29 28 -29c21 0 33 17 45 38l44 -23c-25 -52 -63 -78 -112 -78c-45 0 -81 20 -81 65c0 44 29 83 75 122c-17 -2 -35 -4 -53 -4c-189 0 -262 103 -262 271v475h97v-455
c0 -143 50 -210 170 -210c117 0 169 63 169 209z" />
    <glyph glyph-name="uogonek" unicode="&#x173;" horiz-adv-x="549" 
d="M65 204v308h92v-302c0 -106 36 -149 103 -149c100 0 128 86 128 174v277h93v-512c-57 -30 -93 -72 -93 -103c0 -22 12 -29 28 -29c21 0 33 17 45 38l44 -23c-25 -52 -63 -78 -112 -78c-45 0 -81 20 -81 65c0 48 34 89 85 130l-6 77h-1c-21 -36 -61 -89 -152 -89
c-112 0 -173 67 -173 216z" />
    <glyph glyph-name="Wcircumflex" unicode="&#x174;" horiz-adv-x="925" 
d="M736 0h-125l-148 599h-5l-141 -599h-127l-179 734h102l139 -646h4l154 646h102l161 -646h3l140 646h98zM438 916h53l122 -117l-29 -36l-120 79l-120 -79l-28 36z" />
    <glyph glyph-name="wcircumflex" unicode="&#x175;" horiz-adv-x="780" 
d="M365 743h53l119 -142l-36 -33l-111 102l-108 -102l-37 33zM267 0h-94l-159 512h94l114 -407h1l117 407h103l119 -407h1l111 407h92l-158 -512h-96l-121 417h-1z" />
    <glyph glyph-name="Wgrave" unicode="&#x1e80;" horiz-adv-x="925" 
d="M345 851l43 69l162 -110l-27 -47zM736 0h-125l-148 599h-5l-141 -599h-127l-179 734h102l139 -646h4l154 646h102l161 -646h3l140 646h98z" />
    <glyph glyph-name="wgrave" unicode="&#x1e81;" horiz-adv-x="780" 
d="M267 0h-94l-159 512h94l114 -407h1l117 407h103l119 -407h1l111 407h92l-158 -512h-96l-121 417h-1zM279 702l60 53l124 -152l-38 -35z" />
    <glyph glyph-name="Wacute" unicode="&#x1e82;" horiz-adv-x="925" 
d="M541 920l41 -69l-178 -88l-26 47zM736 0h-125l-148 599h-5l-141 -599h-127l-179 734h102l139 -646h4l154 646h102l161 -646h3l140 646h98z" />
    <glyph glyph-name="wacute" unicode="&#x1e83;" horiz-adv-x="780" 
d="M438 756l60 -54l-146 -134l-38 35zM267 0h-94l-159 512h94l114 -407h1l117 407h103l119 -407h1l111 407h92l-158 -512h-96l-121 417h-1z" />
    <glyph glyph-name="Wdieresis" unicode="&#x1e84;" horiz-adv-x="925" 
d="M504 784v97h84v-97h-84zM340 784v97h84v-97h-84zM736 0h-125l-148 599h-5l-141 -599h-127l-179 734h102l139 -646h4l154 646h102l161 -646h3l140 646h98z" />
    <glyph glyph-name="wdieresis" unicode="&#x1e85;" horiz-adv-x="780" 
d="M431 612v98h84v-98h-84zM267 612v98h84v-98h-84zM267 0h-94l-159 512h94l114 -407h1l117 407h103l119 -407h1l111 407h92l-158 -512h-96l-121 417h-1z" />
    <glyph glyph-name="Ygrave" unicode="&#x1ef2;" horiz-adv-x="570" 
d="M334 283v-283h-97v278l-240 456h110l178 -359l186 359h103zM164 851l43 69l162 -110l-27 -47z" />
    <glyph glyph-name="ygrave" unicode="&#x1ef3;" horiz-adv-x="463" 
d="M455 512l-182 -513c-51 -147 -87 -194 -184 -194c-26 0 -57 5 -73 11l11 65c20 -5 30 -8 51 -8c54 0 75 35 104 121l3 10l-174 508h97l124 -406h1l128 406h94zM120 702l60 53l124 -152l-38 -35z" />
    <glyph glyph-name="Ycircumflex" unicode="&#x176;" horiz-adv-x="570" 
d="M334 283v-283h-97v278l-240 456h110l178 -359l186 359h103zM259 916h53l122 -117l-29 -36l-120 79l-120 -79l-28 36z" />
    <glyph glyph-name="ycircumflex" unicode="&#x177;" horiz-adv-x="463" 
d="M455 512l-182 -513c-51 -147 -87 -194 -184 -194c-26 0 -57 5 -73 11l11 65c20 -5 30 -8 51 -8c54 0 75 35 104 121l3 10l-174 508h97l124 -406h1l128 406h94zM208 743h53l119 -142l-36 -33l-111 102l-108 -102l-37 33z" />
    <glyph glyph-name="Ydieresis" unicode="&#x178;" horiz-adv-x="570" 
d="M334 283v-283h-97v278l-240 456h110l178 -359l186 359h103zM325 784v97h84v-97h-84zM161 784v97h84v-97h-84z" />
    <glyph glyph-name="Zacute" unicode="&#x179;" horiz-adv-x="550" 
d="M43 655v79h469v-74l-370 -581h370v-79h-480v74l368 581h-357zM353 920l41 -69l-178 -88l-26 47z" />
    <glyph glyph-name="zacute" unicode="&#x17a;" horiz-adv-x="437" 
d="M275 756l60 -54l-146 -134l-38 35zM39 437v75h371v-70l-274 -366h275v-76h-384v71l272 366h-260z" />
    <glyph glyph-name="Zdotaccent" unicode="&#x17b;" horiz-adv-x="550" 
d="M230 790v107h92v-107h-92zM43 655v79h469v-74l-370 -581h370v-79h-480v74l368 581h-357z" />
    <glyph glyph-name="zdotaccent" unicode="&#x17c;" horiz-adv-x="437" 
d="M39 437v75h371v-70l-274 -366h275v-76h-384v71l272 366h-260zM176 627v107h92v-107h-92z" />
    <glyph glyph-name="Zcaron" unicode="&#x17d;" horiz-adv-x="550" 
d="M303 766h-54l-122 113l29 37l120 -79l120 79l29 -37zM43 655v79h469v-74l-370 -581h370v-79h-480v74l368 581h-357z" />
    <glyph glyph-name="zcaron" unicode="&#x17e;" horiz-adv-x="437" 
d="M247 579h-53l-119 142l36 33l110 -103l109 103l37 -33zM39 437v75h371v-70l-274 -366h275v-76h-384v71l272 366h-260z" />
    <glyph glyph-name="longs" unicode="&#x17f;" horiz-adv-x="281" 
d="M322 734l-10 -70c-20 6 -42 11 -67 11c-58 0 -75 -38 -75 -111v-564h-92v554c0 119 37 192 159 192c35 0 67 -7 85 -12z" />
    <glyph glyph-name="dotlessj" unicode="&#x237;" horiz-adv-x="232" 
d="M-66 -184l10 67c21 -5 38 -8 59 -8c51 0 69 34 69 110v527h92v-516c0 -128 -43 -191 -155 -191c-27 0 -56 5 -75 11z" />
    <glyph glyph-name="circumflex" unicode="&#x2c6;" 
d="M224 743h53l119 -142l-36 -33l-111 102l-108 -102l-37 33z" />
    <glyph glyph-name="caron" unicode="&#x2c7;" 
d="M276 579h-53l-119 142l36 33l110 -103l109 103l37 -33z" />
    <glyph glyph-name="uni02C9" unicode="&#x2c9;" 
d="M114 622v66h271v-66h-271z" />
    <glyph glyph-name="breve" unicode="&#x2d8;" 
d="M109 725l56 7c10 -55 37 -85 85 -85c50 0 77 30 91 85l52 -7c-14 -96 -66 -144 -145 -144c-81 0 -129 49 -139 144z" />
    <glyph glyph-name="dieresis" unicode="&#xa8;" 
d="M290 612v98h84v-98h-84zM126 612v98h84v-98h-84z" />
    <glyph glyph-name="macron" unicode="&#xaf;" 
d="M114 622v66h271v-66h-271z" />
    <glyph glyph-name="degree" unicode="&#xb0;" horiz-adv-x="304" 
d="M150 527c-69 0 -110 41 -110 106c0 71 54 110 115 110c66 0 109 -38 109 -104c0 -71 -46 -112 -114 -112zM152 572c32 0 58 18 58 64c0 45 -27 62 -57 62c-31 0 -61 -18 -61 -63s26 -63 60 -63z" />
    <glyph glyph-name="acute" unicode="&#xb4;" 
d="M305 756l60 -54l-146 -134l-38 35z" />
    <glyph glyph-name="grave" unicode="`" 
d="M136 702l60 53l124 -152l-38 -35z" />
    <glyph glyph-name="cedilla" unicode="&#xb8;" 
d="M202 -84l35 84h50l-23 -51c9 4 18 6 29 6c46 0 79 -30 79 -80c0 -58 -48 -92 -110 -92c-33 0 -73 11 -101 49l34 34c18 -20 37 -31 61 -31c29 0 45 14 45 39c0 27 -17 39 -41 39c-12 0 -22 -5 -30 -10z" />
    <glyph glyph-name="dotaccent" unicode="&#x2d9;" 
d="M204 627v107h92v-107h-92z" />
    <glyph glyph-name="ring" unicode="&#x2da;" 
d="M248 576c-68 0 -97 36 -97 89c0 55 47 89 101 89c60 0 98 -33 98 -86c0 -56 -37 -92 -102 -92zM250 619c25 0 39 15 39 47c0 33 -16 45 -38 45c-24 0 -42 -13 -42 -46c0 -32 14 -46 41 -46z" />
    <glyph glyph-name="ogonek" unicode="&#x2db;" 
d="M225 7l59 -2c-42 -41 -78 -76 -78 -108c0 -22 12 -29 28 -29c21 0 33 17 45 38l44 -23c-25 -52 -63 -78 -112 -78c-45 0 -81 20 -81 65c0 50 38 93 95 137z" />
    <glyph glyph-name="tilde" unicode="&#x2dc;" 
d="M153 607l-48 7c15 74 50 96 80 96c48 0 91 -31 125 -31c16 0 27 10 37 42l47 -8c-16 -74 -48 -98 -80 -98c-51 0 -93 31 -126 31c-16 0 -28 -12 -35 -39z" />
    <glyph glyph-name="hungarumlaut" unicode="&#x2dd;" 
d="M403 752l55 -47l-144 -135l-33 31zM261 756l59 -45l-132 -140l-36 28z" />
    <glyph glyph-name="perthousand" unicode="&#x2030;" horiz-adv-x="1016" 
d="M22 560c0 104 62 174 167 174c106 0 153 -67 153 -168c0 -107 -52 -177 -162 -177c-109 0 -158 67 -158 171zM832 -11c-109 0 -158 67 -158 171s62 174 167 174c106 0 154 -67 154 -168c0 -107 -53 -177 -163 -177zM835 47c61 0 87 39 87 117c0 73 -23 113 -84 113
c-60 0 -92 -41 -92 -115c0 -72 28 -115 89 -115zM183 447c61 0 87 39 87 117c0 73 -24 112 -84 112s-92 -40 -92 -114c0 -73 28 -115 89 -115zM479 -11c-109 0 -158 67 -158 171s62 174 166 174c107 0 154 -67 154 -168c0 -107 -52 -177 -162 -177zM482 47
c61 0 87 39 87 117c0 73 -24 113 -84 113s-92 -41 -92 -115c0 -72 27 -115 89 -115zM103 161l-42 57l564 389l45 -54z" />
    <glyph glyph-name="percent" unicode="%" horiz-adv-x="838" 
d="M166 18l451 736l62 -34l-453 -739zM640 -11c-119 0 -173 76 -173 195s68 199 182 199c116 0 169 -76 169 -192c0 -122 -58 -202 -178 -202zM643 47c69 0 98 48 98 142c0 88 -26 135 -95 135c-68 0 -103 -49 -103 -137c0 -89 30 -140 100 -140zM193 340
c-119 0 -173 76 -173 195s68 199 183 199s168 -76 168 -192c0 -123 -58 -202 -178 -202zM197 398c68 0 98 48 98 141c0 89 -27 135 -96 135c-68 0 -103 -48 -103 -137c0 -88 31 -139 101 -139z" />
    <glyph glyph-name="fraction" unicode="&#x2044;" horiz-adv-x="198" 
d="M-158 18l451 736l62 -34l-452 -739z" />
    <glyph glyph-name="zerosuperior" unicode="&#x2070;" horiz-adv-x="465" 
d="M230 383c-125 0 -181 84 -181 233c0 151 71 237 191 237c122 0 177 -84 177 -229c0 -154 -61 -241 -187 -241zM233 446c74 0 104 56 104 175c0 112 -28 169 -100 169c-71 0 -108 -57 -108 -171c0 -113 28 -173 104 -173z" />
    <glyph glyph-name="onesuperior" unicode="&#xb9;" horiz-adv-x="260" 
d="M33 717l-17 61c31 11 89 42 122 68h51v-456h-78v363c-13 -8 -50 -26 -78 -36z" />
    <glyph glyph-name="twosuperior" unicode="&#xb2;" horiz-adv-x="384" 
d="M137 453h198v-63h-284c0 40 0 56 3 71c19 121 211 169 211 269c0 47 -34 65 -72 65c-64 0 -73 -45 -64 -100l-73 -4c-21 87 22 162 141 162c92 0 147 -45 147 -122c0 -135 -206 -179 -207 -278z" />
    <glyph glyph-name="threesuperior" unicode="&#xb3;" horiz-adv-x="389" 
d="M150 594l-7 58c74 1 117 21 117 79c0 46 -31 64 -74 64c-59 0 -76 -32 -65 -99l-73 -5c-20 88 21 162 141 162c90 0 151 -39 151 -114c0 -63 -43 -97 -97 -110c71 -14 105 -60 105 -113c0 -86 -62 -133 -155 -133c-114 0 -153 54 -157 141l76 5c5 -58 23 -88 83 -88
c38 0 74 22 74 75c0 61 -44 80 -119 78z" />
    <glyph glyph-name="foursuperior" unicode="&#x2074;" horiz-adv-x="376" 
d="M85 540h130v216h-2zM293 845v-305h57v-62h-57v-88h-78v88h-203v49l190 318h91z" />
    <glyph glyph-name="fivesuperior" unicode="&#x2075;" horiz-adv-x="390" 
d="M194 632c-36 0 -63 -21 -78 -45l-63 6l17 252h258v-64h-194l-13 -129c20 22 54 39 95 39c79 0 134 -51 134 -150c0 -94 -53 -158 -159 -158c-114 0 -143 64 -151 141l76 5c6 -64 31 -88 80 -88c43 0 75 30 75 95c0 71 -32 96 -77 96z" />
    <glyph glyph-name="sixsuperior" unicode="&#x2076;" horiz-adv-x="411" 
d="M224 795c-62 0 -91 -45 -97 -163c27 34 71 46 107 46c70 0 134 -43 134 -140c0 -101 -59 -155 -160 -155c-114 0 -160 61 -160 210c0 167 57 260 180 260c106 0 135 -60 130 -132l-74 -6c4 50 -11 80 -60 80zM209 623c-46 0 -84 -28 -84 -83c0 -56 21 -99 85 -99
c62 0 81 46 81 93c0 57 -25 89 -82 89z" />
    <glyph glyph-name="sevensuperior" unicode="&#x2077;" horiz-adv-x="331" 
d="M165 390h-81c5 164 55 286 138 391h-200v64h282v-46c-107 -131 -132 -254 -139 -409z" />
    <glyph glyph-name="eightsuperior" unicode="&#x2078;" horiz-adv-x="423" 
d="M207 383c-118 0 -164 55 -164 130c0 61 28 102 92 123c-48 17 -73 53 -73 101c0 70 57 116 154 116c98 0 143 -47 143 -111c0 -48 -26 -86 -75 -104c65 -17 96 -58 96 -118c0 -79 -52 -137 -173 -137zM208 441c62 0 94 34 94 85c0 46 -25 85 -90 85
c-60 0 -91 -34 -91 -88c0 -46 23 -82 87 -82zM210 664c54 0 71 34 71 70c0 35 -16 65 -69 65c-54 0 -71 -31 -71 -67c0 -37 17 -68 69 -68z" />
    <glyph glyph-name="ninesuperior" unicode="&#x2079;" horiz-adv-x="411" 
d="M197 442c63 0 89 55 94 162c-26 -34 -70 -46 -106 -46c-70 0 -137 40 -137 138s60 157 161 157c109 0 159 -59 159 -204c0 -172 -50 -266 -173 -266c-106 0 -143 58 -144 132l74 5c3 -55 22 -78 72 -78zM207 613c46 0 84 28 84 86c0 54 -21 96 -85 96
c-62 0 -80 -46 -80 -93c0 -57 24 -89 81 -89z" />
    <glyph glyph-name="zeroinferior" unicode="&#x2080;" horiz-adv-x="465" 
d="M230 -137c-125 0 -181 84 -181 233c0 151 71 237 191 237c122 0 177 -84 177 -229c0 -154 -61 -241 -187 -241zM233 -74c74 0 104 56 104 175c0 112 -28 169 -100 169c-71 0 -108 -57 -108 -171c0 -113 28 -173 104 -173z" />
    <glyph glyph-name="oneinferior" unicode="&#x2081;" horiz-adv-x="260" 
d="M33 197l-17 61c31 11 89 42 122 68h51v-456h-78v363c-13 -8 -50 -26 -78 -36z" />
    <glyph glyph-name="twoinferior" unicode="&#x2082;" horiz-adv-x="384" 
d="M137 -67h198v-63h-284c0 40 0 56 3 71c19 121 211 169 211 269c0 47 -34 65 -72 65c-64 0 -73 -45 -64 -100l-73 -4c-21 87 22 162 141 162c92 0 147 -45 147 -122c0 -135 -206 -179 -207 -278z" />
    <glyph glyph-name="threeinferior" unicode="&#x2083;" horiz-adv-x="389" 
d="M150 74l-7 58c74 1 117 21 117 79c0 46 -31 64 -74 64c-59 0 -76 -32 -65 -99l-73 -5c-20 88 21 162 141 162c90 0 151 -39 151 -114c0 -63 -43 -97 -97 -110c71 -14 105 -60 105 -113c0 -86 -62 -133 -155 -133c-114 0 -153 54 -157 141l76 5c5 -58 23 -88 83 -88
c38 0 74 22 74 75c0 61 -44 80 -119 78z" />
    <glyph glyph-name="fourinferior" unicode="&#x2084;" horiz-adv-x="376" 
d="M85 20h130v216h-2zM293 325v-305h57v-62h-57v-88h-78v88h-203v49l190 318h91z" />
    <glyph glyph-name="fiveinferior" unicode="&#x2085;" horiz-adv-x="390" 
d="M194 112c-36 0 -63 -21 -78 -45l-63 6l17 252h258v-64h-194l-13 -129c20 22 54 39 95 39c79 0 134 -51 134 -150c0 -94 -53 -158 -159 -158c-114 0 -143 64 -151 141l76 5c6 -64 31 -88 80 -88c43 0 75 30 75 95c0 71 -32 96 -77 96z" />
    <glyph glyph-name="sixinferior" unicode="&#x2086;" horiz-adv-x="411" 
d="M224 275c-62 0 -91 -45 -97 -163c27 34 71 46 107 46c70 0 134 -43 134 -140c0 -101 -59 -155 -160 -155c-114 0 -160 61 -160 210c0 167 57 260 180 260c106 0 135 -60 130 -132l-74 -6c4 50 -11 80 -60 80zM209 103c-46 0 -84 -28 -84 -83c0 -56 21 -99 85 -99
c62 0 81 46 81 93c0 57 -25 89 -82 89z" />
    <glyph glyph-name="seveninferior" unicode="&#x2087;" horiz-adv-x="331" 
d="M165 -130h-81c5 164 55 286 138 391h-200v64h282v-46c-107 -131 -132 -254 -139 -409z" />
    <glyph glyph-name="eightinferior" unicode="&#x2088;" horiz-adv-x="423" 
d="M207 -137c-118 0 -164 55 -164 130c0 61 28 102 92 123c-48 17 -73 53 -73 101c0 70 57 116 154 116c98 0 143 -47 143 -111c0 -48 -26 -86 -75 -104c65 -17 96 -58 96 -118c0 -79 -52 -137 -173 -137zM208 -79c62 0 94 34 94 85c0 46 -25 85 -90 85
c-60 0 -91 -34 -91 -88c0 -46 23 -82 87 -82zM210 144c54 0 71 34 71 70c0 35 -16 65 -69 65c-54 0 -71 -31 -71 -67c0 -37 17 -68 69 -68z" />
    <glyph glyph-name="nineinferior" unicode="&#x2089;" horiz-adv-x="411" 
d="M197 -78c63 0 89 55 94 162c-26 -34 -70 -46 -106 -46c-70 0 -137 40 -137 138s60 157 161 157c109 0 159 -59 159 -204c0 -172 -50 -266 -173 -266c-106 0 -143 58 -144 132l74 5c3 -55 22 -78 72 -78zM207 93c46 0 84 28 84 86c0 54 -21 96 -85 96
c-62 0 -80 -46 -80 -93c0 -57 24 -89 81 -89z" />
    <glyph glyph-name="zero.num" horiz-adv-x="465" 
d="M230 271c-125 0 -181 84 -181 233c0 151 71 237 191 237c122 0 177 -84 177 -229c0 -154 -61 -241 -187 -241zM233 334c74 0 104 56 104 175c0 112 -28 169 -100 169c-71 0 -108 -57 -108 -171c0 -113 28 -173 104 -173z" />
    <glyph glyph-name="one.num" horiz-adv-x="260" 
d="M33 605l-17 61c31 11 89 42 122 68h51v-456h-78v363c-13 -8 -50 -26 -78 -36z" />
    <glyph glyph-name="two.num" horiz-adv-x="384" 
d="M137 341h198v-63h-284c0 40 0 56 3 71c19 121 211 169 211 269c0 47 -34 65 -72 65c-64 0 -73 -45 -64 -100l-73 -4c-21 87 22 162 141 162c92 0 147 -45 147 -122c0 -135 -206 -179 -207 -278z" />
    <glyph glyph-name="three.num" horiz-adv-x="389" 
d="M150 482l-7 58c74 1 117 21 117 79c0 46 -31 64 -74 64c-59 0 -76 -32 -65 -99l-73 -5c-20 88 21 162 141 162c90 0 151 -39 151 -114c0 -63 -43 -97 -97 -110c71 -14 105 -60 105 -113c0 -86 -62 -133 -155 -133c-114 0 -153 54 -157 141l76 5c5 -58 23 -88 83 -88
c38 0 74 22 74 75c0 61 -44 80 -119 78z" />
    <glyph glyph-name="four.num" horiz-adv-x="376" 
d="M85 428h130v216h-2zM293 733v-305h57v-62h-57v-88h-78v88h-203v49l190 318h91z" />
    <glyph glyph-name="five.num" horiz-adv-x="390" 
d="M194 520c-36 0 -63 -21 -78 -45l-63 6l17 252h258v-64h-194l-13 -129c20 22 54 39 95 39c79 0 134 -51 134 -150c0 -94 -53 -158 -159 -158c-114 0 -143 64 -151 141l76 5c6 -64 31 -88 80 -88c43 0 75 30 75 95c0 71 -32 96 -77 96z" />
    <glyph glyph-name="six.num" horiz-adv-x="411" 
d="M224 683c-62 0 -91 -45 -97 -163c27 34 71 46 107 46c70 0 134 -43 134 -140c0 -101 -59 -155 -160 -155c-114 0 -160 61 -160 210c0 167 57 260 180 260c106 0 135 -60 130 -132l-74 -6c4 50 -11 80 -60 80zM209 511c-46 0 -84 -28 -84 -83c0 -56 21 -99 85 -99
c62 0 81 46 81 93c0 57 -25 89 -82 89z" />
    <glyph glyph-name="seven.num" horiz-adv-x="331" 
d="M165 278h-81c5 164 55 286 138 391h-200v64h282v-46c-107 -131 -132 -254 -139 -409z" />
    <glyph glyph-name="eight.num" horiz-adv-x="423" 
d="M207 271c-118 0 -164 55 -164 130c0 61 28 102 92 123c-48 17 -73 53 -73 101c0 70 57 116 154 116c98 0 143 -47 143 -111c0 -48 -26 -86 -75 -104c65 -17 96 -58 96 -118c0 -79 -52 -137 -173 -137zM208 329c62 0 94 34 94 85c0 46 -25 85 -90 85
c-60 0 -91 -34 -91 -88c0 -46 23 -82 87 -82zM210 552c54 0 71 34 71 70c0 35 -16 65 -69 65c-54 0 -71 -31 -71 -67c0 -37 17 -68 69 -68z" />
    <glyph glyph-name="nine.num" horiz-adv-x="411" 
d="M197 330c63 0 89 55 94 162c-26 -34 -70 -46 -106 -46c-70 0 -137 40 -137 138s60 157 161 157c109 0 159 -59 159 -204c0 -172 -50 -266 -173 -266c-106 0 -143 58 -144 132l74 5c3 -55 22 -78 72 -78zM207 501c46 0 84 28 84 86c0 54 -21 96 -85 96
c-62 0 -80 -46 -80 -93c0 -57 24 -89 81 -89z" />
    <glyph glyph-name="zero.denom" horiz-adv-x="465" 
d="M230 -7c-125 0 -181 84 -181 233c0 151 71 237 191 237c122 0 177 -84 177 -229c0 -154 -61 -241 -187 -241zM233 56c74 0 104 56 104 175c0 112 -28 169 -100 169c-71 0 -108 -57 -108 -171c0 -113 28 -173 104 -173z" />
    <glyph glyph-name="one.denom" horiz-adv-x="260" 
d="M33 327l-17 61c31 11 89 42 122 68h51v-456h-78v363c-13 -8 -50 -26 -78 -36z" />
    <glyph glyph-name="two.denom" horiz-adv-x="384" 
d="M137 63h198v-63h-284c0 40 0 56 3 71c19 121 211 169 211 269c0 47 -34 65 -72 65c-64 0 -73 -45 -64 -100l-73 -4c-21 87 22 162 141 162c92 0 147 -45 147 -122c0 -135 -206 -179 -207 -278z" />
    <glyph glyph-name="three.denom" horiz-adv-x="389" 
d="M150 204l-7 58c74 1 117 21 117 79c0 46 -31 64 -74 64c-59 0 -76 -32 -65 -99l-73 -5c-20 88 21 162 141 162c90 0 151 -39 151 -114c0 -63 -43 -97 -97 -110c71 -14 105 -60 105 -113c0 -86 -62 -133 -155 -133c-114 0 -153 54 -157 141l76 5c5 -58 23 -88 83 -88
c38 0 74 22 74 75c0 61 -44 80 -119 78z" />
    <glyph glyph-name="four.denom" horiz-adv-x="376" 
d="M85 150h130v216h-2zM293 455v-305h57v-62h-57v-88h-78v88h-203v49l190 318h91z" />
    <glyph glyph-name="five.denom" horiz-adv-x="390" 
d="M194 242c-36 0 -63 -21 -78 -45l-63 6l17 252h258v-64h-194l-13 -129c20 22 54 39 95 39c79 0 134 -51 134 -150c0 -94 -53 -158 -159 -158c-114 0 -143 64 -151 141l76 5c6 -64 31 -88 80 -88c43 0 75 30 75 95c0 71 -32 96 -77 96z" />
    <glyph glyph-name="six.denom" horiz-adv-x="411" 
d="M224 405c-62 0 -91 -45 -97 -163c27 34 71 46 107 46c70 0 134 -43 134 -140c0 -101 -59 -155 -160 -155c-114 0 -160 61 -160 210c0 167 57 260 180 260c106 0 135 -60 130 -132l-74 -6c4 50 -11 80 -60 80zM209 233c-46 0 -84 -28 -84 -83c0 -56 21 -99 85 -99
c62 0 81 46 81 93c0 57 -25 89 -82 89z" />
    <glyph glyph-name="seven.denom" horiz-adv-x="331" 
d="M165 0h-81c5 164 55 286 138 391h-200v64h282v-46c-107 -131 -132 -254 -139 -409z" />
    <glyph glyph-name="eight.denom" horiz-adv-x="423" 
d="M207 -7c-118 0 -164 55 -164 130c0 61 28 102 92 123c-48 17 -73 53 -73 101c0 70 57 116 154 116c98 0 143 -47 143 -111c0 -48 -26 -86 -75 -104c65 -17 96 -58 96 -118c0 -79 -52 -137 -173 -137zM208 51c62 0 94 34 94 85c0 46 -25 85 -90 85c-60 0 -91 -34 -91 -88
c0 -46 23 -82 87 -82zM210 274c54 0 71 34 71 70c0 35 -16 65 -69 65c-54 0 -71 -31 -71 -67c0 -37 17 -68 69 -68z" />
    <glyph glyph-name="nine.denom" horiz-adv-x="411" 
d="M197 52c63 0 89 55 94 162c-26 -34 -70 -46 -106 -46c-70 0 -137 40 -137 138s60 157 161 157c109 0 159 -59 159 -204c0 -172 -50 -266 -173 -266c-106 0 -143 58 -144 132l74 5c3 -55 22 -78 72 -78zM207 223c46 0 84 28 84 86c0 54 -21 96 -85 96
c-62 0 -80 -46 -80 -93c0 -57 24 -89 81 -89z" />
    <glyph glyph-name="onehalf" unicode="&#xbd;" horiz-adv-x="960" 
d="M842 63h-198c1 99 207 143 207 278c0 77 -55 122 -147 122c-119 0 -162 -75 -141 -162l73 4c-9 55 0 100 64 100c38 0 72 -18 72 -65c0 -100 -192 -148 -211 -269c-3 -15 -3 -31 -3 -71h284v63zM84 605l-17 61c31 11 89 42 122 68h51v-456h-78v363
c-13 -8 -50 -26 -78 -36zM169 18l451 736l62 -34l-452 -739z" />
    <glyph glyph-name="onequarter" unicode="&#xbc;" horiz-adv-x="960" 
d="M564 150h130v216h-2zM772 455v-305h57v-62h-57v-88h-78v88h-203v49l190 318h91zM79 605l-17 61c31 11 89 42 122 68h51v-456h-78v363c-13 -8 -50 -26 -78 -36zM166 18l451 736l62 -34l-452 -739z" />
    <glyph glyph-name="threequarters" unicode="&#xbe;" horiz-adv-x="960" 
d="M623 150h130v216h-2zM831 455v-305h57v-62h-57v-88h-78v88h-203v49l190 318h91zM158 540l7 -58c75 2 119 -17 119 -78c0 -53 -36 -75 -74 -75c-60 0 -78 30 -83 88l-76 -5c4 -87 43 -141 157 -141c93 0 155 47 155 133c0 53 -34 99 -105 113c54 13 97 47 97 110
c0 75 -61 114 -151 114c-120 0 -161 -74 -141 -162l73 5c-11 67 6 99 65 99c43 0 74 -18 74 -64c0 -58 -43 -78 -117 -79zM236 18l451 736l62 -34l-452 -739z" />
    <glyph glyph-name="onethird" unicode="&#x2153;" horiz-adv-x="960" 
d="M663 262l7 -58c75 2 119 -17 119 -78c0 -53 -36 -75 -74 -75c-60 0 -78 30 -83 88l-76 -5c4 -87 43 -141 157 -141c93 0 155 47 155 133c0 53 -34 99 -105 113c54 13 97 47 97 110c0 75 -61 114 -151 114c-120 0 -161 -74 -141 -162l73 5c-11 67 6 99 65 99
c43 0 74 -18 74 -64c0 -58 -43 -78 -117 -79zM68 605l-17 61c31 11 89 42 122 68h51v-456h-78v363c-13 -8 -50 -26 -78 -36zM153 18l451 736l62 -34l-452 -739z" />
    <glyph glyph-name="twothirds" unicode="&#x2154;" horiz-adv-x="960" 
d="M706 262l7 -58c75 2 119 -17 119 -78c0 -53 -36 -75 -74 -75c-60 0 -78 30 -83 88l-76 -5c4 -87 43 -141 157 -141c93 0 155 47 155 133c0 53 -34 99 -105 113c54 13 97 47 97 110c0 75 -61 114 -151 114c-120 0 -161 -74 -141 -162l73 5c-11 67 6 99 65 99
c43 0 74 -18 74 -64c0 -58 -43 -78 -117 -79zM337 341h-198c1 99 207 143 207 278c0 77 -55 122 -147 122c-119 0 -162 -75 -141 -162l73 4c-9 55 0 100 64 100c38 0 72 -18 72 -65c0 -100 -192 -148 -211 -269c-3 -15 -3 -31 -3 -71h284v63zM221 18l451 736l62 -34
l-452 -739z" />
    <glyph glyph-name="zero.slash" horiz-adv-x="580" 
d="M286 -12c-173 0 -250 136 -250 377c0 243 100 382 266 382c168 0 241 -136 241 -368c0 -250 -81 -391 -257 -391zM292 65c105 0 148 96 154 266h-313c6 -168 51 -266 159 -266zM297 669c-103 0 -156 -95 -163 -259h312c-5 164 -47 259 -149 259z" />
    <glyph glyph-name="zero.tf" horiz-adv-x="580" 
d="M286 -12c-173 0 -250 136 -250 377c0 243 100 382 266 382c168 0 241 -136 241 -368c0 -250 -81 -391 -257 -391zM292 65c114 0 155 112 155 308c0 187 -40 296 -150 296c-111 0 -164 -111 -164 -300c0 -191 43 -304 159 -304z" />
    <glyph glyph-name="one.tf" horiz-adv-x="580" 
d="M121 0v80h142v535c-24 -19 -90 -51 -140 -70l-19 77c62 25 143 70 191 113h63v-655h129v-80h-366z" />
    <glyph glyph-name="two.tf" horiz-adv-x="580" 
d="M179 79h314v-79h-416c0 8 -1 19 -1 32c0 23 2 49 4 65c26 207 329 274 329 452c0 91 -61 121 -126 121c-110 0 -125 -81 -111 -174l-89 -6c-30 137 31 257 207 257c135 0 216 -74 216 -197c0 -221 -332 -294 -327 -471z" />
    <glyph glyph-name="three.tf" horiz-adv-x="580" 
d="M234 341l-7 74c111 1 183 36 183 138c0 83 -55 117 -130 117c-103 0 -129 -65 -113 -173l-89 -7c-29 136 31 257 206 257c131 0 223 -61 223 -186c0 -98 -65 -155 -147 -175c108 -21 159 -101 159 -183c0 -139 -92 -215 -226 -215c-173 0 -228 94 -235 228l93 6
c7 -102 39 -157 143 -157c62 0 128 34 128 136c0 109 -70 144 -188 140z" />
    <glyph glyph-name="four.tf" horiz-adv-x="580" 
d="M135 238h218v373h-3zM446 734v-496h92v-81h-92v-157h-93v157h-312v64l299 513h106z" />
    <glyph glyph-name="five.tf" horiz-adv-x="580" 
d="M286 408c-60 0 -108 -39 -132 -80l-73 8l23 398h381v-81h-302l-20 -234c31 36 83 67 148 67c123 0 206 -87 206 -246c0 -147 -79 -252 -234 -252c-166 0 -210 104 -222 228l91 6c11 -110 53 -157 137 -157c74 0 131 53 131 171c0 124 -56 172 -134 172z" />
    <glyph glyph-name="six.tf" horiz-adv-x="580" 
d="M323 670c-109 0 -156 -83 -167 -291c47 61 117 81 173 81c108 0 204 -73 204 -227c0 -151 -84 -245 -235 -245c-168 0 -237 96 -237 340c0 271 85 419 266 419c157 0 197 -101 189 -211l-89 -8c6 89 -23 142 -104 142zM299 388c-76 0 -142 -48 -142 -144
c0 -99 35 -179 145 -179c101 0 136 78 136 164c0 100 -41 159 -139 159z" />
    <glyph glyph-name="seven.tf" horiz-adv-x="580" 
d="M281 0h-100c10 268 85 471 219 653h-322v81h422v-62c-164 -215 -210 -423 -219 -672z" />
    <glyph glyph-name="eight.tf" horiz-adv-x="580" 
d="M284 -12c-173 0 -242 89 -242 211c0 98 43 162 135 198c-67 28 -106 85 -106 162c0 113 86 188 225 188c143 0 211 -76 211 -180c0 -77 -39 -138 -111 -166c96 -30 141 -95 141 -191c0 -128 -77 -222 -253 -222zM284 65c104 0 159 60 159 150c0 79 -42 149 -152 149
c-103 0 -154 -63 -154 -154c0 -81 39 -145 147 -145zM288 434c92 0 124 58 124 124c0 63 -29 115 -121 115c-93 0 -124 -52 -124 -118s32 -121 121 -121z" />
    <glyph glyph-name="nine.tf" horiz-adv-x="580" 
d="M266 65c109 0 149 100 158 291c-43 -60 -112 -81 -168 -81c-109 0 -209 68 -209 222c0 150 84 250 235 250c160 0 236 -93 236 -326c0 -281 -74 -433 -255 -433c-157 0 -209 97 -210 211l89 8c6 -103 41 -142 124 -142zM281 347c76 0 142 48 142 153
c0 94 -36 170 -145 170c-101 0 -136 -78 -136 -164c0 -100 41 -159 139 -159z" />
    <glyph glyph-name="dollar.tf" horiz-adv-x="580" 
d="M249 797h82v-74c118 -14 178 -95 188 -216l-87 -14c-8 83 -38 134 -101 150v-233c97 -23 199 -52 199 -190c0 -119 -80 -193 -199 -208v-76h-82v74c-135 9 -204 75 -217 223l91 14c9 -92 36 -147 126 -158v251c-96 21 -193 50 -193 190c0 115 82 180 193 193v74zM435 209
c0 69 -45 95 -104 112v-231c70 12 104 55 104 119zM152 537c0 -63 41 -89 97 -107v215c-62 -9 -97 -44 -97 -108z" />
    <glyph glyph-name="Euro.tf" horiz-adv-x="580" 
d="M331 67c90 0 133 64 145 157l86 -9c-22 -158 -109 -227 -236 -227c-140 0 -222 88 -245 264h-74l12 70h56c-1 13 -1 27 -1 41c0 12 0 25 1 37h-48l12 70h42c29 188 134 278 269 278c137 0 214 -99 214 -247l-85 -7c-6 135 -58 174 -135 174c-80 0 -146 -56 -167 -198h218
l-12 -70h-212v-34c0 -16 0 -30 1 -44h203l-12 -70h-185c17 -123 67 -185 153 -185z" />
    <glyph glyph-name="cent.tf" horiz-adv-x="580" 
d="M256 692h82v-82c112 -13 158 -93 163 -185l-80 -6c-6 67 -37 106 -83 118v-386c46 11 71 48 80 111l79 -5c-14 -115 -78 -165 -159 -178v-83h-82v82c-138 16 -190 123 -190 259c0 153 70 250 190 271v84zM161 342c0 -103 29 -170 95 -189v382c-60 -19 -95 -81 -95 -193z
" />
    <glyph glyph-name="sterling.tf" horiz-adv-x="580" 
d="M64 330v71h72c-26 39 -49 84 -49 145c0 113 82 201 229 201c145 0 227 -91 201 -253l-88 7c15 132 -34 170 -118 170c-77 0 -130 -43 -130 -121c0 -61 29 -106 58 -149h193v-71h-152c9 -20 14 -40 14 -63c0 -61 -33 -111 -108 -188h329v-79h-425v79
c79 77 114 128 114 179c0 26 -9 49 -21 72h-119z" />
    <glyph glyph-name="yen.tf" horiz-adv-x="580" 
d="M452 334h-113v-70h113v-71h-113v-193h-97v193h-127v71h127v70h-127v71h92l-184 329h110l157 -312l164 312h102l-186 -329h82v-71z" />
    <glyph glyph-name="florin.tf" horiz-adv-x="580" 
d="M126 385l13 69h99l20 114c19 114 62 178 183 178c37 0 69 -9 87 -15l-20 -67c-20 6 -41 11 -66 11c-58 0 -83 -38 -95 -111l-20 -110h125l-13 -69h-124l-61 -351c-19 -111 -64 -174 -185 -174c-37 0 -68 9 -84 14l19 68c20 -6 41 -11 66 -11c56 0 81 37 94 108l61 346
h-99z" />
    <glyph glyph-name="comma.tf" horiz-adv-x="282" 
d="M92 0v118h104v-102l-58 -147l-45 13l29 118h-30z" />
    <glyph glyph-name="period.tf" horiz-adv-x="290" 
d="M96 0v118h99v-118h-99z" />
    <glyph glyph-name="perthousand.tf" horiz-adv-x="580" 
d="M22 393h532v-57h-532v57zM149 -10c-84 0 -127 60 -127 151c0 93 55 155 134 155s125 -55 125 -149c0 -95 -47 -157 -132 -157zM429 -10c-85 0 -126 61 -126 151c0 93 53 155 133 155c81 0 124 -59 124 -149c0 -95 -48 -157 -131 -157zM432 42c43 0 64 38 64 103
s-19 99 -61 99c-44 0 -68 -35 -68 -101c0 -61 20 -101 65 -101zM149 432c-83 0 -127 59 -127 152c0 92 54 154 134 154c82 0 124 -59 124 -149c0 -92 -46 -157 -131 -157zM153 42c42 0 63 37 63 103c0 65 -18 99 -61 99s-67 -35 -67 -101c0 -62 20 -101 65 -101zM152 484
c41 0 64 38 64 104c0 64 -18 98 -64 98c-40 0 -65 -34 -65 -100c0 -65 21 -102 65 -102z" />
    <glyph glyph-name="percent.tf" horiz-adv-x="580" 
d="M62 393h452v-57h-452v57zM285 -10c-85 0 -127 61 -127 151c0 93 54 155 134 155c81 0 124 -59 124 -149c0 -95 -48 -157 -131 -157zM288 42c43 0 64 38 64 103s-20 99 -62 99c-43 0 -67 -35 -67 -101c0 -61 19 -101 65 -101zM285 432c-83 0 -126 59 -126 152
c0 92 53 154 133 154c83 0 124 -59 124 -149c0 -92 -46 -157 -131 -157zM288 484c41 0 64 38 64 104c0 64 -18 98 -64 98c-40 0 -65 -34 -65 -100c0 -65 21 -102 65 -102z" />
    <glyph glyph-name="minus" unicode="&#x2212;" horiz-adv-x="580" 
d="M482 295h-385v66h385v-66z" />
    <glyph glyph-name="approxequal" unicode="&#x2248;" horiz-adv-x="580" 
d="M134 142l-46 30c20 54 59 98 114 98c30 0 66 -12 95 -24c24 -10 56 -24 79 -24c32 0 55 27 69 54l46 -29c-20 -48 -58 -94 -111 -94c-13 0 -41 2 -96 25c-44 17 -63 23 -79 23c-34 0 -54 -26 -71 -59zM135 320l-46 30c20 54 59 98 114 98c30 0 66 -12 95 -24
c24 -10 56 -24 79 -24c32 0 55 27 69 54l46 -29c-20 -48 -58 -94 -111 -94c-13 0 -41 2 -96 25c-44 17 -63 23 -79 23c-34 0 -54 -26 -71 -59z" />
    <glyph glyph-name="notequal" unicode="&#x2260;" horiz-adv-x="580" 
d="M482 202h-215l-52 -102h-64l53 102h-107v66h141l43 83h-184v65h217l45 88h61l-45 -88h107v-65h-140l-42 -83h182v-66z" />
    <glyph glyph-name="lessequal" unicode="&#x2264;" horiz-adv-x="580" 
d="M483 0h-385v66h385v-66zM482 96l-385 141v90l385 154v-77l-316 -120l316 -111v-77z" />
    <glyph glyph-name="greaterequal" unicode="&#x2265;" horiz-adv-x="580" 
d="M482 0h-385v66h385v-66zM97 481l385 -141v-90l-385 -154v78l316 119l-316 112v76z" />
    <glyph glyph-name="less" unicode="&#x3c;" horiz-adv-x="580" 
d="M482 97l-385 141v91l385 154v-78l-316 -120l316 -111v-77z" />
    <glyph glyph-name="equal" unicode="=" horiz-adv-x="580" 
d="M482 202h-385v66h385v-66zM482 351h-385v65h385v-65z" />
    <glyph glyph-name="greater" unicode="&#x3e;" horiz-adv-x="580" 
d="M97 483l385 -141v-91l-385 -154v78l316 120l-316 111v77z" />
    <glyph glyph-name="logicalnot" unicode="&#xac;" horiz-adv-x="580" 
d="M482 168h-72v127h-313v66h385v-193z" />
    <glyph glyph-name="plus" unicode="+" horiz-adv-x="580" 
d="M482 295h-160v-160h-66v160h-159v66h159v159h66v-159h160v-66z" />
    <glyph glyph-name="plusminus" unicode="&#xb1;" horiz-adv-x="580" 
d="M482 295h-160v-160h-66v160h-159v66h159v159h66v-159h160v-66zM482 0h-385v66h385v-66z" />
    <glyph glyph-name="divide" unicode="&#xf7;" horiz-adv-x="580" 
d="M482 295h-385v66h385v-66zM240 399v113h92v-113h-92zM240 140v112h92v-112h-92z" />
    <glyph glyph-name="multiply" unicode="&#xd7;" 
d="M409 441l-114 -114l114 -113l-47 -46l-113 113l-113 -113l-46 47l112 112l-112 113l46 47l113 -113l113 113z" />
    <glyph glyph-name="partialdiff" unicode="&#x2202;" horiz-adv-x="555" 
d="M412 388c3 149 -14 275 -128 275c-55 0 -107 -21 -145 -44l-28 59c44 30 119 56 178 56c168 0 211 -154 211 -305c0 -157 -23 -441 -253 -441c-157 0 -199 121 -199 230c0 131 54 256 214 256c62 0 114 -31 150 -86zM395 257c0 86 -42 148 -125 148
c-108 0 -132 -97 -132 -186c0 -84 24 -156 117 -156c96 0 140 101 140 194z" />
    <glyph glyph-name="Omega" unicode="&#x2126;" horiz-adv-x="841" 
d="M569 111v-37h168v-74h-243v137c73 30 158 104 158 276c0 178 -91 252 -223 252c-127 0 -239 -76 -239 -268c0 -163 68 -225 158 -260v-137h-252v74h177v37c-137 53 -187 156 -187 289c0 199 129 347 345 347c225 0 325 -149 325 -326c0 -140 -67 -249 -187 -310z" />
    <glyph glyph-name="Delta" unicode="&#x2206;" horiz-adv-x="682" 
d="M657 0h-631l251 734h125zM338 649l-187 -565h374l-186 565h-1z" />
    <glyph glyph-name="product" unicode="&#x220f;" horiz-adv-x="758" 
d="M641 734v-895h-98v814h-327v-814h-99v895h524z" />
    <glyph glyph-name="summation" unicode="&#x2211;" horiz-adv-x="627" 
d="M374 278l-239 -374h437v-80h-540v78l236 378l-214 377v77h516v-80h-410z" />
    <glyph glyph-name="uni0394" unicode="&#x394;" horiz-adv-x="682" 
d="M657 0h-631l251 734h125zM338 649l-187 -565h374l-186 565h-1z" />
    <glyph glyph-name="uni03A9" unicode="&#x3a9;" horiz-adv-x="841" 
d="M569 111v-37h168v-74h-243v137c73 30 158 104 158 276c0 178 -91 252 -223 252c-127 0 -239 -76 -239 -268c0 -163 68 -225 158 -260v-137h-252v74h177v37c-137 53 -187 156 -187 289c0 199 129 347 345 347c225 0 325 -149 325 -326c0 -140 -67 -249 -187 -310z" />
    <glyph glyph-name="uni03BC" unicode="&#x3bc;" horiz-adv-x="631" 
d="M108 -176v687h89v-315c0 -86 14 -135 87 -135c92 0 150 74 150 190v260h88v-511h-77l-14 87c-43 -62 -91 -91 -168 -91c-31 0 -56 6 -74 20l-3 -3l12 -189h-90z" />
    <glyph glyph-name="pi" unicode="&#x3c0;" horiz-adv-x="651" 
d="M542 512v-512h-91v441h-250v-441h-92v512h433z" />
    <glyph glyph-name="mu" unicode="&#xb5;" horiz-adv-x="631" 
d="M108 -176v687h89v-315c0 -86 14 -135 87 -135c92 0 150 74 150 190v260h88v-511h-77l-14 87c-43 -62 -91 -91 -168 -91c-31 0 -56 6 -74 20l-3 -3l12 -189h-90z" />
    <glyph glyph-name="radical" unicode="&#x221a;" horiz-adv-x="580" 
d="M355 0h-83l-141 258l-75 -32l-25 62l144 62l131 -258l173 654l71 -15z" />
    <glyph glyph-name="infinity" unicode="&#x221e;" horiz-adv-x="673" 
d="M489 188c-77 0 -118 52 -152 90c-33 -35 -81 -91 -157 -91c-63 0 -128 41 -128 129c0 78 55 135 139 135c69 0 113 -47 153 -90c35 39 81 90 152 90c66 0 126 -41 126 -135c0 -72 -59 -128 -133 -128zM185 240c52 0 95 55 119 82c-32 39 -67 75 -116 75
c-42 0 -69 -37 -69 -75s18 -82 66 -82zM378 318c32 -36 61 -76 109 -76c41 0 67 39 67 78c0 35 -15 78 -63 78c-46 0 -77 -41 -113 -80z" />
    <glyph glyph-name="integral" unicode="&#x222b;" horiz-adv-x="411" 
d="M360 733l-2 -69c-21 6 -43 11 -69 11c-57 0 -69 -38 -60 -111l69 -568c12 -96 -12 -179 -133 -179c-36 0 -70 8 -88 13l-1 69c21 -6 43 -10 69 -10c56 0 70 37 61 107l-70 567c-11 91 9 183 132 183c37 0 73 -8 92 -13z" />
    <glyph glyph-name="lozenge" unicode="&#x25ca;" horiz-adv-x="571" 
d="M327 46h-83l-169 324l169 324h83l169 -324zM285 110l131 260l-131 260l-130 -260z" />
    <glyph glyph-name="commaaccent" 
d="M203 -146v100h93v-85l-42 -112l-44 11l22 86h-29z" />
    <glyph glyph-name="revcommaaccent" 
d="M297 680v-100h-94v85l43 112l43 -11l-21 -86h29z" />
    <glyph glyph-name="tilde.cap" 
d="M154 782l-48 7c15 74 50 96 80 96c48 0 91 -31 125 -31c16 0 27 10 37 42l46 -8c-15 -74 -47 -98 -79 -98c-52 0 -93 31 -126 31c-16 0 -28 -12 -35 -39z" />
    <glyph glyph-name="ring.cap" 
d="M248 761c-68 0 -97 36 -97 89c0 55 47 89 101 89c60 0 98 -33 98 -86c0 -56 -37 -92 -102 -92zM250 805c25 0 39 14 39 46c0 33 -16 45 -38 45c-24 0 -42 -13 -42 -46c0 -32 14 -45 41 -45z" />
    <glyph glyph-name="circumflex.cap" 
d="M224 916h53l122 -117l-29 -36l-120 79l-120 -79l-28 36z" />
    <glyph glyph-name="acute.cap" 
d="M327 920l41 -69l-178 -88l-26 47z" />
    <glyph glyph-name="grave.cap" 
d="M131 851l43 69l162 -110l-27 -47z" />
    <glyph glyph-name="dieresis.cap" 
d="M290 784v97h84v-97h-84zM126 784v97h84v-97h-84z" />
    <glyph glyph-name="caron.cap" 
d="M277 766h-54l-122 113l29 37l120 -79l120 79l29 -37z" />
    <glyph glyph-name="macron.cap" 
d="M114 799v69h271v-69h-271z" />
    <glyph glyph-name="dotaccent.cap" 
d="M204 790v107h92v-107h-92z" />
    <glyph glyph-name="cedilla.cap" 
d="M202 -84l35 84h50l-23 -51c9 4 18 6 29 6c46 0 79 -30 79 -80c0 -58 -48 -92 -110 -92c-33 0 -73 11 -101 49l34 34c18 -20 37 -31 61 -31c29 0 45 14 45 39c0 27 -17 39 -41 39c-12 0 -22 -5 -30 -10z" />
    <glyph glyph-name="hungarumlaut.cap" 
d="M442 919l41 -59l-160 -93l-26 39zM280 926l46 -58l-150 -100l-28 36z" />
    <glyph glyph-name="apostrophe" unicode="&#x2bc;" 
d="M296 713v-100h-29l22 -86l-43 -11l-43 112v85h93z" />
    <glyph glyph-name="commaaccent.cap" 
d="M203 -146v100h93v-85l-42 -112l-44 11l22 86h-29z" />
    <glyph glyph-name="breve.cap" 
d="M107 900l56 11c16 -53 40 -74 87 -74c49 0 72 21 93 74l52 -11c-18 -88 -69 -131 -147 -131s-127 44 -141 131z" />
    <glyph glyph-name="caron.alt" 
d="M218 734h78l-28 -196l-49 2z" />
    <glyph glyph-name="thinspace" unicode="&#x2009;" horiz-adv-x="125" 
 />
    </font>
</defs>
</svg>
